<svg width="208" height="81" viewBox="0 0 208 81" fill="none" xmlns="http://www.w3.org/2000/svg">
<g id="logo " clip-path="url(#clip0_295_1426)">
<path id="Vector" d="M9.75999 20.33C7.14197 24.6551 5.58191 29.5372 5.20672 34.579C4.83154 39.6209 5.65182 44.6801 7.60084 49.3451C9.54987 54.0101 12.5726 58.1491 16.4231 61.4254C20.2736 64.7018 24.8431 67.0229 29.76 68.2C30.0779 68.2787 30.3744 68.4267 30.6283 68.6335C30.8822 68.8403 31.0873 69.1006 31.2287 69.396C31.3702 69.6913 31.4445 70.0143 31.4465 70.3417C31.4484 70.6692 31.3779 70.993 31.24 71.29C31.0273 71.7523 30.6609 72.1265 30.2032 72.3489C29.7455 72.5714 29.2249 72.6283 28.73 72.51C26.3548 71.9363 24.0432 71.1255 21.83 70.09L21.24 69.8C16.8172 67.7553 12.8474 64.8478 9.56349 61.2481C6.27955 57.6485 3.74765 53.4292 2.11635 48.8378C0.485041 44.2465 -0.212813 39.3755 0.0637495 34.5109C0.340312 29.6462 1.58571 24.8857 3.72687 20.5088C5.86802 16.1319 8.86182 12.2268 12.5326 9.0225C16.2033 5.81823 20.4771 3.37938 25.1031 1.84908C29.7291 0.318777 34.6141 -0.272159 39.4716 0.110937C44.3291 0.494032 49.0611 1.84345 53.39 4.08001C55.4286 5.06857 57.3675 6.25067 59.18 7.61001C59.5855 7.91415 59.8729 8.34952 59.9932 8.84188C60.1136 9.33424 60.0594 9.85311 59.84 10.31C59.7021 10.6063 59.5001 10.8684 59.2487 11.0773C58.9973 11.2862 58.7027 11.4367 58.3861 11.518C58.0695 11.5993 57.7388 11.6094 57.4178 11.5475C57.0969 11.4856 56.7937 11.3532 56.53 11.16C52.9318 8.47727 48.8119 6.57738 44.4353 5.58256C40.0587 4.58773 35.5224 4.52001 31.1181 5.38373C26.7137 6.24746 22.539 8.0235 18.8623 10.5976C15.1856 13.1718 12.0884 16.487 9.77 20.33H9.75999Z" fill="#1B3867"/>
<path id="Vector_2" d="M38.95 34.28H14.54C14.4479 34.3005 14.3524 34.3 14.2605 34.2786C14.1686 34.2572 14.0827 34.2155 14.0091 34.1564C13.9355 34.0974 13.8761 34.0226 13.8353 33.9375C13.7945 33.8525 13.7733 33.7593 13.7733 33.665C13.7733 33.5707 13.7945 33.4775 13.8353 33.3925C13.8761 33.3074 13.9355 33.2326 14.0091 33.1736C14.0827 33.1146 14.1686 33.0728 14.2605 33.0514C14.3524 33.03 14.4479 33.0295 14.54 33.05H38.94C39.0321 33.0295 39.1276 33.03 39.2195 33.0514C39.3114 33.0728 39.3973 33.1146 39.4709 33.1736C39.5444 33.2326 39.6038 33.3074 39.6447 33.3925C39.6855 33.4775 39.7066 33.5707 39.7066 33.665C39.7066 33.7593 39.6855 33.8525 39.6447 33.9375C39.6038 34.0226 39.5444 34.0974 39.4709 34.1564C39.3973 34.2155 39.3114 34.2572 39.2195 34.2786C39.1276 34.3 39.0321 34.3005 38.94 34.28H38.95Z" fill="#E43955"/>
<path id="Vector_3" d="M39.3899 35.6C39.0094 35.6001 38.6413 35.4646 38.3517 35.2177C38.0621 34.9709 37.8699 34.6289 37.8097 34.2532C37.7495 33.8774 37.8252 33.4925 38.0232 33.1676C38.2211 32.8426 38.5284 32.5988 38.8899 32.48L53.8899 27.57C54.2665 27.5061 54.6534 27.579 54.9809 27.7755C55.3083 27.972 55.5547 28.2792 55.6755 28.6415C55.7962 29.0038 55.7834 29.3973 55.6394 29.751C55.4953 30.1047 55.2295 30.3952 54.8899 30.57L39.8899 35.48C39.7305 35.5456 39.5618 35.5861 39.3899 35.6Z" fill="#E43955"/>
<path id="Vector_4" d="M39.64 69.6C39.4233 69.5935 39.2099 69.5444 39.0122 69.4555C38.8145 69.3665 38.6363 69.2395 38.4877 69.0816C38.3391 68.9237 38.223 68.7381 38.1462 68.5353C38.0694 68.3326 38.0333 68.1167 38.04 67.9V35.06C38.04 34.8499 38.0814 34.6418 38.1618 34.4477C38.2422 34.2536 38.36 34.0772 38.5086 33.9286C38.6572 33.7801 38.8335 33.6622 39.0277 33.5818C39.2218 33.5014 39.4299 33.46 39.64 33.46C39.8501 33.46 40.0582 33.5014 40.2523 33.5818C40.4464 33.6622 40.6228 33.7801 40.7713 33.9286C40.9199 34.0772 41.0378 34.2536 41.1182 34.4477C41.1986 34.6418 41.24 34.8499 41.24 35.06L41.29 67.89C41.2966 68.1113 41.259 68.3318 41.1792 68.5383C41.0994 68.7448 40.9791 68.9333 40.8253 69.0927C40.6716 69.252 40.4875 69.379 40.2839 69.4661C40.0803 69.5533 39.8614 69.5988 39.64 69.6Z" fill="#E43955"/>
<path id="Vector_5" d="M12.19 29.07H11.97C11.8119 29.0471 11.66 28.9925 11.5234 28.9096C11.3868 28.8266 11.2683 28.717 11.1749 28.5873C11.0816 28.4576 11.0154 28.3104 10.9802 28.1545C10.945 27.9986 10.9415 27.8372 10.97 27.68C10.97 27.52 13.97 12.22 32.34 8.09C32.6503 8.02145 32.9751 8.07875 33.2432 8.24935C33.5113 8.41994 33.7007 8.6899 33.77 9C33.8054 9.15371 33.8097 9.31291 33.783 9.46834C33.7563 9.62377 33.6989 9.77234 33.6142 9.9054C33.5295 10.0385 33.4192 10.1534 33.2898 10.2434C33.1603 10.3335 33.0142 10.3969 32.86 10.43C16.07 14.2 13.43 27.54 13.33 28.1C13.2764 28.3661 13.1348 28.6065 12.928 28.7824C12.7212 28.9584 12.4613 29.0597 12.19 29.07Z" fill="#E43955"/>
<path id="Vector_6" d="M81.87 51.92C81.5735 51.6127 81.1773 51.4208 80.7523 51.3787C80.3273 51.3365 79.9011 51.4469 79.55 51.69C77.9461 52.7915 76.0458 53.3808 74.1 53.38C68.82 53.38 65.18 49.66 65.18 44.28C65.18 38.9 68.82 35.19 74.1 35.19C75.9543 35.1487 77.772 35.7102 79.28 36.79C79.6206 37.0456 80.0395 37.1744 80.4648 37.1543C80.8901 37.1343 81.2951 36.9665 81.61 36.68L81.71 36.59C81.9064 36.4112 82.0606 36.191 82.1613 35.9453C82.2621 35.6996 82.3069 35.4346 82.2926 35.1694C82.2782 34.9042 82.205 34.6455 82.0783 34.4122C81.9516 34.1788 81.7746 33.9765 81.56 33.82C79.3535 32.2083 76.6822 31.3588 73.95 31.4C66.35 31.4 61 36.71 61 44.28C61 51.85 66.31 57.16 74 57.16C76.771 57.2229 79.4909 56.4073 81.77 54.83C81.9848 54.6804 82.1645 54.4861 82.2969 54.2603C82.4293 54.0345 82.5111 53.7827 82.5368 53.5222C82.5625 53.2618 82.5314 52.9989 82.4456 52.7516C82.3598 52.5044 82.2214 52.2786 82.04 52.09L81.87 51.92Z" fill="#1B3867"/>
<path id="Vector_7" d="M88.71 31.9C88.1795 31.9 87.6708 32.1107 87.2957 32.4858C86.9207 32.8609 86.71 33.3696 86.71 33.9V54.71C86.71 55.2404 86.9207 55.7491 87.2957 56.1242C87.6708 56.4993 88.1795 56.71 88.71 56.71C89.2404 56.71 89.7491 56.4993 90.1242 56.1242C90.4992 55.7491 90.71 55.2404 90.71 54.71V33.88C90.7047 33.353 90.4917 32.8495 90.1172 32.4787C89.7427 32.1079 89.2369 31.9 88.71 31.9Z" fill="#1B3867"/>
<path id="Vector_8" d="M111.24 39.19C110.772 39.1873 110.323 39.3699 109.989 39.6978C109.656 40.0257 109.465 40.4723 109.46 40.94V41.12C109.46 41.1515 109.45 41.1822 109.432 41.2077C109.413 41.2332 109.387 41.2523 109.357 41.2623C109.328 41.2723 109.295 41.2726 109.265 41.2632C109.235 41.2538 109.209 41.2352 109.19 41.21C108.397 40.4062 107.445 39.7767 106.394 39.3617C105.344 38.9467 104.219 38.7554 103.09 38.8C97.9601 38.8 94.42 42.55 94.42 47.93C94.42 53.31 97.9601 57.06 103.09 57.06C104.213 57.0983 105.332 56.906 106.378 56.495C107.423 56.0839 108.374 55.4628 109.17 54.67C109.193 54.6468 109.223 54.6308 109.255 54.6239C109.287 54.617 109.32 54.6195 109.351 54.6312C109.381 54.6428 109.408 54.663 109.427 54.6894C109.447 54.7158 109.458 54.7473 109.46 54.78V54.91C109.46 55.3821 109.648 55.8348 109.981 56.1686C110.315 56.5025 110.768 56.69 111.24 56.69C111.712 56.69 112.165 56.5025 112.499 56.1686C112.833 55.8348 113.02 55.3821 113.02 54.91V41C113.024 40.7637 112.981 40.529 112.893 40.3096C112.806 40.0902 112.675 39.8904 112.509 39.7219C112.344 39.5534 112.146 39.4196 111.928 39.3283C111.71 39.237 111.476 39.19 111.24 39.19ZM103.71 53.45C102.612 53.4839 101.528 53.1891 100.598 52.6035C99.6685 52.0179 98.9346 51.1681 98.4907 50.1629C98.0467 49.1577 97.9128 48.0428 98.1062 46.9611C98.2996 45.8794 98.8115 44.88 99.5763 44.0909C100.341 43.3018 101.324 42.759 102.399 42.5318C103.474 42.3047 104.593 42.4036 105.611 42.8159C106.63 43.2283 107.502 43.9352 108.117 44.8463C108.731 45.7574 109.06 46.8311 109.06 47.93C109.106 48.6525 109.001 49.3767 108.751 50.0561C108.501 50.7354 108.111 51.355 107.608 51.8748C107.104 52.3947 106.497 52.8034 105.825 53.0747C105.154 53.346 104.434 53.4738 103.71 53.45Z" fill="#1B3867"/>
<path id="Vector_9" d="M124.56 46.12C122.01 45.84 120.98 45.24 120.98 44.12C120.98 42.84 122.33 42.12 124.84 42.12C126.118 42.1136 127.383 42.3795 128.55 42.9C128.956 43.0843 129.418 43.0999 129.835 42.9433C130.253 42.7867 130.591 42.4708 130.775 42.065C130.959 41.6592 130.975 41.1968 130.818 40.7796C130.662 40.3623 130.346 40.0243 129.94 39.84C128.279 39.1019 126.477 38.7334 124.66 38.76C120.13 38.76 117.09 40.92 117.09 44.11C117.09 47.11 119.67 49.06 124.24 49.48C126.93 49.77 128.06 50.37 128.06 51.61C128.06 52.85 126.79 53.61 124.56 53.61C122.867 53.6213 121.195 53.2343 119.68 52.48C119.309 52.2876 118.879 52.2414 118.475 52.3506C118.071 52.4599 117.723 52.7166 117.5 53.07V53.12C117.377 53.3109 117.295 53.5247 117.257 53.7484C117.22 53.9722 117.228 54.2012 117.281 54.4218C117.334 54.6423 117.431 54.8498 117.567 55.0316C117.703 55.2135 117.874 55.366 118.07 55.48C120.03 56.5759 122.244 57.1379 124.49 57.11C129.02 57.11 132.03 54.92 132.03 51.66C132.03 48.4 129.72 46.69 124.56 46.12Z" fill="#1B3867"/>
<path id="Vector_10" d="M142.25 46.12C139.7 45.84 138.68 45.24 138.68 44.12C138.68 42.84 140.02 42.12 142.53 42.12C143.811 42.114 145.079 42.3799 146.25 42.9C146.452 43.0022 146.674 43.0623 146.9 43.0768C147.126 43.0912 147.353 43.0597 147.567 42.9841C147.781 42.9085 147.977 42.7904 148.144 42.6369C148.311 42.4834 148.445 42.2976 148.538 42.0909C148.632 41.8841 148.682 41.6606 148.687 41.4339C148.691 41.2071 148.65 40.9818 148.565 40.7715C148.48 40.5611 148.353 40.3702 148.193 40.2101C148.032 40.05 147.841 39.9241 147.63 39.84C145.972 39.103 144.174 38.7345 142.36 38.76C137.83 38.76 134.78 40.92 134.78 44.11C134.78 47.11 137.37 49.06 141.93 49.48C144.62 49.77 145.75 50.37 145.75 51.61C145.75 52.85 144.48 53.61 142.25 53.61C140.557 53.6191 138.886 53.2322 137.37 52.48C136.999 52.2876 136.569 52.2414 136.165 52.3506C135.762 52.4599 135.414 52.7166 135.19 53.07V53.12C135.065 53.3101 134.98 53.5239 134.94 53.7482C134.901 53.9725 134.909 54.2025 134.962 54.4239C135.015 54.6452 135.114 54.8533 135.251 55.0349C135.388 55.2166 135.562 55.3681 135.76 55.48C137.717 56.576 139.927 57.1381 142.17 57.11C146.7 57.11 149.71 54.92 149.71 51.66C149.71 48.4 147.39 46.69 142.25 46.12Z" fill="#1B3867"/>
<path id="Vector_11" d="M165.12 32.94C165.117 32.6606 165.004 32.3936 164.806 32.1969C164.607 32.0003 164.339 31.89 164.06 31.89H149.58C149.318 31.9155 149.075 32.0377 148.898 32.2328C148.721 32.4278 148.623 32.6817 148.623 32.945C148.623 33.2083 148.721 33.4622 148.898 33.6572C149.075 33.8523 149.318 33.9745 149.58 34H155.14C155.208 34 155.276 34.0134 155.339 34.0396C155.402 34.0657 155.459 34.104 155.508 34.1523C155.556 34.2006 155.594 34.2579 155.62 34.321C155.646 34.3841 155.66 34.4517 155.66 34.52V55.52C155.66 55.825 155.781 56.1175 155.997 56.3332C156.212 56.5488 156.505 56.67 156.81 56.67C157.115 56.67 157.407 56.5488 157.623 56.3332C157.839 56.1175 157.96 55.825 157.96 55.52V34.52C157.96 34.4509 157.974 34.3824 158 34.3187C158.027 34.2549 158.066 34.1971 158.116 34.1487C158.165 34.1003 158.224 34.0622 158.288 34.0367C158.352 34.0111 158.421 33.9987 158.49 34H164.06C164.341 34 164.611 33.8883 164.809 33.6895C165.008 33.4907 165.12 33.2211 165.12 32.94Z" fill="#E43955"/>
<path id="Vector_12" d="M178.8 39C178.582 39.0022 178.37 39.0702 178.192 39.1952C178.013 39.3201 177.877 39.4961 177.8 39.7L172.69 53.09C172.608 53.3059 172.537 53.5262 172.48 53.75C172.43 53.95 172.37 54.15 172.31 54.35L172.13 53.65C172.06 53.41 172 53.2 171.93 53.02L167.12 39.71C167.045 39.5042 166.909 39.3261 166.73 39.1993C166.552 39.0725 166.339 39.003 166.12 39H165.99C165.815 39.0011 165.643 39.0448 165.489 39.1271C165.334 39.2094 165.202 39.3279 165.104 39.4725C165.006 39.6171 164.944 39.7834 164.924 39.9572C164.904 40.1309 164.927 40.3069 164.99 40.47L170.99 56.02C171.145 56.3946 171.145 56.8154 170.99 57.19L169.7 60.19C169.405 60.9764 168.929 61.6822 168.31 62.25C167.786 62.7037 167.113 62.9493 166.42 62.94C166.15 62.94 165.83 62.94 165.63 62.94C165.39 62.974 165.17 63.0941 165.012 63.2781C164.853 63.4621 164.768 63.6973 164.77 63.94C164.769 64.1951 164.867 64.4408 165.041 64.6267C165.216 64.8126 165.455 64.9247 165.71 64.94C165.95 64.94 166.2 64.94 166.47 64.94C167.681 64.9652 168.854 64.5167 169.74 63.69C170.799 62.5911 171.61 61.2784 172.12 59.84L179.91 40.41C179.965 40.2413 179.977 40.0616 179.946 39.887C179.915 39.7124 179.841 39.5482 179.731 39.4088C179.621 39.2694 179.479 39.1592 179.317 39.0879C179.154 39.0166 178.977 38.9864 178.8 39Z" fill="#E43955"/>
<path id="Vector_13" d="M202.08 38.56C200.879 38.5474 199.701 38.8958 198.7 39.56C197.822 40.1559 197.093 40.9464 196.57 41.87C196.552 41.8989 196.527 41.9228 196.497 41.9394C196.468 41.9559 196.434 41.9646 196.4 41.9646C196.366 41.9646 196.333 41.9559 196.303 41.9394C196.273 41.9228 196.248 41.8989 196.23 41.87L195.55 40.87C195.243 40.4037 194.862 39.9914 194.42 39.65C193.974 39.304 193.474 39.0337 192.94 38.85C192.369 38.66 191.771 38.5654 191.17 38.57C190.045 38.5433 188.936 38.8377 187.973 39.4186C187.009 39.9995 186.231 40.8429 185.73 41.85H185.66V40C185.66 39.7348 185.555 39.4804 185.367 39.2929C185.18 39.1054 184.925 39 184.66 39H184.43C184.165 39 183.91 39.1054 183.723 39.2929C183.535 39.4804 183.43 39.7348 183.43 40V55.72C183.43 55.9852 183.535 56.2396 183.723 56.4271C183.91 56.6146 184.165 56.72 184.43 56.72H184.66C184.925 56.72 185.18 56.6146 185.367 56.4271C185.555 56.2396 185.66 55.9852 185.66 55.72V46.57C185.653 45.7338 185.771 44.9013 186.01 44.1C186.227 43.4087 186.565 42.7618 187.01 42.19C187.408 41.677 187.913 41.2571 188.49 40.96C189.054 40.6626 189.683 40.5113 190.32 40.52C193.16 40.52 194.59 42.37 194.59 46.08V55.72C194.59 55.9852 194.695 56.2396 194.883 56.4271C195.07 56.6146 195.325 56.72 195.59 56.72H195.82C196.085 56.72 196.34 56.6146 196.527 56.4271C196.715 56.2396 196.82 55.9852 196.82 55.72V46.48C196.811 45.6815 196.936 44.8872 197.19 44.13C197.41 43.4461 197.748 42.8063 198.19 42.24C198.598 41.7171 199.113 41.2875 199.7 40.98C200.262 40.6761 200.891 40.5179 201.53 40.52C202.171 40.5036 202.809 40.6088 203.41 40.83C203.926 41.0349 204.373 41.3816 204.7 41.83C205.073 42.3675 205.328 42.9774 205.45 43.62C205.633 44.5045 205.717 45.4068 205.7 46.31V55.72C205.7 55.9852 205.805 56.2396 205.993 56.4271C206.18 56.6146 206.435 56.72 206.7 56.72H206.93C207.195 56.72 207.45 56.6146 207.637 56.4271C207.825 56.2396 207.93 55.9852 207.93 55.72V45.79C207.91 40.97 205.96 38.56 202.08 38.56Z" fill="#E43955"/>
<path id="Vector_14" d="M72.3899 74C72.3587 73.3692 72.4595 72.7389 72.6858 72.1492C72.912 71.5596 73.2588 71.0237 73.704 70.5757C74.1492 70.1277 74.6829 69.7775 75.2711 69.5475C75.8593 69.3176 76.489 69.2128 77.12 69.24C77.7291 69.2308 78.3336 69.3468 78.8961 69.5807C79.4586 69.8146 79.967 70.1616 80.3899 70.6L79.8499 71.1C79.4905 70.7364 79.0598 70.451 78.5849 70.2617C78.1099 70.0724 77.601 69.9833 77.09 70C76.0291 70 75.0117 70.4214 74.2615 71.1716C73.5114 71.9217 73.09 72.9391 73.09 74C73.09 75.0609 73.5114 76.0783 74.2615 76.8284C75.0117 77.5786 76.0291 78 77.09 78C78.1414 78.0009 79.1508 77.5877 79.8999 76.85L80.4199 77.38C79.9828 77.8191 79.4619 78.1657 78.8881 78.3994C78.3143 78.633 77.6994 78.7488 77.0799 78.74C76.454 78.7613 75.8305 78.6529 75.2485 78.4216C74.6665 78.1902 74.1387 77.841 73.6982 77.3958C73.2577 76.9507 72.9141 76.4191 72.6889 75.8347C72.4638 75.2503 72.362 74.6257 72.3899 74Z" fill="#FDFDFD"/>
<path id="Vector_15" d="M81.74 75.32C81.7439 74.6583 81.9437 74.0126 82.3142 73.4643C82.6847 72.9161 83.2093 72.4898 83.8217 72.2393C84.4342 71.9888 85.1072 71.9253 85.7557 72.0568C86.4042 72.1883 86.9992 72.5089 87.4657 72.9782C87.9322 73.4475 88.2493 74.0445 88.377 74.6938C88.5046 75.343 88.4371 76.0156 88.183 76.6266C87.9288 77.2375 87.4995 77.7595 86.949 78.1268C86.3985 78.494 85.7517 78.69 85.09 78.69C84.6438 78.707 84.1989 78.6313 83.7834 78.4677C83.3679 78.3041 82.9909 78.0562 82.6761 77.7395C82.3613 77.4228 82.1156 77.0443 81.9544 76.6279C81.7933 76.2114 81.7203 75.7661 81.74 75.32ZM87.6899 75.32C87.6762 74.809 87.5121 74.3133 87.2182 73.8951C86.9242 73.4768 86.5135 73.1545 86.0374 72.9684C85.5612 72.7823 85.0408 72.7407 84.5412 72.8488C84.0415 72.9569 83.5848 73.2099 83.2281 73.5761C82.8715 73.9424 82.6308 74.4056 82.536 74.908C82.4412 75.4103 82.4966 75.9295 82.6953 76.4005C82.894 76.8715 83.2271 77.2735 83.653 77.5562C84.0789 77.8389 84.5788 77.9898 85.09 77.99C85.4394 77.9972 85.7865 77.9326 86.1099 77.8C86.4332 77.6675 86.7259 77.4699 86.9697 77.2196C87.2135 76.9692 87.4033 76.6714 87.5272 76.3446C87.6511 76.0178 87.7065 75.6691 87.6899 75.32Z" fill="#FDFDFD"/>
<path id="Vector_16" d="M96.3 74.86V78.56H95.55V74.9C95.582 74.6135 95.5516 74.3235 95.461 74.0498C95.3704 73.7761 95.2217 73.5252 95.0251 73.3144C94.8285 73.1035 94.5886 72.9377 94.322 72.8282C94.0553 72.7187 93.7681 72.6681 93.48 72.68C93.1698 72.6675 92.8603 72.719 92.5708 72.8314C92.2813 72.9438 92.0182 73.1147 91.7977 73.3333C91.5772 73.5519 91.4041 73.8136 91.2892 74.1021C91.1743 74.3906 91.1201 74.6997 91.13 75.01V78.56H90.39V72.08H91.07V73.25C91.3427 72.847 91.7133 72.5199 92.1472 72.2995C92.581 72.0791 93.0637 71.9725 93.55 71.99C93.9282 71.9642 94.3075 72.0218 94.661 72.1587C95.0145 72.2956 95.3337 72.5084 95.5959 72.7821C95.8582 73.0558 96.0572 73.3838 96.1789 73.7428C96.3005 74.1019 96.3419 74.4832 96.3 74.86Z" fill="#FDFDFD"/>
<path id="Vector_17" d="M104.52 74.86V78.56H103.77V74.9C103.802 74.6126 103.772 74.3217 103.68 74.0473C103.589 73.7729 103.44 73.5215 103.242 73.3104C103.044 73.0994 102.803 72.9338 102.535 72.8249C102.267 72.7161 101.979 72.6666 101.69 72.68C101.385 72.6745 101.082 72.7309 100.799 72.8458C100.516 72.9607 100.259 73.1317 100.044 73.3485C99.8293 73.5653 99.6605 73.8234 99.5481 74.1073C99.4356 74.3911 99.3819 74.6948 99.39 75V78.55H98.64V72.07H99.32V73.24C99.5933 72.8376 99.9641 72.5111 100.398 72.2908C100.831 72.0704 101.314 71.9635 101.8 71.98C102.177 71.9586 102.554 72.0198 102.904 72.1593C103.255 72.2988 103.571 72.5132 103.83 72.7875C104.089 73.0618 104.285 73.3894 104.404 73.7474C104.523 74.1054 104.563 74.4851 104.52 74.86Z" fill="#FDFDFD"/>
<path id="Vector_18" d="M112.92 75.61H107.14C107.146 75.9383 107.219 76.262 107.353 76.5617C107.487 76.8614 107.68 77.1309 107.921 77.354C108.162 77.5772 108.446 77.7495 108.755 77.8604C109.064 77.9714 109.392 78.0189 109.72 78C110.148 78.0048 110.572 77.9181 110.963 77.7456C111.355 77.5731 111.705 77.3189 111.99 77L112.5 77.45C112.151 77.8462 111.72 78.1608 111.236 78.3716C110.752 78.5825 110.228 78.6844 109.7 78.67C109.254 78.686 108.809 78.6088 108.394 78.4431C107.98 78.2775 107.604 78.0271 107.291 77.7081C106.979 77.389 106.737 77.0083 106.58 76.5902C106.423 76.1721 106.355 75.7259 106.38 75.28C106.353 74.8395 106.419 74.3982 106.573 73.9844C106.726 73.5707 106.965 73.1936 107.272 72.8774C107.58 72.5611 107.951 72.3125 108.36 72.1477C108.77 71.9828 109.209 71.9053 109.65 71.92C110.125 71.8869 110.602 71.9635 111.043 72.1438C111.484 72.3241 111.878 72.6033 112.194 72.9598C112.51 73.3164 112.739 73.7409 112.865 74.2004C112.991 74.6598 113.01 75.1421 112.92 75.61ZM107.14 74.95H112.2C112.2 74.6268 112.133 74.307 112.002 74.0114C111.871 73.7157 111.68 73.4507 111.441 73.2332C111.202 73.0157 110.92 72.8506 110.613 72.7484C110.306 72.6463 109.982 72.6094 109.66 72.64C109.338 72.6253 109.017 72.675 108.715 72.7864C108.414 72.8977 108.137 73.0685 107.902 73.2884C107.667 73.5084 107.479 73.7731 107.348 74.0671C107.217 74.3611 107.146 74.6783 107.14 75V74.95Z" fill="#FDFDFD"/>
<path id="Vector_19" d="M114.39 75.32C114.386 74.6566 114.578 74.0068 114.943 73.453C115.309 72.8992 115.83 72.4663 116.442 72.2092C117.053 71.9522 117.728 71.8825 118.379 72.009C119.03 72.1355 119.629 72.4526 120.1 72.92L119.63 73.42C119.318 73.1229 118.937 72.9065 118.522 72.7896C118.107 72.6727 117.67 72.6589 117.249 72.7492C116.827 72.8395 116.434 73.0313 116.103 73.308C115.773 73.5846 115.514 73.9378 115.351 74.3368C115.188 74.7358 115.124 75.1686 115.166 75.5977C115.208 76.0268 115.354 76.4392 115.591 76.7991C115.829 77.159 116.15 77.4556 116.528 77.6631C116.906 77.8707 117.329 77.9829 117.76 77.99C118.118 77.9945 118.474 77.927 118.805 77.7912C119.137 77.6555 119.438 77.4545 119.69 77.2L120.17 77.72C119.856 78.0399 119.481 78.2933 119.067 78.4651C118.653 78.6369 118.208 78.7236 117.76 78.72C117.31 78.7387 116.861 78.6632 116.442 78.4986C116.022 78.3339 115.642 78.0836 115.325 77.7636C115.008 77.4437 114.761 77.0611 114.6 76.6404C114.439 76.2196 114.367 75.7699 114.39 75.32Z" fill="#FDFDFD"/>
<path id="Vector_20" d="M125.92 78.34C125.504 78.5505 125.046 78.6666 124.58 78.68C123.21 78.68 122.73 77.91 122.73 76.56V72.75H121.39V72.08H122.76V70.22L123.49 70.14V72.08H125.66V72.75H123.49V76.56C123.49 77.41 123.7 78 124.65 78C124.999 77.9709 125.339 77.8723 125.65 77.71L125.92 78.34Z" fill="#FDFDFD"/>
<path id="Vector_21" d="M135.13 69.38H135.91V77.82H141.08V78.56H135.13V69.38Z" fill="#FDFDFD"/>
<path id="Vector_22" d="M148.39 75.61H142.62C142.625 75.9379 142.696 76.2613 142.829 76.561C142.962 76.8606 143.155 77.1302 143.395 77.3535C143.635 77.5768 143.918 77.7492 144.226 77.8603C144.535 77.9714 144.863 78.0189 145.19 78C145.618 78.0048 146.042 77.9181 146.433 77.7456C146.825 77.5731 147.175 77.3189 147.46 77L147.97 77.45C147.622 77.8467 147.19 78.1617 146.706 78.3726C146.222 78.5835 145.698 78.685 145.17 78.67C144.724 78.686 144.279 78.6088 143.864 78.4431C143.45 78.2775 143.074 78.0271 142.762 77.7081C142.449 77.389 142.207 77.0083 142.05 76.5902C141.893 76.1721 141.825 75.7259 141.85 75.28C141.823 74.8395 141.889 74.3982 142.043 73.9844C142.196 73.5707 142.435 73.1936 142.743 72.8774C143.05 72.5611 143.421 72.3125 143.83 72.1477C144.24 71.9828 144.679 71.9053 145.12 71.92C145.595 71.8869 146.072 71.9635 146.513 72.1438C146.954 72.3241 147.348 72.6033 147.664 72.9598C147.98 73.3164 148.209 73.7409 148.335 74.2004C148.461 74.6598 148.48 75.1421 148.39 75.61ZM142.62 74.95H147.67C147.67 74.6268 147.603 74.307 147.472 74.0114C147.341 73.7157 147.15 73.4507 146.911 73.2332C146.672 73.0157 146.39 72.8506 146.083 72.7484C145.777 72.6463 145.452 72.6094 145.13 72.64C144.812 72.6293 144.495 72.6823 144.198 72.7957C143.901 72.9092 143.629 73.0808 143.399 73.3006C143.169 73.5204 142.985 73.784 142.858 74.0758C142.731 74.3676 142.664 74.6818 142.66 75L142.62 74.95Z" fill="#FDFDFD"/>
<path id="Vector_23" d="M156.49 72.08V78.56H155.79V77.28C155.506 77.7313 155.108 78.0988 154.635 78.3449C154.162 78.591 153.632 78.7066 153.1 78.68C152.209 78.68 151.354 78.326 150.724 77.6959C150.094 77.0658 149.74 76.2111 149.74 75.32C149.74 74.4289 150.094 73.5742 150.724 72.9441C151.354 72.314 152.209 71.96 153.1 71.96C153.634 71.9354 154.165 72.0541 154.638 72.3038C155.111 72.5535 155.509 72.925 155.79 73.38V72.08H156.49ZM155.74 75.32C155.72 74.8164 155.553 74.3297 155.259 73.9204C154.965 73.5112 154.557 73.1974 154.086 73.0181C153.615 72.8388 153.102 72.802 152.61 72.9122C152.118 73.0223 151.67 73.2747 151.32 73.6378C150.971 74.0008 150.736 74.4586 150.644 74.9542C150.553 75.4499 150.61 75.9614 150.807 76.4252C151.004 76.889 151.333 77.2846 151.753 77.5629C152.173 77.8411 152.666 77.9896 153.17 77.99C153.519 78.0021 153.867 77.9406 154.191 77.8094C154.515 77.6781 154.808 77.4802 155.051 77.2283C155.293 76.9764 155.48 76.6763 155.598 76.3475C155.717 76.0187 155.765 75.6687 155.74 75.32Z" fill="#FDFDFD"/>
<path id="Vector_24" d="M163.15 72.4L162.82 73.04C162.491 72.832 162.109 72.7211 161.72 72.72C161.413 72.7448 161.115 72.8311 160.842 72.9739C160.569 73.1167 160.328 73.3129 160.133 73.5509C159.938 73.789 159.793 74.0639 159.707 74.3592C159.62 74.6546 159.594 74.9644 159.63 75.27V78.56H158.88V72.08H159.56V73.43C159.746 73.01 160.048 72.652 160.431 72.3986C160.813 72.1451 161.261 72.0068 161.72 72C162.226 71.9897 162.723 72.1289 163.15 72.4Z" fill="#FDFDFD"/>
<path id="Vector_25" d="M170.46 74.86V78.56H169.71V74.9C169.742 74.6135 169.712 74.3234 169.621 74.0498C169.53 73.7761 169.382 73.5252 169.185 73.3144C168.989 73.1035 168.749 72.9377 168.482 72.8282C168.215 72.7187 167.928 72.6681 167.64 72.68C167.331 72.6675 167.022 72.7188 166.733 72.8306C166.444 72.9424 166.182 73.1123 165.961 73.3299C165.741 73.5474 165.568 73.8079 165.452 74.0952C165.337 74.3825 165.282 74.6905 165.29 75V78.55H164.54V72.07H165.22V73.24C165.494 72.8383 165.865 72.5122 166.298 72.292C166.732 72.0717 167.214 71.9644 167.7 71.98C168.08 71.9525 168.461 72.0091 168.817 72.1459C169.172 72.2826 169.493 72.4962 169.757 72.7712C170.021 73.0462 170.22 73.376 170.342 73.7371C170.463 74.0981 170.504 74.4815 170.46 74.86Z" fill="#FDFDFD"/>
<path id="Vector_26" d="M186.39 76.33H180.93L179.93 78.56H179.09L183.21 69.38H184.1L188.22 78.56H187.39L186.39 76.33ZM181.26 75.6H186.06L183.66 70.19L181.26 75.6Z" fill="#FDFDFD"/>
<path id="Vector_27" d="M189.22 75.32C189.215 74.6566 189.408 74.0068 189.773 73.453C190.139 72.8992 190.66 72.4663 191.272 72.2092C191.883 71.9522 192.558 71.8825 193.209 72.009C193.86 72.1355 194.459 72.4526 194.93 72.92L194.46 73.42C194.147 73.1254 193.766 72.9115 193.352 72.7967C192.938 72.6819 192.501 72.6697 192.081 72.7612C191.661 72.8526 191.269 73.0449 190.94 73.3215C190.611 73.5981 190.354 73.9507 190.191 74.3489C190.029 74.747 189.965 75.1787 190.007 75.6067C190.049 76.0347 190.194 76.4462 190.43 76.8056C190.666 77.1651 190.986 77.4616 191.362 77.6697C191.739 77.8778 192.16 77.9911 192.59 78C192.948 78.0034 193.303 77.9353 193.635 77.7997C193.966 77.664 194.267 77.4635 194.52 77.21L194.99 77.73C194.678 78.0505 194.305 78.3044 193.893 78.4763C193.48 78.6482 193.037 78.7345 192.59 78.73C192.139 78.7488 191.689 78.6731 191.269 78.5078C190.849 78.3425 190.468 78.0913 190.151 77.7703C189.834 77.4492 189.587 77.0654 189.427 76.6435C189.266 76.2215 189.196 75.7707 189.22 75.32Z" fill="#FDFDFD"/>
<path id="Vector_28" d="M202.78 75.61H197C197.006 75.9383 197.079 76.262 197.213 76.5617C197.347 76.8614 197.541 77.1309 197.781 77.354C198.022 77.5772 198.306 77.7495 198.615 77.8604C198.924 77.9714 199.252 78.0189 199.58 78C200.008 78.0048 200.432 77.9181 200.823 77.7456C201.215 77.5731 201.565 77.3189 201.85 77L202.36 77.45C202.012 77.8467 201.58 78.1617 201.096 78.3726C200.612 78.5835 200.088 78.685 199.56 78.67C199.114 78.686 198.669 78.6088 198.254 78.4431C197.84 78.2775 197.464 78.0271 197.152 77.7081C196.839 77.389 196.597 77.0083 196.44 76.5902C196.283 76.1721 196.215 75.7259 196.24 75.28C196.213 74.8395 196.279 74.3982 196.433 73.9844C196.586 73.5707 196.825 73.1936 197.133 72.8774C197.44 72.5611 197.811 72.3125 198.22 72.1477C198.63 71.9828 199.069 71.9053 199.51 71.92C199.985 71.8869 200.462 71.9635 200.903 72.1438C201.344 72.3241 201.738 72.6033 202.054 72.9598C202.37 73.3164 202.599 73.7409 202.725 74.2004C202.851 74.6598 202.87 75.1421 202.78 75.61ZM197 74.95H202.06C202.06 74.6268 201.993 74.307 201.862 74.0114C201.731 73.7157 201.54 73.4507 201.301 73.2332C201.062 73.0157 200.78 72.8506 200.473 72.7484C200.166 72.6463 199.842 72.6094 199.52 72.64C199.199 72.6253 198.877 72.675 198.576 72.7864C198.274 72.8977 197.997 73.0685 197.762 73.2884C197.527 73.5084 197.339 73.7731 197.208 74.0671C197.077 74.3611 197.006 74.6783 197 75V74.95Z" fill="#FDFDFD"/>
<path id="Vector_29" d="M130.06 80.73V68.73H130.62V80.73H130.06Z" fill="#FDFDFD"/>
<path id="Vector_30" d="M174.8 80.73V68.73H175.39V80.73H174.8Z" fill="#FDFDFD"/>
</g>
<defs>
<clipPath id="clip0_295_1426">
<rect width="207.93" height="80.73" fill="white"/>
</clipPath>
</defs>
</svg>
