<svg width="62" height="62" viewBox="0 0 62 62" fill="none" xmlns="http://www.w3.org/2000/svg">
<g id="airplay">
<path id="Vector" d="M21.7258 56.8333H40.2483C42.5474 56.8333 43.7099 54.0433 42.0824 52.4158L32.8083 43.1417C31.8008 42.1342 30.1733 42.1342 29.1658 43.1417L19.8916 52.4158C18.2899 54.0433 19.4266 56.8333 21.7258 56.8333ZM54.2499 7.75H7.74992C4.90825 7.75 2.58325 10.075 2.58325 12.9167V43.9167C2.58325 46.7583 4.90825 49.0833 7.74992 49.0833H15.4999C16.9208 49.0833 18.0833 47.9208 18.0833 46.5C18.0833 45.0792 16.9208 43.9167 15.4999 43.9167H10.3333C8.91242 43.9167 7.74992 42.7542 7.74992 41.3333V15.5C7.74992 14.0792 8.91242 12.9167 10.3333 12.9167H51.6666C53.0874 12.9167 54.2499 14.0792 54.2499 15.5V41.3333C54.2499 42.7542 53.0874 43.9167 51.6666 43.9167H46.4999C45.0791 43.9167 43.9166 45.0792 43.9166 46.5C43.9166 47.9208 45.0791 49.0833 46.4999 49.0833H54.2499C57.0916 49.0833 59.4166 46.7583 59.4166 43.9167V12.9167C59.4166 10.075 57.0916 7.75 54.2499 7.75Z" fill="#92989F"/>
</g>
</svg>
