<svg width="62" height="51" viewBox="0 0 62 51" fill="none" xmlns="http://www.w3.org/2000/svg">
<path id="Vector" d="M30.7941 17.2083L22.1884 8.6057L30.7941 0L39.4585 8.6057L30.7941 17.2083ZM0 50.5573V39.7578C0 38.5235 0.40524 37.4631 1.21572 36.5765C2.02826 35.6899 3.02593 35.2065 4.20874 35.1263H13.1292C13.9602 35.1263 14.7491 35.3248 15.4958 35.7218C16.2446 36.1168 16.8617 36.6928 17.3472 37.4498C18.9188 39.6508 20.876 41.3582 23.219 42.5718C25.5641 43.7814 28.0891 44.3862 30.7941 44.3862C33.5115 44.3862 36.052 43.7803 38.4155 42.5687C40.7812 41.3592 42.7426 39.6518 44.2998 37.4467C44.8099 36.6917 45.4363 36.1168 46.1789 35.7218C46.9194 35.3269 47.6795 35.1294 48.4591 35.1294H57.3765C58.5716 35.2076 59.5827 35.6899 60.4096 36.5765C61.2365 37.4611 61.65 38.5205 61.65 39.7547V50.5542H43.1365V43.0624C41.4168 44.4674 39.5048 45.5535 37.4004 46.3208C35.2981 47.0881 33.096 47.4717 30.7941 47.4717C28.5437 47.4717 26.3735 47.0943 24.2836 46.3393C22.1956 45.5864 20.2723 44.5075 18.5135 43.1025V50.5573H0ZM7.88984 29.6679C5.79165 29.6679 3.98143 28.9068 2.45921 27.3846C0.936989 25.8624 0.175878 24.0521 0.175878 21.9539C0.175878 19.8064 0.936989 17.9838 2.45921 16.4863C3.98143 14.9908 5.79165 14.2431 7.88984 14.2431C10.0374 14.2431 11.86 14.9908 13.3575 16.4863C14.855 17.9838 15.6038 19.8074 15.6038 21.957C15.6038 24.0532 14.855 25.8624 13.3575 27.3846C11.86 28.9068 10.0374 29.6679 7.88984 29.6679ZM53.6984 29.6679C51.6003 29.6679 49.79 28.9068 48.2678 27.3846C46.7456 25.8624 45.9845 24.0521 45.9845 21.9539C45.9845 19.8064 46.7456 17.9838 48.2678 16.4863C49.79 14.9908 51.6003 14.2431 53.6984 14.2431C55.846 14.2431 57.6686 14.9908 59.1661 16.4863C60.6636 17.9838 61.4124 19.8074 61.4124 21.957C61.4124 24.0532 60.6636 25.8624 59.1661 27.3846C57.6686 28.9068 55.846 29.6679 53.6984 29.6679Z" fill="#92989F"/>
</svg>
