<svg width="63" height="53" viewBox="0 0 63 53" fill="none" xmlns="http://www.w3.org/2000/svg">
<path id="Vector" d="M8.71242 29.6657V38.0859C8.71242 40.2734 9.91103 42.311 11.8288 43.3598L26.8115 51.5403C28.6094 52.5292 30.7669 52.5292 32.5648 51.5403L47.5475 43.3598C49.4653 42.311 50.6639 40.2734 50.6639 38.0859V29.6657L32.5648 39.5542C30.7669 40.5431 28.6094 40.5431 26.8115 39.5542L8.71242 29.6657ZM26.8115 0.719168L1.55071 14.5032C-0.516902 15.6419 -0.516902 18.6384 1.55071 19.7771L26.8115 33.5612C28.6094 34.55 30.7669 34.55 32.5648 33.5612L56.6569 20.4064V38.1159C56.6569 39.764 58.0054 41.1124 59.6535 41.1124C61.3016 41.1124 62.65 39.764 62.65 38.1159V18.9081C62.65 17.7994 62.0507 16.8105 61.0918 16.2712L32.5648 0.719168C30.7669 -0.239723 28.6094 -0.239723 26.8115 0.719168Z" fill="#92989F"/>
</svg>
