<svg xmlns="http://www.w3.org/2000/svg" id="Layer_1" data-name="Layer 1" viewBox="242.61 217 207.93 80.73"><defs><style>.cls-1{fill:#1b3867;}.cls-2{fill:#e43955;}.cls-3{fill:#58595b;}</style></defs><path class="cls-1" d="M252.37,237.33a32.12,32.12,0,0,0,20,47.87,2.22,2.22,0,0,1,1.48,3.09h0a2.2,2.2,0,0,1-2.51,1.22,36.51,36.51,0,0,1-6.9-2.42l-.59-.29A36.59,36.59,0,1,1,296,221.08a35.38,35.38,0,0,1,5.79,3.53,2.19,2.19,0,0,1,.66,2.7h0a2.21,2.21,0,0,1-3.31.85,32.16,32.16,0,0,0-46.76,9.17Z"/><path class="cls-2" d="M281.56,251.28l-24.41,0a.63.63,0,1,1,0-1.23l24.4,0a.63.63,0,1,1,0,1.23Z"/><path class="cls-2" d="M282,252.6a1.6,1.6,0,0,1-.5-3.12l15-4.91a1.6,1.6,0,0,1,1,3l-15,4.91A1.67,1.67,0,0,1,282,252.6Z"/><path class="cls-2" d="M282.25,286.6a1.65,1.65,0,0,1-1.6-1.7l0-32.84a1.6,1.6,0,1,1,3.2,0l.05,32.83A1.66,1.66,0,0,1,282.25,286.6Z"/><path class="cls-2" d="M254.8,246.07l-.22,0a1.19,1.19,0,0,1-1-1.39c0-.16,3-15.46,21.37-19.59a1.2,1.2,0,0,1,1.43.91,1.19,1.19,0,0,1-.91,1.43c-16.79,3.77-19.43,17.11-19.53,17.67A1.21,1.21,0,0,1,254.8,246.07Z"/><path class="cls-1" d="M324.48,268.92a1.8,1.8,0,0,0-2.32-.23,9.62,9.62,0,0,1-5.45,1.69c-5.28,0-8.92-3.72-8.92-9.1s3.64-9.09,8.92-9.09a8.57,8.57,0,0,1,5.18,1.6,1.83,1.83,0,0,0,2.33-.11l.1-.09a1.79,1.79,0,0,0-.15-2.77,12.58,12.58,0,0,0-7.61-2.42c-7.6,0-12.95,5.31-12.95,12.88s5.31,12.88,13,12.88a13.13,13.13,0,0,0,7.77-2.33,1.81,1.81,0,0,0,.27-2.74Z"/><path class="cls-1" d="M331.32,248.9a2,2,0,0,0-2,2v20.81a2,2,0,0,0,4,0V250.88A2,2,0,0,0,331.32,248.9Z"/><path class="cls-1" d="M353.85,256.19a1.77,1.77,0,0,0-1.78,1.75v.18a.15.15,0,0,1-.27.09,8.12,8.12,0,0,0-6.1-2.41c-5.13,0-8.67,3.75-8.67,9.13s3.54,9.13,8.67,9.13a8.22,8.22,0,0,0,6.08-2.39.17.17,0,0,1,.29.11v.13a1.78,1.78,0,0,0,3.56,0V258A1.78,1.78,0,0,0,353.85,256.19Zm-7.53,14.26a5.52,5.52,0,1,1,5.35-5.52A5.19,5.19,0,0,1,346.32,270.45Z"/><path class="cls-1" d="M367.17,263.12c-2.55-.28-3.58-.88-3.58-2,0-1.28,1.35-2,3.86-2a9,9,0,0,1,3.71.78,1.68,1.68,0,1,0,1.39-3.06,12.55,12.55,0,0,0-5.28-1.08c-4.53,0-7.57,2.16-7.57,5.35,0,3,2.58,4.95,7.15,5.37,2.69.29,3.82.89,3.82,2.13s-1.27,2-3.5,2a10.79,10.79,0,0,1-4.88-1.13,1.67,1.67,0,0,0-2.18.59l0,.05a1.68,1.68,0,0,0,.57,2.36,12.83,12.83,0,0,0,6.42,1.63c4.53,0,7.54-2.19,7.54-5.45S372.33,263.69,367.17,263.12Z"/><path class="cls-1" d="M384.86,263.12c-2.55-.28-3.57-.88-3.57-2,0-1.28,1.34-2,3.85-2a9.06,9.06,0,0,1,3.72.78,1.68,1.68,0,1,0,1.38-3.06,12.54,12.54,0,0,0-5.27-1.08c-4.53,0-7.58,2.16-7.58,5.35,0,3,2.59,4.95,7.15,5.37,2.69.29,3.82.89,3.82,2.13s-1.27,2-3.5,2a10.85,10.85,0,0,1-4.88-1.13,1.67,1.67,0,0,0-2.18.59l0,.05a1.66,1.66,0,0,0,.57,2.36,12.79,12.79,0,0,0,6.41,1.63c4.53,0,7.54-2.19,7.54-5.45S390,263.69,384.86,263.12Z"/><path class="cls-2" d="M407.73,249.94a1.06,1.06,0,0,0-1.06-1.05H392.19a1.06,1.06,0,0,0,0,2.11h5.56a.52.52,0,0,1,.52.52v21a1.15,1.15,0,1,0,2.3,0v-21a.52.52,0,0,1,.53-.52h5.57A1.06,1.06,0,0,0,407.73,249.94Z"/><path class="cls-2" d="M421.41,256a1.08,1.08,0,0,0-1,.7l-5.11,13.39a6.14,6.14,0,0,0-.21.66c-.05.2-.11.4-.17.6,0,0,0,0,0,0s0,0,0,0l-.18-.7c-.07-.24-.13-.45-.2-.63l-4.81-13.31a1.08,1.08,0,0,0-1-.71h-.13a1.08,1.08,0,0,0-1,1.47l6,15.55a1.53,1.53,0,0,1,0,1.17l-1.29,3a5.34,5.34,0,0,1-1.39,2.06,2.83,2.83,0,0,1-1.89.69c-.27,0-.59,0-.79,0a1,1,0,0,0-.86,1v0a1,1,0,0,0,.94,1h0c.24,0,.49,0,.76,0a4.65,4.65,0,0,0,3.27-1.25,10.7,10.7,0,0,0,2.38-3.85l7.79-19.43A1.08,1.08,0,0,0,421.41,256Z"/><path class="cls-2" d="M444.69,255.56a6,6,0,0,0-3.38,1,6.9,6.9,0,0,0-2.13,2.31.2.2,0,0,1-.34,0l-.68-1a5.05,5.05,0,0,0-1.13-1.22,5.15,5.15,0,0,0-1.48-.8,5.47,5.47,0,0,0-1.77-.28,5.92,5.92,0,0,0-5.44,3.28h-.07V257a1,1,0,0,0-1-1h-.23a1,1,0,0,0-1,1v15.72a1,1,0,0,0,1,1h.23a1,1,0,0,0,1-1v-9.15a8.38,8.38,0,0,1,.35-2.47,6.06,6.06,0,0,1,1-1.91,4.45,4.45,0,0,1,1.48-1.23,3.81,3.81,0,0,1,1.83-.44c2.84,0,4.27,1.85,4.27,5.56v9.64a1,1,0,0,0,1,1h.23a1,1,0,0,0,1-1v-9.24a7.15,7.15,0,0,1,.37-2.35,6.11,6.11,0,0,1,1-1.89,4.65,4.65,0,0,1,1.51-1.26,3.82,3.82,0,0,1,1.83-.46,5.07,5.07,0,0,1,1.88.31,2.94,2.94,0,0,1,1.29,1,4.67,4.67,0,0,1,.75,1.79,12.12,12.12,0,0,1,.25,2.69v9.41a1,1,0,0,0,1,1h.23a1,1,0,0,0,1-1v-9.93Q450.51,255.56,444.69,255.56Z"/><path class="cls-3" d="M315,291a4.54,4.54,0,0,1,4.73-4.76A4.45,4.45,0,0,1,323,287.6l-.54.5A3.71,3.71,0,0,0,319.7,287a4,4,0,0,0,0,8,4,4,0,0,0,2.81-1.15l.52.53a4.62,4.62,0,0,1-3.34,1.36A4.54,4.54,0,0,1,315,291Z"/><path class="cls-3" d="M324.35,292.32a3.35,3.35,0,1,1,3.35,3.37A3.23,3.23,0,0,1,324.35,292.32Zm5.95,0a2.6,2.6,0,1,0-2.6,2.67A2.55,2.55,0,0,0,330.3,292.32Z"/><path class="cls-3" d="M338.91,291.86v3.7h-.75V291.9a2,2,0,0,0-2.07-2.22,2.26,2.26,0,0,0-2.35,2.33v3.55H333v-6.48h.68l0,1.17a2.87,2.87,0,0,1,2.48-1.26A2.59,2.59,0,0,1,338.91,291.86Z"/><path class="cls-3" d="M347.13,291.86v3.7h-.75V291.9a2,2,0,0,0-2.08-2.22A2.26,2.26,0,0,0,342,292v3.55h-.75v-6.48h.68v1.17a2.88,2.88,0,0,1,2.48-1.26A2.59,2.59,0,0,1,347.13,291.86Z"/><path class="cls-3" d="M355.53,292.61h-5.78a2.44,2.44,0,0,0,2.58,2.39,3,3,0,0,0,2.27-1l.51.45a3.6,3.6,0,0,1-2.8,1.22,3.21,3.21,0,0,1-3.32-3.39,3.17,3.17,0,0,1,3.27-3.36A3.11,3.11,0,0,1,355.53,292.61Zm-5.78-.66h5.06a2.32,2.32,0,0,0-2.54-2.31A2.41,2.41,0,0,0,349.75,292Z"/><path class="cls-3" d="M357,292.32a3.35,3.35,0,0,1,5.71-2.4l-.47.5a2.65,2.65,0,1,0-1.87,4.57,2.67,2.67,0,0,0,1.93-.79l.48.52a3.34,3.34,0,0,1-2.41,1A3.24,3.24,0,0,1,357,292.32Z"/><path class="cls-3" d="M368.53,295.34a3.17,3.17,0,0,1-1.34.34c-1.37,0-1.85-.77-1.85-2.12v-3.81H364v-.67h1.37v-1.86l.73-.08v1.94h2.17v.67h-2.17v3.81c0,.85.21,1.44,1.16,1.44a2.63,2.63,0,0,0,1-.29Z"/><path class="cls-3" d="M377.74,286.38h.78v8.44h5.17v.74h-5.95Z"/><path class="cls-3" d="M391,292.61h-5.77a2.43,2.43,0,0,0,2.57,2.39,3,3,0,0,0,2.27-1l.51.45a3.59,3.59,0,0,1-2.8,1.22,3.21,3.21,0,0,1-3.32-3.39,3.17,3.17,0,0,1,3.27-3.36A3.11,3.11,0,0,1,391,292.61Zm-5.77-.66h5.05a2.32,2.32,0,0,0-2.54-2.31A2.39,2.39,0,0,0,385.27,292Z"/><path class="cls-3" d="M399.1,289.08v6.48h-.7v-1.28a3,3,0,0,1-2.69,1.4,3.36,3.36,0,0,1,0-6.72,3,3,0,0,1,2.69,1.42v-1.3Zm-.75,3.24a2.57,2.57,0,1,0-2.57,2.67A2.49,2.49,0,0,0,398.35,292.32Z"/><path class="cls-3" d="M405.76,289.4l-.33.64a2.07,2.07,0,0,0-1.1-.32,2.29,2.29,0,0,0-2.09,2.55v3.29h-.75v-6.48h.68l0,1.35a2.4,2.4,0,0,1,2.16-1.43A2.57,2.57,0,0,1,405.76,289.4Z"/><path class="cls-3" d="M413.07,291.86v3.7h-.75V291.9a2,2,0,0,0-2.07-2.22A2.26,2.26,0,0,0,407.9,292v3.55h-.75v-6.48h.68v1.17a2.89,2.89,0,0,1,2.48-1.26A2.59,2.59,0,0,1,413.07,291.86Z"/><path class="cls-3" d="M429,293.33h-5.46l-1,2.23h-.84l4.12-9.18h.89l4.12,9.18H430Zm-5.13-.73h4.8l-2.4-5.41Z"/><path class="cls-3" d="M431.83,292.32a3.35,3.35,0,0,1,5.71-2.4l-.47.5A2.65,2.65,0,1,0,435.2,295a2.69,2.69,0,0,0,1.93-.79l.47.52a3.3,3.3,0,0,1-2.4,1A3.24,3.24,0,0,1,431.83,292.32Z"/><path class="cls-3" d="M445.39,292.61h-5.78a2.44,2.44,0,0,0,2.58,2.39,3,3,0,0,0,2.27-1l.51.45a3.59,3.59,0,0,1-2.8,1.22,3.21,3.21,0,0,1-3.32-3.39,3.17,3.17,0,0,1,3.27-3.36A3.11,3.11,0,0,1,445.39,292.61Zm-5.78-.66h5.06a2.32,2.32,0,0,0-2.54-2.31A2.41,2.41,0,0,0,439.61,292Z"/><path class="cls-3" d="M372.67,297.73v-12h.56v12Z"/><path class="cls-3" d="M417.41,297.73v-12H418v12Z"/></svg>