<svg width="208" height="81" viewBox="0 0 208 81" fill="none" xmlns="http://www.w3.org/2000/svg">
<g id="logo " clip-path="url(#clip0_84_2171)">
<path id="Vector" d="M9.76011 20.33C7.14209 24.6552 5.58203 29.5372 5.20685 34.5791C4.83166 39.6209 5.65194 44.6801 7.60097 49.3451C9.54999 54.0101 12.5727 58.1491 16.4232 61.4255C20.2737 64.7018 24.8433 67.0229 29.7601 68.2C30.078 68.2787 30.3745 68.4267 30.6284 68.6335C30.8824 68.8403 31.0874 69.1007 31.2288 69.396C31.3703 69.6913 31.4447 70.0143 31.4466 70.3418C31.4486 70.6692 31.378 70.993 31.2401 71.29C31.0274 71.7523 30.661 72.1265 30.2033 72.349C29.7457 72.5714 29.225 72.6283 28.7301 72.51C26.3549 71.9363 24.0433 71.1255 21.8301 70.09L21.2401 69.8C16.8174 67.7553 12.8475 64.8478 9.56361 61.2481C6.27968 57.6485 3.74777 53.4292 2.11647 48.8378C0.485163 44.2465 -0.212691 39.3756 0.0638716 34.5109C0.340434 29.6462 1.58583 24.8857 3.72699 20.5088C5.86815 16.1319 8.86194 12.2268 12.5327 9.02251C16.2034 5.81824 20.4772 3.3794 25.1032 1.8491C29.7292 0.318792 34.6143 -0.272144 39.4717 0.110952C44.3292 0.494048 49.0612 1.84347 53.3901 4.08002C55.4287 5.06859 57.3676 6.25068 59.1801 7.61002C59.5856 7.91417 59.873 8.34953 59.9934 8.84189C60.1137 9.33426 60.0596 9.85312 59.8401 10.31C59.7022 10.6064 59.5002 10.8684 59.2488 11.0773C58.9974 11.2862 58.7028 11.4367 58.3862 11.518C58.0696 11.5993 57.7389 11.6094 57.418 11.5475C57.097 11.4856 56.7938 11.3532 56.5301 11.16C52.9319 8.47728 48.812 6.57739 44.4354 5.58257C40.0589 4.58775 35.5225 4.52003 31.1182 5.38375C26.7139 6.24747 22.5391 8.02352 18.8624 10.5976C15.1857 13.1718 12.0886 16.487 9.77012 20.33H9.76011Z" fill="#1B3867"/>
<path id="Vector_2" d="M38.9501 34.28H14.5401C14.448 34.3005 14.3525 34.3 14.2606 34.2786C14.1687 34.2572 14.0828 34.2155 14.0092 34.1564C13.9357 34.0974 13.8763 34.0226 13.8354 33.9376C13.7946 33.8525 13.7734 33.7594 13.7734 33.665C13.7734 33.5707 13.7946 33.4776 13.8354 33.3925C13.8763 33.3074 13.9357 33.2326 14.0092 33.1736C14.0828 33.1146 14.1687 33.0728 14.2606 33.0514C14.3525 33.03 14.448 33.0296 14.5401 33.05H38.9401C39.0322 33.0296 39.1277 33.03 39.2196 33.0514C39.3115 33.0728 39.3974 33.1146 39.471 33.1736C39.5446 33.2326 39.604 33.3074 39.6448 33.3925C39.6856 33.4776 39.7068 33.5707 39.7068 33.665C39.7068 33.7594 39.6856 33.8525 39.6448 33.9376C39.604 34.0226 39.5446 34.0974 39.471 34.1564C39.3974 34.2155 39.3115 34.2572 39.2196 34.2786C39.1277 34.3 39.0322 34.3005 38.9401 34.28H38.9501Z" fill="#E43955"/>
<path id="Vector_3" d="M39.3899 35.6C39.0094 35.6001 38.6413 35.4646 38.3517 35.2178C38.0621 34.9709 37.8699 34.6289 37.8097 34.2532C37.7495 33.8775 37.8252 33.4926 38.0232 33.1676C38.2211 32.8426 38.5284 32.5988 38.8899 32.48L53.8899 27.57C54.2665 27.5062 54.6534 27.579 54.9809 27.7756C55.3083 27.9721 55.5547 28.2792 55.6755 28.6415C55.7962 29.0038 55.7834 29.3974 55.6394 29.751C55.4953 30.1047 55.2295 30.3952 54.8899 30.57L39.8899 35.48C39.7305 35.5456 39.5618 35.5861 39.3899 35.6Z" fill="#E43955"/>
<path id="Vector_4" d="M39.6398 69.6C39.4231 69.5936 39.2098 69.5444 39.0121 69.4555C38.8144 69.3665 38.6361 69.2395 38.4875 69.0816C38.3389 68.9237 38.2229 68.7381 38.1461 68.5354C38.0693 68.3326 38.0332 68.1167 38.0398 67.9V35.06C38.0398 34.8499 38.0812 34.6418 38.1616 34.4477C38.242 34.2536 38.3599 34.0772 38.5085 33.9286C38.657 33.7801 38.8334 33.6622 39.0275 33.5818C39.2217 33.5014 39.4297 33.46 39.6398 33.46C39.85 33.46 40.058 33.5014 40.2522 33.5818C40.4463 33.6622 40.6227 33.7801 40.7712 33.9286C40.9198 34.0772 41.0377 34.2536 41.1181 34.4477C41.1985 34.6418 41.2399 34.8499 41.2399 35.06L41.2898 67.89C41.2965 68.1114 41.2588 68.3318 41.179 68.5383C41.0992 68.7449 40.9789 68.9334 40.8252 69.0927C40.6714 69.252 40.4873 69.379 40.2838 69.4661C40.0802 69.5533 39.8613 69.5988 39.6398 69.6Z" fill="#E43955"/>
<path id="Vector_5" d="M12.1898 29.07H11.9698C11.8116 29.0471 11.6597 28.9925 11.5231 28.9096C11.3865 28.8266 11.268 28.7171 11.1747 28.5873C11.0814 28.4576 11.0151 28.3104 10.9799 28.1545C10.9447 27.9987 10.9413 27.8373 10.9698 27.68C10.9698 27.52 13.9698 12.22 32.3398 8.09003C32.6501 8.02148 32.9749 8.07878 33.2429 8.24938C33.511 8.41997 33.7005 8.68993 33.7698 9.00004C33.8051 9.15374 33.8095 9.31294 33.7828 9.46837C33.756 9.6238 33.6986 9.77237 33.614 9.90543C33.5293 10.0385 33.419 10.1534 33.2895 10.2434C33.1601 10.3335 33.014 10.3969 32.8598 10.43C16.0698 14.2 13.4298 27.54 13.3298 28.1C13.2761 28.3662 13.1345 28.6065 12.9278 28.7825C12.721 28.9584 12.4611 29.0597 12.1898 29.07Z" fill="#E43955"/>
<path id="Vector_6" d="M81.87 51.92C81.5735 51.6127 81.1773 51.4208 80.7523 51.3787C80.3273 51.3365 79.9011 51.4469 79.55 51.69C77.9461 52.7915 76.0458 53.3808 74.1 53.38C68.82 53.38 65.18 49.66 65.18 44.28C65.18 38.9 68.82 35.19 74.1 35.19C75.9543 35.1487 77.772 35.7102 79.28 36.79C79.6206 37.0456 80.0395 37.1744 80.4648 37.1543C80.8901 37.1343 81.2951 36.9665 81.61 36.68L81.71 36.59C81.9064 36.4112 82.0606 36.191 82.1613 35.9453C82.2621 35.6996 82.3069 35.4346 82.2926 35.1694C82.2782 34.9042 82.205 34.6455 82.0783 34.4122C81.9516 34.1788 81.7746 33.9765 81.56 33.82C79.3535 32.2083 76.6822 31.3588 73.95 31.4C66.35 31.4 61 36.71 61 44.28C61 51.85 66.31 57.16 74 57.16C76.771 57.2229 79.4909 56.4073 81.77 54.83C81.9848 54.6804 82.1645 54.4861 82.2969 54.2603C82.4293 54.0345 82.5111 53.7827 82.5368 53.5222C82.5625 53.2618 82.5314 52.9989 82.4456 52.7516C82.3598 52.5044 82.2214 52.2786 82.04 52.09L81.87 51.92Z" fill="#1B3867"/>
<path id="Vector_7" d="M88.71 31.9C88.1795 31.9 87.6708 32.1107 87.2957 32.4858C86.9207 32.8609 86.71 33.3696 86.71 33.9V54.71C86.71 55.2405 86.9207 55.7492 87.2957 56.1242C87.6708 56.4993 88.1795 56.71 88.71 56.71C89.2404 56.71 89.7491 56.4993 90.1242 56.1242C90.4992 55.7492 90.71 55.2405 90.71 54.71V33.88C90.7047 33.3531 90.4917 32.8495 90.1172 32.4787C89.7427 32.108 89.2369 31.9 88.71 31.9Z" fill="#1B3867"/>
<path id="Vector_8" d="M111.24 39.19C110.772 39.1874 110.322 39.3699 109.989 39.6978C109.655 40.0258 109.465 40.4723 109.46 40.94V41.12C109.46 41.1515 109.45 41.1822 109.432 41.2077C109.413 41.2333 109.387 41.2524 109.357 41.2623C109.327 41.2723 109.295 41.2726 109.265 41.2632C109.235 41.2538 109.209 41.2352 109.19 41.21C108.397 40.4062 107.444 39.7767 106.394 39.3617C105.344 38.9468 104.218 38.7555 103.09 38.8C97.9599 38.8 94.4199 42.55 94.4199 47.93C94.4199 53.31 97.9599 57.06 103.09 57.06C104.213 57.0984 105.332 56.9061 106.378 56.495C107.423 56.0839 108.374 55.4628 109.17 54.67C109.193 54.6468 109.222 54.6308 109.254 54.6239C109.287 54.617 109.32 54.6196 109.351 54.6312C109.381 54.6428 109.408 54.663 109.427 54.6894C109.447 54.7159 109.458 54.7473 109.46 54.78V54.91C109.46 55.3821 109.647 55.8349 109.981 56.1687C110.315 56.5025 110.768 56.69 111.24 56.69C111.712 56.69 112.165 56.5025 112.499 56.1687C112.832 55.8349 113.02 55.3821 113.02 54.91V41C113.024 40.7638 112.981 40.5291 112.893 40.3096C112.805 40.0902 112.675 39.8904 112.509 39.722C112.344 39.5535 112.146 39.4197 111.928 39.3283C111.71 39.237 111.476 39.19 111.24 39.19ZM103.71 53.45C102.612 53.4839 101.528 53.1891 100.598 52.6035C99.6684 52.0179 98.9345 51.1681 98.4905 50.1629C98.0466 49.1577 97.9127 48.0428 98.1061 46.9611C98.2995 45.8794 98.8114 44.88 99.5761 44.0909C100.341 43.3019 101.324 42.759 102.399 42.5319C103.474 42.3047 104.593 42.4036 105.611 42.816C106.63 43.2283 107.502 43.9353 108.117 44.8463C108.731 45.7574 109.059 46.8311 109.06 47.93C109.106 48.6525 109.001 49.3767 108.751 50.0561C108.501 50.7355 108.111 51.355 107.607 51.8749C107.104 52.3947 106.497 52.8035 105.825 53.0747C105.154 53.346 104.434 53.4738 103.71 53.45Z" fill="#1B3867"/>
<path id="Vector_9" d="M124.56 46.12C122.01 45.84 120.98 45.24 120.98 44.12C120.98 42.84 122.33 42.12 124.84 42.12C126.118 42.1136 127.383 42.3795 128.55 42.9C128.956 43.0843 129.418 43.0999 129.835 42.9433C130.253 42.7867 130.591 42.4708 130.775 42.065C130.959 41.6592 130.975 41.1969 130.818 40.7796C130.662 40.3623 130.346 40.0243 129.94 39.84C128.279 39.1019 126.477 38.7334 124.66 38.76C120.13 38.76 117.09 40.92 117.09 44.11C117.09 47.11 119.67 49.06 124.24 49.48C126.93 49.77 128.06 50.37 128.06 51.61C128.06 52.85 126.79 53.61 124.56 53.61C122.867 53.6214 121.195 53.2343 119.68 52.48C119.309 52.2876 118.879 52.2414 118.475 52.3506C118.071 52.4599 117.723 52.7166 117.5 53.07V53.12C117.377 53.311 117.295 53.5247 117.257 53.7485C117.219 53.9722 117.227 54.2012 117.281 54.4218C117.334 54.6423 117.431 54.8498 117.567 55.0317C117.703 55.2135 117.874 55.3661 118.07 55.48C120.03 56.5759 122.244 57.138 124.49 57.11C129.02 57.11 132.03 54.92 132.03 51.66C132.03 48.4 129.72 46.69 124.56 46.12Z" fill="#1B3867"/>
<path id="Vector_10" d="M142.25 46.12C139.7 45.84 138.68 45.24 138.68 44.12C138.68 42.84 140.02 42.12 142.53 42.12C143.811 42.1141 145.079 42.3799 146.25 42.9C146.452 43.0022 146.673 43.0624 146.9 43.0768C147.126 43.0913 147.353 43.0598 147.567 42.9842C147.781 42.9086 147.977 42.7904 148.144 42.6369C148.311 42.4834 148.445 42.2977 148.538 42.0909C148.631 41.8842 148.682 41.6607 148.686 41.4339C148.691 41.2071 148.65 40.9818 148.565 40.7715C148.48 40.5612 148.353 40.3702 148.193 40.2101C148.032 40.05 147.84 39.9241 147.63 39.84C145.972 39.103 144.174 38.7346 142.36 38.76C137.83 38.76 134.78 40.92 134.78 44.11C134.78 47.11 137.37 49.06 141.93 49.48C144.62 49.77 145.75 50.37 145.75 51.61C145.75 52.85 144.48 53.61 142.25 53.61C140.557 53.6191 138.886 53.2322 137.37 52.48C136.999 52.2876 136.569 52.2414 136.165 52.3506C135.761 52.4599 135.413 52.7166 135.19 53.07V53.12C135.064 53.3101 134.979 53.5239 134.94 53.7483C134.901 53.9726 134.908 54.2026 134.962 54.4239C135.015 54.6453 135.114 54.8533 135.251 55.035C135.388 55.2167 135.561 55.3682 135.76 55.48C137.717 56.576 139.927 57.1381 142.17 57.11C146.7 57.11 149.71 54.92 149.71 51.66C149.71 48.4 147.39 46.69 142.25 46.12Z" fill="#1B3867"/>
<path id="Vector_11" d="M165.12 32.94C165.118 32.6606 165.005 32.3936 164.806 32.1969C164.608 32.0003 164.34 31.89 164.06 31.89H149.58C149.318 31.9156 149.075 32.0378 148.898 32.2328C148.721 32.4278 148.623 32.6817 148.623 32.945C148.623 33.2083 148.721 33.4622 148.898 33.6573C149.075 33.8523 149.318 33.9745 149.58 34H155.14C155.208 34 155.276 34.0135 155.339 34.0396C155.402 34.0657 155.46 34.104 155.508 34.1523C155.556 34.2006 155.594 34.2579 155.621 34.321C155.647 34.3841 155.66 34.4517 155.66 34.52V55.52C155.66 55.825 155.781 56.1175 155.997 56.3332C156.213 56.5488 156.505 56.67 156.81 56.67C157.115 56.67 157.408 56.5488 157.623 56.3332C157.839 56.1175 157.96 55.825 157.96 55.52V34.52C157.96 34.4509 157.974 34.3824 158.001 34.3187C158.027 34.2549 158.067 34.1972 158.116 34.1487C158.165 34.1003 158.224 34.0622 158.288 34.0367C158.352 34.0112 158.421 33.9987 158.49 34H164.06C164.341 34 164.611 33.8883 164.81 33.6895C165.009 33.4908 165.12 33.2211 165.12 32.94Z" fill="#E43955"/>
<path id="Vector_12" d="M178.8 39C178.582 39.0022 178.37 39.0702 178.192 39.1952C178.013 39.3201 177.877 39.4961 177.8 39.7L172.69 53.09C172.608 53.3059 172.538 53.5262 172.48 53.75C172.43 53.95 172.37 54.15 172.31 54.35L172.13 53.65C172.06 53.41 172 53.2 171.93 53.02L167.12 39.71C167.045 39.5042 166.909 39.3261 166.731 39.1993C166.552 39.0725 166.339 39.003 166.12 39H165.99C165.815 39.0011 165.643 39.0448 165.489 39.1271C165.335 39.2094 165.203 39.3279 165.104 39.4725C165.006 39.6171 164.944 39.7834 164.924 39.9572C164.904 40.1309 164.927 40.3069 164.99 40.47L170.99 56.02C171.145 56.3946 171.145 56.8154 170.99 57.19L169.7 60.19C169.405 60.9764 168.929 61.6822 168.31 62.25C167.786 62.7037 167.113 62.9493 166.42 62.94C166.15 62.94 165.83 62.94 165.63 62.94C165.39 62.974 165.17 63.0941 165.012 63.2781C164.854 63.4621 164.768 63.6973 164.77 63.94C164.77 64.1951 164.867 64.4408 165.041 64.6267C165.216 64.8126 165.455 64.9247 165.71 64.94C165.95 64.94 166.2 64.94 166.47 64.94C167.681 64.9652 168.855 64.5167 169.74 63.69C170.799 62.5911 171.61 61.2784 172.12 59.84L179.91 40.41C179.965 40.2413 179.977 40.0616 179.946 39.887C179.915 39.7124 179.841 39.5482 179.731 39.4088C179.622 39.2694 179.479 39.1592 179.317 39.0879C179.154 39.0166 178.977 38.9864 178.8 39Z" fill="#E43955"/>
<path id="Vector_13" d="M202.08 38.56C200.879 38.5474 199.701 38.8958 198.7 39.56C197.822 40.156 197.093 40.9465 196.57 41.87C196.552 41.899 196.527 41.9229 196.497 41.9394C196.468 41.956 196.434 41.9647 196.4 41.9647C196.366 41.9647 196.333 41.956 196.303 41.9394C196.273 41.9229 196.248 41.899 196.23 41.87L195.55 40.87C195.244 40.4037 194.862 39.9914 194.42 39.65C193.974 39.304 193.474 39.0338 192.94 38.85C192.37 38.66 191.772 38.5654 191.17 38.57C190.045 38.5433 188.936 38.8377 187.973 39.4186C187.01 39.9995 186.232 40.8429 185.73 41.85H185.66V40C185.66 39.7348 185.555 39.4805 185.367 39.2929C185.18 39.1054 184.925 39 184.66 39H184.43C184.165 39 183.911 39.1054 183.723 39.2929C183.536 39.4805 183.43 39.7348 183.43 40V55.72C183.43 55.9852 183.536 56.2396 183.723 56.4271C183.911 56.6147 184.165 56.72 184.43 56.72H184.66C184.925 56.72 185.18 56.6147 185.367 56.4271C185.555 56.2396 185.66 55.9852 185.66 55.72V46.57C185.653 45.7338 185.771 44.9013 186.01 44.1C186.227 43.4087 186.565 42.7618 187.01 42.19C187.408 41.677 187.913 41.2572 188.49 40.96C189.054 40.6626 189.683 40.5113 190.32 40.52C193.16 40.52 194.59 42.37 194.59 46.08V55.72C194.59 55.9852 194.696 56.2396 194.883 56.4271C195.071 56.6147 195.325 56.72 195.59 56.72H195.82C196.085 56.72 196.34 56.6147 196.527 56.4271C196.715 56.2396 196.82 55.9852 196.82 55.72V46.48C196.811 45.6815 196.936 44.8872 197.19 44.13C197.41 43.4461 197.748 42.8063 198.19 42.24C198.598 41.7172 199.113 41.2876 199.7 40.98C200.262 40.6761 200.891 40.5179 201.53 40.52C202.171 40.5036 202.809 40.6088 203.41 40.83C203.926 41.0349 204.373 41.3816 204.7 41.83C205.073 42.3676 205.328 42.9774 205.45 43.62C205.633 44.5046 205.717 45.4068 205.7 46.31V55.72C205.7 55.9852 205.806 56.2396 205.993 56.4271C206.181 56.6147 206.435 56.72 206.7 56.72H206.93C207.195 56.72 207.45 56.6147 207.637 56.4271C207.825 56.2396 207.93 55.9852 207.93 55.72V45.79C207.91 40.97 205.96 38.56 202.08 38.56Z" fill="#E43955"/>
<path id="Vector_14" d="M72.3898 74C72.3586 73.3692 72.4594 72.7389 72.6857 72.1492C72.9119 71.5596 73.2587 71.0237 73.7039 70.5757C74.149 70.1277 74.6828 69.7775 75.271 69.5475C75.8591 69.3176 76.4889 69.2128 77.1198 69.24C77.7289 69.2308 78.3335 69.3468 78.896 69.5807C79.4584 69.8146 79.9669 70.1616 80.3898 70.6L79.8498 71.1C79.4904 70.7364 79.0597 70.451 78.5847 70.2617C78.1098 70.0724 77.6008 69.9833 77.0898 70C76.029 70 75.0115 70.4214 74.2614 71.1716C73.5113 71.9217 73.0898 72.9391 73.0898 74C73.0898 75.0609 73.5113 76.0783 74.2614 76.8284C75.0115 77.5786 76.029 78 77.0898 78C78.1412 78.0009 79.1507 77.5877 79.8998 76.85L80.4198 77.38C79.9827 77.8191 79.4618 78.1657 78.888 78.3994C78.3142 78.633 77.6993 78.7488 77.0798 78.74C76.4539 78.7613 75.8304 78.6529 75.2484 78.4216C74.6664 78.1902 74.1385 77.841 73.698 77.3958C73.2576 76.9507 72.9139 76.4191 72.6888 75.8347C72.4637 75.2503 72.3619 74.6257 72.3898 74Z" fill="#FDFDFD"/>
<path id="Vector_15" d="M81.74 75.32C81.7439 74.6583 81.9437 74.0126 82.3142 73.4643C82.6847 72.9161 83.2093 72.4898 83.8217 72.2393C84.4342 71.9888 85.1072 71.9253 85.7557 72.0568C86.4042 72.1883 86.9992 72.5089 87.4657 72.9782C87.9322 73.4475 88.2493 74.0445 88.377 74.6938C88.5046 75.343 88.4371 76.0156 88.183 76.6266C87.9288 77.2375 87.4995 77.7595 86.949 78.1268C86.3985 78.494 85.7517 78.69 85.09 78.69C84.6438 78.707 84.1989 78.6313 83.7834 78.4677C83.3679 78.3041 82.9909 78.0562 82.6761 77.7395C82.3613 77.4228 82.1156 77.0443 81.9544 76.6279C81.7933 76.2114 81.7203 75.7661 81.74 75.32ZM87.6899 75.32C87.6762 74.809 87.5121 74.3133 87.2182 73.8951C86.9242 73.4768 86.5135 73.1545 86.0374 72.9684C85.5612 72.7823 85.0408 72.7407 84.5412 72.8488C84.0415 72.9569 83.5848 73.2099 83.2281 73.5761C82.8715 73.9424 82.6308 74.4056 82.536 74.908C82.4412 75.4103 82.4966 75.9295 82.6953 76.4005C82.894 76.8715 83.2271 77.2735 83.653 77.5562C84.0789 77.8389 84.5788 77.9898 85.09 77.99C85.4394 77.9972 85.7865 77.9326 86.1099 77.8C86.4332 77.6675 86.7259 77.4699 86.9697 77.2196C87.2135 76.9692 87.4033 76.6714 87.5272 76.3446C87.6511 76.0178 87.7065 75.6691 87.6899 75.32Z" fill="#FDFDFD"/>
<path id="Vector_16" d="M96.3001 74.86V78.56H95.5501V74.9C95.5821 74.6135 95.5517 74.3235 95.4611 74.0498C95.3705 73.7761 95.2218 73.5252 95.0252 73.3144C94.8286 73.1035 94.5888 72.9377 94.3221 72.8282C94.0554 72.7187 93.7682 72.6681 93.4801 72.68C93.1699 72.6675 92.8604 72.719 92.5709 72.8314C92.2815 72.9438 92.0183 73.1147 91.7978 73.3333C91.5773 73.5519 91.4042 73.8136 91.2893 74.1021C91.1745 74.3906 91.1203 74.6997 91.1301 75.01V78.56H90.3901V72.08H91.0701V73.25C91.3428 72.847 91.7135 72.5199 92.1473 72.2995C92.5811 72.0791 93.0638 71.9725 93.5501 71.99C93.9284 71.9642 94.3076 72.0218 94.6611 72.1587C95.0146 72.2956 95.3338 72.5084 95.5961 72.7821C95.8583 73.0558 96.0573 73.3838 96.179 73.7428C96.3006 74.1019 96.342 74.4832 96.3001 74.86Z" fill="#FDFDFD"/>
<path id="Vector_17" d="M104.52 74.86V78.56H103.77V74.9C103.802 74.6126 103.772 74.3217 103.68 74.0473C103.589 73.7728 103.44 73.5214 103.242 73.3104C103.044 73.0994 102.803 72.9337 102.535 72.8249C102.267 72.7161 101.979 72.6666 101.69 72.68C101.385 72.6745 101.082 72.7308 100.799 72.8457C100.516 72.9606 100.259 73.1317 100.044 73.3485C99.8294 73.5653 99.6606 73.8234 99.5482 74.1072C99.4357 74.3911 99.382 74.6948 99.3901 75V78.55H98.6401V72.07H99.3201V73.24C99.5935 72.8376 99.9643 72.5111 100.398 72.2907C100.832 72.0704 101.314 71.9635 101.8 71.98C102.177 71.9586 102.554 72.0198 102.904 72.1593C103.255 72.2988 103.571 72.5131 103.83 72.7875C104.089 73.0618 104.285 73.3894 104.404 73.7474C104.523 74.1054 104.563 74.4851 104.52 74.86Z" fill="#FDFDFD"/>
<path id="Vector_18" d="M112.92 75.61H107.14C107.146 75.9383 107.218 76.262 107.353 76.5617C107.487 76.8614 107.68 77.1308 107.921 77.354C108.162 77.5772 108.446 77.7494 108.755 77.8604C109.064 77.9714 109.392 78.0189 109.72 78C110.148 78.0048 110.572 77.9181 110.963 77.7456C111.355 77.5731 111.705 77.3189 111.99 77L112.5 77.45C112.151 77.8462 111.72 78.1608 111.236 78.3716C110.752 78.5824 110.227 78.6843 109.7 78.67C109.254 78.686 108.809 78.6087 108.394 78.4431C107.979 78.2775 107.604 78.0271 107.291 77.708C106.979 77.389 106.736 77.0082 106.579 76.5902C106.422 76.1721 106.355 75.7258 106.38 75.28C106.353 74.8394 106.419 74.3981 106.572 73.9844C106.726 73.5707 106.964 73.1936 107.272 72.8773C107.58 72.561 107.951 72.3125 108.36 72.1476C108.769 71.9828 109.209 71.9053 109.65 71.92C110.125 71.8869 110.602 71.9634 111.043 72.1437C111.484 72.324 111.877 72.6032 112.193 72.9598C112.509 73.3164 112.739 73.7408 112.865 74.2003C112.991 74.6598 113.01 75.1421 112.92 75.61ZM107.14 74.95H112.2C112.2 74.6267 112.132 74.307 112.002 74.0114C111.871 73.7157 111.68 73.4506 111.441 73.2332C111.202 73.0157 110.92 72.8506 110.613 72.7484C110.306 72.6463 109.982 72.6093 109.66 72.64C109.338 72.6252 109.017 72.675 108.715 72.7863C108.413 72.8977 108.137 73.0684 107.902 73.2884C107.667 73.5084 107.479 73.7731 107.348 74.0671C107.217 74.361 107.146 74.6782 107.14 75V74.95Z" fill="#FDFDFD"/>
<path id="Vector_19" d="M114.39 75.32C114.385 74.6566 114.578 74.0068 114.943 73.453C115.309 72.8992 115.83 72.4663 116.442 72.2092C117.053 71.9522 117.727 71.8825 118.379 72.009C119.03 72.1355 119.629 72.4526 120.1 72.92L119.63 73.42C119.317 73.1229 118.937 72.9065 118.522 72.7896C118.107 72.6727 117.67 72.6589 117.249 72.7492C116.827 72.8395 116.434 73.0313 116.103 73.308C115.773 73.5846 115.514 73.9378 115.351 74.3368C115.188 74.7358 115.124 75.1686 115.166 75.5977C115.208 76.0268 115.354 76.4392 115.591 76.7991C115.829 77.159 116.15 77.4556 116.528 77.6631C116.906 77.8707 117.329 77.9829 117.76 77.99C118.118 77.9945 118.474 77.927 118.805 77.7912C119.137 77.6555 119.438 77.4545 119.69 77.2L120.17 77.72C119.856 78.0399 119.481 78.2933 119.067 78.4651C118.652 78.6369 118.208 78.7236 117.76 78.72C117.31 78.7387 116.861 78.6632 116.441 78.4986C116.022 78.3339 115.642 78.0836 115.325 77.7636C115.007 77.4437 114.761 77.0611 114.6 76.6404C114.439 76.2196 114.367 75.7699 114.39 75.32Z" fill="#FDFDFD"/>
<path id="Vector_20" d="M125.92 78.34C125.504 78.5505 125.046 78.6666 124.58 78.68C123.21 78.68 122.73 77.91 122.73 76.56V72.75H121.39V72.08H122.76V70.22L123.49 70.14V72.08H125.66V72.75H123.49V76.56C123.49 77.41 123.7 78 124.65 78C124.999 77.9709 125.339 77.8723 125.65 77.71L125.92 78.34Z" fill="#FDFDFD"/>
<path id="Vector_21" d="M135.13 69.38H135.91V77.82H141.08V78.56H135.13V69.38Z" fill="#FDFDFD"/>
<path id="Vector_22" d="M148.39 75.61H142.62C142.625 75.9378 142.696 76.2613 142.829 76.5609C142.962 76.8606 143.155 77.1302 143.395 77.3535C143.635 77.5768 143.918 77.7492 144.226 77.8603C144.535 77.9714 144.863 78.0189 145.19 78C145.618 78.0048 146.042 77.9181 146.433 77.7456C146.825 77.5731 147.175 77.3189 147.46 77L147.97 77.45C147.622 77.8467 147.19 78.1617 146.706 78.3726C146.222 78.5835 145.698 78.685 145.17 78.67C144.724 78.686 144.279 78.6087 143.864 78.4431C143.45 78.2775 143.074 78.0271 142.762 77.708C142.449 77.389 142.207 77.0082 142.05 76.5902C141.893 76.1721 141.825 75.7258 141.85 75.28C141.823 74.8394 141.889 74.3981 142.043 73.9844C142.196 73.5707 142.435 73.1936 142.743 72.8773C143.05 72.561 143.421 72.3125 143.83 72.1476C144.24 71.9828 144.679 71.9053 145.12 71.92C145.595 71.8869 146.072 71.9634 146.513 72.1437C146.954 72.324 147.348 72.6032 147.664 72.9598C147.98 73.3164 148.209 73.7408 148.335 74.2003C148.461 74.6598 148.48 75.1421 148.39 75.61ZM142.62 74.95H147.67C147.67 74.6267 147.603 74.307 147.472 74.0114C147.341 73.7157 147.15 73.4506 146.911 73.2332C146.672 73.0157 146.39 72.8506 146.083 72.7484C145.777 72.6463 145.452 72.6093 145.13 72.64C144.812 72.6293 144.495 72.6822 144.198 72.7957C143.901 72.9091 143.629 73.0808 143.399 73.3006C143.169 73.5204 142.985 73.784 142.858 74.0758C142.731 74.3676 142.664 74.6818 142.66 75L142.62 74.95Z" fill="#FDFDFD"/>
<path id="Vector_23" d="M156.49 72.0799V78.56H155.79V77.28C155.507 77.7312 155.108 78.0988 154.635 78.3449C154.162 78.5909 153.633 78.7066 153.1 78.68C152.209 78.68 151.354 78.326 150.724 77.6959C150.094 77.0657 149.74 76.2111 149.74 75.32C149.74 74.4288 150.094 73.5742 150.724 72.9441C151.354 72.314 152.209 71.96 153.1 71.96C153.634 71.9354 154.166 72.0541 154.639 72.3038C155.112 72.5534 155.509 72.925 155.79 73.38V72.0799H156.49ZM155.74 75.32C155.721 74.8164 155.553 74.3297 155.259 73.9204C154.965 73.5111 154.557 73.1973 154.086 73.0181C153.615 72.8388 153.102 72.802 152.61 72.9121C152.119 73.0223 151.67 73.2746 151.321 73.6377C150.971 74.0008 150.736 74.4586 150.645 74.9542C150.553 75.4498 150.61 75.9614 150.807 76.4252C151.004 76.889 151.333 77.2846 151.753 77.5628C152.174 77.841 152.666 77.9896 153.17 77.99C153.52 78.0021 153.868 77.9406 154.192 77.8094C154.516 77.6781 154.808 77.4801 155.051 77.2283C155.293 76.9764 155.48 76.6763 155.599 76.3475C155.718 76.0187 155.766 75.6686 155.74 75.32Z" fill="#FDFDFD"/>
<path id="Vector_24" d="M163.15 72.4L162.82 73.0401C162.491 72.832 162.109 72.7211 161.72 72.72C161.413 72.7448 161.115 72.8312 160.842 72.9739C160.569 73.1167 160.328 73.313 160.133 73.551C159.938 73.789 159.793 74.0639 159.706 74.3593C159.62 74.6546 159.594 74.9644 159.63 75.27V78.56H158.88V72.08H159.56V73.43C159.745 73.01 160.048 72.6521 160.43 72.3986C160.813 72.1451 161.261 72.0068 161.72 72C162.226 71.9898 162.723 72.1289 163.15 72.4Z" fill="#FDFDFD"/>
<path id="Vector_25" d="M170.46 74.86V78.56H169.71V74.9C169.742 74.6135 169.712 74.3235 169.621 74.0498C169.53 73.7761 169.382 73.5252 169.185 73.3144C168.989 73.1035 168.749 72.9377 168.482 72.8282C168.215 72.7187 167.928 72.6681 167.64 72.68C167.331 72.6676 167.022 72.7188 166.733 72.8306C166.444 72.9424 166.182 73.1123 165.961 73.3299C165.741 73.5474 165.568 73.8079 165.452 74.0952C165.337 74.3825 165.282 74.6905 165.29 75V78.55H164.54V72.07H165.22V73.24C165.494 72.8383 165.865 72.5123 166.298 72.292C166.732 72.0718 167.214 71.9645 167.7 71.98C168.08 71.9525 168.461 72.0091 168.817 72.1459C169.172 72.2827 169.493 72.4962 169.757 72.7712C170.021 73.0463 170.22 73.3761 170.342 73.7371C170.463 74.0982 170.504 74.4816 170.46 74.86Z" fill="#FDFDFD"/>
<path id="Vector_26" d="M186.39 76.33H180.93L179.93 78.56H179.09L183.21 69.38H184.1L188.22 78.56H187.39L186.39 76.33ZM181.26 75.6H186.06L183.66 70.19L181.26 75.6Z" fill="#FDFDFD"/>
<path id="Vector_27" d="M189.22 75.32C189.215 74.6566 189.408 74.0068 189.773 73.453C190.139 72.8992 190.66 72.4663 191.272 72.2092C191.883 71.9522 192.558 71.8825 193.209 72.009C193.86 72.1355 194.459 72.4526 194.93 72.92L194.46 73.42C194.147 73.1254 193.766 72.9115 193.352 72.7967C192.938 72.6819 192.501 72.6697 192.081 72.7612C191.661 72.8526 191.269 73.0449 190.94 73.3215C190.611 73.5981 190.354 73.9507 190.191 74.3489C190.029 74.747 189.965 75.1787 190.007 75.6067C190.049 76.0347 190.194 76.4462 190.43 76.8056C190.666 77.1651 190.986 77.4616 191.362 77.6697C191.739 77.8778 192.16 77.9911 192.59 78C192.948 78.0034 193.303 77.9353 193.635 77.7997C193.966 77.664 194.267 77.4635 194.52 77.21L194.99 77.73C194.678 78.0505 194.305 78.3044 193.893 78.4763C193.48 78.6482 193.037 78.7345 192.59 78.73C192.139 78.7488 191.689 78.6731 191.269 78.5078C190.849 78.3425 190.468 78.0913 190.151 77.7703C189.834 77.4492 189.587 77.0654 189.427 76.6435C189.266 76.2215 189.196 75.7707 189.22 75.32Z" fill="#FDFDFD"/>
<path id="Vector_28" d="M202.78 75.61H197C197.006 75.9383 197.079 76.262 197.213 76.5617C197.347 76.8614 197.541 77.1308 197.782 77.354C198.022 77.5772 198.306 77.7494 198.615 77.8604C198.924 77.9714 199.252 78.0189 199.58 78C200.008 78.0048 200.432 77.9181 200.823 77.7456C201.215 77.5731 201.565 77.3189 201.85 77L202.36 77.45C202.012 77.8467 201.58 78.1617 201.096 78.3726C200.612 78.5835 200.088 78.685 199.56 78.67C199.114 78.686 198.669 78.6087 198.254 78.4431C197.84 78.2775 197.464 78.0271 197.152 77.708C196.839 77.389 196.597 77.0082 196.44 76.5902C196.283 76.1721 196.215 75.7258 196.24 75.28C196.213 74.8394 196.279 74.3981 196.433 73.9844C196.586 73.5707 196.825 73.1936 197.133 72.8773C197.44 72.561 197.811 72.3125 198.22 72.1476C198.63 71.9828 199.069 71.9053 199.51 71.92C199.985 71.8869 200.462 71.9634 200.903 72.1437C201.344 72.324 201.738 72.6032 202.054 72.9598C202.37 73.3164 202.6 73.7408 202.726 74.2003C202.851 74.6598 202.87 75.1421 202.78 75.61ZM197 74.95H202.06C202.06 74.6267 201.993 74.307 201.862 74.0114C201.731 73.7157 201.54 73.4506 201.301 73.2332C201.062 73.0157 200.78 72.8506 200.473 72.7484C200.167 72.6463 199.842 72.6093 199.52 72.64C199.199 72.6252 198.878 72.675 198.576 72.7863C198.274 72.8977 197.997 73.0684 197.762 73.2884C197.527 73.5084 197.339 73.7731 197.208 74.0671C197.077 74.361 197.006 74.6782 197 75V74.95Z" fill="#FDFDFD"/>
<path id="Vector_29" d="M130.06 80.73V68.73H130.62V80.73H130.06Z" fill="#FDFDFD"/>
<path id="Vector_30" d="M174.8 80.73V68.73H175.39V80.73H174.8Z" fill="#FDFDFD"/>
</g>
<defs>
<clipPath id="clip0_84_2171">
<rect width="207.93" height="80.73" fill="white"/>
</clipPath>
</defs>
</svg>
