<svg width="46" height="46" viewBox="0 0 46 46" fill="none" xmlns="http://www.w3.org/2000/svg">
<g filter="url(#filter0_d_84_12987)">
<mask id="path-1-inside-1_84_12987" fill="white">
<path d="M4.15663 21.7045C4.15571 25.0008 5.017 28.2193 6.65473 31.0562L4 40.7491L13.9194 38.1482C16.663 39.6417 19.737 40.4244 22.8608 40.4246H22.869C33.1812 40.4246 41.5756 32.0332 41.58 21.7192C41.582 16.7213 39.6374 12.0216 36.1043 8.48586C32.5719 4.95037 27.8739 3.00228 22.8682 3C12.5548 3 4.16104 11.3909 4.15678 21.7045"/>
</mask>
<path d="M4.15663 21.7045C4.15571 25.0008 5.017 28.2193 6.65473 31.0562L4 40.7491L13.9194 38.1482C16.663 39.6417 19.737 40.4244 22.8608 40.4246H22.869C33.1812 40.4246 41.5756 32.0332 41.58 21.7192C41.582 16.7213 39.6374 12.0216 36.1043 8.48586C32.5719 4.95037 27.8739 3.00228 22.8682 3C12.5548 3 4.16104 11.3909 4.15678 21.7045" fill="url(#paint0_linear_84_12987)"/>
<path d="M6.65473 31.0562L7.61921 31.3204L7.72948 30.9178L7.52078 30.5563L6.65473 31.0562ZM4 40.7491L3.03552 40.4849L2.5779 42.1558L4.25363 41.7164L4 40.7491ZM13.9194 38.1482L14.3976 37.2699L14.0493 37.0803L13.6658 37.1809L13.9194 38.1482ZM22.8608 40.4246L22.8607 41.4246H22.8608V40.4246ZM41.58 21.7192L42.58 21.7196V21.7196L41.58 21.7192ZM36.1043 8.48586L35.3969 9.19266L35.397 9.19269L36.1043 8.48586ZM22.8682 3L22.8687 2H22.8682V3ZM3.15663 21.7042C3.15566 25.1754 4.06281 28.5666 5.78868 31.5562L7.52078 30.5563C5.97119 27.8721 5.15576 24.8261 5.15663 21.7047L3.15663 21.7042ZM5.69025 30.7921L3.03552 40.4849L4.96448 41.0133L7.61921 31.3204L5.69025 30.7921ZM4.25363 41.7164L14.1731 39.1155L13.6658 37.1809L3.74637 39.7818L4.25363 41.7164ZM13.4413 39.0265C16.3316 40.5999 19.5699 41.4243 22.8607 41.4246L22.8609 39.4246C19.9041 39.4244 16.9945 38.6836 14.3976 37.2699L13.4413 39.0265ZM22.8608 41.4246H22.869V39.4246H22.8608V41.4246ZM22.869 41.4246C33.7334 41.4246 42.5754 32.5857 42.58 21.7196L40.58 21.7188C40.5758 31.4808 32.629 39.4246 22.869 39.4246V41.4246ZM42.58 21.7196C42.5821 16.4565 40.5322 11.5024 36.8117 7.77902L35.397 9.19269C38.7426 12.5409 40.5819 16.9862 40.58 21.7188L42.58 21.7196ZM36.8117 7.77905C33.0917 4.05577 28.1393 2.0024 22.8687 2L22.8678 4C27.6085 4.00216 32.0521 5.84497 35.3969 9.19266L36.8117 7.77905ZM22.8682 2C12.0026 2 3.16126 10.8384 3.15678 21.7041L5.15678 21.7049C5.16081 11.9434 13.107 4 22.8682 4V2Z" fill="white" mask="url(#path-1-inside-1_84_12987)"/>
<path d="M16.0093 13.2505C16.1729 13.2505 16.3326 13.2502 16.4849 13.2515L16.9165 13.2612H16.9175C17.0969 13.2686 17.1607 13.2786 17.2251 13.3159C17.2709 13.3425 17.3544 13.4076 17.4595 13.5854L17.5718 13.8042C17.7825 14.2728 18.121 15.1007 18.4263 15.8521C18.7208 16.5768 18.999 17.2672 19.0728 17.4155V17.4165C19.1198 17.5107 19.1426 17.5817 19.1489 17.6401C19.1529 17.6776 19.1518 17.7185 19.1353 17.7671L19.1138 17.8179C18.941 18.1634 18.8895 18.2991 18.6978 18.5239C18.4919 18.764 18.3137 18.9926 18.1528 19.1763L17.9976 19.3433C17.8891 19.451 17.6811 19.6507 17.5786 19.9263C17.4583 20.2498 17.5045 20.5934 17.7056 20.938V20.937C17.9783 21.4051 18.8777 22.8754 20.2241 24.1587L20.4995 24.4126C21.9355 25.6928 23.2241 26.3236 23.9624 26.6509L24.5024 26.8901H24.5034C24.7783 27.0276 25.0765 27.1281 25.3872 27.0903C25.7187 27.05 25.9638 26.8666 26.1528 26.6499L26.1519 26.6489C26.3953 26.3708 27.1535 25.4839 27.5698 24.9204L27.7251 24.7007C27.7819 24.6154 27.8218 24.58 27.8403 24.5669C27.854 24.5573 27.8596 24.5568 27.8657 24.5562C27.8782 24.5547 27.9099 24.5549 27.9741 24.5698C28.007 24.5775 28.0431 24.5877 28.0845 24.6011L28.228 24.6509C28.4202 24.7209 29.0959 25.0382 29.8208 25.3882L31.4849 26.2036C31.7557 26.339 31.9202 26.4117 32.0679 26.4927C32.1337 26.5288 32.1708 26.5547 32.1909 26.5698C32.1936 26.5869 32.199 26.6116 32.2017 26.646C32.2098 26.7497 32.2097 26.8975 32.1938 27.0815C32.1701 27.3568 32.1127 27.6974 32.0063 28.0718L31.8833 28.4556C31.7392 28.8596 31.2629 29.3389 30.6294 29.7485C30.0807 30.1034 29.5256 30.3346 29.1763 30.4067L29.0396 30.4282C28.5582 30.4721 28.2056 30.5612 27.4468 30.4595C26.7707 30.3688 25.7767 30.1231 24.1792 29.5269L23.4565 29.2495C19.2924 27.6073 16.4633 23.6555 15.6323 22.4419L15.3999 22.104C15.2827 21.9474 14.8101 21.319 14.3667 20.4458C13.9188 19.5638 13.5229 18.4738 13.5229 17.395C13.523 15.493 14.3824 14.4556 14.8931 13.9028L15.0864 13.6938C15.4192 13.3305 15.801 13.2505 16.0093 13.2505Z" fill="white" stroke="white"/>
</g>
<defs>
<filter id="filter0_d_84_12987" x="0" y="0" width="45.5801" height="45.749" filterUnits="userSpaceOnUse" color-interpolation-filters="sRGB">
<feFlood flood-opacity="0" result="BackgroundImageFix"/>
<feColorMatrix in="SourceAlpha" type="matrix" values="0 0 0 0 0 0 0 0 0 0 0 0 0 0 0 0 0 0 127 0" result="hardAlpha"/>
<feOffset dy="1"/>
<feGaussianBlur stdDeviation="2"/>
<feComposite in2="hardAlpha" operator="out"/>
<feColorMatrix type="matrix" values="0 0 0 0 0 0 0 0 0 0 0 0 0 0 0 0 0 0 0.25 0"/>
<feBlend mode="normal" in2="BackgroundImageFix" result="effect1_dropShadow_84_12987"/>
<feBlend mode="normal" in="SourceGraphic" in2="effect1_dropShadow_84_12987" result="shape"/>
</filter>
<linearGradient id="paint0_linear_84_12987" x1="1883" y1="3777.91" x2="1883" y2="3" gradientUnits="userSpaceOnUse">
<stop stop-color="#1FAF38"/>
<stop offset="1" stop-color="#60D669"/>
</linearGradient>
</defs>
</svg>
