<svg width="97" height="97" viewBox="0 0 97 97" fill="none" xmlns="http://www.w3.org/2000/svg">
<g clip-path="url(#clip0_1_4860)">
<path fill-rule="evenodd" clip-rule="evenodd" d="M48.5 88.4992C70.4001 88.4992 88.1537 71.5077 88.1537 50.5475C88.1537 29.5873 70.4001 12.5957 48.5 12.5957C26.5999 12.5957 8.84637 29.5873 8.84637 50.5475C8.84637 71.5077 26.5999 88.4992 48.5 88.4992Z" stroke="#1ABD8C" stroke-width="0.305962" stroke-dasharray="1.84 1.84"/>
<path fill-rule="evenodd" clip-rule="evenodd" d="M48.5 96.5496C75.0456 96.5496 96.565 75.9537 96.565 50.5474C96.565 25.1412 75.0456 4.54529 48.5 4.54529C21.9544 4.54529 0.434998 25.1412 0.434998 50.5474C0.434998 75.9537 21.9544 96.5496 48.5 96.5496Z" stroke="#1ABD8C" stroke-width="0.305962" stroke-dasharray="1.84 1.84"/>
<path d="M80.6689 65.2029C80.6702 59.8471 76.4127 55.3701 70.8413 54.8686C65.2699 54.3672 60.215 58.0061 59.1731 63.2683L25.8494 62.4032L26.2152 67.8825C26.2152 67.8825 21.4634 78.3761 46.4372 81.172V91.7781H75.3083V74.1439C78.6258 72.2847 80.6657 68.8823 80.6689 65.2029Z" fill="url(#paint0_linear_1_4860)"/>
<path d="M27.3594 68.1126C27.3594 68.1126 22.8093 78.1615 46.7256 80.8424V91.0038H74.375V64.0938L27.0043 62.8645L27.3594 68.1126Z" fill="#FFA982"/>
<path d="M41.1781 26.1777C39.6772 28.4444 36.5455 29.1255 34.1686 27.7022L19.3232 18.3395C16.9549 16.903 16.2432 13.9057 17.7304 11.6308C19.231 9.36728 22.3587 8.68653 24.7345 10.1064L39.5799 19.4691C41.9501 20.9038 42.6642 23.9015 41.1781 26.1777Z" fill="url(#paint1_linear_1_4860)"/>
<path d="M40.3557 25.6667C38.9606 27.7736 36.0496 28.4067 33.8402 27.0838L20.0362 18.3741C17.8348 17.0389 17.1733 14.2529 18.5555 12.1382C19.9506 10.0313 22.8615 9.3982 25.071 10.7211L38.8723 19.4257C41.0779 20.7603 41.741 23.5503 40.3557 25.6667Z" fill="#FFA982"/>
<path d="M69.1266 75.4832C74.8612 75.4832 79.51 71.0339 79.51 65.5454C79.51 60.0569 74.8612 55.6077 69.1266 55.6077C63.392 55.6077 58.7432 60.0569 58.7432 65.5454C58.7432 71.0339 63.392 75.4832 69.1266 75.4832Z" fill="#FFCBB4"/>
<path d="M67.2574 0H27.4809C26.5777 0 25.8454 0.700832 25.8454 1.56535V72.7997C25.8454 73.6642 26.5777 74.365 27.4809 74.365H67.2574C68.1607 74.365 68.893 73.6642 68.893 72.7997V1.56535C68.893 0.700832 68.1607 0 67.2574 0Z" fill="url(#paint2_linear_1_4860)"/>
<path d="M66.4883 1.00562H28.2473C27.2415 1.00562 26.4261 1.78597 26.4261 2.74859V71.6189C26.4261 72.5815 27.2415 73.3619 28.2473 73.3619H66.4883C67.4941 73.3619 68.3095 72.5815 68.3095 71.6189V2.74859C68.3095 1.78597 67.4941 1.00562 66.4883 1.00562Z" fill="white"/>
<path d="M57.8901 2.82019C57.6397 4.40574 56.2183 5.57946 54.5429 5.58415H40.078C38.403 5.57883 36.9824 4.40526 36.7321 2.82019H29.0684C28.6465 2.82019 28.2416 2.98005 27.9431 3.26549C27.6446 3.55094 27.4769 3.93824 27.4769 4.3421V70.0229C27.4769 70.4268 27.644 70.8142 27.9422 71.0999C28.2405 71.3856 28.6451 71.5461 29.0671 71.5461H65.6686C66.0906 71.5461 66.4954 71.3863 66.7939 71.1008C67.0924 70.8154 67.2601 70.4281 67.2601 70.0242V4.34337C67.2601 3.93952 67.0931 3.55209 66.7948 3.2664C66.4966 2.98071 66.0919 2.82019 65.6699 2.82019H57.8901Z" fill="#1B3867"/>
<path d="M51.8272 3.6853H43.0273C42.8798 3.6853 42.7603 3.79972 42.7603 3.94087V3.98815C42.7603 4.1293 42.8798 4.24372 43.0273 4.24372H51.8272C51.9747 4.24372 52.0942 4.1293 52.0942 3.98815V3.94087C52.0942 3.79972 51.9747 3.6853 51.8272 3.6853Z" fill="#DBDBDB"/>
<path d="M54.0769 4.32517C54.3171 4.32517 54.5119 4.13878 54.5119 3.90886C54.5119 3.67894 54.3171 3.49255 54.0769 3.49255C53.8367 3.49255 53.6419 3.67894 53.6419 3.90886C53.6419 4.13878 53.8367 4.32517 54.0769 4.32517Z" fill="#DBDBDB"/>
<path d="M75.8383 67.2986C72.8249 67.9656 70.7568 66.0846 70.0598 63.2018L63.1358 38.5945C62.4468 35.7005 64.3286 32.8172 67.3481 32.1402C70.3719 31.4808 73.3846 33.2818 74.0919 36.1718L79.7422 61.4142C80.4392 64.2982 78.8504 66.6316 75.8383 67.2986Z" fill="url(#paint3_linear_1_4860)"/>
<path d="M73.3151 36.7741C72.7276 34.3407 70.1902 32.8237 67.6476 33.386C65.105 33.9483 63.5201 36.3768 64.1075 38.8102L70.4745 65.1838C71.0619 67.6173 73.5994 69.1342 76.1419 68.572C78.6845 68.0097 80.2695 65.5812 79.682 63.1477L73.3151 36.7741Z" fill="#FFA982"/>
<path d="M79.4659 87.6788H39.9458V96.4959H79.4659V87.6788Z" fill="url(#paint4_linear_1_4860)"/>
<path d="M78.3978 88.701H41.0139V95.6014H78.3978V88.701Z" fill="#1B3867"/>
<path d="M35.4157 52.5753C33.9331 54.815 30.8388 55.4881 28.4903 54.0819L18.5342 47.9163C16.194 46.4973 15.4907 43.5359 16.96 41.2882C18.4426 39.0484 21.5369 38.3753 23.8854 39.7816L33.8415 45.9472C36.1817 47.3661 36.885 50.3276 35.4157 52.5753Z" fill="url(#paint5_linear_1_4860)"/>
<path d="M32.9163 65.6259C31.4205 67.8861 28.298 68.5656 25.9282 67.1465L19.7612 62.8427C17.3995 61.4111 16.6896 58.4227 18.1723 56.1545C19.6682 53.8943 22.7906 53.2148 25.1605 54.6339L31.3275 58.939C33.6883 60.3705 34.3981 63.358 32.9163 65.6259Z" fill="url(#paint6_linear_1_4860)"/>
<g opacity="0.5">
<path d="M47.3678 48.6767C53.9998 48.6767 59.376 43.5311 59.376 37.1838C59.376 30.8365 53.9998 25.6909 47.3678 25.6909C40.7358 25.6909 35.3596 30.8365 35.3596 37.1838C35.3596 43.5311 40.7358 48.6767 47.3678 48.6767Z" fill="url(#paint7_linear_1_4860)"/>
</g>
<path d="M32.4182 65.3052C31.0232 67.4121 28.1122 68.0452 25.9028 66.7223L20.151 62.715C17.9496 61.3798 17.2881 58.5938 18.6703 56.4792C20.0654 54.3723 22.9763 53.7391 25.1858 55.062L30.9362 59.077C33.1332 60.4115 33.7948 63.1918 32.4182 65.3052Z" fill="#FFA982"/>
<path d="M34.8683 52.2367C33.4732 54.3436 30.5622 54.9768 28.3528 53.6539L18.9854 47.8525C16.7841 46.5173 16.1225 43.7312 17.5048 41.6166C18.8998 39.5097 21.8108 38.8766 24.0203 40.1995L33.3876 46.0009C35.589 47.3361 36.2505 50.1221 34.8683 52.2367Z" fill="#FFA982"/>
<path d="M37.9898 39.5861C36.4999 41.8357 33.3917 42.5116 31.0324 41.0991L18.4153 33.2366C16.0649 31.8106 15.3587 28.8358 16.8345 26.5778C18.3244 24.3282 21.4326 23.6523 23.7919 25.0648L36.409 32.9273C38.7594 34.3533 39.4656 37.3281 37.9898 39.5861Z" fill="url(#paint8_linear_1_4860)"/>
<path d="M37.3196 39.1772C35.9245 41.2841 33.0136 41.9172 30.8041 40.5943L18.9868 33.2302C16.7854 31.895 16.1239 29.1089 17.5061 26.9943C18.9012 24.8874 21.8121 24.2543 24.0216 25.5772L35.8376 32.9414C38.0394 34.2761 38.7016 37.0623 37.3196 39.1772Z" fill="#FFA982"/>
<path d="M46.8615 45.223C51.3861 45.223 55.0541 41.5551 55.0541 37.0305C55.0541 32.5058 51.3861 28.8379 46.8615 28.8379C42.3369 28.8379 38.6689 32.5058 38.6689 37.0305C38.6689 41.5551 42.3369 45.223 46.8615 45.223Z" fill="#1ABD8C"/>
<path d="M45.9171 40.6352C45.7975 40.6352 45.6796 40.6099 45.5726 40.5613C45.4656 40.5126 45.3726 40.442 45.3009 40.355L43.4114 38.0644C43.3505 37.9909 43.3062 37.9071 43.281 37.818C43.2558 37.7288 43.2502 37.636 43.2645 37.5449C43.2787 37.4538 43.3126 37.3661 43.3642 37.2869C43.4157 37.2076 43.484 37.1385 43.565 37.0832C43.646 37.028 43.7381 36.9878 43.8362 36.965C43.9343 36.9422 44.0364 36.9372 44.1366 36.9502C44.2368 36.9633 44.3332 36.9942 44.4203 37.0412C44.5073 37.0882 44.5834 37.1503 44.644 37.224L45.8802 38.7224L49.0552 34.3926C49.1686 34.2382 49.3448 34.131 49.5451 34.0947C49.7453 34.0584 49.9532 34.0958 50.1232 34.1988C50.2931 34.3018 50.4111 34.4619 50.4512 34.644C50.4913 34.826 50.4503 35.0151 50.3372 35.1697L46.5582 40.3233C46.4899 40.4165 46.3979 40.4935 46.2901 40.5477C46.1823 40.6019 46.0617 40.6319 45.9386 40.635C45.9314 40.6351 45.9243 40.6352 45.9171 40.6352Z" fill="white"/>
</g>
<defs>
<linearGradient id="paint0_linear_1_4860" x1="53.2611" y1="91.7845" x2="53.2611" y2="54.8243" gradientUnits="userSpaceOnUse">
<stop stop-color="#808080" stop-opacity="0.25"/>
<stop offset="0.54" stop-color="#808080" stop-opacity="0.12"/>
<stop offset="1" stop-color="#808080" stop-opacity="0.1"/>
</linearGradient>
<linearGradient id="paint1_linear_1_4860" x1="29.4529" y1="28.4472" x2="29.4529" y2="9.36394" gradientUnits="userSpaceOnUse">
<stop stop-color="#808080" stop-opacity="0.25"/>
<stop offset="0.54" stop-color="#808080" stop-opacity="0.12"/>
<stop offset="1" stop-color="#808080" stop-opacity="0.1"/>
</linearGradient>
<linearGradient id="paint2_linear_1_4860" x1="47.3692" y1="74.3638" x2="47.3692" y2="-0.00127656" gradientUnits="userSpaceOnUse">
<stop stop-color="#808080" stop-opacity="0.25"/>
<stop offset="0.54" stop-color="#808080" stop-opacity="0.12"/>
<stop offset="1" stop-color="#808080" stop-opacity="0.1"/>
</linearGradient>
<linearGradient id="paint3_linear_1_4860" x1="71.4484" y1="67.4315" x2="71.4484" y2="32.0022" gradientUnits="userSpaceOnUse">
<stop stop-color="#808080" stop-opacity="0.25"/>
<stop offset="0.54" stop-color="#808080" stop-opacity="0.12"/>
<stop offset="1" stop-color="#808080" stop-opacity="0.1"/>
</linearGradient>
<linearGradient id="paint4_linear_1_4860" x1="59.7085" y1="96.4934" x2="59.7085" y2="87.6763" gradientUnits="userSpaceOnUse">
<stop stop-color="#808080" stop-opacity="0.25"/>
<stop offset="0.54" stop-color="#808080" stop-opacity="0.12"/>
<stop offset="1" stop-color="#808080" stop-opacity="0.1"/>
</linearGradient>
<linearGradient id="paint5_linear_1_4860" x1="26.1858" y1="54.8166" x2="26.1858" y2="39.0481" gradientUnits="userSpaceOnUse">
<stop stop-color="#808080" stop-opacity="0.25"/>
<stop offset="0.54" stop-color="#808080" stop-opacity="0.12"/>
<stop offset="1" stop-color="#808080" stop-opacity="0.1"/>
</linearGradient>
<linearGradient id="paint6_linear_1_4860" x1="25.545" y1="67.8876" x2="25.545" y2="53.8915" gradientUnits="userSpaceOnUse">
<stop stop-color="#808080" stop-opacity="0.25"/>
<stop offset="0.54" stop-color="#808080" stop-opacity="0.12"/>
<stop offset="1" stop-color="#808080" stop-opacity="0.1"/>
</linearGradient>
<linearGradient id="paint7_linear_1_4860" x1="47.3678" y1="48.6767" x2="47.3678" y2="25.6896" gradientUnits="userSpaceOnUse">
<stop stop-color="#808080" stop-opacity="0.25"/>
<stop offset="0.54" stop-color="#808080" stop-opacity="0.12"/>
<stop offset="1" stop-color="#808080" stop-opacity="0.1"/>
</linearGradient>
<linearGradient id="paint8_linear_1_4860" x1="27.4115" y1="41.8415" x2="27.4115" y2="24.3313" gradientUnits="userSpaceOnUse">
<stop stop-color="#808080" stop-opacity="0.25"/>
<stop offset="0.54" stop-color="#808080" stop-opacity="0.12"/>
<stop offset="1" stop-color="#808080" stop-opacity="0.1"/>
</linearGradient>
<clipPath id="clip0_1_4860">
<rect width="97" height="97" fill="white"/>
</clipPath>
</defs>
</svg>
