<svg width="302" height="225" viewBox="0 0 302 225" fill="none" xmlns="http://www.w3.org/2000/svg">
<path d="M301.965 197.727H0V197.878H301.965V197.727Z" fill="#EBEBEB"/>
<path d="M261.979 204.152H241.977V204.303H261.979V204.152Z" fill="#EBEBEB"/>
<path d="M189.072 204.08H183.824V204.231H189.072V204.08Z" fill="#EBEBEB"/>
<path d="M271.708 207.444H260.118V207.595H271.708V207.444Z" fill="#EBEBEB"/>
<path d="M69.2104 209.449H43.1267V209.6H69.2104V209.449Z" fill="#EBEBEB"/>
<path d="M66.9698 202.854H63.147V203.005H66.9698V202.854Z" fill="#EBEBEB"/>
<path d="M150.046 203.5H113.267V203.651H150.046V203.5Z" fill="#EBEBEB"/>
<path d="M143.131 170.791H26.5186C25.605 170.79 24.7295 170.426 24.0841 169.779C23.4387 169.133 23.0762 168.256 23.0762 167.343V3.41824C23.0841 2.50995 23.4501 1.64147 24.0947 1.00145C24.7392 0.361427 25.6102 0.00155596 26.5186 0H143.131C144.046 0 144.923 0.363317 145.57 1.01002C146.216 1.65673 146.58 2.53385 146.58 3.44844V167.343C146.58 168.257 146.216 169.135 145.57 169.781C144.923 170.428 144.046 170.791 143.131 170.791ZM26.5186 0.120786C25.6451 0.122386 24.8079 0.4705 24.1908 1.08872C23.5737 1.70694 23.2272 2.54475 23.2272 3.41824V167.343C23.2272 168.216 23.5737 169.054 24.1908 169.672C24.8079 170.291 25.6451 170.639 26.5186 170.64H143.131C144.005 170.639 144.843 170.291 145.461 169.673C146.079 169.055 146.427 168.217 146.429 167.343V3.41824C146.427 2.54419 146.079 1.7064 145.461 1.08835C144.843 0.470304 144.005 0.122383 143.131 0.120786H26.5186Z" fill="#EBEBEB"/>
<path d="M273.767 170.791H157.149C156.235 170.79 155.358 170.426 154.712 169.779C154.066 169.133 153.702 168.257 153.7 167.343V3.41824C153.71 2.5094 154.077 1.64092 154.723 1.00107C155.368 0.361216 156.24 0.00153899 157.149 0H273.767C274.675 0.00314315 275.544 0.363716 276.187 1.00357C276.831 1.64342 277.196 2.51099 277.204 3.41824V167.343C277.204 168.255 276.842 169.131 276.198 169.777C275.554 170.423 274.68 170.788 273.767 170.791ZM157.149 0.120786C156.275 0.122383 155.437 0.470304 154.819 1.08835C154.201 1.7064 153.853 2.54419 153.851 3.41824V167.343C153.853 168.217 154.201 169.055 154.819 169.673C155.437 170.291 156.275 170.639 157.149 170.64H273.767C274.641 170.639 275.479 170.291 276.097 169.673C276.715 169.055 277.063 168.217 277.065 167.343V3.41824C277.063 2.54419 276.715 1.7064 276.097 1.08835C275.479 0.470304 274.641 0.122383 273.767 0.120786H157.149Z" fill="#EBEBEB"/>
<path d="M259.02 24.9604H42.9456V114.88H259.02V24.9604Z" fill="#F0F0F0"/>
<path d="M254.792 110.658V29.1938L47.1728 29.1938V110.658L254.792 110.658Z" fill="#FAFAFA"/>
<path d="M74.5068 110.652L95.8014 29.188H111.504L90.209 110.652H74.5068Z" fill="white"/>
<path d="M93.8325 110.652L115.127 29.188H122.151L100.856 110.652H93.8325Z" fill="white"/>
<path d="M128.196 110.652L149.497 29.188H165.199L143.898 110.652H128.196Z" fill="white"/>
<path d="M167.79 110.652L189.084 29.188H196.114L174.813 110.652H167.79Z" fill="white"/>
<path d="M102.795 110.658V29.1938H101.72V110.658H102.795Z" fill="#E0E0E0"/>
<path d="M48.248 110.658L48.248 29.1938H47.1731L47.1731 110.658H48.248Z" fill="#E0E0E0"/>
<path d="M101.72 110.658V29.1938H97.4925V110.658H101.72Z" fill="#F0F0F0"/>
<path d="M155.21 110.658V29.1938H154.135V110.658H155.21Z" fill="#E0E0E0"/>
<path d="M154.135 110.658V29.1938H149.908V110.658H154.135Z" fill="#F0F0F0"/>
<path d="M207.649 110.652V29.188H206.574V110.652H207.649Z" fill="#E0E0E0"/>
<path d="M206.574 110.652V29.188H202.347V110.652H206.574Z" fill="#F0F0F0"/>
<path d="M260.094 114.88V24.9604H259.019V114.88H260.094Z" fill="#E0E0E0"/>
<path d="M262.51 18.7881H39.4546C39.2069 18.7866 38.9697 18.6874 38.7945 18.5122C38.6193 18.337 38.5201 18.0998 38.5186 17.852C38.5185 17.6032 38.617 17.3645 38.7924 17.188C38.9677 17.0115 39.2058 16.9115 39.4546 16.9099H262.51C262.759 16.9115 262.997 17.0115 263.172 17.188C263.348 17.3645 263.446 17.6032 263.446 17.852C263.445 18.0998 263.345 18.337 263.17 18.5122C262.995 18.6874 262.758 18.7866 262.51 18.7881Z" fill="#E0E0E0"/>
<g opacity="0.6">
<path d="M85.9632 15.0981H40.3303V179.168H85.9632V15.0981Z" fill="#F5F5F5"/>
<path d="M65.0553 180.509H61.2324L62.3074 16.439H64.0165L65.0553 180.509Z" fill="#E6E6E6"/>
<path d="M52.3907 180.509H50.5427L51.0621 16.439H51.8895L52.3907 180.509Z" fill="#E6E6E6"/>
<path d="M77.7557 180.509H75.9077L76.4271 16.439H77.2545L77.7557 180.509Z" fill="#E6E6E6"/>
</g>
<g opacity="0.6">
<path d="M261.091 15.0981H215.458V179.168H261.091V15.0981Z" fill="#F5F5F5"/>
<path d="M233.34 180.509H229.518L230.593 16.439H232.302L233.34 180.509Z" fill="#E6E6E6"/>
<path d="M224.904 180.509H223.062L223.575 16.439H224.402L224.904 180.509Z" fill="#E6E6E6"/>
<path d="M244.428 180.509H242.586L243.106 16.439H243.927L244.428 180.509Z" fill="#E6E6E6"/>
<path d="M253.826 180.509H251.984L252.497 16.439H253.324L253.826 180.509Z" fill="#E6E6E6"/>
</g>
<path d="M196.404 196.7H204.98V147.552H196.404V196.7Z" fill="#E6E6E6"/>
<path d="M96.9851 196.7H199.708V147.552H96.9851V196.7Z" fill="#F0F0F0"/>
<path d="M197.4 196.7H194.308H101.418V197.727H194.308H197.4H200.547V196.7H197.4Z" fill="#E0E0E0"/>
<path opacity="0.5" d="M99.914 170.459H196.778V150.626H99.914V170.459Z" fill="#FAFAFA"/>
<path opacity="0.5" d="M99.914 193.493H196.778V173.66H99.914V193.493Z" fill="#FAFAFA"/>
<path d="M114.596 160.542C114.596 160.974 114.468 161.395 114.228 161.754C113.989 162.112 113.648 162.392 113.25 162.557C112.851 162.722 112.413 162.765 111.99 162.681C111.567 162.597 111.179 162.389 110.874 162.084C110.569 161.779 110.361 161.391 110.277 160.968C110.193 160.545 110.236 160.107 110.401 159.708C110.566 159.31 110.846 158.969 111.204 158.73C111.563 158.49 111.984 158.362 112.416 158.362C112.702 158.362 112.985 158.419 113.25 158.528C113.514 158.638 113.755 158.798 113.957 159.001C114.16 159.203 114.32 159.444 114.43 159.708C114.539 159.973 114.596 160.256 114.596 160.542Z" fill="#E0E0E0"/>
<path d="M186.451 160.542C186.451 160.974 186.323 161.395 186.084 161.754C185.844 162.112 185.504 162.392 185.105 162.557C184.707 162.722 184.269 162.765 183.846 162.681C183.423 162.597 183.034 162.389 182.729 162.084C182.424 161.779 182.217 161.391 182.133 160.968C182.049 160.545 182.092 160.107 182.257 159.708C182.422 159.31 182.701 158.969 183.06 158.73C183.418 158.49 183.84 158.362 184.271 158.362C184.557 158.362 184.841 158.419 185.105 158.528C185.37 158.638 185.61 158.798 185.813 159.001C186.015 159.203 186.176 159.444 186.285 159.708C186.395 159.973 186.451 160.256 186.451 160.542Z" fill="#E0E0E0"/>
<path d="M112.416 185.757C113.62 185.757 114.596 184.781 114.596 183.576C114.596 182.372 113.62 181.396 112.416 181.396C111.211 181.396 110.235 182.372 110.235 183.576C110.235 184.781 111.211 185.757 112.416 185.757Z" fill="#E0E0E0"/>
<path d="M186.451 183.594C186.451 184.026 186.323 184.447 186.084 184.806C185.844 185.164 185.504 185.444 185.105 185.609C184.707 185.774 184.269 185.817 183.846 185.733C183.423 185.649 183.034 185.441 182.729 185.136C182.424 184.831 182.217 184.443 182.133 184.02C182.049 183.597 182.092 183.159 182.257 182.76C182.422 182.362 182.701 182.021 183.06 181.782C183.418 181.542 183.84 181.414 184.271 181.414C184.849 181.414 185.404 181.644 185.813 182.053C186.221 182.462 186.451 183.016 186.451 183.594Z" fill="#E0E0E0"/>
<path d="M150.523 160.542C150.523 160.974 150.396 161.395 150.156 161.754C149.916 162.112 149.576 162.392 149.178 162.557C148.779 162.722 148.341 162.765 147.918 162.681C147.495 162.597 147.107 162.389 146.802 162.084C146.497 161.779 146.289 161.391 146.205 160.968C146.121 160.545 146.164 160.107 146.329 159.708C146.494 159.31 146.773 158.969 147.132 158.73C147.491 158.49 147.912 158.362 148.343 158.362C148.63 158.362 148.913 158.419 149.178 158.528C149.442 158.638 149.682 158.798 149.885 159.001C150.087 159.203 150.248 159.444 150.358 159.708C150.467 159.973 150.523 160.256 150.523 160.542Z" fill="#E0E0E0"/>
<path d="M148.343 185.757C149.547 185.757 150.523 184.781 150.523 183.576C150.523 182.372 149.547 181.396 148.343 181.396C147.139 181.396 146.163 182.372 146.163 183.576C146.163 184.781 147.139 185.757 148.343 185.757Z" fill="#E0E0E0"/>
<path d="M193.354 139.206C193.354 141.419 192.475 143.542 190.909 145.108C189.344 146.673 187.221 147.552 185.008 147.552C182.794 147.552 180.671 146.673 179.106 145.108C177.541 143.542 176.661 141.419 176.661 139.206H193.354Z" fill="#F0F0F0"/>
<path d="M127.363 137.696C127.363 140.305 126.326 142.808 124.481 144.653C122.636 146.498 120.134 147.534 117.525 147.534C114.916 147.534 112.413 146.498 110.568 144.653C108.723 142.808 107.687 140.305 107.687 137.696H127.363Z" fill="#F0F0F0"/>
<path d="M169.656 141.76C169.656 143.297 169.046 144.77 167.96 145.856C166.873 146.942 165.4 147.552 163.864 147.552C162.328 147.552 160.855 146.942 159.769 145.856C158.683 144.77 158.073 143.297 158.073 141.76H169.656Z" fill="#F0F0F0"/>
<path d="M151.096 224.673C215.766 224.673 268.192 221.612 268.192 217.836C268.192 214.061 215.766 211 151.096 211C86.4256 211 34 214.061 34 217.836C34 221.612 86.4256 224.673 151.096 224.673Z" fill="#F5F5F5"/>
<path d="M210.258 36.453C208.972 35.1667 206.496 30.2929 208.869 27.998C211.243 25.7031 213.356 27.7866 213.519 28.9039C213.682 30.0212 213.248 39.4364 210.258 36.453Z" fill="#263238"/>
<path d="M209.715 211.768L204.322 211.816L202.854 199.351L208.241 199.303L209.715 211.768Z" fill="#FF8B7B"/>
<path d="M204.316 211.194L210.198 211.14C210.306 211.141 210.412 211.177 210.498 211.242C210.585 211.307 210.649 211.398 210.681 211.502L212.106 216.279C212.144 216.39 212.155 216.509 212.137 216.625C212.119 216.741 212.074 216.851 212.004 216.946C211.935 217.041 211.844 217.118 211.739 217.17C211.633 217.222 211.517 217.248 211.4 217.245C209.28 217.245 206.2 217.131 203.549 217.155C200.432 217.155 199.043 217.372 195.384 217.408C193.173 217.408 192.364 215.198 193.3 214.993C197.449 214.032 199.593 213.906 203.065 211.629C203.431 211.365 203.865 211.214 204.316 211.194Z" fill="#263238"/>
<path opacity="0.2" d="M202.854 199.357L203.615 205.783L209.002 205.735L208.247 199.309L202.854 199.357Z" fill="black"/>
<path d="M202.087 212.154C202.669 212.144 203.247 212.073 203.814 211.943C203.841 211.939 203.866 211.926 203.885 211.906C203.903 211.887 203.915 211.861 203.917 211.834C203.919 211.808 203.914 211.782 203.901 211.759C203.888 211.737 203.868 211.719 203.845 211.707C203.591 211.581 201.326 210.5 200.704 210.88C200.647 210.917 200.6 210.968 200.568 211.028C200.536 211.089 200.521 211.156 200.523 211.224C200.522 211.34 200.547 211.455 200.597 211.56C200.648 211.665 200.721 211.757 200.813 211.828C201.191 212.073 201.638 212.188 202.087 212.154ZM203.38 211.768C202.214 211.973 201.326 211.931 200.964 211.641C200.901 211.592 200.851 211.528 200.819 211.456C200.786 211.383 200.772 211.304 200.777 211.224C200.773 211.2 200.777 211.174 200.788 211.152C200.798 211.129 200.816 211.11 200.837 211.097C201.175 210.892 202.456 211.375 203.38 211.768Z" fill="#1B3867"/>
<path d="M203.79 211.979C203.819 211.977 203.846 211.967 203.869 211.949C203.887 211.935 203.901 211.917 203.908 211.895C203.916 211.874 203.917 211.85 203.911 211.828C203.911 211.732 203.488 209.413 202.208 209.558C201.87 209.594 201.773 209.769 201.755 209.902C201.664 210.506 203.047 211.677 203.736 211.967L203.79 211.979ZM202.317 209.805C203.09 209.805 203.476 211.067 203.609 211.617C202.896 211.218 201.954 210.3 202.009 209.938C202.009 209.938 202.009 209.835 202.238 209.811L202.317 209.805Z" fill="#1B3867"/>
<path d="M205.904 63.6721L205.348 64.276L204.829 64.7894C204.485 65.1276 204.128 65.4477 203.772 65.7617C203.063 66.3979 202.339 67.0018 201.598 67.5735C200.103 68.7617 198.529 69.8472 196.887 70.8226C196.06 71.3118 195.208 71.7769 194.345 72.2177C193.481 72.6586 192.569 73.0391 191.651 73.4256C189.769 74.1766 187.808 74.7134 185.805 75.026L185.358 75.0924C185.068 75.1298 184.775 75.148 184.482 75.1468C183.81 75.1405 183.144 75.0094 182.52 74.7603C181.9 74.5115 181.333 74.149 180.847 73.6913C180.46 73.3222 180.123 72.904 179.844 72.4472C179.459 71.7845 179.168 71.0709 178.981 70.3274C178.834 69.7516 178.727 69.1664 178.661 68.576C178.551 67.5553 178.52 66.5275 178.57 65.502C178.612 64.5237 178.691 63.5815 178.799 62.6575C179.029 60.8035 179.355 59.0339 179.754 57.2222C180.152 55.4104 180.605 53.7375 181.191 51.9861L185.159 52.7712C185.014 56.1653 184.851 59.6439 184.96 62.9293C184.979 64.4548 185.141 65.9753 185.443 67.4708C185.502 67.7471 185.585 68.0178 185.69 68.2801C185.775 68.4854 185.878 68.6123 185.871 68.5579C185.836 68.4659 185.781 68.3832 185.708 68.3163C185.544 68.1574 185.352 68.0304 185.141 67.9419C184.924 67.8506 184.693 67.7956 184.458 67.7788C184.35 67.7788 184.301 67.7788 184.235 67.7788H184.301L184.428 67.7426C185.859 67.3751 187.25 66.8695 188.583 66.2328C189.978 65.5598 191.327 64.7973 192.623 63.9499C193.934 63.0803 195.226 62.1381 196.47 61.1417C197.074 60.6464 197.709 60.1271 198.282 59.6016L199.164 58.8044L199.587 58.4119L199.955 58.0616L205.904 63.6721Z" fill="#FF8B7B"/>
<path d="M209.099 61.5404C208.893 55.8453 204.219 53.8644 198.361 57.7477C195.778 59.3851 193.292 61.1697 190.914 63.0925L194.701 75.2556C194.701 75.2556 201.948 72.9547 206.139 68.4373C208.96 65.3693 209.171 63.479 209.099 61.5404Z" fill="#263238"/>
<path opacity="0.2" d="M201.966 63.9683C201.966 63.9683 198.47 68.9688 197.231 74.2834C198.951 73.5503 200.607 72.6777 202.184 71.6744L201.966 63.9683Z" fill="black"/>
<path d="M184.959 54.577L186.989 49.9931L181.245 48.3142C181.245 48.3142 180.261 50.5065 180.823 54.269L184.959 54.577Z" fill="#FF8B7B"/>
<path d="M187.599 44.6182L182.604 45.216L181.245 48.3142L186.989 49.9931L187.599 44.6182Z" fill="#FF8B7B"/>
<path d="M202.002 102.825C202.002 102.825 198.294 133.903 197.884 150.535C197.461 167.814 200.849 202.667 200.849 202.667L210.578 202.461C210.578 202.461 211.75 165.151 213.163 148.053C214.697 129.416 218.562 102.487 218.562 102.487L202.002 102.825Z" fill="#1B3867"/>
<path opacity="0.6" d="M202.002 102.825C202.002 102.825 198.294 133.903 197.884 150.535C197.461 167.814 200.849 202.667 200.849 202.667L210.578 202.461C210.578 202.461 211.75 165.151 213.163 148.053C214.697 129.416 218.562 102.487 218.562 102.487L202.002 102.825Z" fill="white"/>
<path opacity="0.2" d="M213.592 111.624C209.244 121.209 210.409 142.618 212.879 151.798C212.97 150.463 213.066 149.201 213.163 148.035C214.172 135.751 216.183 119.874 217.457 110.471C216.273 108.756 214.951 108.623 213.592 111.624Z" fill="black"/>
<path d="M211.774 202.878L200.336 203.107L199.49 199.309L211.635 199.279L211.774 202.878Z" fill="#1B3867"/>
<path d="M233.745 211.768L228.358 211.816L226.89 199.351L232.277 199.303L233.745 211.768Z" fill="#FF8B7B"/>
<path d="M228.346 211.194L234.234 211.14C234.343 211.142 234.447 211.178 234.534 211.243C234.621 211.308 234.685 211.399 234.717 211.502L236.143 216.279C236.179 216.39 236.189 216.509 236.17 216.624C236.152 216.74 236.106 216.849 236.037 216.944C235.968 217.038 235.878 217.115 235.773 217.167C235.669 217.22 235.553 217.246 235.436 217.245C233.31 217.245 230.236 217.131 227.585 217.155C224.469 217.155 223.074 217.372 219.42 217.408C217.21 217.408 216.4 215.198 217.336 214.993C221.479 214.032 223.623 213.906 227.102 211.629C227.465 211.365 227.898 211.214 228.346 211.194Z" fill="#263238"/>
<path opacity="0.2" d="M226.89 199.357L227.645 205.783L233.038 205.735L232.283 199.309L226.89 199.357Z" fill="black"/>
<path d="M226.123 212.154C226.705 212.143 227.284 212.072 227.851 211.943C227.877 211.939 227.901 211.926 227.918 211.906C227.936 211.886 227.946 211.861 227.947 211.834C227.951 211.809 227.947 211.783 227.935 211.76C227.923 211.737 227.904 211.719 227.881 211.707C227.621 211.581 225.356 210.5 224.74 210.88C224.682 210.916 224.634 210.967 224.602 211.027C224.57 211.088 224.556 211.156 224.559 211.224C224.558 211.34 224.583 211.454 224.632 211.559C224.681 211.663 224.753 211.755 224.843 211.828C225.223 212.073 225.672 212.187 226.123 212.154ZM227.416 211.768C226.25 211.973 225.362 211.931 225 211.641C224.938 211.591 224.888 211.528 224.854 211.455C224.821 211.383 224.804 211.304 224.807 211.224C224.803 211.2 224.807 211.174 224.818 211.152C224.829 211.129 224.846 211.11 224.867 211.097C225.205 210.892 226.474 211.375 227.416 211.768Z" fill="#1B3867"/>
<path d="M227.82 211.979C227.839 211.979 227.857 211.974 227.874 211.966C227.891 211.958 227.905 211.946 227.917 211.932C227.929 211.918 227.938 211.901 227.943 211.883C227.948 211.865 227.95 211.847 227.947 211.828C227.947 211.732 227.525 209.413 226.244 209.558C225.906 209.594 225.809 209.769 225.785 209.902C225.701 210.506 227.084 211.677 227.772 211.967L227.82 211.979ZM226.353 209.805C227.12 209.805 227.512 211.067 227.645 211.617C226.933 211.218 225.985 210.3 226.039 209.938C226.039 209.938 226.039 209.835 226.268 209.811L226.353 209.805Z" fill="#1B3867"/>
<path d="M211.496 102.62C211.496 102.62 214.184 136.059 216.147 152.559C218.182 169.722 224.885 202.648 224.885 202.648L234.615 202.443C234.615 202.443 231.945 165.06 230.913 147.932C229.783 129.241 229.493 102.209 229.493 102.209L211.496 102.62Z" fill="#1B3867"/>
<path opacity="0.6" d="M211.496 102.62C211.496 102.62 214.184 136.059 216.147 152.559C218.182 169.722 224.885 202.648 224.885 202.648L234.615 202.443C234.615 202.443 231.945 165.06 230.913 147.932C229.783 129.241 229.493 102.209 229.493 102.209L211.496 102.62Z" fill="white"/>
<path d="M235.811 202.878L224.366 203.107L223.527 199.309L235.672 199.279L235.811 202.878Z" fill="#1B3867"/>
<path d="M201.332 56.256C201.332 56.256 197.352 71.0281 202.002 102.825C210.687 102.638 225.272 102.3 229.493 102.221C229.602 97.7942 226.335 76.089 230.158 55.1628C227.407 54.688 224.626 54.4175 221.836 54.3536C217.751 54.2045 213.662 54.2932 209.588 54.6193C206.798 54.9494 204.037 55.4966 201.332 56.256Z" fill="#263238"/>
<path opacity="0.2" d="M228.491 70.0558L223.991 66.3296C224.287 69.2405 226.921 76.3729 228.31 79.9844C228.285 76.8198 228.316 73.4801 228.491 70.0558Z" fill="black"/>
<path d="M212.396 64.8198L207.486 74.537C207.383 74.741 207.346 74.9727 207.383 75.1987C207.419 75.4247 207.526 75.6333 207.689 75.7944C207.851 75.9556 208.061 76.061 208.287 76.0955C208.513 76.13 208.745 76.0918 208.948 75.9864L212.155 74.223C212.329 74.1292 212.526 74.0863 212.724 74.0991C212.921 74.1119 213.111 74.1799 213.272 74.2954L216.43 76.5722C216.612 76.7042 216.831 76.7743 217.055 76.7721C217.28 76.77 217.497 76.6956 217.676 76.5602C217.855 76.4247 217.985 76.2353 218.048 76.0199C218.111 75.8046 218.103 75.5747 218.025 75.3644L214.335 64.9889C214.271 64.7915 214.15 64.6174 213.987 64.4882C213.825 64.3591 213.628 64.2806 213.421 64.2625C213.215 64.2445 213.007 64.2877 212.825 64.3868C212.643 64.4859 212.494 64.6365 212.396 64.8198Z" fill="white"/>
<path d="M220.326 40.5598C219.637 44.5216 219.021 51.7567 221.836 54.3234C221.836 54.3234 221.014 57.9107 213.519 59.1548C208.483 57.5363 209.588 54.6132 209.588 54.6132C213.96 53.4658 213.773 50.2106 212.946 47.1668L220.326 40.5598Z" fill="#FF8B7B"/>
<path opacity="0.2" d="M217.318 43.2473L212.946 47.1366C213.149 47.8457 213.291 48.5711 213.369 49.3047C215.047 49.0269 217.312 47.1306 217.451 45.3731C217.537 44.6624 217.492 43.9419 217.318 43.2473Z" fill="black"/>
<path d="M222.723 35.6863C221.268 40.8317 220.682 43.9178 217.469 46.0255C212.638 49.1901 206.713 45.4216 206.598 39.9319C206.49 35.0038 208.881 27.4124 214.449 26.4461C215.672 26.2292 216.931 26.3281 218.105 26.7335C219.279 27.1389 220.33 27.8374 221.159 28.7628C221.987 29.6882 222.566 30.8098 222.84 32.0214C223.113 33.233 223.073 34.4945 222.723 35.6863Z" fill="#FF8B7B"/>
<path d="M219.625 38.8386C218.949 37.1959 218.46 31.7847 221.28 30.4561C224.1 29.1274 227.029 32.3705 226.286 33.9045C225.145 36.284 221.195 42.6434 219.625 38.8386Z" fill="#263238"/>
<path d="M221.31 32.3644C220.616 30.5526 212.336 29.526 211.176 27.5753C209.799 25.2562 215.446 24.9784 219.329 26.156C222.741 27.1948 225.018 28.1973 224.62 30.7338C224.396 32.1712 221.31 32.3644 221.31 32.3644Z" fill="#263238"/>
<path d="M223.11 30.4985C223.11 30.4985 224.922 30.9937 225.912 29.665C225.598 30.9816 224.058 32.3102 223.11 30.4985Z" fill="#263238"/>
<path d="M214.818 24.912C212.33 22.9795 208.942 25.2502 209.262 27.7686C209.582 30.287 217.97 32.2015 217.97 32.2015C217.97 32.2015 218.121 27.4787 214.818 24.912Z" fill="#263238"/>
<path d="M209.268 27.7806C209.648 29.5441 210.935 30.9271 213.538 31.9538C212.031 30.8398 210.89 29.3032 210.258 27.5391L209.268 27.7806Z" fill="#263238"/>
<path d="M214.492 35.4265C214.401 35.8553 214.105 36.1512 213.827 36.0908C213.55 36.0304 213.399 35.6318 213.489 35.2091C213.58 34.7863 213.882 34.4904 214.16 34.5508C214.437 34.6112 214.588 35.0279 214.492 35.4265Z" fill="#263238"/>
<path d="M209.696 34.3877C209.6 34.8104 209.304 35.1064 209.026 35.046C208.748 34.9856 208.597 34.593 208.688 34.1703C208.779 33.7475 209.08 33.4516 209.358 33.5059C209.636 33.5603 209.787 33.9649 209.696 34.3877Z" fill="#263238"/>
<path d="M211.176 34.9312C210.388 36.1192 209.439 37.1923 208.356 38.1199C208.96 38.9835 210.306 38.9412 210.306 38.9412L211.176 34.9312Z" fill="#FF5652"/>
<path d="M211.285 40.3847C211.852 40.5256 212.445 40.5272 213.013 40.3894C213.581 40.2517 214.107 39.9786 214.546 39.5936C214.558 39.5817 214.568 39.5677 214.574 39.5521C214.581 39.5365 214.584 39.5198 214.584 39.503C214.584 39.4861 214.581 39.4694 214.574 39.4538C214.568 39.4383 214.558 39.4242 214.546 39.4124C214.522 39.3895 214.489 39.3767 214.456 39.3767C214.422 39.3767 214.39 39.3895 214.365 39.4124C213.953 39.7594 213.465 40.0052 212.94 40.13C212.416 40.2548 211.87 40.2551 211.345 40.1311C211.312 40.1238 211.277 40.1303 211.248 40.149C211.219 40.1677 211.199 40.1971 211.191 40.2307C211.184 40.2643 211.191 40.2995 211.209 40.3283C211.228 40.3572 211.257 40.3775 211.291 40.3847H211.285Z" fill="#263238"/>
<path d="M216.273 34.1944C216.32 34.2036 216.368 34.2001 216.412 34.1841C216.457 34.1681 216.496 34.1403 216.526 34.1036C216.556 34.0669 216.575 34.0228 216.581 33.976C216.588 33.9292 216.582 33.8815 216.563 33.838C216.4 33.4661 216.151 33.1384 215.836 32.8821C215.52 32.6258 215.149 32.4484 214.751 32.3645C214.684 32.3558 214.616 32.3736 214.562 32.4142C214.508 32.4549 214.472 32.515 214.462 32.5819C214.456 32.6148 214.458 32.6484 214.466 32.6808C214.473 32.7132 214.488 32.7437 214.507 32.7706C214.527 32.7975 214.552 32.8203 214.58 32.8377C214.608 32.855 214.64 32.8666 214.673 32.8718C214.986 32.9406 215.279 33.0834 215.526 33.2883C215.772 33.4932 215.967 33.7541 216.092 34.0494C216.109 34.086 216.134 34.1181 216.166 34.1432C216.197 34.1684 216.234 34.1859 216.273 34.1944Z" fill="#263238"/>
<path d="M207.945 32.28C207.993 32.2931 208.043 32.2914 208.089 32.2752C208.136 32.259 208.176 32.2291 208.205 32.1894C208.396 31.9328 208.645 31.7248 208.931 31.5822C209.218 31.4395 209.534 31.3661 209.854 31.368C209.921 31.3744 209.988 31.3539 210.04 31.3108C210.092 31.2678 210.125 31.2058 210.131 31.1385C210.138 31.0713 210.117 31.0042 210.074 30.9521C210.031 30.9 209.969 30.8671 209.902 30.8607C209.497 30.8487 209.095 30.9347 208.73 31.1113C208.365 31.2879 208.048 31.55 207.806 31.8753C207.785 31.9012 207.769 31.9311 207.759 31.9633C207.75 31.9955 207.747 32.0292 207.751 32.0626C207.755 32.0959 207.766 32.1281 207.782 32.1571C207.799 32.1862 207.822 32.2115 207.849 32.2316C207.876 32.2559 207.909 32.2725 207.945 32.28Z" fill="#263238"/>
<path d="M231.474 59.2817C232.573 61.2022 233.491 63.0623 234.446 64.9768C235.4 66.8912 236.257 68.8178 237.073 70.7866C237.888 72.7554 238.679 74.7544 239.368 76.8259C240.083 78.8917 240.688 80.9944 241.179 83.1249L241.548 84.7736C241.709 85.5479 241.778 86.3385 241.753 87.1289C241.702 88.5976 241.376 90.0438 240.793 91.3927C239.767 93.6656 238.309 95.7169 236.499 97.432C234.884 98.9908 233.125 100.392 231.245 101.617C230.333 102.221 229.391 102.777 228.442 103.308C227.494 103.84 226.552 104.329 225.495 104.794L223.49 101.285C224.221 100.681 225.024 100.077 225.773 99.4249C226.522 98.7727 227.253 98.1084 227.977 97.444C229.377 96.1458 230.675 94.7426 231.861 93.2467C232.915 91.9639 233.733 90.5038 234.276 88.9347C234.463 88.35 234.537 87.7351 234.494 87.1229C234.476 86.8767 234.43 86.6334 234.355 86.3982L233.944 85.0454C232.724 81.293 231.272 77.6201 229.596 74.0478C228.769 72.236 227.887 70.4242 227.005 68.6124C226.123 66.8007 225.193 64.9889 224.293 63.2677L231.474 59.2817Z" fill="#FF8B7B"/>
<path d="M230.363 55.193C235.4 56.28 238.903 69.4216 238.903 69.4216L229.898 77.5927C227.035 74.4077 224.783 70.7226 223.255 66.722C220.869 60.1452 224.976 54.0214 230.363 55.193Z" fill="#263238"/>
<path d="M224.583 100.663L218.792 100.723L222.415 106.563C222.415 106.563 226.54 105.543 226.909 103.471L224.583 100.663Z" fill="#FF8B7B"/>
<path d="M215.186 104.172L218.381 108.858L222.385 106.563L218.792 100.723L215.186 104.172Z" fill="#FF8B7B"/>
<path d="M224.306 40.3968C223.662 41.5808 222.577 42.4622 221.286 42.8488C219.571 43.3501 218.695 41.8221 219.154 40.1975C219.571 38.736 220.966 36.7129 222.681 36.9242C224.396 37.1356 225.072 38.9414 224.306 40.3968Z" fill="#FF8B7B"/>
<path d="M170.974 139.321L164.534 139.788L164.578 140.39L171.017 139.923L170.974 139.321Z" fill="#1B3867"/>
<path d="M176.759 138.904L173.597 139.133L173.641 139.735L176.803 139.506L176.759 138.904Z" fill="#1B3867"/>
<path d="M204.544 68.0109L97.9141 75.699C95.6949 75.8721 93.6334 76.9134 92.1771 78.597C90.7209 80.2805 89.9872 82.4704 90.1355 84.6915L93.7591 134.95C93.9307 137.173 94.973 139.238 96.6594 140.696C98.3458 142.154 100.54 142.887 102.764 142.735L108.803 142.3C109.242 142.269 109.675 142.413 110.008 142.7C110.341 142.988 110.546 143.396 110.579 143.834L111.255 153.147C111.266 153.327 111.331 153.5 111.441 153.643C111.551 153.787 111.701 153.894 111.873 153.951C112.044 154.008 112.229 154.013 112.403 153.964C112.577 153.916 112.732 153.816 112.849 153.678L122.959 141.992C123.384 141.503 123.985 141.201 124.632 141.153L209.375 135.047C211.596 134.875 213.659 133.835 215.116 132.151C216.574 130.467 217.308 128.277 217.16 126.055L213.536 75.7956C213.365 73.5753 212.324 71.5123 210.64 70.0547C208.957 68.5972 206.766 67.8628 204.544 68.0109Z" fill="#1B3867"/>
<path d="M113.49 98.769L119.251 98.3523L119.722 104.875L126.015 104.422L125.544 97.8993L131.33 97.4766L132.676 116.114L126.891 116.531L126.347 108.994L120.054 109.452L120.598 116.99L114.842 117.406L113.49 98.769Z" fill="white"/>
<path opacity="0.2" d="M97.9141 75.6991C95.6949 75.8722 93.6334 76.9136 92.1771 78.5971C90.7209 80.2806 89.9872 82.4706 90.1355 84.6916L93.7591 134.951C93.9307 137.173 94.973 139.238 96.6594 140.696C98.3458 142.154 100.54 142.887 102.764 142.735L103.651 142.669C105.126 142.562 106.525 141.972 107.63 140.989C108.735 140.006 109.485 138.686 109.763 137.233L121.908 73.9658L97.9141 75.6991Z" fill="black"/>
<path d="M150.752 109.314L140.376 110.063C140.456 110.735 140.738 111.367 141.186 111.874C141.442 112.144 141.758 112.351 142.108 112.479C142.458 112.607 142.832 112.652 143.203 112.611C143.711 112.575 144.202 112.409 144.628 112.128C144.961 111.876 145.246 111.565 145.467 111.21L150.601 111.313C150.042 112.578 149.135 113.659 147.986 114.429C146.931 115.097 145.373 115.5 143.311 115.637C141.87 115.805 140.41 115.65 139.036 115.184C137.934 114.721 136.989 113.952 136.312 112.968C135.536 111.847 135.09 110.531 135.026 109.169C134.918 108.223 135.009 107.265 135.294 106.357C135.579 105.449 136.051 104.611 136.68 103.897C137.936 102.495 139.748 101.708 142.116 101.535C143.683 101.349 145.272 101.535 146.754 102.079C147.888 102.563 148.844 103.389 149.49 104.44C150.228 105.746 150.643 107.21 150.697 108.71L150.752 109.314ZM145.316 107.212C145.243 106.427 144.904 105.69 144.356 105.123C144.08 104.91 143.763 104.757 143.426 104.672C143.088 104.587 142.736 104.572 142.392 104.629C142.048 104.685 141.72 104.812 141.427 105.001C141.135 105.19 140.884 105.437 140.69 105.726C140.368 106.295 140.205 106.939 140.219 107.593L145.316 107.212Z" fill="white"/>
<path d="M152.352 95.9609L157.54 95.5864L158.887 114.218L153.699 114.592L152.352 95.9609Z" fill="white"/>
<path d="M161.019 95.3327L166.207 94.9583L167.553 113.589L162.372 113.964L161.019 95.3327Z" fill="white"/>
<path d="M169.739 106.686C169.641 105.741 169.744 104.786 170.039 103.883C170.335 102.98 170.817 102.149 171.455 101.444C172.747 100.007 174.577 99.2018 176.944 99.0286C179.642 98.8354 181.74 99.4715 183.237 100.937C184.481 102.249 185.2 103.972 185.257 105.779C185.314 107.586 184.705 109.351 183.545 110.739C182.265 112.164 180.409 112.969 177.977 113.155C176.088 113.381 174.18 112.932 172.59 111.886C171.745 111.3 171.047 110.524 170.552 109.622C170.058 108.72 169.779 107.715 169.739 106.686ZM174.927 106.3C174.918 107.253 175.245 108.179 175.851 108.915C176.096 109.165 176.392 109.36 176.719 109.484C177.046 109.609 177.397 109.661 177.746 109.637C178.095 109.613 178.435 109.513 178.742 109.345C179.049 109.176 179.315 108.943 179.523 108.661C180.011 107.821 180.195 106.837 180.043 105.877C180.048 104.943 179.726 104.037 179.131 103.317C178.898 103.061 178.61 102.863 178.288 102.738C177.967 102.612 177.62 102.562 177.277 102.592C176.918 102.609 176.568 102.708 176.254 102.881C175.939 103.055 175.669 103.299 175.465 103.594C174.978 104.407 174.796 105.366 174.951 106.3H174.927Z" fill="white"/>
<path d="M186.891 93.4606L192.417 93.062L192.725 97.2895L192.272 105.896L188.854 106.143L187.193 97.6881L186.891 93.4606ZM188.099 107.52L193.257 107.146L193.589 111.711L188.425 112.08L188.099 107.52Z" fill="white"/>
<path d="M98.4407 60.1514C98.4136 61.0355 98.4601 61.9203 98.5796 62.7966C93.1071 64.6242 87.2709 65.0865 81.579 64.1434C81.8522 63.1104 82.0181 62.0519 82.0742 60.9849C81.8838 62.0593 81.51 63.093 80.969 64.0407C79.894 63.8354 79.2901 63.6603 79.2901 63.6603C79.2901 63.6603 80.3892 57.7176 78.4083 53.3935C76.4274 49.0693 77.4179 46.6536 78.9156 45.9712C81.6937 37.4316 92.1357 38.7784 95.6686 42.2449C100.15 46.6415 100.174 59.0281 100.971 61.8606C100.313 62.1444 99.6667 62.4041 99.0205 62.6336C98.6968 61.8422 98.5011 61.0043 98.4407 60.1514Z" fill="#263238"/>
<path d="M102.759 73.4438L103.302 75.1651C103.502 75.769 103.701 76.3729 103.906 76.9466C104.311 78.1545 104.734 79.3624 105.187 80.5219C105.639 81.6814 106.074 82.9014 106.545 84.0851L107.246 85.8969L107.421 86.3438L107.463 86.4465C107.389 86.3811 107.303 86.3299 107.21 86.2955C107.077 86.2472 107.022 86.2955 107.107 86.2955C107.252 86.2949 107.397 86.2725 107.536 86.229C108.008 86.0794 108.462 85.8768 108.889 85.6251C109.919 85.025 110.904 84.3508 111.836 83.608C112.814 82.847 113.774 82.0317 114.717 81.1923C115.659 80.3528 116.607 79.4771 117.519 78.6195L119.373 80.1897C118.6 81.301 117.785 82.3156 116.957 83.3483C116.13 84.381 115.2 85.3473 114.245 86.3075C113.263 87.31 112.194 88.2235 111.051 89.0373C110.396 89.4956 109.694 89.8804 108.955 90.1848C108.486 90.3728 107.995 90.4987 107.494 90.5592C106.813 90.644 106.122 90.5503 105.488 90.2874C104.798 89.9932 104.21 89.5016 103.797 88.8743C103.707 88.7353 103.622 88.5964 103.556 88.4696L103.393 88.1435L103.175 87.7026C102.892 87.0987 102.572 86.4948 102.324 85.9271C101.774 84.7192 101.225 83.5114 100.723 82.3035C100.222 81.0956 99.733 79.8515 99.268 78.6074C99.0506 78.0035 98.8332 77.3452 98.6279 76.7111C98.4225 76.077 98.2232 75.4549 98.0239 74.7121L102.759 73.4438Z" fill="#FFC3BD"/>
<path d="M101.327 68.081C103.411 68.6124 104.866 77.1762 104.866 77.1762L99.1289 81.0776C99.1289 81.0776 93.6332 72.4353 95.2336 70.1464C96.9004 67.7669 98.2895 67.308 101.327 68.081Z" fill="#1B3867"/>
<path d="M101.327 68.081C103.411 68.6124 104.866 77.1762 104.866 77.1762L99.1289 81.0776C99.1289 81.0776 93.6332 72.4353 95.2336 70.1464C96.9004 67.7669 98.2895 67.308 101.327 68.081Z" fill="#1B3867"/>
<path opacity="0.4" d="M101.327 68.081C103.411 68.6124 104.866 77.1762 104.866 77.1762L99.1289 81.0776C99.1289 81.0776 93.6332 72.4353 95.2336 70.1464C96.9004 67.7669 98.2895 67.308 101.327 68.081Z" fill="white"/>
<path opacity="0.3" d="M101.14 69.9954L102.741 78.6255L99.5156 80.8117L101.14 69.9954Z" fill="black"/>
<path d="M117.422 78.825L119.337 74.2109L121.698 78.825C121.698 78.825 120.164 81.1199 118.141 80.5582L117.422 78.825Z" fill="#FFC3BD"/>
<path d="M121.444 73.7339L124.476 74.9538L121.698 78.825L119.331 74.211L121.444 73.7339Z" fill="#FFC3BD"/>
<path d="M90.064 212.251H95.1189L95.4571 200.553H90.4022L90.064 212.251Z" fill="#FFC3BD"/>
<path d="M56.1716 197.183L60.8158 199.164L66.8974 189.042L62.2472 187.061L56.1716 197.183Z" fill="#FFC3BD"/>
<path d="M61.7096 198.476L56.8781 195.504C56.7955 195.451 56.6962 195.43 56.5992 195.446C56.5023 195.462 56.4145 195.512 56.3527 195.589L53.4478 199.073C53.3755 199.165 53.3236 199.27 53.2956 199.383C53.2675 199.496 53.2639 199.614 53.2851 199.728C53.3063 199.843 53.3517 199.951 53.4183 200.047C53.4849 200.142 53.5712 200.222 53.6713 200.281C55.3743 201.29 56.244 201.688 58.3698 202.993C59.6804 203.802 61.5042 205.107 63.31 206.218C65.1157 207.329 66.3296 205.614 65.6593 204.98C62.7302 202.184 62.8148 200.855 62.2652 199.2C62.1738 198.899 61.9764 198.642 61.7096 198.476Z" fill="#263238"/>
<path d="M95.288 211.665H89.6171C89.5195 211.664 89.4247 211.698 89.3504 211.762C89.276 211.825 89.227 211.913 89.2125 212.01L88.5663 216.503C88.5505 216.618 88.5599 216.735 88.5939 216.847C88.628 216.958 88.6857 217.06 88.7633 217.147C88.8408 217.234 88.9362 217.303 89.043 217.349C89.1498 217.395 89.2653 217.418 89.3816 217.415C91.3625 217.385 92.3167 217.264 94.8169 217.264C96.3509 217.264 99.5276 217.427 101.647 217.427C103.767 217.427 103.876 215.331 102.994 215.138C99.0384 214.286 97.4803 213.115 96.1456 211.997C95.9092 211.787 95.6046 211.669 95.288 211.665Z" fill="#263238"/>
<path opacity="0.2" d="M95.451 200.559L95.2819 206.586H90.2271L90.4022 200.559H95.451Z" fill="black"/>
<path opacity="0.2" d="M62.2469 187.067L66.8912 189.042L63.7568 194.26L59.1125 192.279L62.2469 187.067Z" fill="black"/>
<path d="M101.327 68.081C101.327 68.081 103.743 68.9265 98.9116 98.5614H78.378C78.7222 90.2151 78.7343 85.0696 74.7544 67.9361C77.6256 67.3427 80.5362 66.9592 83.4631 66.7886C86.5652 66.5649 89.6795 66.5649 92.7817 66.7886C96.7918 67.151 101.327 68.081 101.327 68.081Z" fill="#1B3867"/>
<path opacity="0.4" d="M101.327 68.081C101.327 68.081 103.743 68.9265 98.9116 98.5614H78.378C78.7222 90.2151 78.7343 85.0696 74.7544 67.9361C77.6256 67.3427 80.5362 66.9592 83.4631 66.7886C86.5652 66.5649 89.6795 66.5649 92.7817 66.7886C96.7918 67.151 101.327 68.081 101.327 68.081Z" fill="white"/>
<path d="M83.4752 66.7825C86.5776 66.5647 89.6915 66.5647 92.7939 66.7825C93.2951 66.8308 93.8085 66.8852 94.3158 66.9455C94.5269 67.2629 94.6623 67.6246 94.7116 68.0026C94.7608 68.3806 94.7225 68.7649 94.5996 69.1257C93.9413 70.7503 91.58 70.9375 89.8648 70.9375C83.5175 70.9375 82.4425 67.2294 82.4002 67.0724L82.3398 66.8489L83.4752 66.7825Z" fill="white"/>
<path d="M84.3991 56.2983C85.003 59.318 85.5768 64.7896 83.4751 66.7886C83.4751 66.7886 84.2964 69.8082 89.8647 69.8082C95.9885 69.8082 92.7937 66.7886 92.7937 66.7886C89.448 65.9914 89.5386 63.5093 90.1183 61.1841L84.3991 56.2983Z" fill="#FFC3BD"/>
<path d="M85.0092 54.1665C84.2905 56.5399 85.287 62.1565 86.7666 64.3306C83.8496 62.6578 82.8652 57.5606 82.8652 57.5606L85.0092 54.1665Z" fill="#263238"/>
<path opacity="0.2" d="M86.7304 58.2913L90.1184 61.178C89.9698 61.7192 89.8727 62.2733 89.8286 62.8328C88.5543 62.6456 86.8089 61.2445 86.664 59.9098C86.5889 59.3707 86.6114 58.8224 86.7304 58.2913Z" fill="black"/>
<path d="M81.6332 50.9476C82.8049 55.8213 83.1914 57.9109 86.1265 60.0065C90.5412 63.153 96.2725 60.6527 96.5805 55.5254C96.8583 50.9114 94.9016 43.7186 89.738 42.6073C88.6003 42.3561 87.4172 42.3998 86.3012 42.7344C85.1851 43.0689 84.1731 43.683 83.3611 44.5186C82.5491 45.3542 81.9642 46.3834 81.6618 47.5086C81.3594 48.6338 81.3496 49.8176 81.6332 50.9476Z" fill="#FFC3BD"/>
<path d="M98.9177 98.5614C98.9177 98.5614 102.898 137.467 102.541 152.867C102.197 168.883 96.3268 205.409 96.3268 205.409H89.5024C89.5024 205.409 90.5834 169.807 89.9795 154.075C89.3212 136.923 83.8738 98.5493 83.8738 98.5493L98.9177 98.5614Z" fill="#1B3867"/>
<path opacity="0.4" d="M98.9177 98.5614C98.9177 98.5614 102.898 137.467 102.541 152.867C102.197 168.883 96.3268 205.409 96.3268 205.409H89.5024C89.5024 205.409 90.5834 169.807 89.9795 154.075C89.3212 136.923 83.8738 98.5493 83.8738 98.5493L98.9177 98.5614Z" fill="black"/>
<path d="M88.9347 205.662H96.9428L97.5347 203.107L88.5603 202.793L88.9347 205.662Z" fill="#1B3867"/>
<path opacity="0.2" d="M90.0701 108.242C95.1069 118.376 91.0787 136.863 89.2971 143.741C88.3852 133.414 86.8451 120.792 85.6433 111.51C86.4043 106.292 87.745 103.568 90.0701 108.242Z" fill="black"/>
<path d="M93.5004 98.5613C93.5004 98.5613 88.8501 139.025 85.3413 151.991C81.1802 167.409 65.3391 193.662 65.3391 193.662L59.0039 190.969C59.0039 190.969 68.8057 161.159 71.9944 153.036C78.7886 135.703 72.9728 109.873 78.4021 98.5613H93.5004Z" fill="#1B3867"/>
<path opacity="0.4" d="M93.5004 98.5613C93.5004 98.5613 88.8501 139.025 85.3413 151.991C81.1802 167.409 65.3391 193.662 65.3391 193.662L59.0039 190.969C59.0039 190.969 68.8057 161.159 71.9944 153.036C78.7886 135.703 72.9728 109.873 78.4021 98.5613H93.5004Z" fill="black"/>
<path d="M58.1282 190.987L65.9913 194.333L67.8816 192.219L58.8106 187.865L58.1282 190.987Z" fill="#1B3867"/>
<path d="M89.3817 51.014C89.4542 51.4126 89.7199 51.7025 89.9856 51.6541C90.2514 51.6058 90.4023 51.2435 90.3299 50.8449C90.2574 50.4463 89.9917 50.1564 89.7259 50.1987C89.4602 50.2409 89.279 50.6094 89.3817 51.014Z" fill="#263238"/>
<path d="M93.8868 50.2169C93.9532 50.6154 94.225 50.9053 94.4907 50.857C94.7565 50.8087 94.9135 50.4463 94.841 50.0478C94.7685 49.6492 94.5028 49.3593 94.2371 49.4016C93.9714 49.4438 93.8143 49.8122 93.8868 50.2169Z" fill="#263238"/>
<path d="M94.1226 49.4498L95.0345 48.9968C95.0345 48.9968 94.6721 49.8363 94.1226 49.4498Z" fill="#263238"/>
<path d="M92.8059 51.1167C93.3244 51.9691 93.9585 52.7454 94.6902 53.4237C94.5109 53.6051 94.2944 53.7455 94.0557 53.8352C93.8169 53.9249 93.5615 53.9617 93.3072 53.9431L92.8059 51.1167Z" fill="#ED847E"/>
<path d="M91.4894 55.8333C91.7182 55.8328 91.9465 55.8126 92.1718 55.7729C92.189 55.7722 92.2059 55.7678 92.2214 55.76C92.2368 55.7522 92.2503 55.7413 92.2611 55.7278C92.2719 55.7143 92.2797 55.6987 92.284 55.682C92.2883 55.6653 92.2889 55.6478 92.2858 55.6308C92.2828 55.6139 92.2761 55.5977 92.2663 55.5835C92.2565 55.5693 92.2438 55.5574 92.229 55.5485C92.2141 55.5397 92.1976 55.5341 92.1805 55.5322C92.1633 55.5302 92.1459 55.532 92.1295 55.5373C91.6322 55.6364 91.1185 55.6164 90.6304 55.4789C90.1423 55.3414 89.6937 55.0903 89.3213 54.7462C89.2987 54.7241 89.2683 54.7117 89.2367 54.7117C89.2051 54.7117 89.1747 54.7241 89.1522 54.7462C89.1404 54.7569 89.1311 54.77 89.1247 54.7846C89.1183 54.7991 89.115 54.8148 89.115 54.8307C89.115 54.8466 89.1183 54.8624 89.1247 54.8769C89.1311 54.8915 89.1404 54.9045 89.1522 54.9153C89.7825 55.5131 90.6207 55.8423 91.4894 55.8333Z" fill="#263238"/>
<path d="M83.3423 48.091C83.4744 49.3753 83.676 50.6515 83.9462 51.9139C83.9462 51.9139 86.9659 48.091 87.4671 46.0437C87.3473 46.8498 87.1135 47.6347 86.7726 48.3749C86.7726 48.3749 90.8371 47.4871 91.2357 44.8057C91.2288 46.0061 91.0952 47.2025 90.8371 48.3749C90.8371 48.3749 94.7143 46.853 94.358 44.2802C94.0016 41.7075 88.0469 40.711 85.299 41.5807C82.5511 42.4503 79.8637 45.2707 80.6729 49.1479C81.4822 53.0251 83.0343 54.4806 83.0343 54.4806C83.0343 54.4806 81.917 50.5732 83.3423 48.091Z" fill="#263238"/>
<path d="M81.4218 54.6193C81.7946 55.5139 82.5069 56.2241 83.4027 56.5942C84.6105 57.0773 85.3292 56.0446 85.1178 54.8488C84.9306 53.7678 84.0791 52.2217 82.8289 52.2459C82.5554 52.258 82.2892 52.3381 82.0543 52.4788C81.8194 52.6196 81.6233 52.8166 81.4837 53.0522C81.344 53.2877 81.2653 53.5543 81.2545 53.8279C81.2437 54.1015 81.3012 54.3735 81.4218 54.6193Z" fill="#FFC3BD"/>
<path d="M84.073 46.231C83.4691 48.6467 84.7253 54.2028 86.3076 56.2985C83.2879 54.7705 82.0801 49.7217 82.0801 49.7217L84.073 46.231Z" fill="#263238"/>
<path d="M87.7268 49.637C87.7578 49.6276 87.7867 49.6121 87.8116 49.5913C87.8365 49.5706 87.8569 49.5451 87.8718 49.5162C87.9991 49.2438 88.1891 49.0054 88.4264 48.8206C88.6637 48.6359 88.9413 48.51 89.2366 48.4533C89.2991 48.4443 89.3558 48.4118 89.3951 48.3624C89.4343 48.313 89.4533 48.2505 89.448 48.1876C89.4451 48.156 89.4357 48.1254 89.4206 48.0975C89.4055 48.0696 89.385 48.0451 89.3602 48.0253C89.3353 48.0056 89.3068 47.9911 89.2762 47.9826C89.2457 47.9742 89.2137 47.972 89.1823 47.9762C88.8076 48.0412 88.4541 48.1953 88.1514 48.4254C87.8487 48.6556 87.6057 48.9551 87.443 49.2988C87.4225 49.3408 87.4146 49.3878 87.4202 49.4342C87.4259 49.4806 87.4449 49.5244 87.475 49.5602C87.505 49.5959 87.5448 49.6223 87.5895 49.6359C87.6342 49.6495 87.6819 49.6499 87.7268 49.637Z" fill="#263238"/>
<path d="M95.5356 47.7648C95.566 47.7661 95.5962 47.7608 95.6244 47.7494C95.6525 47.7379 95.6779 47.7205 95.6987 47.6984C95.7429 47.6532 95.7677 47.5925 95.7677 47.5293C95.7677 47.466 95.7429 47.4053 95.6987 47.3602C95.4412 47.0814 95.1216 46.8673 94.7659 46.7351C94.4102 46.6029 94.0284 46.5563 93.6514 46.5992C93.6199 46.605 93.59 46.617 93.5633 46.6344C93.5365 46.6518 93.5135 46.6744 93.4955 46.7008C93.4775 46.7272 93.465 46.7569 93.4585 46.7882C93.4521 46.8195 93.452 46.8517 93.4581 46.8831C93.4712 46.9441 93.5075 46.9977 93.5593 47.0326C93.6111 47.0675 93.6744 47.081 93.7359 47.0703C94.0332 47.0371 94.3342 47.0744 94.6144 47.1794C94.8946 47.2843 95.146 47.4538 95.3484 47.6742C95.3709 47.7023 95.3994 47.725 95.4318 47.7407C95.4641 47.7563 95.4996 47.7646 95.5356 47.7648Z" fill="#263238"/>
<path d="M77.2609 75.1047C76.4214 77.7559 75.6182 80.54 74.9358 83.2819C74.2488 85.9886 73.7464 88.7387 73.432 91.5134L73.3837 92.0207C73.3837 92.1838 73.3837 92.22 73.3837 92.365C73.3903 92.6498 73.4125 92.9341 73.4501 93.2165C73.527 93.8781 73.6379 94.5352 73.7822 95.1853C74.0661 96.5321 74.3862 97.9211 74.7968 99.2981C75.2075 100.675 75.5578 102.076 75.9685 103.465L77.1763 107.632L74.9358 108.556C73.5588 105.923 72.363 103.242 71.2457 100.476C70.7082 99.0867 70.1828 97.6856 69.748 96.206C69.5306 95.4692 69.3252 94.7143 69.1441 93.8929C69.058 93.458 68.9976 93.0184 68.9629 92.5764C68.9629 92.3529 68.9629 92.0207 68.9629 91.8214V91.2175C69.0141 89.6786 69.1552 88.144 69.3856 86.6216C69.5849 85.1118 69.8809 83.6382 70.2009 82.1707C70.8293 79.2315 71.6361 76.3333 72.6167 73.4922L77.2609 75.1047Z" fill="#FFC3BD"/>
<path d="M74.7666 67.9362C72.7132 68.5401 70.2432 75.6363 70.2432 75.6363L78.215 81.3374C78.215 81.3374 81.126 75.431 80.2624 72.7737C79.3625 70.0077 77.1159 67.2236 74.7666 67.9362Z" fill="#1B3867"/>
<path opacity="0.4" d="M74.7666 67.9362C72.7132 68.5401 70.2432 75.6363 70.2432 75.6363L78.215 81.3374C78.215 81.3374 81.126 75.431 80.2624 72.7737C79.3625 70.0077 77.1159 67.2236 74.7666 67.9362Z" fill="white"/>
<path d="M63.7508 200.396C63.849 200.361 63.9384 200.306 64.0125 200.233C64.0866 200.159 64.1437 200.071 64.1796 199.973C64.2145 199.91 64.2328 199.84 64.2328 199.768C64.2328 199.696 64.2145 199.625 64.1796 199.563C63.8173 199.031 61.9874 199.073 61.7639 199.079C61.7407 199.08 61.7182 199.087 61.6989 199.1C61.6796 199.113 61.6645 199.131 61.6552 199.152C61.6434 199.171 61.6372 199.193 61.6372 199.215C61.6372 199.238 61.6434 199.26 61.6552 199.279C62.1323 199.756 63.0261 200.535 63.6542 200.414L63.7508 200.396ZM62.0538 199.297C62.7845 199.297 63.7629 199.399 63.9562 199.683C63.9727 199.711 63.9814 199.742 63.9814 199.774C63.9814 199.806 63.9727 199.837 63.9562 199.865C63.9295 199.937 63.8852 200.003 63.8272 200.054C63.7693 200.106 63.6995 200.142 63.624 200.16C63.2918 200.245 62.7121 199.901 62.0538 199.297Z" fill="#1B3867"/>
<path d="M62.5913 199.17C63.1469 198.995 63.7387 198.687 63.8655 198.343C63.8971 198.253 63.8975 198.156 63.8668 198.066C63.8362 197.976 63.7761 197.899 63.6964 197.847C63.6261 197.789 63.5433 197.747 63.4544 197.725C63.3655 197.703 63.2727 197.701 63.1831 197.721C62.4644 197.847 61.6914 199.08 61.6612 199.134C61.6506 199.152 61.645 199.173 61.645 199.194C61.645 199.215 61.6506 199.236 61.6612 199.255C61.6721 199.272 61.6871 199.287 61.705 199.298C61.7229 199.308 61.7431 199.314 61.7639 199.315C62.0452 199.307 62.3239 199.258 62.5913 199.17ZM63.1469 197.962H63.2254C63.2822 197.95 63.3409 197.951 63.3973 197.965C63.4536 197.978 63.5063 198.004 63.5515 198.041C63.6723 198.137 63.6602 198.21 63.6421 198.264C63.5213 198.596 62.6033 198.995 61.9934 199.073C62.2709 198.609 62.6697 198.229 63.1469 197.974V197.962Z" fill="#1B3867"/>
<path d="M97.1844 212.547C97.6101 212.582 98.0353 212.473 98.3923 212.239C98.4753 212.164 98.5385 212.069 98.5764 211.964C98.6143 211.859 98.6258 211.746 98.6097 211.635C98.605 211.57 98.5836 211.506 98.5477 211.451C98.5118 211.396 98.4625 211.352 98.4044 211.321C97.8004 210.983 95.7773 212.009 95.5478 212.124C95.5256 212.133 95.5067 212.149 95.4933 212.169C95.48 212.189 95.4729 212.212 95.4729 212.236C95.4729 212.26 95.48 212.283 95.4933 212.303C95.5067 212.323 95.5256 212.339 95.5478 212.348C96.0852 212.469 96.6336 212.536 97.1844 212.547ZM98.0843 211.502C98.1611 211.497 98.238 211.512 98.3077 211.544C98.3316 211.557 98.3514 211.577 98.3653 211.6C98.3791 211.623 98.3863 211.65 98.3863 211.677C98.3975 211.747 98.3913 211.818 98.3681 211.884C98.3449 211.951 98.3055 212.01 98.2534 212.058C97.9454 212.336 97.112 212.384 95.9947 212.197C96.6469 211.849 97.3535 211.614 98.0843 211.502Z" fill="#1B3867"/>
<path d="M95.6201 212.372H95.6684C96.2724 212.1 97.4802 211.013 97.3715 210.439C97.3715 210.3 97.2507 210.137 96.9186 210.101C96.7997 210.088 96.6793 210.099 96.565 210.134C96.4507 210.17 96.3449 210.228 96.2543 210.306C95.6503 210.838 95.5054 212.197 95.4993 212.251C95.4986 212.272 95.5032 212.293 95.5127 212.312C95.5222 212.331 95.5363 212.348 95.5537 212.36C95.5735 212.372 95.5973 212.377 95.6201 212.372ZM96.828 210.325H96.9005C97.1179 210.325 97.136 210.439 97.136 210.463C97.1964 210.808 96.3871 211.671 95.7711 212.04C95.8194 211.466 96.0453 210.921 96.4173 210.482C96.5281 210.381 96.6723 210.325 96.822 210.325H96.828Z" fill="#1B3867"/>
<path d="M78.0942 97.3596L77.5748 99.1714C77.5023 99.3103 77.6714 99.4552 77.907 99.4552H99.0445C99.2317 99.4552 99.3827 99.3646 99.3948 99.2499L99.582 97.4381C99.582 97.3113 99.431 97.2026 99.2317 97.2026H78.4324C78.3673 97.1975 78.302 97.2093 78.2427 97.2368C78.1835 97.2643 78.1324 97.3066 78.0942 97.3596Z" fill="#263238"/>
<path d="M80.8844 99.6786H80.3228C80.2141 99.6786 80.1295 99.6243 80.1356 99.5518L80.3952 97.1361C80.3952 97.0697 80.504 97.0093 80.6127 97.0093H81.1683C81.283 97.0093 81.3615 97.0697 81.3555 97.1361L81.0958 99.5518C81.0958 99.6484 80.9992 99.6786 80.8844 99.6786Z" fill="#1B3867"/>
<path opacity="0.4" d="M80.8844 99.6786H80.3228C80.2141 99.6786 80.1295 99.6243 80.1356 99.5518L80.3952 97.1361C80.3952 97.0697 80.504 97.0093 80.6127 97.0093H81.1683C81.283 97.0093 81.3615 97.0697 81.3555 97.1361L81.0958 99.5518C81.0958 99.6484 80.9992 99.6786 80.8844 99.6786Z" fill="black"/>
<path d="M97.4502 99.6786H96.8946C96.7858 99.6786 96.7013 99.6243 96.7073 99.5518L96.9731 97.1361C96.9731 97.0697 97.0757 97.0093 97.1844 97.0093H97.7401C97.8548 97.0093 97.9393 97.0697 97.9273 97.1361L97.6676 99.5518C97.6615 99.6484 97.5649 99.6786 97.4502 99.6786Z" fill="#1B3867"/>
<path opacity="0.4" d="M97.4502 99.6786H96.8946C96.7858 99.6786 96.7013 99.6243 96.7073 99.5518L96.9731 97.1361C96.9731 97.0697 97.0757 97.0093 97.1844 97.0093H97.7401C97.8548 97.0093 97.9393 97.0697 97.9273 97.1361L97.6676 99.5518C97.6615 99.6484 97.5649 99.6786 97.4502 99.6786Z" fill="black"/>
<path d="M89.1702 99.6786H88.6146C88.4999 99.6786 88.4153 99.6243 88.4274 99.5518L88.6871 97.1361C88.6871 97.0697 88.7898 97.0093 88.9045 97.0093H89.4601C89.5688 97.0093 89.6534 97.0697 89.6474 97.1361L89.3877 99.5518C89.3816 99.6484 89.279 99.6786 89.1702 99.6786Z" fill="#1B3867"/>
<path opacity="0.4" d="M89.1702 99.6786H88.6146C88.4999 99.6786 88.4153 99.6243 88.4274 99.5518L88.6871 97.1361C88.6871 97.0697 88.7898 97.0093 88.9045 97.0093H89.4601C89.5688 97.0093 89.6534 97.0697 89.6474 97.1361L89.3877 99.5518C89.3816 99.6484 89.279 99.6786 89.1702 99.6786Z" fill="black"/>
<path d="M89.5869 50.2409L90.4989 49.7939C90.4989 49.7939 90.1365 50.6334 89.5869 50.2409Z" fill="#263238"/>
<path d="M77.0072 106.95L81.3374 110.272L76.3187 111.377C76.3187 111.377 74.1868 108.961 74.9236 106.968L77.0072 106.95Z" fill="#FFC3BD"/>
<path d="M82.4001 114.384L78.1484 115.079L75.8293 110.718L81.3372 110.271L82.4001 114.384Z" fill="#FFC3BD"/>
</svg>
