<svg width="21" height="16" viewBox="0 0 21 16" fill="none" xmlns="http://www.w3.org/2000/svg">
<g id="Group">
<g id="Group_2">
<g id="Group_3">
<path id="Vector" d="M15.5 12C14.95 12 14.5 11.55 14.5 11H6.5C6.5 11.55 6.05 12 5.5 12C4.95 12 4.5 11.55 4.5 11H0.5V14C0.5 15.1 1.4 16 2.5 16H18.5C19.6 16 20.5 15.1 20.5 14V11H16.5C16.5 11.55 16.05 12 15.5 12Z" fill="#E43955"/>
</g>
<path id="Vector_2" d="M18.5 4H15.5V2C15.5 0.9 14.6 0 13.5 0H7.5C6.4 0 5.5 0.9 5.5 2V4H2.5C1.4 4 0.5 4.9 0.5 6V10H4.5V9C4.5 8.45 4.95 8 5.5 8C6.05 8 6.5 8.45 6.5 9V10H14.5V9C14.5 8.45 14.95 8 15.5 8C16.05 8 16.5 8.45 16.5 9V10H20.5V6C20.5 4.9 19.6 4 18.5 4ZM13.5 4H7.5V2H13.5V4Z" fill="#E43955"/>
</g>
</g>
</svg>
