<svg width="25" height="24" viewBox="0 0 25 24" fill="none" xmlns="http://www.w3.org/2000/svg">
<g id="school" clip-path="url(#clip0_187_3149)">
<path id="Vector" d="M5.49979 13.18V15.99C5.49979 16.72 5.89979 17.4 6.53979 17.75L11.5398 20.48C12.1398 20.81 12.8598 20.81 13.4598 20.48L18.4598 17.75C19.0998 17.4 19.4998 16.72 19.4998 15.99V13.18L13.4598 16.48C12.8598 16.81 12.1398 16.81 11.5398 16.48L5.49979 13.18ZM11.5398 3.52003L3.10979 8.12003C2.41979 8.50003 2.41979 9.50003 3.10979 9.88003L11.5398 14.48C12.1398 14.81 12.8598 14.81 13.4598 14.48L21.4998 10.09V16C21.4998 16.55 21.9498 17 22.4998 17C23.0498 17 23.4998 16.55 23.4998 16V9.59003C23.4998 9.22003 23.2998 8.89003 22.9798 8.71003L13.4598 3.52003C12.8598 3.20003 12.1398 3.20003 11.5398 3.52003Z" fill="#5F646A"/>
</g>
<defs>
<clipPath id="clip0_187_3149">
<rect width="24" height="24" fill="white" transform="translate(0.5)"/>
</clipPath>
</defs>
</svg>
