<svg width="25" height="24" viewBox="0 0 25 24" fill="none" xmlns="http://www.w3.org/2000/svg">
<g id="school" clip-path="url(#clip0_1065_5694)">
<path id="Vector" d="M5.50003 13.18V15.99C5.50003 16.72 5.90003 17.4 6.54003 17.75L11.54 20.48C12.14 20.81 12.86 20.81 13.46 20.48L18.46 17.75C19.1 17.4 19.5 16.72 19.5 15.99V13.18L13.46 16.48C12.86 16.81 12.14 16.81 11.54 16.48L5.50003 13.18ZM11.54 3.52003L3.11003 8.12003C2.42003 8.50003 2.42003 9.50003 3.11003 9.88003L11.54 14.48C12.14 14.81 12.86 14.81 13.46 14.48L21.5 10.09V16C21.5 16.55 21.95 17 22.5 17C23.05 17 23.5 16.55 23.5 16V9.59003C23.5 9.22003 23.3 8.89003 22.98 8.71003L13.46 3.52003C12.86 3.20003 12.14 3.20003 11.54 3.52003Z" fill="#E43955"/>
</g>
<defs>
<clipPath id="clip0_1065_5694">
<rect width="24" height="24" fill="white" transform="translate(0.5)"/>
</clipPath>
</defs>
</svg>
