<svg width="25" height="24" viewBox="0 0 25 24" fill="none" xmlns="http://www.w3.org/2000/svg">
<g id="Group">
<path id="Vector" d="M21.73 13.7L13.75 9V3.5C13.75 2.67 13.08 2 12.25 2C11.42 2 10.75 2.67 10.75 3.5V9L2.77 13.7C2.45 13.88 2.25 14.23 2.25 14.6C2.25 15.3 2.92 15.8 3.59 15.61L10.75 13.51V19L8.49 20.35C8.34 20.44 8.25 20.61 8.25 20.78V21.28V21.36C8.25 21.69 8.56 21.93 8.87 21.85L11.79 21.12L12.25 21L12.63 21.09L13.05 21.2L14.95 21.68L15.62 21.85C15.94 21.93 16.24 21.69 16.24 21.36V20.99V20.78C16.24 20.6 16.15 20.44 16 20.35L13.75 19V13.5L20.91 15.6C21.58 15.8 22.25 15.3 22.25 14.6C22.25 14.23 22.05 13.88 21.73 13.7Z" fill="#E43955"/>
</g>
</svg>
