<svg width="19" height="18" viewBox="0 0 19 18" fill="none" xmlns="http://www.w3.org/2000/svg">
<g id="Group">
<g id="Group_2">
<path id="Vector" d="M13.99 8.51004L15.56 6.94004L11.81 3.19004L10.24 4.76004L6.1 0.630044C5.32 -0.149956 4.05 -0.149956 3.27 0.630044L1.37 2.53004C0.59 3.31004 0.59 4.58004 1.37 5.36004L5.5 9.49004L0.9 14.1C0.8 14.2 0.75 14.32 0.75 14.46V17.5C0.75 17.78 0.97 18 1.25 18H4.29C4.42 18 4.55 17.95 4.64 17.85L9.26 13.23L13.39 17.36C14.71 18.68 16.15 17.43 16.22 17.36L18.12 15.46C18.9 14.68 18.9 13.41 18.12 12.63L13.99 8.51004ZM6.93 8.07004L2.79 3.94004L4.68 2.04004L5.95 3.31004L5.48 3.80004C5.09 4.19004 5.09 4.82004 5.48 5.21004C5.87 5.60004 6.5 5.60004 6.89 5.21004L7.37 4.73004L8.82 6.18004L6.93 8.07004ZM14.81 15.96L10.68 11.83L12.58 9.93004L14.03 11.38L13.55 11.86C13.16 12.25 13.16 12.88 13.55 13.27C13.94 13.66 14.57 13.66 14.96 13.27L15.44 12.79L16.71 14.06L14.81 15.96Z" fill="#E43955"/>
<path id="Vector_2" d="M18.4599 4.03999C18.8499 3.64999 18.8499 3.01999 18.4599 2.62999L16.1199 0.28999C15.6499 -0.18001 14.9999 -1.02222e-05 14.7099 0.28999L12.8799 2.11999L16.6299 5.86999L18.4599 4.03999Z" fill="#E43955"/>
</g>
</g>
</svg>
