<svg xmlns="http://www.w3.org/2000/svg" width="56" height="55" viewBox="0 0 56 55">
    <defs>
        <clipPath id="clip-path">
            <path id="Rectangle_759" d="M0 0H56V55H0z" class="cls-1" transform="translate(44 138)"/>
        </clipPath>
        <clipPath id="clip-path-2">
            <path id="Rectangle_755" d="M0 0H60.313V55.47H0z" class="cls-1"/>
        </clipPath>
        <style>
            .cls-1,.cls-9{fill:none}.cls-4{fill:#fc9d11}.cls-5{fill:#df7401}.cls-9{stroke:#fff3ea;stroke-linecap:round;stroke-width:2px;opacity:.535}
        </style>
    </defs>
    <g id="wallet" clip-path="url(#clip-path)" transform="translate(-44 -138)">
        <g id="Group_3006">
            <g id="Onsite" clip-path="url(#clip-path-2)" opacity="0.148" transform="rotate(160 39.557 101.062)">
                <path id="Path_8168" d="M27.42 2.239c18.6 3.54 26.367 20.159 25.1 31.32S39.114 45.786 29.682 45.786c-3.273 0-7.543 6.375-16.941 2.877S-1.065 34.808.122 24.756 8.82-1.3 27.42 2.239z" class="cls-4" transform="translate(4.511 1.89)"/>
            </g>
            <g id="Group_3002" transform="translate(-15 -284)">
                <circle id="Ellipse_193" cx="18.5" cy="18.5" r="18.5" class="cls-5" transform="rotate(22 -1067.083 435.064)"/>
                <circle id="Ellipse_194" cx="18.5" cy="18.5" r="18.5" class="cls-4" transform="rotate(22 -1065.01 431.992)"/>
                <g id="star" transform="rotate(17 -1440.256 522.066)">
                    <path id="Path_7053" d="M11.814 16.972l4.06 2.455a.976.976 0 0 0 1.458-1.056l-1.076-4.617 3.59-3.111a.976.976 0 0 0-.558-1.712l-4.725-.4-1.849-4.364a.979.979 0 0 0-1.8 0L9.065 8.52l-4.725.4a.976.976 0 0 0-.558 1.712l3.59 3.111L6.3 18.361a.976.976 0 0 0 1.458 1.056z" class="cls-5" transform="translate(-3.443 -3.573)"/>
                </g>
            </g>
            <path id="Path_8165" fill="#f8af26" d="M5.354 0a4.132 4.132 0 0 1 4.133 4.132c0 2.282-.539 2.278-4.132 4.132S0 6.031 0 3.749 3.072 0 5.354 0z" opacity="0.3" transform="rotate(35.02 -195.752 148.014)"/>
            <path id="Path_8166" fill="#f8af26" d="M3.433 0a2.65 2.65 0 0 1 2.65 2.65c0 1.463-.345 1.46-2.65 2.65S0 3.867 0 2.4 1.97 0 3.433 0z" opacity="0.28" transform="rotate(132 5.839 87.99)"/>
            <path id="Path_8167" fill="#f8af26" d="M3.94 0a3.041 3.041 0 0 1 3.041 3.041c0 1.679-.4 1.676-3.041 3.041S0 4.438 0 2.759 2.261 0 3.94 0z" opacity="0.248" transform="rotate(-6.02 1574.98 -391.31)"/>
            <path id="Path_8169" d="M2.36-.542a11 11 0 0 0-3.453 5.556 15.779 15.779 0 0 0-.628 6.978" class="cls-9" transform="rotate(7 -1262.38 628.342)"/>
            <path id="Path_8170" d="M-1.685 8.739a6.227 6.227 0 0 0-.036 3.253" class="cls-9" transform="rotate(69 -69.52 138.798)"/>
        </g>
    </g>
</svg>
