<svg xmlns="http://www.w3.org/2000/svg" width="34.705" height="34.705" viewBox="0 0 34.705 34.705">
    <path data-name="Path 6882" d="M24.624 0H10.081A10.093 10.093 0 0 0 0 10.081v14.543a10.093 10.093 0 0 0 10.081 10.081h14.543a10.093 10.093 0 0 0 10.081-10.081V10.081A10.093 10.093 0 0 0 24.624 0zm7.37 24.624a7.378 7.378 0 0 1-7.37 7.37H10.081a7.378 7.378 0 0 1-7.37-7.37V10.081a7.378 7.378 0 0 1 7.37-7.37h14.543a7.378 7.378 0 0 1 7.37 7.37z" style="fill:#3e6ded"/>
    <path data-name="Path 6884" d="M257.332 129.383A1.332 1.332 0 0 1 256 128.05v-12.763a5.578 5.578 0 0 1 5.572-5.572h2.421a1.332 1.332 0 0 1 0 2.664h-2.421a2.911 2.911 0 0 0-2.908 2.908v12.763a1.332 1.332 0 0 1-1.332 1.333zm0 0" transform="translate(-241.199 -102.112)" style="fill:#3e6ded"/>
    <path data-name="Path 6885" d="M210.47 240.379h-7.993a1.332 1.332 0 1 1 0-2.664h7.993a1.332 1.332 0 1 1 0 2.664zm0 0" transform="translate(-190.34 -220.786)" style="fill:#3e6ded"/>
</svg>
