<svg xmlns="http://www.w3.org/2000/svg" width="34.705" height="34.705" viewBox="0 0 34.705 34.705">
    <defs>
        <style>
            .cls-1{fill:#90909d}
        </style>
    </defs>
    <g id="Instagram" transform="translate(-1608.295 -6323)">
        <path id="Path_6882" d="M24.624 0H10.081A10.093 10.093 0 0 0 0 10.081v14.543a10.093 10.093 0 0 0 10.081 10.081h14.543a10.093 10.093 0 0 0 10.081-10.081V10.081A10.093 10.093 0 0 0 24.624 0zm7.37 24.624a7.378 7.378 0 0 1-7.37 7.37H10.081a7.378 7.378 0 0 1-7.37-7.37V10.081a7.378 7.378 0 0 1 7.37-7.37h14.543a7.378 7.378 0 0 1 7.37 7.37z" class="cls-1" transform="translate(1608.295 6323)"/>
        <path id="Path_6883" d="M127.354 118a9.354 9.354 0 1 0 9.354 9.354 9.365 9.365 0 0 0-9.354-9.354zm0 16a6.643 6.643 0 1 1 6.646-6.646 6.65 6.65 0 0 1-6.646 6.646z" class="cls-1" transform="translate(1498.293 6212.999)"/>
        <ellipse id="Ellipse_6" cx="1.288" cy="1.718" class="cls-1" rx="1.288" ry="1.718" transform="translate(1634.015 6328.97)"/>
    </g>
</svg>
