<svg xmlns="http://www.w3.org/2000/svg" width="34.705" height="34.705" viewBox="0 0 34.705 34.705">
    <g transform="translate(-1608.295 -6323)">
        <path data-name="Path 6882" d="M24.624 0H10.081A10.093 10.093 0 0 0 0 10.081v14.543a10.093 10.093 0 0 0 10.081 10.081h14.543a10.093 10.093 0 0 0 10.081-10.081V10.081A10.093 10.093 0 0 0 24.624 0zm7.37 24.624a7.378 7.378 0 0 1-7.37 7.37H10.081a7.378 7.378 0 0 1-7.37-7.37V10.081a7.378 7.378 0 0 1 7.37-7.37h14.543a7.378 7.378 0 0 1 7.37 7.37z" transform="translate(1608.295 6323)" style="fill:#9252c9"/>
        <path data-name="Path 6883" d="M127.354 118a9.354 9.354 0 1 0 9.354 9.354 9.365 9.365 0 0 0-9.354-9.354zm0 16a6.643 6.643 0 1 1 6.646-6.646 6.65 6.65 0 0 1-6.646 6.646z" transform="translate(1498.293 6212.999)" style="fill:#9252c9"/>
        <circle data-name="Ellipse 6" cx="1.5" cy="1.5" r="1.5" transform="translate(1634.015 6328.97)" style="fill:#9252c9"/>
    </g>
</svg>
