<svg xmlns="http://www.w3.org/2000/svg" width="34.705" height="34.705" viewBox="0 0 34.705 34.705">
    <defs>
        <style>
            .prefix__cls-1{fill:#90909d}
        </style>
    </defs>
    <g id="prefix__Soclia" transform="translate(-1518.964 -6323)">
        <path id="prefix__Path_6882" d="M24.624 0H10.081A10.093 10.093 0 0 0 0 10.081v14.543a10.093 10.093 0 0 0 10.081 10.081h14.543a10.093 10.093 0 0 0 10.081-10.081V10.081A10.093 10.093 0 0 0 24.624 0zm7.37 24.624a7.378 7.378 0 0 1-7.37 7.37H10.081a7.378 7.378 0 0 1-7.37-7.37V10.081a7.378 7.378 0 0 1 7.37-7.37h14.543a7.378 7.378 0 0 1 7.37 7.37z" class="prefix__cls-1" data-name="Path 6882" transform="translate(1518.964 6323)"/>
        <path id="prefix__Path_6886" d="M92.394 64.963v-1.24s-.113-1.221-1.2-1.18a1.417 1.417 0 0 0-1.28 1.18v13.633a3.718 3.718 0 1 1-3.714-3.718 1.4 1.4 0 0 0 .966-1.394 1.062 1.062 0 0 0-.966-1.085 6.2 6.2 0 1 0 6.2 6.2v-7.451a6.157 6.157 0 0 0 3.718 1.251s1.335-.136 1.34-1.251-1.34-1.228-1.34-1.228a3.722 3.722 0 0 1-3.724-3.717zm0 0" class="prefix__cls-1" data-name="Path 6886" transform="translate(1448.231 6267.458)"/>
    </g>
</svg>
