<svg xmlns="http://www.w3.org/2000/svg" width="34.705" height="34.705" viewBox="0 0 34.705 34.705">
    <g fill="#90909d">
        <path d="M24.624 0H10.081A10.093 10.093 0 0 0 0 10.081v14.543a10.093 10.093 0 0 0 10.081 10.081h14.543a10.093 10.093 0 0 0 10.081-10.081V10.081A10.093 10.093 0 0 0 24.624 0zm7.37 24.624a7.378 7.378 0 0 1-7.37 7.37H10.081a7.378 7.378 0 0 1-7.37-7.37V10.081a7.378 7.378 0 0 1 7.37-7.37h14.543a7.378 7.378 0 0 1 7.37 7.37z" transform="translate(-1518.964 -6323) translate(1518.964 6323)"/>
        <path stroke="#f7faf9" stroke-width="0.4px" d="M19.345 79.4a3.794 3.794 0 0 1-3.781-3.767v-6.821a3.78 3.78 0 0 1 5.719-3.228L27.017 69a3.762 3.762 0 0 1 0 6.455l-5.734 3.411a3.783 3.783 0 0 1-1.938.534zm0-11.333a.8.8 0 0 0-.387.1.714.714 0 0 0-.376.638v6.823a.714.714 0 0 0 .376.638.759.759 0 0 0 .777-.007l5.734-3.411a.727.727 0 0 0 0-1.262l-5.734-3.411a.755.755 0 0 0-.391-.111z" transform="translate(-1518.964 -6323) translate(1515.036 6268.661)"/>
    </g>
</svg>
