<svg xmlns="http://www.w3.org/2000/svg" width="10.744" height="10.743" viewBox="0 0 10.744 10.743">
    <defs>
        <style>
            .cls-1{fill:#b5b7d0}
        </style>
    </defs>
    <g id="quit" transform="translate(-162.794 -162.773)">
        <path id="Path_6960" data-name="Path 6960" class="cls-1" d="M163.831 173.516a1.015 1.015 0 0 1-.717-1.733l8.713-8.713a1.015 1.015 0 0 1 1.435 1.435l-8.713 8.713a1.016 1.016 0 0 1-.718.298zm0 0" transform="translate(-.021)"/>
        <path id="Path_6961" data-name="Path 6961" class="cls-1" d="M172.521 173.536a1.006 1.006 0 0 1-.717-.3l-8.713-8.712a1.015 1.015 0 0 1 1.435-1.435l8.713 8.713a1.014 1.014 0 0 1-.718 1.731zm0 0" transform="translate(0 -.019)"/>
    </g>
</svg>
