<svg xmlns="http://www.w3.org/2000/svg" width="38.943" height="32.354" viewBox="0 0 38.943 32.354">
    <defs fill="#000000">
        <style>
            .cls-1{fill:#1B3867;stroke:#1B3867;stroke-width:.4px}
        </style>
    </defs>
    <g id="upload" transform="translate(.2 -18.2)">
        <g id="Group_547" data-name="Group 547" transform="translate(0 18.4)">
            <path id="Path_7114" data-name="Path 7114" class="cls-1" d="M31.346 27.7A11.165 11.165 0 0 0 10.66 24a6.4 6.4 0 0 0-1.173-.111A6.119 6.119 0 0 0 3.376 30a6.68 6.68 0 0 0 .124 1.264A8.5 8.5 0 0 0 0 38.119a9.091 9.091 0 0 0 2.306 6.016A8.232 8.232 0 0 0 8.013 47h4.543a1.07 1.07 0 0 0 0-2.14H8.108a6.749 6.749 0 0 1-5.968-6.749 6.353 6.353 0 0 1 3.147-5.469 1.079 1.079 0 0 0 .468-1.3 3.883 3.883 0 0 1-.238-1.363 3.978 3.978 0 0 1 3.971-3.971 3.9 3.9 0 0 1 1.355.238 1.075 1.075 0 0 0 1.339-.547 9.024 9.024 0 0 1 17.143 2.972 1.069 1.069 0 0 0 .888.951 7.713 7.713 0 0 1-.729 15.233h-3.505a1.07 1.07 0 1 0 0 2.14H29.6a9.482 9.482 0 0 0 6.356-3.139 9.865 9.865 0 0 0-4.61-16.156z" transform="translate(0 -18.4)" fill="#000000"/>
            <path id="Path_7115" data-name="Path 7115" class="cls-1" d="M171.38 192.9a1.067 1.067 0 0 0 0-1.514l-5.667-5.667a1.083 1.083 0 0 0-.753-.317 1.049 1.049 0 0 0-.753.317l-5.667 5.667a1.074 1.074 0 0 0 .753 1.831 1.044 1.044 0 0 0 .753-.317l3.844-3.844v12.994a1.07 1.07 0 0 0 2.14 0v-12.996l3.844 3.844a1.057 1.057 0 0 0 1.506.002z" transform="translate(-145.684 -171.164)" fill="#000000"/>
        </g>
    </g>
</svg>