<svg xmlns="http://www.w3.org/2000/svg" width="12.965" height="11.074" viewBox="0 0 12.965 11.074">
    <path data-name="Rectangle 102" d="M.442 0h3.835a.442.442 0 0 1 .442.442v3.835a.442.442 0 0 1-.442.442A4.277 4.277 0 0 1 0 .442.442.442 0 0 1 .442 0z" transform="rotate(45 -.987 5.128)" style="fill:#1b3867;opacity:.65"/>
    <path data-name="Rectangle 103" d="M.734 0H7.1a.734.734 0 0 1 .734.734V7.1a.734.734 0 0 1-.734.734A7.1 7.1 0 0 1 0 .734.734.734 0 0 1 .734 0z" transform="rotate(45 3.714 8.965)" style="fill:#e33955;opacity:.5"/>
</svg>
