<svg xmlns="http://www.w3.org/2000/svg" width="26" height="24" fill="none"><g clip-path="url(#a)"><path fill="#e33955" d="M4.254.015A.72.72 0 0 0 3.61.74v1.454H1.874a1.879 1.879 0 0 0-1.322.556c-.35.353-.55.83-.552 1.33v12.945c.003.5.201.978.552 1.33.35.354.826.553 1.322.556h13.293a5.472 5.472 0 0 0 1.062 2.883 5.42 5.42 0 0 0 2.443 1.846 5.384 5.384 0 0 0 3.047.222A5.407 5.407 0 0 0 24.4 22.39a5.485 5.485 0 0 0 1.243-5.765 5.449 5.449 0 0 0-1.835-2.459 5.396 5.396 0 0 0-2.865-1.068V4.08a1.903 1.903 0 0 0-.552-1.33 1.88 1.88 0 0 0-1.322-.556h-1.737V.741a.73.73 0 0 0-.211-.513.72.72 0 0 0-.51-.213h-.095a.721.721 0 0 0-.628.726v1.454H5.056V.741a.73.73 0 0 0-.212-.513.72.72 0 0 0-.51-.213h-.08Zm-2.38 3.634H19.07a.417.417 0 0 1 .4.265c.021.053.032.11.03.167v1.385H1.444V4.08a.424.424 0 0 1 .264-.402.417.417 0 0 1 .166-.03Zm-.43 3.27H19.5v6.291a5.406 5.406 0 0 0-2.745 1.486 5.462 5.462 0 0 0-1.476 2.763H1.874a.417.417 0 0 1-.4-.266.424.424 0 0 1-.03-.167V6.92Zm2.099 1.454a.721.721 0 0 0-.501.238.73.73 0 0 0 .048 1.027.72.72 0 0 0 .521.189h2.167a.718.718 0 0 0 .674-.439.73.73 0 0 0-.377-.955.718.718 0 0 0-.276-.06H3.542Zm5.777 0a.721.721 0 0 0-.5.238.73.73 0 0 0 .048 1.027.72.72 0 0 0 .52.189h2.168a.72.72 0 0 0 .513-.205.73.73 0 0 0-.492-1.249H9.32Zm5.778 0a.721.721 0 0 0-.5.238.73.73 0 0 0 .048 1.027.72.72 0 0 0 .52.189h2.167a.72.72 0 0 0 .514-.205.73.73 0 0 0-.492-1.249h-2.257ZM3.542 11.281a.722.722 0 0 0-.687.76.73.73 0 0 0 .235.505.72.72 0 0 0 .521.188h2.167a.72.72 0 0 0 .514-.205.729.729 0 0 0-.493-1.248H3.542Zm5.778 0a.72.72 0 0 0-.646.48.732.732 0 0 0 .436.931.72.72 0 0 0 .279.042h2.167a.72.72 0 0 0 .513-.205.729.729 0 0 0-.492-1.248H9.32Zm5.778 0a.722.722 0 0 0-.688.76.73.73 0 0 0 .236.505.72.72 0 0 0 .52.188h2.167a.72.72 0 0 0 .514-.205.729.729 0 0 0-.492-1.248h-2.257ZM3.542 14.188a.72.72 0 0 0-.5.237.73.73 0 0 0 .048 1.028.72.72 0 0 0 .521.189h2.167a.72.72 0 0 0 .514-.206.73.73 0 0 0-.493-1.248H3.542Zm5.778 0a.719.719 0 0 0-.646.48.732.732 0 0 0 .436.931c.09.033.184.047.279.043h2.167a.72.72 0 0 0 .513-.206.73.73 0 0 0-.492-1.248H9.32Zm11.263.363c.786 0 1.554.235 2.207.674a3.993 3.993 0 0 1 1.463 1.794 4.021 4.021 0 0 1-.86 4.357c-.556.559-1.264.94-2.035 1.094-.77.154-1.569.075-2.295-.228a3.977 3.977 0 0 1-1.782-1.472 4.016 4.016 0 0 1 .494-5.048 3.96 3.96 0 0 1 2.808-1.17Zm-1.874 3.271a.722.722 0 0 0-.688.761.73.73 0 0 0 .236.504.72.72 0 0 0 .52.189h3.612a.72.72 0 0 0 .514-.206.729.729 0 0 0-.492-1.248h-3.702Z"/></g></svg>