<svg xmlns="http://www.w3.org/2000/svg" width="22.672" height="23.888" viewBox="0 0 22.672 23.888">
    <defs>
        <style>
            .cls-1{fill:#ea3c64}
        </style>
    </defs>
    <g id="Bin" transform="translate(-1689 -547)">
        <g id="Group_2186" data-name="Group 2186" transform="translate(1689 547)">
            <path id="Path_7233" d="M-404.12 106.9h-1.083a1.139 1.139 0 0 1-1.184-1.125 1.132 1.132 0 0 1 1.166-1.143c1.74-.009 3.481 0 5.221 0h.391c.007-.134.018-.241.019-.347 0-.607 0-1.214.005-1.822a1.13 1.13 0 0 1 1.233-1.227q3.293-.007 6.587 0a1.138 1.138 0 0 1 1.248 1.246c.006.617.014 1.235 0 1.852-.006.245.082.308.314.307 1.75-.007 3.5 0 5.251 0a1.133 1.133 0 0 1 1.13.666 1.126 1.126 0 0 1-1.01 1.6c-.371.012-.743 0-1.15 0v16.817a2.162 2.162 0 0 1-.067.629 1.124 1.124 0 0 1-1.18.765q-2.838.005-5.676 0h-9.865a1.722 1.722 0 0 1-.679-.111 1.136 1.136 0 0 1-.671-1.155c.006-2.388 0-3.715 0-6.1v-10.474-.378zm2.276 15.919h13.573v-15.896h-13.573zm9.057-19.3h-4.529v.9c0 .163.076.207.223.206h4.091c.15 0 .223-.05.219-.21-.008-.286-.003-.579-.003-.892z" class="cls-1" data-name="Path 7233" transform="translate(406.386 -101.226)"/>
            <path id="Path_7234" d="M-303.731 172.856v-5.007a1.126 1.126 0 0 1 1.4-1.169 1.131 1.131 0 0 1 .865 1.168v9.014a1.125 1.125 0 0 1-.849 1.15 1.118 1.118 0 0 1-1.414-1.12c-.014-1.153-.006-1.245-.007-2.4v-1.639z" class="cls-1" data-name="Path 7234" transform="translate(316.199 -158.703)"/>
            <path id="Path_7235" d="M-341.044 171.8v-4.006a1.114 1.114 0 0 1 .855-1.114 1.1 1.1 0 0 1 1.276.579 1.36 1.36 0 0 1 .132.581c.007 3.359.006 5.655 0 9.014a1.129 1.129 0 0 1-1.14 1.195 1.13 1.13 0 0 1-1.124-1.211q-.002-2.516.001-5.038z" class="cls-1" data-name="Path 7235" transform="translate(348.978 -158.705)"/>
        </g>
    </g>
</svg>
