<svg xmlns="http://www.w3.org/2000/svg" width="20.622" height="22.913" viewBox="0 0 20.622 22.913">
    <path id="prefix__calendar" d="M21.33 3.291h-1.145V2.146a1.146 1.146 0 0 0-2.291 0v1.145H8.728V2.146a1.146 1.146 0 1 0-2.291 0v1.145H5.291a2.281 2.281 0 0 0-2.28 2.291L3 21.622a2.291 2.291 0 0 0 2.291 2.291H21.33a2.3 2.3 0 0 0 2.291-2.291V5.583a2.3 2.3 0 0 0-2.291-2.292zm-1.146 18.33H6.437a1.149 1.149 0 0 1-1.146-1.146V9.019H21.33v11.457a1.149 1.149 0 0 1-1.145 1.146zM8.728 11.311h3.437a1.149 1.149 0 0 1 1.146 1.146v3.437a1.149 1.149 0 0 1-1.146 1.146H8.728a1.149 1.149 0 0 1-1.146-1.146v-3.438a1.149 1.149 0 0 1 1.146-1.145z" transform="translate(-3 -1)" style="fill:#a4a0ad"/>
</svg>
