<svg xmlns="http://www.w3.org/2000/svg" width="53.894" height="53.894" viewBox="0 0 53.894 53.894">
    <path d="M50.045 3.85h-7.7V0H38.5v3.85H15.4V0h-3.85v3.85h-7.7A3.855 3.855 0 0 0 0 7.7v42.345a3.855 3.855 0 0 0 3.85 3.85h32.721a1.923 1.923 0 0 0 1.361-.564l15.4-15.4a1.923 1.923 0 0 0 .564-1.361V7.7a3.855 3.855 0 0 0-3.85-3.85zM38.5 47.323V38.5h8.827zm11.545-12.677H38.5a3.855 3.855 0 0 0-3.85 3.85v11.549H3.85v-30.8h46.2v15.4zm0-19.248H3.85V7.7h7.7v3.85h3.85V7.7h23.1v3.85h3.85V7.7h7.7v7.7z" style="fill:#cdd8d5"/>
</svg>
