<svg width="22" height="21" viewBox="0 0 22 21" fill="none" xmlns="http://www.w3.org/2000/svg">
<g id="Group">
<path id="Vector" d="M11 14.73C12.6569 14.73 14 13.3868 14 11.73C14 10.0731 12.6569 8.72998 11 8.72998C9.34315 8.72998 8 10.0731 8 11.73C8 13.3868 9.34315 14.73 11 14.73Z" stroke="#E43955" stroke-width="1.5" stroke-linecap="round"/>
<path id="Vector_2" d="M8.778 19.73H13.222C16.343 19.73 17.904 19.73 19.025 18.995C19.5087 18.6779 19.9253 18.2688 20.251 17.791C21 16.691 21 15.158 21 12.094C21 9.02897 21 7.49697 20.251 6.39697C19.9253 5.91908 19.5087 5.50997 19.025 5.19297C18.305 4.71997 17.403 4.55097 16.022 4.49097C15.363 4.49097 14.796 4.00097 14.667 3.36597C14.5684 2.90083 14.3123 2.484 13.9418 2.18592C13.5714 1.88783 13.1095 1.72677 12.634 1.72997H9.366C8.378 1.72997 7.527 2.41497 7.333 3.36597C7.204 4.00097 6.637 4.49097 5.978 4.49097C4.598 4.55097 3.696 4.72097 2.975 5.19297C2.49162 5.51003 2.07537 5.91914 1.75 6.39697C1 7.49697 1 9.02897 1 12.094C1 15.158 1 16.69 1.749 17.791C2.073 18.267 2.489 18.676 2.975 18.995C4.096 19.73 5.657 19.73 8.778 19.73Z" stroke="#E43955" stroke-width="1.5" stroke-linecap="round"/>
<path id="Vector_3" d="M18 8.72998H17" stroke="#E43955" stroke-width="1.5" stroke-linecap="round"/>
</g>
</svg>
