<!DOCTYPE svg PUBLIC "-//W3C//DTD SVG 1.1//EN" "http://www.w3.org/Graphics/SVG/1.1/DTD/svg11.dtd">
<!-- Uploaded to: SVG Repo, www.svgrepo.com, Transformed by: SVG Repo Mixer Tools -->
<svg fill="#E33955" width="64px" height="64px" viewBox="0 0 24 24" xmlns="http://www.w3.org/2000/svg" stroke="#E33955" stroke-width="0.00024000000000000003">
<g id="SVGRepo_bgCarrier" stroke-width="0"/>
<g id="SVGRepo_tracerCarrier" stroke-linecap="round" stroke-linejoin="round"/>
<g id="SVGRepo_iconCarrier">
<path d="M22,3a1,1,0,0,0-1-1H3A1,1,0,0,0,2,3V17a1,1,0,0,0,1,1H8.5l2.7,3.6a1,1,0,0,0,1.6,0L15.5,18H21a1,1,0,0,0,1-1ZM20,16H15a1,1,0,0,0-.8.4L12,19.333,9.8,16.4A1,1,0,0,0,9,16H4V4H20ZM7,8A1,1,0,0,1,8,7h8a1,1,0,0,1,0,2H8A1,1,0,0,1,7,8Zm0,5a1,1,0,0,1,1-1h4a1,1,0,0,1,0,2H8A1,1,0,0,1,7,13Z"/>
</g>
</svg>