<svg xmlns="http://www.w3.org/2000/svg" width="35" height="35" viewBox="0 0 35 35">
    <g fill="#fff" transform="translate(-222 -20)">
        <circle cx="17.5" cy="17.5" r="17.5" opacity="0.2" transform="translate(222 20)"/>
        <path d="M234.558 8.684a6.324 6.324 0 0 1-.419-2.268 6.416 6.416 0 1 1 6.876 6.416h-.193a8.143 8.143 0 0 1-1.865-.156 6.009 6.009 0 0 1-1.582-.639l-2.986.373a.8.8 0 0 1-.727-.463c-.132-.282-.088-.615.896-3.263zm3.858.138h4.277a.8.8 0 1 0 0-1.6h-4.277a.8.8 0 1 0 0 1.6zm0-3.208h4.277a.8.8 0 1 0 0-1.6h-4.277a.8.8 0 1 0 0 1.6z" transform="translate(-1 31.168)"/>
    </g>
</svg>
