<svg width="40" height="41" viewBox="0 0 40 41" fill="none" xmlns="http://www.w3.org/2000/svg">
<g id="check_circle" clip-path="url(#clip0_84_2214)">
<path id="Vector" d="M20.0002 4.1628C10.8002 4.1628 3.3335 11.6295 3.3335 20.8295C3.3335 30.0295 10.8002 37.4961 20.0002 37.4961C29.2002 37.4961 36.6668 30.0295 36.6668 20.8295C36.6668 11.6295 29.2002 4.1628 20.0002 4.1628ZM15.4835 27.9795L9.50016 21.9961C8.85016 21.3461 8.85016 20.2961 9.50016 19.6461C10.1502 18.9961 11.2002 18.9961 11.8502 19.6461L16.6668 24.4461L28.1335 12.9795C28.7835 12.3295 29.8335 12.3295 30.4835 12.9795C31.1335 13.6295 31.1335 14.6795 30.4835 15.3295L17.8335 27.9795C17.2002 28.6295 16.1335 28.6295 15.4835 27.9795Z" fill="#1B3867"/>
</g>
<defs>
<clipPath id="clip0_84_2214">
<rect width="40" height="40" fill="white" transform="translate(0 0.829468)"/>
</clipPath>
</defs>
</svg>
