<svg xmlns="http://www.w3.org/2000/svg" width="90.16" height="89.659" viewBox="0 0 90.16 89.659">
    <defs fill="#000000">
        <style>
            .cls-2{fill:#fff}
        </style>
    </defs>
    <g id="Check" transform="translate(-395.037 -796.338)">
        <path id="Interview" d="M67 16.923c17.449 18.035.51 18.327-.557 40.135S9.232 82.6 7.476 43.336 49.548-1.112 67 16.923z" transform="rotate(27 -1427.637 1271.565)" style="fill:#1b3867"/>
        <path id="Add" class="cls-2" d="M19.237 1.61C17.883-.064 14.361 0 14.361 0H2.99A2.966 2.966 0 0 0 0 2.924a2.967 2.967 0 0 0 2.99 2.924h11.37v6.843a2.991 2.991 0 0 0 5.981 0V5.848a6.6 6.6 0 0 0-1.104-4.238z" transform="rotate(135 53.018 513.262)" fill="#000000"/>
        <path id="Add-2" data-name="Add" class="cls-2" d="M19.237 1.61C17.883-.064 14.361 0 14.361 0H2.99A2.966 2.966 0 0 0 0 2.924a2.967 2.967 0 0 0 2.99 2.924h11.37v6.843a2.991 2.991 0 0 0 5.981 0V5.848a6.6 6.6 0 0 0-1.104-4.238z" transform="rotate(135 53.018 513.262)" fill="#000000"/>
    </g>
</svg>
