<svg width="155" height="60" viewBox="0 0 155 60" fill="none" xmlns="http://www.w3.org/2000/svg">
<g id="logo " clip-path="url(#clip0_376_3791)">
<path id="Vector" d="M7.25381 15.1097C5.30804 18.3242 4.14858 21.9526 3.86973 25.6998C3.59089 29.447 4.20053 33.2071 5.64909 36.6742C7.09764 40.1413 9.34418 43.2175 12.206 45.6525C15.0677 48.0876 18.4639 49.8127 22.1182 50.6875C22.3544 50.746 22.5748 50.856 22.7635 51.0097C22.9522 51.1634 23.1046 51.3569 23.2097 51.5764C23.3149 51.7959 23.3701 52.0359 23.3716 52.2793C23.3731 52.5227 23.3206 52.7633 23.2181 52.9841C23.06 53.3276 22.7877 53.6057 22.4476 53.7711C22.1074 53.9364 21.7205 53.9787 21.3527 53.8908C19.5874 53.4644 17.8694 52.8618 16.2245 52.0922L15.786 51.8766C12.4989 50.357 9.54844 48.1961 7.10776 45.5207C4.66708 42.8454 2.78532 39.7096 1.57291 36.2972C0.360493 32.8848 -0.158165 29.2646 0.0473816 25.6491C0.252928 22.0336 1.17853 18.4955 2.76988 15.2425C4.36122 11.9896 6.58626 9.08718 9.31443 6.70571C12.0426 4.32424 15.2189 2.51165 18.6571 1.3743C22.0952 0.236947 25.7259 -0.202247 29.336 0.0824763C32.9462 0.3672 36.4631 1.37011 39.6804 3.03236C41.1955 3.76708 42.6366 4.64564 43.9837 5.65592C44.285 5.88197 44.4986 6.20554 44.5881 6.57147C44.6775 6.9374 44.6373 7.32303 44.4742 7.66261C44.3717 7.88286 44.2216 8.07763 44.0347 8.23288C43.8479 8.38813 43.6289 8.5 43.3936 8.56042C43.1583 8.62085 42.9125 8.62832 42.674 8.58231C42.4354 8.5363 42.2101 8.43795 42.0141 8.29435C39.3399 6.30048 36.2779 4.88845 33.0251 4.14908C29.7724 3.40971 26.4009 3.35938 23.1275 4.00131C19.8541 4.64325 16.7514 5.96324 14.0188 7.87638C11.2862 9.78952 8.98435 12.2534 7.26124 15.1097H7.25381Z" fill="#1B3867"/>
<path id="Vector_2" d="M28.9483 25.4775H10.8064C10.7379 25.4927 10.6669 25.4923 10.5987 25.4764C10.5304 25.4605 10.4665 25.4295 10.4118 25.3856C10.3571 25.3418 10.313 25.2862 10.2827 25.223C10.2523 25.1597 10.2366 25.0905 10.2366 25.0204C10.2366 24.9503 10.2523 24.8811 10.2827 24.8179C10.313 24.7546 10.3571 24.6991 10.4118 24.6552C10.4665 24.6113 10.5304 24.5803 10.5987 24.5644C10.6669 24.5485 10.7379 24.5481 10.8064 24.5633H28.9409C29.0093 24.5481 29.0803 24.5485 29.1486 24.5644C29.2169 24.5803 29.2808 24.6113 29.3354 24.6552C29.3901 24.6991 29.4343 24.7546 29.4646 24.8179C29.495 24.8811 29.5107 24.9503 29.5107 25.0204C29.5107 25.0905 29.495 25.1597 29.4646 25.223C29.4343 25.2862 29.3901 25.3418 29.3354 25.3856C29.2808 25.4295 29.2169 25.4605 29.1486 25.4764C29.0803 25.4923 29.0093 25.4927 28.9409 25.4775H28.9483Z" fill="#E43955"/>
<path id="Vector_3" d="M29.2754 26.4586C28.9926 26.4586 28.719 26.3579 28.5037 26.1744C28.2885 25.991 28.1457 25.7368 28.1009 25.4576C28.0562 25.1783 28.1124 24.8923 28.2596 24.6507C28.4067 24.4092 28.6351 24.228 28.9038 24.1397L40.052 20.4905C40.3319 20.443 40.6195 20.4972 40.8628 20.6433C41.1062 20.7893 41.2893 21.0176 41.3791 21.2869C41.4688 21.5561 41.4593 21.8486 41.3522 22.1115C41.2452 22.3743 41.0476 22.5902 40.7953 22.7202L29.647 26.3694C29.5285 26.4181 29.4031 26.4482 29.2754 26.4586Z" fill="#E43955"/>
<path id="Vector_4" d="M29.4612 51.728C29.3001 51.7232 29.1416 51.6867 28.9946 51.6206C28.8477 51.5545 28.7152 51.46 28.6047 51.3427C28.4943 51.2254 28.4081 51.0874 28.351 50.9367C28.2939 50.786 28.267 50.6256 28.272 50.4645V26.0572C28.272 25.9011 28.3028 25.7465 28.3625 25.6022C28.4223 25.4579 28.5099 25.3268 28.6203 25.2164C28.7307 25.106 28.8618 25.0184 29.0061 24.9586C29.1504 24.8989 29.305 24.8681 29.4612 24.8681C29.6173 24.8681 29.772 24.8989 29.9162 24.9586C30.0605 25.0184 30.1916 25.106 30.302 25.2164C30.4124 25.3268 30.5 25.4579 30.5598 25.6022C30.6195 25.7465 30.6503 25.9011 30.6503 26.0572L30.6875 50.4571C30.6924 50.6216 30.6644 50.7854 30.6051 50.9389C30.5458 51.0924 30.4564 51.2325 30.3421 51.351C30.2278 51.4694 30.091 51.5637 29.9397 51.6285C29.7884 51.6933 29.6257 51.7271 29.4612 51.728Z" fill="#E43955"/>
<path id="Vector_5" d="M9.05984 21.6054H8.89633C8.77879 21.5883 8.66589 21.5477 8.56437 21.4861C8.46284 21.4245 8.37477 21.343 8.3054 21.2466C8.23604 21.1502 8.18681 21.0408 8.16064 20.9249C8.13448 20.8091 8.13192 20.6892 8.15311 20.5723C8.15311 20.4534 10.3828 9.08214 24.0357 6.01264C24.2663 5.96169 24.5077 6.00429 24.7069 6.13107C24.9062 6.25786 25.047 6.4585 25.0985 6.68898C25.1247 6.80322 25.128 6.92153 25.1081 7.03705C25.0882 7.15257 25.0456 7.26299 24.9827 7.36188C24.9197 7.46077 24.8378 7.54616 24.7416 7.6131C24.6453 7.68003 24.5368 7.72717 24.4222 7.75177C11.9435 10.5537 9.98143 20.4682 9.90711 20.8844C9.86723 21.0822 9.76199 21.2609 9.60832 21.3916C9.45464 21.5224 9.26147 21.5977 9.05984 21.6054Z" fill="#E43955"/>
<path id="Vector_6" d="M60.8473 38.5879C60.6269 38.3595 60.3324 38.2169 60.0166 38.1856C59.7007 38.1543 59.384 38.2363 59.123 38.417C57.9309 39.2356 56.5186 39.6736 55.0725 39.673C51.1483 39.673 48.443 36.9082 48.443 32.9097C48.443 28.9112 51.1483 26.1539 55.0725 26.1539C56.4506 26.1232 57.8016 26.5405 58.9224 27.343C59.1754 27.533 59.4868 27.6287 59.8029 27.6138C60.119 27.5989 60.42 27.4742 60.654 27.2613L60.7284 27.1944C60.8743 27.0615 60.9889 26.8979 61.0638 26.7152C61.1387 26.5326 61.172 26.3356 61.1613 26.1385C61.1507 25.9415 61.0963 25.7492 61.0021 25.5758C60.9079 25.4023 60.7764 25.252 60.6169 25.1357C58.977 23.9378 56.9916 23.3064 54.961 23.3371C49.3125 23.3371 45.3363 27.2836 45.3363 32.9097C45.3363 38.5359 49.2828 42.4824 54.9981 42.4824C57.0576 42.5291 59.0791 41.9229 60.773 40.7507C60.9326 40.6395 61.0662 40.495 61.1646 40.3272C61.2629 40.1594 61.3238 39.9723 61.3428 39.7787C61.3619 39.5851 61.3388 39.3897 61.2751 39.206C61.2113 39.0222 61.1085 38.8544 60.9736 38.7142L60.8473 38.5879Z" fill="#1B3867"/>
<path id="Vector_7" d="M65.9309 23.7087C65.5367 23.7087 65.1586 23.8653 64.8798 24.144C64.6011 24.4228 64.4445 24.8009 64.4445 25.1951V40.6615C64.4445 41.0557 64.6011 41.4338 64.8798 41.7126C65.1586 41.9913 65.5367 42.1479 65.9309 42.1479C66.3251 42.1479 66.7032 41.9913 66.982 41.7126C67.2607 41.4338 67.4173 41.0557 67.4173 40.6615V25.1803C67.4134 24.7886 67.2551 24.4143 66.9767 24.1388C66.6984 23.8632 66.3226 23.7087 65.9309 23.7087Z" fill="#1B3867"/>
<path id="Vector_8" d="M82.6756 29.1267C82.328 29.1247 81.9937 29.2604 81.7458 29.5041C81.498 29.7478 81.3566 30.0797 81.3527 30.4273V30.5611C81.3527 30.5845 81.3453 30.6073 81.3316 30.6263C81.318 30.6453 81.2987 30.6595 81.2765 30.6669C81.2543 30.6743 81.2303 30.6745 81.208 30.6675C81.1856 30.6606 81.166 30.6467 81.152 30.628C80.5624 30.0306 79.8547 29.5627 79.0741 29.2543C78.2935 28.9459 77.4571 28.8037 76.6184 28.8369C72.8057 28.8369 70.1747 31.6239 70.1747 35.6224C70.1747 39.6209 72.8057 42.408 76.6184 42.408C77.453 42.4365 78.2846 42.2936 79.0618 41.9881C79.839 41.6826 80.5453 41.2209 81.1372 40.6317C81.1544 40.6145 81.1762 40.6026 81.2 40.5975C81.2238 40.5923 81.2486 40.5942 81.2714 40.6029C81.2942 40.6115 81.3139 40.6265 81.3284 40.6462C81.3428 40.6658 81.3512 40.6892 81.3527 40.7135V40.8101C81.3527 41.161 81.4921 41.4974 81.7402 41.7455C81.9883 41.9936 82.3248 42.133 82.6756 42.133C83.0265 42.133 83.363 41.9936 83.6111 41.7455C83.8592 41.4974 83.9985 41.161 83.9985 40.8101V30.4719C84.0015 30.2963 83.9695 30.1219 83.9043 29.9588C83.8391 29.7957 83.7422 29.6473 83.619 29.522C83.4959 29.3968 83.3491 29.2974 83.1871 29.2295C83.0251 29.1616 82.8512 29.1267 82.6756 29.1267ZM77.0792 39.725C76.2629 39.7502 75.4576 39.5311 74.7665 39.0959C74.0755 38.6606 73.53 38.029 73.2 37.2819C72.8701 36.5349 72.7706 35.7063 72.9143 34.9023C73.058 34.0984 73.4385 33.3556 74.0069 32.7692C74.5753 32.1827 75.3058 31.7792 76.1048 31.6104C76.9039 31.4416 77.7352 31.5151 78.4922 31.8216C79.2493 32.128 79.8976 32.6535 80.3542 33.3306C80.8109 34.0077 81.055 34.8057 81.0554 35.6224C81.0899 36.1594 81.0117 36.6976 80.8258 37.2026C80.6398 37.7075 80.3503 38.1679 79.9759 38.5543C79.6014 38.9407 79.1502 39.2445 78.6514 39.4461C78.1525 39.6477 77.617 39.7427 77.0792 39.725Z" fill="#1B3867"/>
<path id="Vector_9" d="M92.5753 34.2772C90.6801 34.0691 89.9145 33.6232 89.9145 32.7908C89.9145 31.8395 90.9179 31.3044 92.7834 31.3044C93.7332 31.2996 94.6732 31.4973 95.5407 31.8841C95.8423 32.0211 96.1859 32.0326 96.4961 31.9163C96.8062 31.7999 97.0574 31.5651 97.1944 31.2635C97.3314 30.9619 97.3429 30.6183 97.2266 30.3081C97.1102 29.998 96.8754 29.7468 96.5738 29.6098C95.3393 29.0613 94.0003 28.7874 92.6496 28.8072C89.2828 28.8072 87.0234 30.4125 87.0234 32.7834C87.0234 35.013 88.9409 36.4623 92.3374 36.7745C94.3367 36.99 95.1765 37.4359 95.1765 38.3575C95.1765 39.2791 94.2327 39.8439 92.5753 39.8439C91.3172 39.8524 90.0747 39.5647 88.9484 39.0041C88.6724 38.8611 88.3529 38.8268 88.0529 38.9079C87.7529 38.9891 87.4943 39.1799 87.3281 39.4426V39.4798C87.2371 39.6217 87.1757 39.7806 87.1477 39.9468C87.1197 40.1131 87.1257 40.2833 87.1653 40.4473C87.2049 40.6112 87.2772 40.7654 87.378 40.9005C87.4788 41.0357 87.606 41.1491 87.7518 41.2338C89.2088 42.0483 90.8541 42.466 92.5232 42.4452C95.89 42.4452 98.1271 40.8176 98.1271 38.3947C98.1271 35.9718 96.4103 34.7009 92.5753 34.2772Z" fill="#1B3867"/>
<path id="Vector_10" d="M105.723 34.2772C103.828 34.0691 103.07 33.6232 103.07 32.7908C103.07 31.8395 104.065 31.3043 105.931 31.3043C106.883 31.2999 107.825 31.4975 108.696 31.8841C108.846 31.96 109.01 32.0047 109.179 32.0154C109.347 32.0262 109.516 32.0028 109.674 31.9466C109.833 31.8904 109.979 31.8026 110.103 31.6885C110.227 31.5744 110.327 31.4364 110.396 31.2827C110.466 31.129 110.503 30.9629 110.507 30.7944C110.51 30.6259 110.479 30.4584 110.416 30.3021C110.353 30.1458 110.259 30.0038 110.14 29.8849C110.02 29.7659 109.878 29.6723 109.721 29.6098C108.489 29.0621 107.153 28.7882 105.805 28.8071C102.438 28.8071 100.171 30.4125 100.171 32.7833C100.171 35.013 102.096 36.4623 105.485 36.7744C107.484 36.99 108.324 37.4359 108.324 38.3575C108.324 39.2791 107.38 39.8439 105.723 39.8439C104.465 39.8507 103.223 39.5631 102.096 39.0041C101.82 38.8611 101.5 38.8267 101.2 38.9079C100.9 38.9891 100.642 39.1799 100.476 39.4426V39.4797C100.382 39.621 100.319 39.7799 100.29 39.9467C100.261 40.1134 100.266 40.2843 100.306 40.4488C100.346 40.6133 100.419 40.7679 100.521 40.903C100.623 41.038 100.752 41.1506 100.899 41.2337C102.354 42.0483 103.997 42.466 105.663 42.4452C109.03 42.4452 111.267 40.8175 111.267 38.3947C111.267 35.9718 109.543 34.7009 105.723 34.2772Z" fill="#1B3867"/>
<path id="Vector_11" d="M122.72 24.4816C122.718 24.274 122.634 24.0755 122.487 23.9293C122.339 23.7832 122.14 23.7012 121.932 23.7012H111.171C110.976 23.7202 110.795 23.811 110.664 23.956C110.532 24.1009 110.459 24.2896 110.459 24.4853C110.459 24.681 110.532 24.8697 110.664 25.0147C110.795 25.1596 110.976 25.2504 111.171 25.2694H115.303C115.354 25.2694 115.404 25.2794 115.451 25.2988C115.498 25.3183 115.54 25.3467 115.576 25.3826C115.612 25.4185 115.64 25.4611 115.66 25.508C115.679 25.5549 115.689 25.6051 115.689 25.6559V41.2635C115.689 41.4901 115.779 41.7075 115.94 41.8678C116.1 42.0281 116.317 42.1182 116.544 42.1182C116.771 42.1182 116.988 42.0281 117.148 41.8678C117.309 41.7075 117.399 41.4901 117.399 41.2635V25.6559C117.399 25.6045 117.409 25.5536 117.429 25.5063C117.449 25.4589 117.478 25.4159 117.515 25.38C117.551 25.344 117.595 25.3157 117.642 25.2967C117.69 25.2777 117.741 25.2684 117.793 25.2694H121.932C122.141 25.2694 122.342 25.1864 122.489 25.0387C122.637 24.8909 122.72 24.6906 122.72 24.4816Z" fill="#E43955"/>
<path id="Vector_12" d="M132.887 28.9855C132.726 28.9872 132.568 29.0377 132.435 29.1306C132.303 29.2234 132.201 29.3542 132.144 29.5058L128.346 39.4574C128.285 39.6179 128.233 39.7817 128.19 39.948C128.153 40.0966 128.109 40.2453 128.064 40.3939L127.93 39.8736C127.878 39.6953 127.834 39.5392 127.782 39.4054L124.207 29.5132C124.151 29.3602 124.05 29.2279 123.917 29.1336C123.784 29.0394 123.626 28.9877 123.463 28.9855H123.367C123.237 28.9864 123.109 29.0188 122.994 29.08C122.88 29.1411 122.782 29.2292 122.708 29.3367C122.635 29.4442 122.589 29.5678 122.575 29.6969C122.56 29.826 122.577 29.9568 122.624 30.078L127.083 41.6351C127.198 41.9135 127.198 42.2262 127.083 42.5046L126.124 44.7343C125.905 45.3188 125.551 45.8433 125.091 46.2653C124.701 46.6026 124.202 46.785 123.686 46.7782C123.486 46.7782 123.248 46.7782 123.099 46.7782C122.921 46.8034 122.757 46.8927 122.64 47.0294C122.522 47.1662 122.458 47.341 122.46 47.5214C122.46 47.711 122.532 47.8936 122.662 48.0317C122.792 48.1699 122.969 48.2532 123.159 48.2646C123.337 48.2646 123.523 48.2646 123.724 48.2646C124.624 48.2833 125.496 47.95 126.154 47.3356C126.941 46.5188 127.544 45.5432 127.923 44.4742L133.712 30.0334C133.753 29.908 133.762 29.7745 133.739 29.6448C133.716 29.515 133.661 29.3929 133.58 29.2893C133.498 29.1857 133.392 29.1038 133.271 29.0509C133.151 28.9979 133.019 28.9754 132.887 28.9855Z" fill="#E43955"/>
<path id="Vector_13" d="M150.19 28.6585C149.297 28.6492 148.421 28.9081 147.677 29.4017C147.025 29.8446 146.483 30.4321 146.094 31.1186C146.081 31.1401 146.062 31.1578 146.04 31.1701C146.018 31.1824 145.993 31.1889 145.968 31.1889C145.943 31.1889 145.918 31.1824 145.896 31.1701C145.874 31.1578 145.855 31.1401 145.842 31.1186L145.336 30.3753C145.108 30.0288 144.825 29.7224 144.496 29.4686C144.165 29.2115 143.793 29.0106 143.396 28.874C142.972 28.7328 142.528 28.6625 142.081 28.6659C141.245 28.6461 140.421 28.8649 139.705 29.2966C138.989 29.7284 138.411 30.3552 138.038 31.1037H137.986V29.7287C137.986 29.5316 137.908 29.3426 137.768 29.2032C137.629 29.0638 137.44 28.9855 137.243 28.9855H137.072C136.875 28.9855 136.686 29.0638 136.546 29.2032C136.407 29.3426 136.328 29.5316 136.328 29.7287V41.4121C136.328 41.6092 136.407 41.7983 136.546 41.9377C136.686 42.077 136.875 42.1554 137.072 42.1554H137.243C137.44 42.1554 137.629 42.077 137.768 41.9377C137.908 41.7983 137.986 41.6092 137.986 41.4121V34.6117C137.98 33.9902 138.068 33.3715 138.246 32.7759C138.407 32.2621 138.659 31.7814 138.989 31.3564C139.285 30.9751 139.66 30.6631 140.089 30.4422C140.508 30.2212 140.976 30.1088 141.449 30.1152C143.56 30.1152 144.623 31.4902 144.623 34.2475V41.4121C144.623 41.6092 144.701 41.7983 144.84 41.9377C144.98 42.077 145.169 42.1554 145.366 42.1554H145.537C145.734 42.1554 145.923 42.077 146.062 41.9377C146.202 41.7983 146.28 41.6092 146.28 41.4121V34.5448C146.274 33.9513 146.367 33.361 146.555 32.7982C146.718 32.29 146.97 31.8144 147.298 31.3935C147.601 31.005 147.984 30.6857 148.421 30.4571C148.838 30.2312 149.306 30.1136 149.781 30.1152C150.257 30.103 150.731 30.1812 151.178 30.3456C151.561 30.4979 151.894 30.7556 152.137 31.0888C152.414 31.4883 152.604 31.9416 152.694 32.4192C152.83 33.0766 152.893 33.7472 152.88 34.4184V41.4121C152.88 41.6092 152.958 41.7983 153.098 41.9377C153.237 42.077 153.426 42.1554 153.623 42.1554H153.794C153.991 42.1554 154.18 42.077 154.32 41.9377C154.459 41.7983 154.537 41.6092 154.537 41.4121V34.032C154.522 30.4497 153.073 28.6585 150.19 28.6585Z" fill="#E43955"/>
<path id="Vector_14" d="M53.8015 54.9981C53.7784 54.5293 53.8532 54.0608 54.0214 53.6226C54.1896 53.1844 54.4473 52.7861 54.7782 52.4531C55.109 52.1202 55.5057 51.8599 55.9429 51.689C56.38 51.5181 56.848 51.4402 57.317 51.4604C57.7697 51.4536 58.219 51.5398 58.637 51.7136C59.0551 51.8875 59.4329 52.1453 59.7473 52.4712L59.3459 52.8428C59.0788 52.5725 58.7587 52.3604 58.4057 52.2197C58.0527 52.079 57.6745 52.0128 57.2947 52.0253C56.5062 52.0253 55.7501 52.3385 55.1925 52.896C54.635 53.4535 54.3218 54.2097 54.3218 54.9981C54.3218 55.7866 54.635 56.5428 55.1925 57.1003C55.7501 57.6578 56.5062 57.971 57.2947 57.971C58.0761 57.9717 58.8264 57.6646 59.3831 57.1163L59.7696 57.5102C59.4447 57.8365 59.0575 58.0942 58.6311 58.2678C58.2046 58.4415 57.7476 58.5275 57.2872 58.521C56.822 58.5368 56.3586 58.4562 55.9261 58.2843C55.4935 58.1124 55.1012 57.8529 54.7738 57.522C54.4465 57.1911 54.1911 56.7961 54.0237 56.3617C53.8564 55.9274 53.7808 55.4631 53.8015 54.9981Z" fill="#FDFDFD"/>
<path id="Vector_15" d="M60.7506 55.9792C60.7536 55.4874 60.9021 55.0075 61.1774 54.6C61.4528 54.1925 61.8426 53.8757 62.2978 53.6896C62.753 53.5034 63.2532 53.4562 63.7352 53.5539C64.2172 53.6517 64.6594 53.89 65.0061 54.2388C65.3528 54.5875 65.5885 55.0312 65.6834 55.5138C65.7783 55.9963 65.7281 56.4962 65.5392 56.9502C65.3503 57.4043 65.0312 57.7923 64.6221 58.0652C64.213 58.3382 63.7322 58.4838 63.2404 58.4838C62.9088 58.4965 62.5781 58.4402 62.2693 58.3187C61.9605 58.1971 61.6803 58.0128 61.4464 57.7774C61.2124 57.542 61.0298 57.2607 60.91 56.9512C60.7903 56.6417 60.736 56.3107 60.7506 55.9792ZM65.1728 55.9792C65.1625 55.5994 65.0406 55.231 64.8221 54.9202C64.6037 54.6093 64.2984 54.3697 63.9445 54.2314C63.5907 54.0931 63.2039 54.0622 62.8325 54.1425C62.4612 54.2229 62.1217 54.4109 61.8567 54.6831C61.5916 54.9553 61.4127 55.2996 61.3422 55.673C61.2718 56.0463 61.313 56.4322 61.4606 56.7822C61.6083 57.1323 61.8559 57.4311 62.1724 57.6412C62.489 57.8513 62.8605 57.9634 63.2404 57.9636C63.5001 57.969 63.7581 57.9209 63.9984 57.8224C64.2387 57.7239 64.4563 57.5771 64.6375 57.391C64.8187 57.2049 64.9597 56.9836 65.0518 56.7407C65.1439 56.4978 65.185 56.2386 65.1728 55.9792Z" fill="#FDFDFD"/>
<path id="Vector_16" d="M71.5719 55.6373V58.3872H71.0145V55.667C71.0383 55.4541 71.0157 55.2385 70.9483 55.0351C70.881 54.8317 70.7705 54.6453 70.6244 54.4886C70.4783 54.3318 70.3 54.2086 70.1018 54.1272C69.9036 54.0458 69.6901 54.0083 69.476 54.0171C69.2455 54.0078 69.0154 54.0461 68.8003 54.1296C68.5852 54.2132 68.3896 54.3401 68.2257 54.5026C68.0618 54.6651 67.9332 54.8596 67.8478 55.074C67.7624 55.2884 67.7221 55.5181 67.7295 55.7488V58.3872H67.1795V53.5711H67.6849V54.4407C67.8875 54.1412 68.163 53.8981 68.4854 53.7343C68.8079 53.5705 69.1667 53.4913 69.5281 53.5043C69.8092 53.4851 70.091 53.5279 70.3538 53.6297C70.6165 53.7314 70.8537 53.8896 71.0486 54.093C71.2436 54.2964 71.3915 54.5402 71.4819 54.807C71.5723 55.0738 71.603 55.3573 71.5719 55.6373Z" fill="#FDFDFD"/>
<path id="Vector_17" d="M77.6812 55.6373V58.3872H77.1237V55.6671C77.1476 55.4535 77.1249 55.2373 77.0571 55.0333C76.9893 54.8293 76.8782 54.6425 76.7312 54.4857C76.5843 54.3288 76.4051 54.2057 76.2059 54.1248C76.0068 54.0439 75.7925 54.0072 75.5778 54.0171C75.351 54.013 75.1256 54.0549 74.9154 54.1403C74.7052 54.2257 74.5144 54.3528 74.3547 54.514C74.1949 54.6751 74.0695 54.8669 73.9859 55.0779C73.9023 55.2888 73.8624 55.5146 73.8684 55.7414V58.3798H73.311V53.5638H73.8164V54.4333C74.0196 54.1343 74.2951 53.8916 74.6174 53.7278C74.9398 53.5641 75.2983 53.4846 75.6596 53.4969C75.9396 53.481 76.2197 53.5265 76.4802 53.6301C76.7408 53.7338 76.9756 53.8931 77.1681 54.097C77.3607 54.3009 77.5064 54.5444 77.595 54.8104C77.6836 55.0765 77.713 55.3587 77.6812 55.6373Z" fill="#FDFDFD"/>
<path id="Vector_18" d="M83.9242 56.1947H79.6284C79.633 56.4387 79.6868 56.6793 79.7866 56.902C79.8864 57.1248 80.0301 57.325 80.2091 57.4909C80.3882 57.6568 80.5989 57.7848 80.8285 57.8673C81.0582 57.9498 81.3022 57.985 81.5459 57.971C81.8638 57.9746 82.1788 57.9101 82.4698 57.7819C82.7608 57.6537 83.021 57.4648 83.233 57.2278L83.612 57.5622C83.3528 57.8567 83.0321 58.0905 82.6724 58.2472C82.3128 58.4039 81.9231 58.4796 81.531 58.469C81.1993 58.4809 80.8688 58.4234 80.5606 58.3003C80.2523 58.1772 79.9732 57.9912 79.7409 57.754C79.5087 57.5169 79.3285 57.2339 79.2119 56.9232C79.0952 56.6125 79.0447 56.2808 79.0635 55.9494C79.0437 55.622 79.0924 55.294 79.2066 54.9866C79.3209 54.6791 79.498 54.3988 79.7268 54.1637C79.9556 53.9287 80.2309 53.744 80.5352 53.6214C80.8395 53.4989 81.166 53.4413 81.4939 53.4522C81.8471 53.4276 82.2013 53.4845 82.5291 53.6185C82.8568 53.7525 83.1494 53.96 83.3843 54.2251C83.6191 54.4901 83.79 54.8055 83.8836 55.147C83.9772 55.4885 83.9911 55.847 83.9242 56.1947ZM79.6284 55.7042H83.3891C83.3891 55.4639 83.3389 55.2263 83.2418 55.0066C83.1446 54.7869 83.0026 54.5899 82.8249 54.4282C82.6472 54.2666 82.4376 54.1439 82.2097 54.0679C81.9817 53.992 81.7404 53.9646 81.5013 53.9874C81.2624 53.9764 81.0237 54.0134 80.7993 54.0961C80.5749 54.1789 80.3694 54.3058 80.1948 54.4693C80.0203 54.6327 79.8802 54.8295 79.7829 55.048C79.6856 55.2665 79.6331 55.5022 79.6284 55.7413V55.7042Z" fill="#FDFDFD"/>
<path id="Vector_19" d="M85.0167 55.9792C85.0134 55.4862 85.1566 55.0032 85.4281 54.5916C85.6996 54.18 86.0872 53.8583 86.5417 53.6672C86.9963 53.4762 87.4973 53.4244 87.9813 53.5184C88.4654 53.6125 88.9105 53.8481 89.2605 54.1955L88.9112 54.5671C88.679 54.3463 88.3964 54.1855 88.088 54.0986C87.7796 54.0117 87.4546 54.0014 87.1413 54.0685C86.828 54.1357 86.5358 54.2782 86.2901 54.4838C86.0444 54.6894 85.8525 54.9519 85.7311 55.2485C85.6098 55.545 85.5626 55.8667 85.5937 56.1856C85.6249 56.5045 85.7333 56.811 85.9097 57.0785C86.0861 57.346 86.325 57.5664 86.6059 57.7207C86.8867 57.8749 87.201 57.9583 87.5214 57.9636C87.7876 57.967 88.0518 57.9168 88.2983 57.8159C88.5447 57.715 88.7683 57.5656 88.9558 57.3765L89.3125 57.7629C89.0791 58.0007 88.8002 58.189 88.4925 58.3167C88.1848 58.4444 87.8545 58.5088 87.5214 58.5062C87.1868 58.52 86.8531 58.464 86.5415 58.3416C86.2298 58.2192 85.9471 58.0332 85.7114 57.7954C85.4757 57.5576 85.2922 57.2732 85.1726 56.9605C85.053 56.6478 84.9999 56.3136 85.0167 55.9792Z" fill="#FDFDFD"/>
<path id="Vector_20" d="M93.586 58.2237C93.2767 58.3802 92.9366 58.4665 92.5901 58.4764C91.5719 58.4764 91.2151 57.9041 91.2151 56.9008V54.0691H90.2192V53.5712H91.2374V52.1888L91.78 52.1293V53.5712H93.3928V54.0691H91.78V56.9008C91.78 57.5325 91.9361 57.971 92.6421 57.971C92.9018 57.9494 93.1545 57.8761 93.3854 57.7555L93.586 58.2237Z" fill="#FDFDFD"/>
<path id="Vector_21" d="M100.431 51.5645H101.011V57.8372H104.853V58.3872H100.431V51.5645Z" fill="#FDFDFD"/>
<path id="Vector_22" d="M110.286 56.1947H105.998C106.001 56.4384 106.054 56.6788 106.153 56.9015C106.252 57.1242 106.395 57.3246 106.574 57.4905C106.752 57.6565 106.962 57.7846 107.192 57.8672C107.421 57.9497 107.665 57.9851 107.908 57.971C108.226 57.9746 108.541 57.9101 108.832 57.7819C109.123 57.6537 109.383 57.4648 109.595 57.2278L109.974 57.5622C109.715 57.8571 109.394 58.0912 109.035 58.2479C108.675 58.4047 108.285 58.4801 107.893 58.469C107.561 58.4809 107.231 58.4234 106.923 58.3003C106.614 58.1772 106.335 57.9912 106.103 57.754C105.871 57.5169 105.69 57.2339 105.574 56.9232C105.457 56.6125 105.407 56.2808 105.425 55.9494C105.406 55.622 105.454 55.294 105.569 54.9866C105.683 54.6791 105.86 54.3988 106.089 54.1637C106.318 53.9287 106.593 53.744 106.897 53.6214C107.201 53.4989 107.528 53.4413 107.856 53.4522C108.209 53.4276 108.563 53.4845 108.891 53.6185C109.219 53.7525 109.511 53.96 109.746 54.2251C109.981 54.4901 110.152 54.8055 110.246 55.147C110.339 55.4885 110.353 55.847 110.286 56.1947ZM105.998 55.7042H109.751C109.751 55.4639 109.701 55.2263 109.604 55.0066C109.507 54.7869 109.365 54.5899 109.187 54.4282C109.009 54.2666 108.8 54.1439 108.572 54.0679C108.344 53.992 108.102 53.9646 107.863 53.9874C107.627 53.9794 107.391 54.0188 107.17 54.1031C106.949 54.1874 106.748 54.315 106.577 54.4783C106.406 54.6417 106.269 54.8376 106.175 55.0545C106.08 55.2713 106.03 55.5049 106.027 55.7413L105.998 55.7042Z" fill="#FDFDFD"/>
<path id="Vector_23" d="M116.306 53.5712V58.3872H115.786V57.4359C115.575 57.7713 115.279 58.0445 114.927 58.2274C114.576 58.4102 114.182 58.4962 113.787 58.4764C113.124 58.4764 112.489 58.2133 112.021 57.745C111.553 57.2767 111.289 56.6415 111.289 55.9792C111.289 55.3169 111.553 54.6817 112.021 54.2134C112.489 53.7451 113.124 53.482 113.787 53.482C114.184 53.4637 114.578 53.5519 114.93 53.7375C115.282 53.9231 115.577 54.1992 115.786 54.5373V53.5712H116.306ZM115.749 55.9792C115.734 55.6049 115.61 55.2432 115.391 54.939C115.173 54.6348 114.87 54.4016 114.52 54.2684C114.17 54.1351 113.788 54.1078 113.423 54.1896C113.057 54.2715 112.724 54.4591 112.464 54.7289C112.204 54.9988 112.03 55.339 111.962 55.7074C111.894 56.0757 111.936 56.4559 112.082 56.8006C112.229 57.1453 112.473 57.4393 112.786 57.6461C113.098 57.8529 113.464 57.9633 113.839 57.9636C114.098 57.9726 114.357 57.9269 114.598 57.8293C114.839 57.7318 115.056 57.5847 115.236 57.3975C115.417 57.2103 115.555 56.9872 115.644 56.7429C115.732 56.4985 115.768 56.2383 115.749 55.9792Z" fill="#FDFDFD"/>
<path id="Vector_24" d="M121.256 53.809L121.011 54.2846C120.766 54.13 120.483 54.0476 120.193 54.0468C119.965 54.0652 119.743 54.1294 119.541 54.2355C119.338 54.3416 119.159 54.4875 119.014 54.6644C118.869 54.8413 118.761 55.0456 118.697 55.2651C118.633 55.4846 118.613 55.7148 118.64 55.942V58.3872H118.083V53.5711H118.588V54.5745C118.726 54.2623 118.95 53.9963 119.235 53.8079C119.519 53.6195 119.852 53.5167 120.193 53.5117C120.569 53.504 120.939 53.6075 121.256 53.809Z" fill="#FDFDFD"/>
<path id="Vector_25" d="M126.689 55.6373V58.3872H126.132V55.667C126.155 55.4541 126.133 55.2385 126.065 55.0351C125.998 54.8317 125.888 54.6453 125.741 54.4886C125.595 54.3319 125.417 54.2086 125.219 54.1272C125.021 54.0459 124.807 54.0083 124.593 54.0171C124.363 54.0078 124.134 54.0459 123.919 54.129C123.705 54.2121 123.509 54.3384 123.346 54.5001C123.182 54.6618 123.053 54.8554 122.967 55.0689C122.881 55.2824 122.84 55.5113 122.847 55.7414V58.3798H122.289V53.5637H122.795V54.4333C122.998 54.1347 123.274 53.8924 123.596 53.7287C123.918 53.565 124.276 53.4853 124.638 53.4968C124.92 53.4764 125.203 53.5185 125.468 53.6201C125.732 53.7218 125.971 53.8805 126.166 54.0849C126.362 54.2893 126.511 54.5344 126.601 54.8027C126.691 55.0711 126.721 55.356 126.689 55.6373Z" fill="#FDFDFD"/>
<path id="Vector_26" d="M138.528 56.7298H134.47L133.727 58.3872H133.103L136.165 51.5645H136.826L139.888 58.3872H139.272L138.528 56.7298ZM134.716 56.1873H138.283L136.499 52.1665L134.716 56.1873Z" fill="#FDFDFD"/>
<path id="Vector_27" d="M140.632 55.9792C140.628 55.4862 140.772 55.0032 141.043 54.5916C141.315 54.18 141.702 53.8583 142.157 53.6672C142.611 53.4762 143.112 53.4244 143.596 53.5184C144.08 53.6125 144.526 53.8481 144.876 54.1955L144.526 54.5671C144.293 54.3482 144.011 54.1892 143.703 54.1039C143.395 54.0186 143.071 54.0095 142.758 54.0774C142.446 54.1454 142.155 54.2883 141.91 54.4939C141.665 54.6995 141.474 54.9615 141.354 55.2574C141.233 55.5533 141.186 55.8742 141.217 56.1923C141.248 56.5104 141.355 56.8162 141.531 57.0834C141.706 57.3505 141.944 57.5709 142.224 57.7255C142.504 57.8802 142.817 57.9644 143.136 57.971C143.403 57.9736 143.666 57.923 143.913 57.8221C144.159 57.7213 144.383 57.5723 144.571 57.3839L144.92 57.7704C144.689 58.0086 144.411 58.1973 144.105 58.3251C143.798 58.4528 143.469 58.517 143.136 58.5136C142.801 58.5275 142.467 58.4713 142.155 58.3484C141.842 58.2256 141.559 58.0389 141.324 57.8003C141.088 57.5617 140.904 57.2764 140.785 56.9628C140.666 56.6492 140.614 56.3142 140.632 55.9792Z" fill="#FDFDFD"/>
<path id="Vector_28" d="M150.71 56.1947H146.414C146.419 56.4387 146.472 56.6793 146.572 56.902C146.672 57.1248 146.816 57.325 146.995 57.4909C147.174 57.6568 147.384 57.7848 147.614 57.8673C147.844 57.9498 148.088 57.985 148.332 57.971C148.649 57.9746 148.964 57.9101 149.255 57.7819C149.546 57.6537 149.807 57.4648 150.019 57.2278L150.398 57.5622C150.139 57.8571 149.818 58.0912 149.458 58.2479C149.099 58.4047 148.709 58.4801 148.317 58.469C147.985 58.4809 147.654 58.4234 147.346 58.3003C147.038 58.1772 146.759 57.9912 146.527 57.754C146.294 57.5169 146.114 57.2339 145.997 56.9232C145.881 56.6125 145.83 56.2808 145.849 55.9494C145.829 55.622 145.878 55.294 145.992 54.9866C146.106 54.6791 146.284 54.3988 146.512 54.1637C146.741 53.9287 147.017 53.744 147.321 53.6214C147.625 53.4989 147.952 53.4413 148.279 53.4522C148.633 53.4276 148.987 53.4845 149.315 53.6185C149.642 53.7525 149.935 53.96 150.17 54.2251C150.405 54.4901 150.576 54.8055 150.669 55.147C150.763 55.4885 150.777 55.847 150.71 56.1947ZM146.414 55.7042H150.175C150.175 55.4639 150.125 55.2263 150.027 55.0066C149.93 54.7869 149.788 54.5899 149.611 54.4282C149.433 54.2666 149.223 54.1439 148.995 54.0679C148.767 53.992 148.526 53.9646 148.287 53.9874C148.048 53.9764 147.809 54.0134 147.585 54.0961C147.361 54.1789 147.155 54.3058 146.98 54.4693C146.806 54.6327 146.666 54.8295 146.569 55.048C146.471 55.2665 146.419 55.5022 146.414 55.7413V55.7042Z" fill="#FDFDFD"/>
<path id="Vector_29" d="M96.663 60V51.0814H97.0792V60H96.663Z" fill="#FDFDFD"/>
<path id="Vector_30" d="M129.915 60V51.0814H130.353V60H129.915Z" fill="#FDFDFD"/>
</g>
<defs>
<clipPath id="clip0_376_3791">
<rect width="154.537" height="60" fill="white"/>
</clipPath>
</defs>
</svg>
