<svg xmlns="http://www.w3.org/2000/svg" width="17.25" height="17.248" viewBox="0 0 17.25 17.248">
    <defs>
        <style>
            .cls-1{fill:#a5a2ac}
        </style>
    </defs>
    <g id="quit" transform="translate(-160.794 -160.773)">
        <path id="Path_6960" d="M162.265 178.021a1.45 1.45 0 0 1-1.024-2.475l14.348-14.346a1.45 1.45 0 0 1 2.05 2.05l-14.348 14.35a1.451 1.451 0 0 1-1.026.421zm0 0" class="cls-1" transform="translate(-.02)"/>
        <path id="Path_6961" d="M176.591 178.04a1.437 1.437 0 0 1-1.024-.425l-14.348-14.346a1.45 1.45 0 0 1 2.05-2.05l14.348 14.348a1.448 1.448 0 0 1-1.026 2.473zm0 0" class="cls-1" transform="translate(0 -.019)"/>
    </g>
</svg>
