<svg width="32" height="33" viewBox="0 0 32 33" fill="none" xmlns="http://www.w3.org/2000/svg">
<g id="Cloud Upload">
<path id="Vector" d="M11 18.73L12.41 20.14L15 17.56V29.73H17V17.56L19.59 20.14L21 18.73L16 13.73L11 18.73Z" fill="#1B3867"/>
<path id="Vector_2" d="M23.4999 22.73H22.9999V20.73H23.4999C24.6933 20.7777 25.8569 20.3494 26.7346 19.5392C27.6122 18.7291 28.1321 17.6035 28.1799 16.41C28.2276 15.2165 27.7993 14.0529 26.9891 13.1753C26.179 12.2976 25.0533 11.7777 23.8599 11.73H22.9999L22.8999 10.91C22.678 9.22643 21.8517 7.68092 20.575 6.56136C19.2982 5.4418 17.658 4.82453 15.9599 4.82453C14.2618 4.82453 12.6215 5.4418 11.3448 6.56136C10.068 7.68092 9.24172 9.22643 9.01986 10.91L8.99986 11.73H8.13986C6.94638 11.7777 5.82076 12.2976 5.0106 13.1753C4.20044 14.0529 3.77212 15.2165 3.81986 16.41C3.8676 17.6035 4.38749 18.7291 5.26516 19.5392C6.14283 20.3494 7.30638 20.7777 8.49986 20.73H8.99986V22.73H8.49986C6.89626 22.7198 5.35302 22.1172 4.16684 21.0381C2.98066 19.9589 2.23528 18.4793 2.07399 16.8839C1.9127 15.2884 2.3469 13.6896 3.29311 12.3948C4.23932 11.1001 5.63074 10.2009 7.19986 9.86998C7.63157 7.8565 8.74069 6.05195 10.3422 4.75745C11.9437 3.46294 13.9406 2.75677 15.9999 2.75677C18.0591 2.75677 20.0561 3.46294 21.6575 4.75745C23.259 6.05195 24.3682 7.8565 24.7999 9.86998C26.369 10.2009 27.7604 11.1001 28.7066 12.3948C29.6528 13.6896 30.087 15.2884 29.9257 16.8839C29.7644 18.4793 29.0191 19.9589 27.8329 21.0381C26.6467 22.1172 25.1035 22.7198 23.4999 22.73Z" fill="#1B3867"/>
</g>
</svg>
