<svg width="24" height="24" viewBox="0 0 24 24" fill="none" xmlns="http://www.w3.org/2000/svg">
<g id="clarity:crown-solid">
<path id="Vector" d="M1.73338 7.95331C1.54879 7.95331 1.36834 8.00805 1.21485 8.1106C1.06136 8.21316 0.941737 8.35893 0.871095 8.52947C0.800453 8.70001 0.78197 8.88768 0.817983 9.06873C0.853996 9.24977 0.942887 9.41608 1.07342 9.54661C1.20395 9.67714 1.37025 9.76603 1.5513 9.80204C1.73235 9.83805 1.92001 9.81957 2.09055 9.74893C2.2611 9.67829 2.40686 9.55866 2.50942 9.40517C2.61198 9.25169 2.66672 9.07124 2.66672 8.88664C2.66672 8.63911 2.56838 8.40171 2.39335 8.22668C2.21832 8.05164 1.98092 7.95331 1.73338 7.95331Z" fill="url(#paint0_linear_908_371)"/>
<path id="Vector_2" d="M22.5534 9.81336C23.0652 9.81336 23.48 9.39847 23.48 8.88669C23.48 8.3749 23.0652 7.96002 22.5534 7.96002C22.0416 7.96002 21.6267 8.3749 21.6267 8.88669C21.6267 9.39847 22.0416 9.81336 22.5534 9.81336Z" fill="url(#paint1_linear_908_371)"/>
<path id="Vector_3" d="M12.1467 4.25999C12.3303 4.26131 12.5101 4.20808 12.6633 4.10707C12.8166 4.00605 12.9364 3.86179 13.0076 3.69258C13.0787 3.52338 13.098 3.33685 13.063 3.15666C13.028 2.97647 12.9403 2.81073 12.811 2.68046C12.6817 2.5502 12.5166 2.46128 12.3366 2.42498C12.1567 2.38868 11.97 2.40664 11.8003 2.47657C11.6306 2.54651 11.4855 2.66527 11.3834 2.81781C11.2812 2.97034 11.2267 3.14976 11.2267 3.33332C11.2267 3.57794 11.3234 3.81263 11.4958 3.98623C11.6681 4.15982 11.9021 4.25823 12.1467 4.25999ZM21.0867 10.7333C20.2537 10.9248 19.4427 11.2018 18.6667 11.56C17.7199 12.0143 16.8257 12.5709 16 13.22C15.4151 12.5013 14.9099 11.7211 14.4934 10.8933C13.8287 9.47338 13.2672 8.00736 12.8134 6.50665C12.7706 6.36494 12.6818 6.24149 12.5611 6.15579C12.4404 6.07009 12.2946 6.027 12.1467 6.03332C11.9988 6.027 11.853 6.07009 11.7323 6.15579C11.6116 6.24149 11.5228 6.36494 11.48 6.50665C11.0273 8.00773 10.4658 9.47384 9.80004 10.8933C9.38549 11.7202 8.88015 12.4983 8.29338 13.2133C7.46387 12.5717 6.57023 12.0177 5.62671 11.56C4.86952 11.2066 4.07893 10.9296 3.26671 10.7333C3.14612 10.7044 3.01985 10.7096 2.90207 10.7485C2.7843 10.7873 2.67971 10.8583 2.60004 10.9533C2.51898 11.0515 2.46774 11.1709 2.45238 11.2973C2.43702 11.4237 2.45819 11.5519 2.51338 11.6667C3.77804 14.5423 4.67404 17.5662 5.18004 20.6667C5.20703 20.8232 5.28902 20.9649 5.41124 21.0664C5.53346 21.1678 5.68789 21.2223 5.84671 21.22H18.5134C18.6722 21.2223 18.8266 21.1678 18.9488 21.0664C19.0711 20.9649 19.1531 20.8232 19.18 20.6667C19.686 17.5662 20.582 14.5423 21.8467 11.6667C21.9019 11.5519 21.9231 11.4237 21.9077 11.2973C21.8924 11.1709 21.8411 11.0515 21.76 10.9533C21.6798 10.8571 21.5741 10.7854 21.455 10.7465C21.3359 10.7076 21.2083 10.703 21.0867 10.7333ZM7.38671 19.0333C7.24008 19.0346 7.09635 18.9924 6.97379 18.9119C6.85122 18.8314 6.75534 18.7163 6.69831 18.5812C6.64127 18.4461 6.62566 18.2971 6.65346 18.1531C6.68126 18.0091 6.7512 17.8766 6.85442 17.7725C6.95764 17.6683 7.08948 17.5972 7.23321 17.5681C7.37693 17.539 7.52606 17.5532 7.66167 17.609C7.79727 17.6648 7.91324 17.7597 7.99485 17.8815C8.07646 18.0033 8.12004 18.1467 8.12004 18.2933C8.12005 18.4884 8.043 18.6756 7.90567 18.8142C7.76833 18.9528 7.58181 19.0316 7.38671 19.0333ZM12.1534 19.0333C11.9701 19.0159 11.7999 18.9307 11.676 18.7945C11.5522 18.6583 11.4835 18.4808 11.4835 18.2967C11.4835 18.1125 11.5522 17.935 11.676 17.7988C11.7999 17.6626 11.9701 17.5774 12.1534 17.56C12.3367 17.5774 12.5069 17.6626 12.6307 17.7988C12.7546 17.935 12.8232 18.1125 12.8232 18.2967C12.8232 18.4808 12.7546 18.6583 12.6307 18.7945C12.5069 18.9307 12.3367 19.0159 12.1534 19.0333ZM16.9267 19.0333C16.7801 19.0346 16.6364 18.9924 16.5138 18.9119C16.3912 18.8314 16.2953 18.7163 16.2383 18.5812C16.1813 18.4461 16.1657 18.2971 16.1935 18.1531C16.2213 18.0091 16.2912 17.8766 16.3944 17.7725C16.4976 17.6683 16.6295 17.5972 16.7732 17.5681C16.9169 17.539 17.0661 17.5532 17.2017 17.609C17.3373 17.6648 17.4532 17.7597 17.5349 17.8815C17.6165 18.0033 17.66 18.1467 17.66 18.2933C17.6601 18.4884 17.583 18.6756 17.4457 18.8142C17.3083 18.9528 17.1218 19.0316 16.9267 19.0333Z" fill="url(#paint2_linear_908_371)"/>
</g>
<defs>
<linearGradient id="paint0_linear_908_371" x1="2.81897" y1="9.00438" x2="0.717501" y2="9.00438" gradientUnits="userSpaceOnUse">
<stop stop-color="#956B1F"/>
<stop offset="0.495" stop-color="#F9DFAE"/>
<stop offset="1" stop-color="#A67C33"/>
</linearGradient>
<linearGradient id="paint1_linear_908_371" x1="23.6312" y1="9.00359" x2="21.5448" y2="9.00359" gradientUnits="userSpaceOnUse">
<stop stop-color="#956B1F"/>
<stop offset="0.495" stop-color="#F9DFAE"/>
<stop offset="1" stop-color="#A67C33"/>
</linearGradient>
<linearGradient id="paint2_linear_908_371" x1="23.5002" y1="13" x2="1.58672" y2="13" gradientUnits="userSpaceOnUse">
<stop stop-color="#956B1F"/>
<stop offset="0.495" stop-color="#F9DFAE"/>
<stop offset="1" stop-color="#A67C33"/>
</linearGradient>
</defs>
</svg>
