<svg width="28" height="28" viewBox="0 0 24 24" fill="none" xmlns="http://www.w3.org/2000/svg">
<g clip-path="url(#clip0_183_9086)">
<path d="M7.98 11V7.21C7.98 6.94478 7.87464 6.69043 7.68711 6.50289C7.49957 6.31536 7.24522 6.21 6.98 6.21H4.2C3.93478 6.21 3.68043 6.31536 3.49289 6.50289C3.30536 6.69043 3.2 6.94478 3.2 7.21V10C3.2 10.2652 3.30536 10.5196 3.49289 10.7071C3.68043 10.8946 3.93478 11 4.2 11H7.98ZM4.2 4.21H6.98C7.77565 4.21 8.53871 4.52607 9.10132 5.08868C9.66393 5.65129 9.98 6.41435 9.98 7.21V12C9.98 12.2652 9.87464 12.5196 9.68711 12.7071C9.49957 12.8946 9.24522 13 8.98 13H4.2C3.40435 13 2.64129 12.6839 2.07868 12.1213C1.51607 11.5587 1.2 10.7957 1.2 10V7.21C1.2 6.41435 1.51607 5.65129 2.07868 5.08868C2.64129 4.52607 3.40435 4.21 4.2 4.21ZM13.6 6V11H18.6C18.8652 11 19.1196 10.8946 19.3071 10.7071C19.4946 10.5196 19.6 10.2652 19.6 10V6C19.6 5.73478 19.4946 5.48043 19.3071 5.29289C19.1196 5.10536 18.8652 5 18.6 5H14.6C14.3348 5 14.0804 5.10536 13.8929 5.29289C13.7054 5.48043 13.6 5.73478 13.6 6ZM18.6 3C19.3956 3 20.1587 3.31607 20.7213 3.87868C21.2839 4.44129 21.6 5.20435 21.6 6V10C21.6 10.7957 21.2839 11.5587 20.7213 12.1213C20.1587 12.6839 19.3956 13 18.6 13H12.6C12.3348 13 12.0804 12.8946 11.8929 12.7071C11.7054 12.5196 11.6 12.2652 11.6 12V6C11.6 5.20435 11.9161 4.44129 12.4787 3.87868C13.0413 3.31607 13.8044 3 14.6 3H18.6ZM13.6 16.46V20.25C13.6 20.5152 13.7054 20.7696 13.8929 20.9571C14.0804 21.1446 14.3348 21.25 14.6 21.25H17.39C17.6552 21.25 17.9096 21.1446 18.0971 20.9571C18.2846 20.7696 18.39 20.5152 18.39 20.25V17.46C18.39 17.1948 18.2846 16.9404 18.0971 16.7529C17.9096 16.5654 17.6552 16.46 17.39 16.46H13.6ZM17.39 23.25H14.6C13.8044 23.25 13.0413 22.9339 12.4787 22.3713C11.9161 21.8087 11.6 21.0456 11.6 20.25V15.46C11.6 15.1948 11.7054 14.9404 11.8929 14.7529C12.0804 14.5654 12.3348 14.46 12.6 14.46H17.39C18.1856 14.46 18.9487 14.7761 19.5113 15.3387C20.0739 15.9013 20.39 16.6643 20.39 17.46V20.25C20.39 21.0456 20.0739 21.8087 19.5113 22.3713C18.9487 22.9339 18.1856 23.25 17.39 23.25ZM8 16.46H3C2.73478 16.46 2.48043 16.5654 2.29289 16.7529C2.10536 16.9404 2 17.1948 2 17.46V21.46C2 21.7252 2.10536 21.9796 2.29289 22.1671C2.48043 22.3546 2.73478 22.46 3 22.46H7C7.26522 22.46 7.51957 22.3546 7.70711 22.1671C7.89464 21.9796 8 21.7252 8 21.46V16.46ZM3 24.46C2.20435 24.46 1.44129 24.1439 0.87868 23.5813C0.316071 23.0187 0 22.2556 0 21.46V17.46C0 16.6643 0.316071 15.9013 0.87868 15.3387C1.44129 14.7761 2.20435 14.46 3 14.46H9C9.26522 14.46 9.51957 14.5654 9.70711 14.7529C9.89464 14.9404 10 15.1948 10 15.46V21.46C10 22.2556 9.68393 23.0187 9.12132 23.5813C8.55871 24.1439 7.79565 24.46 7 24.46H3Z" fill="#e33955"/>
</g>
<defs>
<clipPath id="clip0_183_9086">
<rect width="24" height="24" fill="white"/>
</clipPath>
</defs>
</svg>
