<svg xmlns="http://www.w3.org/2000/svg" width="60" height="60"><defs><style>.prefix__cls-2{fill:#2cb998}</style></defs><g id="prefix__delete" transform="translate(-1478 -326)"><rect id="prefix__Rectangle_393" width="60" height="60" fill="#edf8f6" data-name="Rectangle 393" rx="30" transform="translate(1478 326)"/><g id="prefix__Delete-2" data-name="Delete" transform="translate(1084.352 117.611)"><path id="prefix__Path_7190" d="M416.3 234.3h-.724c-.549-.006-.924-.259-.924-.828s.4-.815.934-.822c.96-.012 1.92 0 2.879 0h1.079c0-.781-.008-1.522 0-2.262.01-.706.275-.99.971-.993 2.083-.01 4.167-.005 6.251 0a.84.84 0 01.939.963v2.293h2.1c.632 0 1.265-.011 1.9.009.539.017.918.279.9.856-.018.53-.377.775-.892.79-.231.007-.462 0-.76 0-.093 1.345-.191 2.646-.271 3.948q-.241 3.892-.464 7.786c-.069 1.187-.238 1.35-1.446 1.35h-10.405c-1.064 0-1.26-.187-1.326-1.253q-.352-5.646-.7-11.292c-.014-.162-.029-.321-.041-.545zm12.282 11.4l.705-11.348h-11.329l.708 11.348zm-2.551-14.6h-4.8v1.5h4.8z" class="prefix__cls-2" data-name="Path 7190"/><path id="prefix__Path_7191" d="M445.315 258.95v2.241c0 .563-.206 1-.812 1.012s-.845-.409-.845-.978v-4.553c0-.573.244-.99.845-.977s.818.445.813 1.013c-.008.747 0 1.494 0 2.241z" class="prefix__cls-2" data-name="Path 7191" transform="translate(-22.868 -18.922)"/><path id="prefix__Path_7193" d="M456.954 258.978v2.31c0 .557-.269.914-.828.912a.785.785 0 01-.8-.878 359.648 359.648 0 010-4.76.778.778 0 01.8-.875c.554 0 .831.35.829.911v2.38z" class="prefix__cls-2" data-name="Path 7193" transform="translate(-30.254 -18.916)"/></g></g></svg>