<svg xmlns="http://www.w3.org/2000/svg" width="35" height="35" viewBox="0 0 35 35">
    <defs>
        <style>
            .cls-2{fill:#90909d}
        </style>
    </defs>
    <g id="Delete" transform="translate(-154 -268)">
        <path id="Path_18418" fill="#f4f4f5" d="M17.5 0A17.5 17.5 0 1 1 0 17.5 17.5 17.5 0 0 1 17.5 0z" transform="translate(154 268)"/>
        <g id="Bin" transform="translate(-1524.282 -267.896)">
            <g id="Group_2186" transform="translate(1689.179 546.788)">
                <path id="Path_7233" d="M-405.077 104.5h-.626a.658.658 0 0 1-.684-.65.654.654 0 0 1 .674-.66c1.006-.005 2.011 0 3.017 0h.226c0-.078.01-.139.011-.2v-1.053a.653.653 0 0 1 .712-.709h3.806a.658.658 0 0 1 .721.72c0 .357.008.714 0 1.07 0 .142.047.178.181.177h3.035a.655.655 0 0 1 .653.385.651.651 0 0 1-.584.926c-.214.007-.429 0-.664 0v9.718a1.25 1.25 0 0 1-.039.363.65.65 0 0 1-.682.442h-8.98a1 1 0 0 1-.392-.064.657.657 0 0 1-.387-.667v-3.527-6.053c.003-.065.002-.129.002-.218zm1.315 9.2h7.844v-9.185h-7.844zm5.234-11.15h-2.617v.521c0 .094.044.119.129.119h2.364c.087 0 .129-.029.127-.121-.005-.169-.002-.335-.002-.516z" class="cls-2" transform="translate(406.386 -101.226)"/>
                <path id="Path_7234" d="M-303.733 170.235v-2.894a.651.651 0 0 1 .81-.675.654.654 0 0 1 .5.675v5.209a.65.65 0 0 1-.491.665.646.646 0 0 1-.817-.647c-.008-.666 0-.719 0-1.386v-.947z" class="cls-2" transform="translate(310.938 -162.056)"/>
                <path id="Path_7235" d="M-341.044 169.628v-2.315a.644.644 0 0 1 .494-.644.634.634 0 0 1 .737.334.786.786 0 0 1 .076.336v5.209a.652.652 0 0 1-.659.69.653.653 0 0 1-.65-.7l.002-2.91z" class="cls-2" transform="translate(345.629 -162.059)"/>
            </g>
        </g>
    </g>
</svg>
