<svg width="36" height="36" viewBox="0 0 36 36" fill="none" xmlns="http://www.w3.org/2000/svg">
<g id="AI Tools">
<path id="Vector" d="M31.5 16.5V13.5H28.5V10.5C28.4976 9.70508 28.1808 8.9434 27.6187 8.3813C27.0566 7.81921 26.2949 7.50237 25.5 7.5H22.5V4.5H19.5V7.5H16.5V4.5H13.5V7.5H10.5C9.70508 7.50237 8.9434 7.81921 8.3813 8.3813C7.81921 8.9434 7.50237 9.70508 7.5 10.5V13.5H4.5V16.5H7.5V19.5H4.5V22.5H7.5V25.5C7.50237 26.2949 7.81921 27.0566 8.3813 27.6187C8.9434 28.1808 9.70508 28.4976 10.5 28.5H13.5V31.5H16.5V28.5H19.5V31.5H22.5V28.5H25.5C26.2949 28.4976 27.0566 28.1808 27.6187 27.6187C28.1808 27.0566 28.4976 26.2949 28.5 25.5V22.5H31.5V19.5H28.5V16.5H31.5ZM25.5 25.5H10.5V10.5H25.5V25.5Z" fill="#1B3867"/>
<path id="Vector_2" d="M17.0415 12H15.024L12.009 24H13.5495L14.2455 21.1875H17.7195L18.3975 24H19.9905L17.0415 12ZM14.448 19.986L15.975 13.425H16.044L17.5185 19.986H14.448ZM21.366 12H22.866V24H21.366V12Z" fill="#1B3867"/>
</g>
</svg>
