<svg xmlns="http://www.w3.org/2000/svg" width="60" height="60"><g data-name="Group 517"><circle cx="30" cy="30" r="30" fill="#e7faf6" data-name="Ellipse 65"/><path fill="#06cae0" d="M21.929 27.674c9.907.2 16.778-5.111 24.321-6.385 5.891-1.568 13.482 1.088 13.482 8.577a29.866 29.866 0 11-59.732 0c0-16.495 3.784-2.552 21.929-2.192z" data-name="Path 7104" opacity=".5"/></g><path fill="#119eab" d="M20.014 23.41a3.093 3.093 0 113.093 3.094 3.094 3.094 0 01-3.093-3.094zm20.213 0a3.094 3.094 0 11-3.093-3.093 3.094 3.094 0 013.092 3.093zM29.915 43.378c-2.737 1.136-9.655-2.879-11.505-7.335a1.5 1.5 0 01.808-1.956c.675-.283 1.43-.255 2.945 2.107s7.611 3.707 8.25 3.693 2.239 2.355-.498 3.491z" data-name="Path 7105"/></svg>