<svg xmlns="http://www.w3.org/2000/svg" width="35" height="35" viewBox="0 0 35 35">
    <g fill="#fff">
        <path d="M17.5 0A17.5 17.5 0 1 1 0 17.5 17.5 17.5 0 0 1 17.5 0z" opacity="0.21" transform="translate(-315 -20) translate(315 20)"/>
        <path d="M8.831 13.312a1.2 1.2 0 0 1-1.619-.006l-.066-.06C3.985 10.386 1.92 8.514 2 6.178A3.286 3.286 0 0 1 3.407 3.6a3.489 3.489 0 0 1 4.611.662A3.482 3.482 0 0 1 12.63 3.6a3.286 3.286 0 0 1 1.409 2.583c.084 2.336-1.987 4.208-5.147 7.08z" transform="translate(-315 -20) translate(324.305 30.406)"/>
    </g>
</svg>
