<svg width="23" height="20" viewBox="0 0 23 20" fill="none" xmlns="http://www.w3.org/2000/svg">
<g clip-path="url(#clip0_183_9072)">
<path d="M17.0311 0.0109317C15.9541 -0.0394418 14.8816 0.178889 13.9142 0.645466C12.9468 1.11204 12.1161 1.81159 11.5 2.67857C10.8857 1.80985 10.0553 1.10897 9.08748 0.642192C8.11964 0.175411 7.04629 -0.041855 5.96889 0.0109317C2.62276 0.192651 1.58768e-05 3.02747 1.58768e-05 6.4765C-0.00235868 7.68248 0.261651 8.87468 0.773922 9.97128C1.28619 11.0679 2.0346 12.0429 2.96776 12.8294L11.5 20L20.0323 12.8294C20.9654 12.0429 21.7138 11.0679 22.2261 9.97128C22.7384 8.87468 23.0024 7.68248 23 6.4765C23 3.02747 20.3773 0.192651 17.0311 0.0109317ZM18.5707 11.1648L11.5 17.0925L4.42937 11.1721C3.73782 10.5917 3.18277 9.87145 2.80238 9.06087C2.422 8.2503 2.2253 7.36863 2.22582 6.4765C2.22582 4.22681 3.95824 2.30786 6.08389 2.19156H6.30647C7.38872 2.19156 8.42665 2.61276 9.19192 3.36249C9.95719 4.11223 10.3871 5.12909 10.3871 6.18938V6.91626H12.6129V6.18938C12.6129 5.12909 13.0428 4.11223 13.8081 3.36249C14.5734 2.61276 15.6113 2.19156 16.6936 2.19156H16.9236C19.0529 2.30059 20.7816 4.21954 20.7816 6.47286C20.7827 7.36561 20.5862 8.24798 20.2058 9.05922C19.8254 9.87046 19.2701 10.5913 18.5781 11.1721L18.5707 11.1648Z" fill="#656565"/>
</g>
<defs>
<clipPath id="clip0_183_9072">
<rect width="23" height="20" fill="white"/>
</clipPath>
</defs>
</svg>
