<svg xmlns="http://www.w3.org/2000/svg" width="21.262" height="18.167" viewBox="0 0 21.262 18.167">
    <path data-name="my nanny hover" d="M11.437 20.19a3.115 3.115 0 0 1-2.065-.775l-.1-.089a57.655 57.655 0 0 1-6.063-5.746A8.5 8.5 0 0 1 .8 7.743a6.075 6.075 0 0 1 2.748-4.85 5.15 5.15 0 0 1 2.864-.87 6.106 6.106 0 0 1 3.424 1.13 8.407 8.407 0 0 1 1.572 1.4 7.114 7.114 0 0 1 5.1-2.506 5.017 5.017 0 0 1 2.805.844 6.072 6.072 0 0 1 2.745 4.845 8.46 8.46 0 0 1-2.387 5.82A57.644 57.644 0 0 1 13.64 19.3l-.154.134a3.118 3.118 0 0 1-2.049.756zM6.412 4.423a2.79 2.79 0 0 0-1.548.477A3.72 3.72 0 0 0 3.2 7.829c-.1 2.948 2.981 5.629 7.649 9.688l.112.1a.739.739 0 0 0 .952 0l.151-.131c4.639-4.051 7.7-6.727 7.594-9.657A3.72 3.72 0 0 0 17.991 4.9a2.66 2.66 0 0 0-1.491-.449 5.236 5.236 0 0 0-4.077 2.742L11.4 8.906l-1.031-1.713a5.054 5.054 0 0 0-3.957-2.77z" transform="translate(-.796 -2.023)" style="fill:#e33955"/>
</svg>