<svg xmlns="http://www.w3.org/2000/svg" width="14.364" height="13.533" viewBox="0 0 14.364 13.533">
    <defs>
        <clipPath id="pr4pf0bhsa">
            <path data-name="Rectangle 16" style="fill:#dbdbea" d="M0 0h14.364v13.533H0z"/>
        </clipPath>
    </defs>
    <g data-name="Group 2928" style="clip-path:url(#pr4pf0bhsa)">
        <path data-name="Path 24679" d="m2.62 13.406.043-.237.637-3.36q.115-.609.232-1.209a.086.086 0 0 0-.032-.091L.056 5.1A.323.323 0 0 0 0 5.061l.013-.02.358-.047 1.785-.229 1.769-.226c.33-.042.66-.086.99-.126A.1.1 0 0 0 5 4.35L7.219.081 7.26 0l.034.068 2.088 4.34a.115.115 0 0 0 .1.073q1.141.178 2.282.359l2.27.361.319.049.013.019a.309.309 0 0 0-.051.032l-3.54 3.3a.118.118 0 0 0-.042.119q.252 1.574.5 3.148.13.817.258 1.635v.031l-.061-.034q-2.135-1.148-4.27-2.3a.131.131 0 0 0-.138 0q-2.155 1.08-4.311 2.157l-.091.044" transform="translate(0 -.003)" style="fill:#dbdbea"/>
    </g>
</svg>
