<svg xmlns="http://www.w3.org/2000/svg" width="15.264" height="14.38" viewBox="0 0 15.264 14.38">
    <defs>
        <clipPath id="e3gy9d5pza">
            <path data-name="Rectangle 16" style="fill:#f7ae39" d="M0 0h15.264v14.38H0z"/>
        </clipPath>
    </defs>
    <g data-name="Group 2928" style="clip-path:url(#e3gy9d5pza)">
        <path data-name="Path 24679" d="m2.784 14.246.046-.252.677-3.571.246-1.288a.092.092 0 0 0-.031-.093L.059 5.416A.343.343 0 0 0 0 5.377l.014-.021.381-.05 1.9-.244 1.88-.241c.351-.045.7-.091 1.052-.134a.107.107 0 0 0 .093-.066Q6.492 2.353 7.671.086L7.715 0l.036.072q1.11 2.3 2.219 4.609a.123.123 0 0 0 .1.077q1.213.189 2.425.382l2.412.383.339.053.014.021a.328.328 0 0 0-.054.034l-3.762 3.508a.125.125 0 0 0-.045.127q.268 1.672.532 3.346l.275 1.737v.033l-.065-.033q-2.269-1.219-4.537-2.44a.139.139 0 0 0-.146 0Q5.173 13.055 2.881 14.2l-.1.046" transform="translate(0 -.003)" style="fill:#f7ae39"/>
    </g>
</svg>
