<svg width="30" height="30" viewBox="0 0 30 30" fill="none" xmlns="http://www.w3.org/2000/svg">
<path fill="#e33955"  d="M23.8739 6.83333C23.8739 5.81667 23.4698 4.84165 22.7506 4.12276C22.0314 3.40387 21.056 3 20.0389 3H18.8079L18.1214 4.0235L12.6719 12.2H7V26H26.1978L29.6493 17.3482C29.8877 16.7547 30.0068 16.1201 29.9997 15.4806C29.9926 14.8411 29.8596 14.2092 29.6082 13.6211C29.3567 13.033 28.9918 12.5002 28.5343 12.0531C28.0768 11.6061 27.5357 11.2535 26.9418 11.0155C26.3678 10.7842 25.7545 10.6658 25.1356 10.6667H23.3715L23.4367 10.4137C23.7275 9.24243 23.8743 8.04011 23.8739 6.83333ZM12.369 23.7H9.30098V14.5H12.369V23.7ZM25.1356 12.9667C25.556 12.9667 25.97 13.0697 26.3414 13.2667C26.7127 13.4637 27.0302 13.7486 27.2659 14.0966C27.5016 14.4446 27.6485 14.845 27.6936 15.2628C27.7387 15.6806 27.6808 16.1031 27.5247 16.4933L24.6408 23.7H14.6699V13.35L20.0389 5.3C20.4457 5.3 20.8359 5.46155 21.1236 5.7491C21.4113 6.03666 21.5729 6.42667 21.5729 6.83333C21.5682 7.85205 21.4394 8.86641 21.1894 9.854L20.4224 12.9667H25.1356Z" />
</svg>
