<svg xmlns="http://www.w3.org/2000/svg" width="48.291" height="17.117" viewBox="0 0 48.291 17.117">
    <g>
        <path fill="#9263dd" d="M1.426 0h14.265c.788 0 1.426.343 1.426.767v46.771c0 .424-.131.607-.609.713a3.142 3.142 0 0 1-1.256-.139l-6.735-4.03-6.752 4.072a2.5 2.5 0 0 1-1.14.1C.2 48.122 0 47.962 0 47.538V.767C0 .343.639 0 1.426 0z" transform="translate(-645.758 -857.133) rotate(-90 760.004 114.246)"/>
        <path fill="#fff" d="M1.656 0a.739.739 0 0 1-.546-.21.709.709 0 0 1-.21-.522v-6.936a.709.709 0 0 1 .21-.522.709.709 0 0 1 .522-.21h3.9a.732.732 0 0 1 .522.2.67.67 0 0 1 .21.51.635.635 0 0 1-.21.468.72.72 0 0 1-.522.2h-3.24l.108-.142v2.412l-.084-.156h2.676a.732.732 0 0 1 .522.2.67.67 0 0 1 .21.51.635.635 0 0 1-.21.468.72.72 0 0 1-.522.2h-2.7l.108-.106v2.9a.689.689 0 0 1-.222.522.735.735 0 0 1-.522.214zm6.852 0a.938.938 0 0 1-.6-.21.642.642 0 0 1-.264-.522v-6.936a.709.709 0 0 1 .21-.522.709.709 0 0 1 .522-.21h3.456A2.223 2.223 0 0 1 13-8.07a2.508 2.508 0 0 1 .882.912 2.628 2.628 0 0 1 .338 1.338 2.225 2.225 0 0 1-.186.888 2.776 2.776 0 0 1-.5.78 2.358 2.358 0 0 1-.714.54l.012-.276a2.038 2.038 0 0 1 .558.426 2.012 2.012 0 0 1 .348.528 1.8 1.8 0 0 1 .15.606q.048.3.066.528a1.564 1.564 0 0 0 .072.384.425.425 0 0 0 .21.24.675.675 0 0 1 .33.45.559.559 0 0 1-.138.522.581.581 0 0 1-.336.2 1 1 0 0 1-.408 0 1.219 1.219 0 0 1-.336-.114 1.7 1.7 0 0 1-.408-.354 1.761 1.761 0 0 1-.33-.63 3.435 3.435 0 0 1-.126-1.02.979.979 0 0 0-.072-.378.869.869 0 0 0-.2-.3.862.862 0 0 0-.336-.192 1.564 1.564 0 0 0-.48-.066H8.964l.18-.276v2.6a.809.809 0 0 1-.168.522.566.566 0 0 1-.468.212zm.468-4.3h2.8a.6.6 0 0 0 .42-.2 1.485 1.485 0 0 0 .336-.54 2.066 2.066 0 0 0 .132-.75 1.371 1.371 0 0 0-.282-.882.787.787 0 0 0-.606-.354H9l.144-.374V-4zm7.644-4.1h4.02a.732.732 0 0 1 .522.2.67.67 0 0 1 .21.51.618.618 0 0 1-.21.486.759.759 0 0 1-.522.186h-3.36l.108-.2v2.34l-.1-.1H20.1a.732.732 0 0 1 .522.2.67.67 0 0 1 .21.51.618.618 0 0 1-.21.486.759.759 0 0 1-.522.182h-2.772l.06-.1v2.424l-.1-.108h3.352a.709.709 0 0 1 .522.21.667.667 0 0 1 .21.486.637.637 0 0 1-.21.492.745.745 0 0 1-.522.196h-4.02a.709.709 0 0 1-.52-.21.709.709 0 0 1-.21-.522v-6.936a.709.709 0 0 1 .21-.522.709.709 0 0 1 .52-.21zm6.864 0H27.5a.732.732 0 0 1 .522.2.67.67 0 0 1 .21.51.618.618 0 0 1-.21.486.759.759 0 0 1-.522.186h-3.36l.108-.2v2.34l-.1-.1h2.808a.732.732 0 0 1 .522.2.67.67 0 0 1 .21.51.618.618 0 0 1-.21.486.759.759 0 0 1-.522.186h-2.764l.06-.1v2.424l-.1-.108H27.5a.709.709 0 0 1 .522.21.667.667 0 0 1 .21.486.637.637 0 0 1-.21.492A.745.745 0 0 1 27.5 0h-4.02a.709.709 0 0 1-.522-.21.709.709 0 0 1-.21-.522v-6.936a.709.709 0 0 1 .21-.522.709.709 0 0 1 .526-.21z" transform="translate(-645.758 -857.133) translate(654 870)"/>
    </g>
</svg>
