<svg xmlns="http://www.w3.org/2000/svg" width="27.339" height="27.339" viewBox="0 0 27.339 27.339">
    <g id="Google" transform="translate(-1120 -490.988)">
        <path id="Path_7156" fill="#fbbd00" d="M6.439 108.507a7.15 7.15 0 0 1 1.027-3.7v-4.594H2.834a13.546 13.546 0 0 0 0 16.584h4.632V112.2a7.15 7.15 0 0 1-1.027-3.693z" data-name="Path 7156" transform="translate(1120 396.151)"/>
        <path id="Path_7157" fill="#0f9d58" d="M199.22 373.983L196 377.2l3.22 3.219a13.633 13.633 0 0 0 8.359-2.834v-4.626h-4.626a7.3 7.3 0 0 1-3.733 1.024z" data-name="Path 7157" transform="translate(934.428 137.905)"/>
        <path id="Path_7158" fill="#31aa52" d="M57.454 325.477l-4.631 4.631a13.947 13.947 0 0 0 1.189 1.354 13.647 13.647 0 0 0 9.713 4.023v-6.439a7.3 7.3 0 0 1-6.271-3.569z" data-name="Path 7158" transform="translate(1070.012 182.841)"/>
        <path id="Path_7159" fill="#3c79e6" d="M269.737 200.473a13.858 13.858 0 0 0-.225-2.489l-.121-.66H256v6.439h6.517a7.264 7.264 0 0 1-2.784 2.985l4.626 4.626a13.956 13.956 0 0 0 1.354-1.189 13.647 13.647 0 0 0 4.024-9.712z" data-name="Path 7159" transform="translate(877.602 304.117)"/>
        <path id="Path_7160" fill="#cf2d48" d="M204.38 8.576l.569.569 4.551-4.553-.569-.569A13.647 13.647 0 0 0 199.22 0L196 3.22l3.22 3.22a7.25 7.25 0 0 1 5.16 2.136z" data-name="Path 7160" transform="translate(934.382 490.988)"/>
        <path id="Path_7161" fill="#eb4132" d="M63.724 6.439V0a13.647 13.647 0 0 0-9.713 4.023 13.943 13.943 0 0 0-1.189 1.354l4.631 4.631a7.3 7.3 0 0 1 6.271-3.57z" data-name="Path 7161" transform="translate(1070.013 490.988)"/>
    </g>
</svg>
