<svg width="16" height="16" viewBox="0 0 16 16" fill="none" xmlns="http://www.w3.org/2000/svg">
<g id="Outline 24px / heart">
<path id="Vector" fill-rule="evenodd" clip-rule="evenodd" d="M4.69978 1.33333C3.55022 1.33333 2.44774 1.78999 1.63488 2.60286C0.822018 3.41572 0.365356 4.51819 0.365356 5.66775C0.365356 6.81732 0.822018 7.91979 1.63488 8.73265L7.52852 14.6263C7.56107 14.6588 7.59614 14.6873 7.63311 14.7117C7.89189 14.8826 8.24357 14.8541 8.47138 14.6263L14.365 8.73265C15.1779 7.91979 15.6346 6.81732 15.6346 5.66775C15.6346 4.51819 15.1779 3.41572 14.365 2.60286C13.5522 1.78999 12.4497 1.33333 11.3001 1.33333C10.1506 1.33333 9.0481 1.78999 8.23523 2.60286L7.99996 2.83813L7.76468 2.60286C6.95182 1.78999 5.84934 1.33333 4.69978 1.33333ZM8.47138 4.25242C8.24357 4.48024 7.89189 4.50871 7.63311 4.33785C7.59614 4.31344 7.56107 4.28496 7.52852 4.25242L6.82182 3.54571C6.25902 2.98291 5.4957 2.66674 4.69978 2.66674C3.90386 2.66674 3.14054 2.98291 2.57774 3.54571C2.01494 4.10851 1.69876 4.87184 1.69876 5.66775C1.69876 6.46367 2.01494 7.227 2.57774 7.7898L7.99996 13.212L13.4222 7.7898C13.985 7.227 14.3012 6.46367 14.3012 5.66775C14.3012 4.87184 13.985 4.10851 13.4222 3.54571C12.8594 2.98291 12.0961 2.66674 11.3001 2.66674C10.5042 2.66674 9.74089 2.98291 9.17809 3.54571L8.47138 4.25242Z" fill="#3A3A3A"/>
</g>
</svg>
