<svg width="14" height="14" viewBox="0 0 14 14" fill="none" xmlns="http://www.w3.org/2000/svg">
<path id="Vector" d="M6.33325 3.66668H7.66659V5.00001H6.33325V3.66668ZM6.99992 10.3333C7.36659 10.3333 7.66659 10.0333 7.66659 9.66668V7.00001C7.66659 6.63334 7.36659 6.33334 6.99992 6.33334C6.63325 6.33334 6.33325 6.63334 6.33325 7.00001V9.66668C6.33325 10.0333 6.63325 10.3333 6.99992 10.3333ZM6.99992 0.333344C3.31992 0.333344 0.333252 3.32001 0.333252 7.00001C0.333252 10.68 3.31992 13.6667 6.99992 13.6667C10.6799 13.6667 13.6666 10.68 13.6666 7.00001C13.6666 3.32001 10.6799 0.333344 6.99992 0.333344ZM6.99992 12.3333C4.05992 12.3333 1.66659 9.94001 1.66659 7.00001C1.66659 4.06001 4.05992 1.66668 6.99992 1.66668C9.93992 1.66668 12.3333 4.06001 12.3333 7.00001C12.3333 9.94001 9.93992 12.3333 6.99992 12.3333Z" fill="#E43955" fill-opacity="0.75"/>
</svg>
