<svg width="144" height="16" viewBox="0 0 144 16" fill="none" xmlns="http://www.w3.org/2000/svg">
<path id="Line 3" d="M144 7.82947L131.5 0.612589V15.0463L144 7.82947ZM2 9.07947C2.69036 9.07947 3.25 8.51982 3.25 7.82947C3.25 7.13911 2.69036 6.57947 2 6.57947V9.07947ZM6 6.57947C5.30964 6.57947 4.75 7.13911 4.75 7.82947C4.75 8.51982 5.30964 9.07947 6 9.07947V6.57947ZM10 9.07947C10.6904 9.07947 11.25 8.51982 11.25 7.82947C11.25 7.13911 10.6904 6.57947 10 6.57947V9.07947ZM14 6.57947C13.3096 6.57947 12.75 7.13911 12.75 7.82947C12.75 8.51982 13.3096 9.07947 14 9.07947V6.57947ZM18 9.07947C18.6904 9.07947 19.25 8.51982 19.25 7.82947C19.25 7.13911 18.6904 6.57947 18 6.57947V9.07947ZM22 6.57947C21.3096 6.57947 20.75 7.13911 20.75 7.82947C20.75 8.51982 21.3096 9.07947 22 9.07947V6.57947ZM26 9.07947C26.6904 9.07947 27.25 8.51982 27.25 7.82947C27.25 7.13911 26.6904 6.57947 26 6.57947V9.07947ZM30 6.57947C29.3096 6.57947 28.75 7.13911 28.75 7.82947C28.75 8.51982 29.3096 9.07947 30 9.07947V6.57947ZM34 9.07947C34.6904 9.07947 35.25 8.51982 35.25 7.82947C35.25 7.13911 34.6904 6.57947 34 6.57947V9.07947ZM38 6.57947C37.3096 6.57947 36.75 7.13911 36.75 7.82947C36.75 8.51982 37.3096 9.07947 38 9.07947V6.57947ZM42 9.07947C42.6904 9.07947 43.25 8.51982 43.25 7.82947C43.25 7.13911 42.6904 6.57947 42 6.57947V9.07947ZM46 6.57947C45.3096 6.57947 44.75 7.13911 44.75 7.82947C44.75 8.51982 45.3096 9.07947 46 9.07947V6.57947ZM50 9.07947C50.6904 9.07947 51.25 8.51982 51.25 7.82947C51.25 7.13911 50.6904 6.57947 50 6.57947V9.07947ZM54 6.57947C53.3096 6.57947 52.75 7.13911 52.75 7.82947C52.75 8.51982 53.3096 9.07947 54 9.07947V6.57947ZM58 9.07947C58.6904 9.07947 59.25 8.51982 59.25 7.82947C59.25 7.13911 58.6904 6.57947 58 6.57947V9.07947ZM62 6.57947C61.3096 6.57947 60.75 7.13911 60.75 7.82947C60.75 8.51982 61.3096 9.07947 62 9.07947V6.57947ZM66 9.07947C66.6904 9.07947 67.25 8.51982 67.25 7.82947C67.25 7.13911 66.6904 6.57947 66 6.57947V9.07947ZM70 6.57947C69.3096 6.57947 68.75 7.13911 68.75 7.82947C68.75 8.51982 69.3096 9.07947 70 9.07947V6.57947ZM74 9.07947C74.6904 9.07947 75.25 8.51982 75.25 7.82947C75.25 7.13911 74.6904 6.57947 74 6.57947V9.07947ZM78 6.57947C77.3096 6.57947 76.75 7.13911 76.75 7.82947C76.75 8.51982 77.3096 9.07947 78 9.07947V6.57947ZM82 9.07947C82.6904 9.07947 83.25 8.51982 83.25 7.82947C83.25 7.13911 82.6904 6.57947 82 6.57947V9.07947ZM86 6.57947C85.3096 6.57947 84.75 7.13911 84.75 7.82947C84.75 8.51982 85.3096 9.07947 86 9.07947V6.57947ZM90 9.07947C90.6904 9.07947 91.25 8.51982 91.25 7.82947C91.25 7.13911 90.6904 6.57947 90 6.57947V9.07947ZM94 6.57947C93.3096 6.57947 92.75 7.13911 92.75 7.82947C92.75 8.51982 93.3096 9.07947 94 9.07947V6.57947ZM98 9.07947C98.6904 9.07947 99.25 8.51982 99.25 7.82947C99.25 7.13911 98.6904 6.57947 98 6.57947V9.07947ZM102 6.57947C101.31 6.57947 100.75 7.13911 100.75 7.82947C100.75 8.51982 101.31 9.07947 102 9.07947V6.57947ZM106 9.07947C106.69 9.07947 107.25 8.51982 107.25 7.82947C107.25 7.13911 106.69 6.57947 106 6.57947V9.07947ZM110 6.57947C109.31 6.57947 108.75 7.13911 108.75 7.82947C108.75 8.51982 109.31 9.07947 110 9.07947V6.57947ZM114 9.07947C114.69 9.07947 115.25 8.51982 115.25 7.82947C115.25 7.13911 114.69 6.57947 114 6.57947V9.07947ZM118 6.57947C117.31 6.57947 116.75 7.13911 116.75 7.82947C116.75 8.51982 117.31 9.07947 118 9.07947V6.57947ZM122 9.07947C122.69 9.07947 123.25 8.51982 123.25 7.82947C123.25 7.13911 122.69 6.57947 122 6.57947V9.07947ZM126 6.57947C125.31 6.57947 124.75 7.13911 124.75 7.82947C124.75 8.51982 125.31 9.07947 126 9.07947V6.57947ZM130 9.07947C130.69 9.07947 131.25 8.51982 131.25 7.82947C131.25 7.13911 130.69 6.57947 130 6.57947V9.07947ZM134 6.57947C133.31 6.57947 132.75 7.13911 132.75 7.82947C132.75 8.51982 133.31 9.07947 134 9.07947V6.57947ZM138 9.07947C138.69 9.07947 139.25 8.51982 139.25 7.82947C139.25 7.13911 138.69 6.57947 138 6.57947V9.07947ZM142 6.57947C141.31 6.57947 140.75 7.13911 140.75 7.82947C140.75 8.51982 141.31 9.07947 142 9.07947V6.57947ZM0 9.07947H2V6.57947H0L0 9.07947ZM6 9.07947H10V6.57947H6V9.07947ZM14 9.07947H18V6.57947H14V9.07947ZM22 9.07947H26V6.57947H22V9.07947ZM30 9.07947H34V6.57947H30V9.07947ZM38 9.07947H42V6.57947H38V9.07947ZM46 9.07947H50V6.57947H46V9.07947ZM54 9.07947H58V6.57947H54V9.07947ZM62 9.07947H66V6.57947H62V9.07947ZM70 9.07947H74V6.57947H70V9.07947ZM78 9.07947H82V6.57947H78V9.07947ZM86 9.07947H90V6.57947H86V9.07947ZM94 9.07947H98V6.57947H94V9.07947ZM102 9.07947H106V6.57947H102V9.07947ZM110 9.07947H114V6.57947H110V9.07947ZM118 9.07947H122V6.57947H118V9.07947ZM126 9.07947H130V6.57947H126V9.07947ZM134 9.07947H138V6.57947H134V9.07947Z" fill="#1B3867"/>
</svg>
