<svg xmlns="http://www.w3.org/2000/svg" width="55.548" height="43.66" viewBox="0 0 55.548 43.66">
    <defs>
        <style>
            .cls-2{fill:#ea3c64}
        </style>
    </defs>
    <g id="Favorite" transform="translate(-43.452 -497.096)">
        <g id="Virtual" opacity="0.09" transform="translate(-1444.494 118.109)">
            <path id="Path_7230" d="M14.743-6.906c18.887 1.463 27.5 29.995 22.23 37.628S23.45 33.83 14.743 33.83c-3.021 0-8.65 4.021-12.372 2.454-8.711-2.892-12.618-16.508-12.618-22.189-.001-8.695 6.103-22.464 24.99-21.001z" class="cls-2" transform="translate(1498.194 386)"/>
        </g>
        <path id="my_nanny" d="M19.917 30.038a3.15 3.15 0 0 1-4.246-.016l-.174-.158C7.211 22.367 1.8 17.458 2 11.334a8.616 8.616 0 0 1 3.7-6.771A9.147 9.147 0 0 1 17.786 6.3a9.13 9.13 0 0 1 12.09-1.736 8.616 8.616 0 0 1 3.693 6.771c.221 6.124-5.209 11.033-13.5 18.562l-.158.142z" class="cls-2" transform="translate(50.556 503.818)"/>
        <path id="Path_8138" fill="none" stroke="#fdecf0" stroke-linecap="round" stroke-width="2.5px" d="M-3 0a4.356 4.356 0 0 1 4.1 1.5 5.973 5.973 0 0 1 1.18 4.425" transform="translate(77.166 511.5)"/>
        <path id="Path_8140" fill="#fff" d="M17 0c9.389 0 17 5.82 17 13s-8.389 16.221-17.777 16.221S0 20.18 0 13 7.611 0 17 0z" opacity="0.121" transform="translate(65 500)"/>
    </g>
</svg>
