<svg width="36" height="36" viewBox="0 0 36 36" fill="none" xmlns="http://www.w3.org/2000/svg">
<g id="mail_outline" clip-path="url(#clip0_4244_13208)">
<path id="Vector" d="M30 6H6C4.35 6 3.015 7.35 3.015 9L3 27C3 28.65 4.35 30 6 30H30C31.65 30 33 28.65 33 27V9C33 7.35 31.65 6 30 6ZM28.5 27H7.5C6.675 27 6 26.325 6 25.5V12L16.41 18.51C17.385 19.125 18.615 19.125 19.59 18.51L30 12V25.5C30 26.325 29.325 27 28.5 27ZM18 16.5L6 9H30L18 16.5Z" fill="#1B3867"/>
</g>
<defs>
<clipPath id="clip0_4244_13208">
<rect width="36" height="36" fill="white"/>
</clipPath>
</defs>
</svg>
