<svg xmlns="http://www.w3.org/2000/svg" width="17.066" height="15.566" viewBox="0 0 17.066 15.566">
    <path fill="#c4c4c3" d="M12.859 4.749l-4.38-1.533a1.75 1.75 0 0 0-1.139-.009L3.191 4.381A1.764 1.764 0 0 0 2 6.046v10.381a1.746 1.746 0 0 0 2.383 1.629l3.22-1a.846.846 0 0 1 .6-.009l4.38 1.533a1.75 1.75 0 0 0 1.139.009l4.148-1.174a1.756 1.756 0 0 0 1.191-1.665V5.371a1.746 1.746 0 0 0-2.383-1.629l-3.22 1a.9.9 0 0 1-.6.009zm.307 12.186l-5.257-1.848V4.863l5.256 1.849z" transform="translate(-2 -3.116)"/>
</svg>
