<svg width="24" height="24" viewBox="0 0 24 24" fill="none" xmlns="http://www.w3.org/2000/svg">
<path d="M20.7656 10.8828H10.8828V1H20.7656V10.8828Z" stroke="#e33955" stroke-width="2" stroke-miterlimit="10" stroke-linecap="round" stroke-linejoin="round"/>
<path d="M17.1719 3.69531L15.8242 5.04297L14.4766 3.69531V1H17.1719V3.69531Z" stroke="#e33955" stroke-width="2" stroke-miterlimit="10" stroke-linecap="round" stroke-linejoin="round"/>
<path d="M6.45194 21.7305L3.9192 22.6523H1V14.6319L3.53274 13.7101L6.45194 21.7305Z" stroke="#e33955" stroke-width="2" stroke-miterlimit="10" stroke-linecap="round" stroke-linejoin="round"/>
<path d="M6.15483 20.9238L3.82227 14.5151L5.84195 13.78C7.44036 13.1983 9.22111 13.4211 10.6269 14.3788C11.2461 14.8007 11.9478 15.0861 12.6856 15.2162L14.5195 15.5395C15.2525 15.6688 15.7419 16.3678 15.6127 17.1008C15.4834 17.8337 14.7845 18.3231 14.0515 18.1939L9.76633 17.4383" stroke="#e33955" stroke-width="2" stroke-miterlimit="10" stroke-linecap="round" stroke-linejoin="round"/>
<path d="M6.15625 20.923L12.9718 21.8597C13.5275 21.936 14.0931 21.8372 14.59 21.5767L21.8221 17.7865C22.433 17.4663 22.7129 16.7436 22.477 16.0955C22.2006 15.3362 21.3331 14.9768 20.6007 15.3182L15.2643 17.8061" stroke="#e33955" stroke-width="2" stroke-miterlimit="10" stroke-linecap="round" stroke-linejoin="round"/>
</svg>
