<svg xmlns="http://www.w3.org/2000/svg" width="9.262" height="9.262" viewBox="0 0 9.262 9.262">
    <defs>
        <style>
            .cls-1{fill:#e33955;stroke:#e33955;stroke-width:.6px}
        </style>
    </defs>
    <g id="quit" transform="rotate(-45 -109.222 279.674)">
        <path id="Path_6960" data-name="Path 6960" class="cls-1" d="M163.373 168.671a.557.557 0 0 1-.394-.951l4.783-4.783a.557.557 0 0 1 .788.788l-4.783 4.783a.558.558 0 0 1-.394.163zm0 0" transform="translate(-.022)"/>
        <path id="Path_6961" data-name="Path 6961" class="cls-1" d="M168.134 168.691a.552.552 0 0 1-.394-.163l-4.783-4.782a.557.557 0 1 1 .788-.788l4.783 4.783a.557.557 0 0 1-.394.95zm0 0" transform="translate(0 -.02)"/>
    </g>
</svg>
