<svg xmlns="http://www.w3.org/2000/svg" width="33.587" height="32" viewBox="0 0 33.587 32">
    <defs>
        <clipPath id="9pvlzkiv9a">
            <path data-name="Rectangle 16" style="fill:#f7ae39" d="M0 0h33.587v32H0z"/>
        </clipPath>
    </defs>
    <g data-name="Group 2928" style="clip-path:url(#9pvlzkiv9a)">
        <path data-name="Path 24679" d="M6.127 31.7c.037-.2.067-.383.1-.561l1.489-7.947q.269-1.434.541-2.867a.2.2 0 0 0-.068-.206q-4.03-4.035-8.058-8.071A.754.754 0 0 0 0 11.962l.031-.048.838-.11 4.175-.543 4.136-.535 2.315-.3a.235.235 0 0 0 .2-.146Q14.286 5.233 16.879.187c.028-.054.057-.108.1-.184.032.064.057.112.08.161q2.441 5.127 4.879 10.255a.27.27 0 0 0 .229.172q2.668.42 5.335.849l5.308.853.746.117.03.046a.721.721 0 0 0-.12.075q-4.139 3.9-8.278 7.806a.28.28 0 0 0-.1.282q.589 3.722 1.171 7.445l.6 3.865v.074l-.144-.073q-4.992-2.713-9.983-5.43a.3.3 0 0 0-.322-.007q-5.038 2.554-10.081 5.1c-.061.031-.124.06-.213.1" transform="translate(0 -.003)" style="fill:#f7ae39"/>
    </g>
</svg>
