<svg width="52" height="46" viewBox="0 0 52 46" fill="none" xmlns="http://www.w3.org/2000/svg">
<mask id="mask0_280_35" style="mask-type:luminance" maskUnits="userSpaceOnUse" x="0" y="0" width="52" height="46">
<path d="M51.155 0H0V45.266H51.155V0Z" fill="white"/>
</mask>
<g mask="url(#mask0_280_35)">
<g opacity="0.5">
<mask id="mask1_280_35" style="mask-type:luminance" maskUnits="userSpaceOnUse" x="2" y="7" width="31" height="30">
<path d="M2.5127 12.5904L27.8761 7.19922L32.9551 31.0944L7.59177 36.4856L2.5127 12.5904Z" fill="white"/>
</mask>
<g mask="url(#mask1_280_35)">
<path d="M12.171 35.2783C12.166 35.1199 12.1611 34.9819 12.1583 34.8435L12.0218 28.67C12.0056 27.9271 11.9902 27.1844 11.9755 26.4419C11.9764 26.4126 11.9689 26.3836 11.9539 26.3584C11.939 26.3331 11.9172 26.3127 11.891 26.2993C9.43438 24.7203 6.97853 23.1434 4.5235 21.5688C4.48781 21.549 4.45015 21.533 4.41113 21.5211L4.42712 21.4809L5.04133 21.2634L8.10782 20.1884L11.146 19.1245C11.7171 18.9254 12.2788 18.7252 12.8466 18.5299C12.8796 18.5211 12.9095 18.5032 12.9327 18.4782C12.956 18.4532 12.9717 18.4221 12.978 18.3885L15.2885 10.0192L15.3325 9.86572L15.4187 9.97314C17.1911 12.264 18.9625 14.5555 20.7331 16.8474C20.7546 16.8799 20.7848 16.9056 20.8202 16.9218C20.8556 16.9379 20.8949 16.9438 20.9335 16.9388C22.3213 16.8626 23.7092 16.7884 25.0972 16.7162L29.2429 16.5006L29.8249 16.4679L29.8556 16.4971C29.8272 16.5198 29.8011 16.5452 29.7777 16.573C28.104 18.9598 26.4332 21.3456 24.7653 23.7305C24.7393 23.7614 24.7227 23.7992 24.7175 23.8392C24.7122 23.8793 24.7185 23.92 24.7356 23.9566C25.4261 25.7461 26.1134 27.5367 26.7975 29.3283L27.8679 32.1177L27.8795 32.1725C27.8329 32.1599 27.7953 32.1515 27.7593 32.1408L19.3621 29.6891C19.321 29.6733 19.2763 29.6694 19.2331 29.6776C19.1899 29.6859 19.1498 29.7061 19.1175 29.736C16.8511 31.5468 14.5833 33.3558 12.3142 35.1631L12.171 35.2783Z" fill="#0FB5B5"/>
</g>
</g>
<g opacity="0.8">
<mask id="mask2_280_35" style="mask-type:luminance" maskUnits="userSpaceOnUse" x="9" y="8" width="34" height="32">
<path d="M10.3402 8.11914L42.9663 8.68863L42.4298 39.4259L9.80371 38.8564L10.3402 8.11914Z" fill="white"/>
</mask>
<g mask="url(#mask2_280_35)">
<path d="M15.7608 38.6666C15.8003 38.4672 15.8323 38.2998 15.8702 38.1294L17.4502 30.5218C17.6402 29.607 17.8316 28.6922 18.0242 27.7774C18.0336 27.7414 18.0326 27.7035 18.0216 27.668C18.0106 27.6324 17.9898 27.6007 17.9617 27.5763C15.3945 24.9498 12.829 22.3216 10.2652 19.6918C10.2264 19.6591 10.1843 19.6306 10.1396 19.6066L10.1704 19.5611L10.9862 19.4693L15.0506 19.0192L19.076 18.5734C19.8277 18.4865 20.5793 18.3996 21.3297 18.3257C21.3729 18.3244 21.4149 18.311 21.4507 18.2868C21.4865 18.2626 21.5148 18.2288 21.5321 18.1892C23.2643 14.9869 24.9984 11.7847 26.7346 8.58254C26.7625 8.53102 26.7913 8.48352 26.8326 8.40723L26.9069 8.56255C28.4314 11.8736 29.9548 15.1847 31.4773 18.4958C31.4945 18.5417 31.5242 18.5819 31.5631 18.6117C31.602 18.6416 31.6485 18.6599 31.6974 18.6647C33.4204 18.9614 35.1431 19.2636 36.8653 19.571L42.0072 20.4809L42.7302 20.6055L42.7594 20.65C42.7181 20.6695 42.6789 20.6929 42.6422 20.72L34.4705 28.0785C34.429 28.1086 34.3971 28.15 34.3786 28.1977C34.36 28.2454 34.3556 28.2975 34.3658 28.3477C34.7061 30.7373 35.0438 33.1276 35.3788 35.5185L35.9009 39.2412L35.8996 39.3121C35.8451 39.2832 35.8005 39.2624 35.7609 39.2397L26.1534 33.8552C26.1075 33.8245 26.0539 33.8071 25.9987 33.8049C25.9435 33.8027 25.8888 33.8158 25.8406 33.8428C22.5458 35.4215 19.2532 36.9976 15.9625 38.5711L15.7538 38.6675" fill="#1B3867"/>
</g>
</g>
<g opacity="0.7">
<mask id="mask3_280_35" style="mask-type:luminance" maskUnits="userSpaceOnUse" x="43" y="27" width="9" height="9">
<path d="M43.0645 28.2063L50.5001 27.5557L51.1129 34.561L43.6773 35.2115L43.0645 28.2063Z" fill="white"/>
</mask>
<g mask="url(#mask3_280_35)">
<path d="M45.0277 35.0251L45.0389 34.9006L45.2169 33.1374L45.2816 32.4993C45.2838 32.4902 45.2831 32.4807 45.2797 32.472C45.2762 32.4633 45.2701 32.4559 45.2623 32.4508L43.3235 30.8407C43.314 30.8342 43.3037 30.8287 43.293 30.8243L43.299 30.8127L43.4822 30.7726L44.3963 30.5732L45.3015 30.3755L45.8078 30.265C45.8176 30.2638 45.8268 30.2599 45.8344 30.2538C45.8421 30.2476 45.8478 30.2394 45.8509 30.2301L46.8043 27.9202L46.8226 27.8774L46.8426 27.9108L48.1199 30.0617C48.1249 30.0718 48.1326 30.0802 48.1422 30.0861C48.1517 30.0921 48.1628 30.0952 48.174 30.0951L49.3718 30.178L50.5637 30.2625L50.7313 30.2739L50.7392 30.2832C50.7301 30.2888 50.7216 30.2953 50.7138 30.3025L49.0321 32.1692C49.0235 32.1771 49.0174 32.1873 49.0145 32.1986C49.0116 32.2099 49.0119 32.2218 49.0155 32.2329L49.4171 33.84L49.6246 34.6741L49.626 34.69L49.5927 34.6769L47.2782 33.6818C47.2669 33.676 47.2541 33.6736 47.2415 33.6747C47.2288 33.6758 47.2167 33.6804 47.2065 33.6881L45.0726 34.9991L45.0277 35.0251Z" fill="#1B3867"/>
</g>
</g>
<g opacity="0.7">
<mask id="mask4_280_35" style="mask-type:luminance" maskUnits="userSpaceOnUse" x="-1" y="37" width="10" height="9">
<path d="M-0.00195312 38.2262L7.43364 37.5757L8.04652 44.5809L0.610926 45.2315L-0.00195312 38.2262Z" fill="white"/>
</mask>
<g mask="url(#mask4_280_35)">
<path d="M1.96227 45.0451L1.97346 44.9207L2.15147 43.1574L2.2161 42.5194C2.21832 42.5103 2.21766 42.5007 2.2142 42.492C2.21074 42.4833 2.20466 42.476 2.1968 42.4709L0.258085 40.8607C0.248496 40.8542 0.238259 40.8487 0.227539 40.8443L0.233554 40.8327L0.416754 40.7926L1.33085 40.5932L2.23607 40.3956L2.74236 40.285C2.75211 40.2839 2.76134 40.28 2.76897 40.2738C2.7766 40.2676 2.78233 40.2594 2.78549 40.2501L3.7388 37.9402L3.75714 37.8975L3.77713 37.9309L5.05445 40.0817C5.05943 40.0918 5.06715 40.1003 5.07671 40.1062C5.08628 40.1121 5.09732 40.1152 5.10856 40.1151L6.30635 40.1981L7.49824 40.2825L7.66588 40.2939L7.67372 40.3033C7.66463 40.3088 7.65612 40.3153 7.64831 40.3226L5.9666 42.1892C5.95805 42.1972 5.95195 42.2074 5.94902 42.2187C5.9461 42.23 5.94647 42.2418 5.95009 42.2529L6.35168 43.86L6.55917 44.6941L6.56056 44.7101L6.52729 44.6969L4.21276 43.7019C4.20141 43.6961 4.18868 43.6936 4.176 43.6947C4.16332 43.6958 4.1512 43.7005 4.14103 43.7081L2.00717 45.0191L1.96227 45.0451Z" fill="#1B3867"/>
</g>
</g>
<g opacity="0.4">
<mask id="mask5_280_35" style="mask-type:luminance" maskUnits="userSpaceOnUse" x="36" y="0" width="14" height="13">
<path d="M38.7285 0L49.4969 2.68485L46.9676 12.8293L36.1992 10.1445L38.7285 0Z" fill="white"/>
</mask>
<g mask="url(#mask5_280_35)">
<path d="M38.1872 10.5371L38.2635 10.3675L39.3699 7.96373L39.7702 7.09787C39.7759 7.08671 39.7783 7.07418 39.7773 7.06171C39.7762 7.04923 39.7716 7.03731 39.7641 7.02729L37.8179 3.82948C37.8077 3.81546 37.7961 3.80255 37.7832 3.79094L37.7968 3.77783L38.0743 3.80991L39.4551 3.97178L40.8246 4.12978L41.5911 4.21782C41.6055 4.22063 41.6205 4.2193 41.6342 4.21397C41.6479 4.20864 41.6599 4.19953 41.6687 4.18769L44.1252 1.40741L44.1708 1.35693L44.1832 1.41465L44.9396 5.05269C44.9418 5.06924 44.9486 5.08483 44.9592 5.09769C44.9699 5.11055 44.9839 5.12016 44.9997 5.12541L46.6431 5.82166L48.2775 6.51671L48.507 6.61309L48.5131 6.63006C48.4977 6.63343 48.4827 6.63832 48.4682 6.64464C47.3779 7.25086 46.2874 7.85603 45.1969 8.46015C45.181 8.46714 45.1675 8.47849 45.1579 8.49289C45.1483 8.50729 45.143 8.52413 45.1426 8.54144C45.0726 9.35947 45.0017 10.1773 44.9297 10.9948L44.8182 12.2687L44.8124 12.292L44.7726 12.2573L41.9998 9.73767C41.9868 9.72419 41.9703 9.71463 41.9521 9.7101C41.9339 9.70557 41.9148 9.70623 41.897 9.71203C40.6853 9.98362 39.4735 10.2542 38.2616 10.5237L38.1855 10.5398" fill="#1B3867"/>
</g>
</g>
</g>
</svg>
