<svg xmlns="http://www.w3.org/2000/svg" width="22.144" height="22.329" viewBox="0 0 22.144 22.329">
    <g data-name="reschedules hover">
        <g data-name="Group 10059">
            <path data-name="Path 25571" d="M16.8 4.011c-.194-.141-.384-.289-.584-.423a9.146 9.146 0 1 0 3.938 8.98c.083-.977 2.331-1.683 1.944.684A11.146 11.146 0 1 1 8.981.243a10.925 10.925 0 0 1 9.007 2.131c.067.051.135.1.243.178v-.317c0-.451-.02-.906.024-1.353A.987.987 0 0 1 19.292 0a1.011 1.011 0 0 1 .971 1.009c.008.753 0 1.505 0 2.258 0 .6.006 1.2 0 1.807a.985.985 0 0 1-.989 1.006q-2.057.015-4.113 0a1.007 1.007 0 0 1 .013-2.013c.459-.011.919 0 1.379 0h.227l.02-.053" style="fill:#e33955"/>
            <path data-name="Path 25572" d="M106.271 46.947c0-1.137-.009-.049 0-1.186a1.091 1.091 0 0 1 .958-1.063 1.108 1.108 0 0 1 1.238.8 1.9 1.9 0 0 1 .046.5v3.618a.587.587 0 0 0 .189.463c.941.929.762.753 1.694 1.69a1.13 1.13 0 1 1-1.559 1.633c-.569-.553-.011-.007-.572-.568-.536-.536-1.069-1.075-1.609-1.607a1.251 1.251 0 0 1-.392-.945c.007-1.111 0-2.221 0-3.332z" transform="translate(-96.144 -38.624)" style="fill:#e33955"/>
        </g>
    </g>
</svg>