<svg width="18" height="18" viewBox="0 0 18 18" fill="none" xmlns="http://www.w3.org/2000/svg">
<g id="Group">
<g id="Group_2">
<path id="Vector" d="M13.24 8.50998L14.81 6.93998L11.06 3.18998L9.49 4.75998L5.35 0.629983C4.57 -0.150017 3.3 -0.150017 2.52 0.629983L0.62 2.52998C-0.16 3.30998 -0.16 4.57998 0.62 5.35998L4.75 9.48998L0.15 14.1C0.0500001 14.2 0 14.32 0 14.46V17.5C0 17.78 0.22 18 0.5 18H3.54C3.67 18 3.8 17.95 3.89 17.85L8.51 13.23L12.64 17.36C13.96 18.68 15.4 17.43 15.47 17.36L17.37 15.46C18.15 14.68 18.15 13.41 17.37 12.63L13.24 8.50998ZM6.18 8.06998L2.04 3.93998L3.93 2.03998L5.2 3.30998L4.73 3.79998C4.34 4.18998 4.34 4.81998 4.73 5.20998C5.12 5.59998 5.75 5.59998 6.14 5.20998L6.62 4.72998L8.07 6.17998L6.18 8.06998ZM14.06 15.96L9.93 11.83L11.83 9.92998L13.28 11.38L12.8 11.86C12.41 12.25 12.41 12.88 12.8 13.27C13.19 13.66 13.82 13.66 14.21 13.27L14.69 12.79L15.96 14.06L14.06 15.96Z" fill="#E43955"/>
<path id="Vector_2" d="M17.7109 4.03999C18.1009 3.64999 18.1009 3.01999 17.7109 2.62999L15.3709 0.28999C14.9009 -0.18001 14.2509 -1.02222e-05 13.9609 0.28999L12.1309 2.11999L15.8809 5.86999L17.7109 4.03999Z" fill="#E43955"/>
</g>
</g>
</svg>
