<svg xmlns="http://www.w3.org/2000/svg" width="46" height="46" viewBox="0 0 46 46">
    <g transform="translate(-1015 -187)">
        <rect width="46" height="46" fill="#e2f4f0" rx="23" transform="translate(1015 187)"/>
        <path fill="#33b98f" d="M11.544 4.551L7.694 3.2a1.538 1.538 0 0 0-1-.008L3.047 4.228A1.55 1.55 0 0 0 2 5.691v9.125a1.535 1.535 0 0 0 2.094 1.432l2.83-.878a.744.744 0 0 1 .531-.008l3.85 1.348a1.538 1.538 0 0 0 1 .008l3.646-1.032A1.543 1.543 0 0 0 17 14.223V5.1a1.535 1.535 0 0 0-2.094-1.432l-2.83.878a.786.786 0 0 1-.531.008zm.27 10.711l-4.62-1.625V4.651l4.62 1.625z" transform="translate(1027.836 199.92)"/>
    </g>
</svg>
