<svg xmlns="http://www.w3.org/2000/svg" width="35" height="35" viewBox="0 0 35 35">
    <g fill="#9263dd" transform="translate(-269 -20)">
        <circle cx="17.5" cy="17.5" r="17.5" opacity="0.1" transform="translate(269 20)"/>
        <path d="M-365.489 78.184l-1.019-.63c-.28-.172-.562-.34-.839-.517a.132.132 0 0 0-.2.018 2.571 2.571 0 0 1-3.6.012A2.6 2.6 0 0 1-370.7 73a2.567 2.567 0 0 1 3.355.57.144.144 0 0 0 .207.05q1.188-.556 2.382-1.1a.155.155 0 0 0 .1-.19 2.065 2.065 0 0 1 2.184-2.306 2.086 2.086 0 0 1 1.869 1.518 2.077 2.077 0 0 1-.884 2.3 2.038 2.038 0 0 1-2.629-.351.138.138 0 0 0-.189-.041q-1.207.564-2.419 1.118a.119.119 0 0 0-.079.16 2.463 2.463 0 0 1-.078 1.272.137.137 0 0 0 .029.123c.632.394 1.266.784 1.91 1.179a3.084 3.084 0 0 1 2.569-1.049 3 3 0 0 1 1.975.905 3.11 3.11 0 0 1 .356 3.963 3.1 3.1 0 0 1-3.995.989 3.114 3.114 0 0 1-1.452-3.926z" transform="translate(651.942 -38.056)"/>
    </g>
</svg>
