<svg xmlns="http://www.w3.org/2000/svg" width="17.058" height="17.751" viewBox="0 0 17.058 17.751">
    <path d="M-619 383.506c-1.305.87-1.634.768-2.922 1.627-.362.242-.361.243-.266.654a3.128 3.128 0 0 1-.066 1.672c-.031.1-.043.163.061.232q2.053 1.359 4.1 2.727a.409.409 0 0 0 .063.026 3.3 3.3 0 0 1 1.514-1.156 3.254 3.254 0 0 1 3.507.661 3.207 3.207 0 0 1 .975 3.449 3.209 3.209 0 0 1-2.641 2.4 3.382 3.382 0 0 1-4.013-3.565.29.29 0 0 0-.1-.221c-1.439-.968-2.884-1.927-4.325-2.892a.179.179 0 0 0-.257.01 3.4 3.4 0 0 1-5.52-2.075 3.409 3.409 0 0 1 1.615-3.471 3.391 3.391 0 0 1 3.865.262.233.233 0 0 0 .338.015c1.418-.952 1.88-.939 3.3-1.882a.257.257 0 0 0 .129-.275 3.373 3.373 0 0 1 2.936-3.575 3.4 3.4 0 0 1 3.8 2.879 3.4 3.4 0 0 1-1.973 3.579 3.393 3.393 0 0 1-4.009-.943zm-6.542 4.7a1.712 1.712 0 0 0 1.737-1.685 1.715 1.715 0 0 0-1.68-1.722 1.714 1.714 0 0 0-1.727 1.676 1.713 1.713 0 0 0 1.67 1.725zm10.241 2.557a1.7 1.7 0 0 0-1.7 1.7 1.71 1.71 0 0 0 1.7 1.7 1.709 1.709 0 0 0 1.707-1.713 1.7 1.7 0 0 0-1.706-1.69zm-.952-7.561a1.7 1.7 0 0 0 1.7-1.692 1.708 1.708 0 0 0-1.694-1.706 1.708 1.708 0 0 0-1.713 1.706 1.7 1.7 0 0 0 1.706 1.69z" transform="translate(628.938 -378.105)" style="fill:#9263dd"/>
</svg>
