<svg xmlns="http://www.w3.org/2000/svg" width="35" height="35" viewBox="0 0 35 35">
    <g fill="#fff" transform="translate(-266 -20)">
        <circle cx="17.5" cy="17.5" r="17.5" opacity="0.21" transform="translate(266 20)"/>
        <path d="M-365.977 77.566l-.942-.582c-.259-.159-.52-.314-.775-.478a.122.122 0 0 0-.183.017 2.376 2.376 0 0 1-3.325.011 2.4 2.4 0 0 1 .408-3.762 2.373 2.373 0 0 1 3.1.527.133.133 0 0 0 .191.046q1.1-.514 2.2-1.017a.143.143 0 0 0 .1-.176 1.909 1.909 0 0 1 2.018-2.132 1.928 1.928 0 0 1 1.728 1.4 1.919 1.919 0 0 1-.817 2.126 1.884 1.884 0 0 1-2.43-.325.128.128 0 0 0-.175-.038q-1.116.521-2.236 1.033a.11.11 0 0 0-.073.148 2.276 2.276 0 0 1-.073 1.177.127.127 0 0 0 .027.114c.584.365 1.171.724 1.765 1.09a2.85 2.85 0 0 1 2.374-.97 2.775 2.775 0 0 1 1.826.837 2.875 2.875 0 0 1 .329 3.663 2.865 2.865 0 0 1-3.693.914 2.879 2.879 0 0 1-1.344-3.623z" transform="translate(649.932 -37.02)"/>
    </g>
</svg>
