<svg xmlns="http://www.w3.org/2000/svg" width="16.962" height="15.98" viewBox="0 0 16.962 15.98">
    <defs>
        <clipPath id="v4mjnta4ka">
            <path data-name="Rectangle 16" style="fill:#4c4c7c" d="M0 0h16.962v15.98H0z"/>
        </clipPath>
    </defs>
    <g data-name="Group 2928" style="clip-path:url(#v4mjnta4ka)">
        <path data-name="Path 24679" d="m3.094 15.83.051-.28.755-3.968.273-1.432a.1.1 0 0 0-.035-.1L.066 6.018A.381.381 0 0 0 0 5.975l.015-.024.423-.051 2.108-.271 2.089-.267 1.169-.149a.118.118 0 0 0 .1-.073Q7.215 2.615 8.524.1l.049-.1.04.08 2.466 5.12a.136.136 0 0 0 .116.086q1.347.21 2.694.424l2.681.426.377.058.015.023a.365.365 0 0 0-.06.038l-4.18 3.9a.139.139 0 0 0-.05.141q.3 1.859.591 3.718l.305 1.93v.037l-.073-.037-5.042-2.711a.155.155 0 0 0-.163 0q-2.542 1.274-5.09 2.545l-.108.052" transform="translate(0 -.003)" style="fill:#4c4c7c"/>
    </g>
</svg>
