<svg width="225" height="219" viewBox="0 0 225 219" fill="none" xmlns="http://www.w3.org/2000/svg">
<path d="M97.0609 218.351C144.39 218.351 182.757 215.96 182.757 213.012C182.757 210.063 144.39 207.673 97.0609 207.673C49.7322 207.673 11.3647 210.063 11.3647 213.012C11.3647 215.96 49.7322 218.351 97.0609 218.351Z" fill="#E43955"/>
<path opacity="0.8" d="M97.0609 218.351C144.39 218.351 182.757 215.96 182.757 213.012C182.757 210.063 144.39 207.673 97.0609 207.673C49.7322 207.673 11.3647 210.063 11.3647 213.012C11.3647 215.96 49.7322 218.351 97.0609 218.351Z" fill="white"/>
<path d="M161.458 10.0032H75.2904C69.3414 10.0032 64.5187 14.8258 64.5187 20.7748V202.689C64.5187 208.638 69.3414 213.461 75.2904 213.461H161.458C167.407 213.461 172.229 208.638 172.229 202.689V20.7748C172.229 14.8258 167.407 10.0032 161.458 10.0032Z" fill="#263238"/>
<path d="M167.44 32.3448H69.303V191.119H167.44V32.3448Z" fill="white" stroke="#263238" stroke-width="1.33739" stroke-miterlimit="10"/>
<path d="M133.415 96.6372C141.722 88.3301 141.722 74.8617 133.415 66.5546C125.108 58.2476 111.64 58.2476 103.333 66.5546C95.0256 74.8617 95.0256 88.3301 103.333 96.6372C111.64 104.944 125.108 104.944 133.415 96.6372Z" fill="#E43955"/>
<path d="M146.301 181.135H90.4527C90.327 181.136 90.2024 181.112 90.0861 181.064C89.9698 181.016 89.864 180.946 89.7748 180.858C89.6857 180.769 89.615 180.664 89.5667 180.548C89.5184 180.432 89.4936 180.307 89.4936 180.181C89.4929 180.055 89.5172 179.93 89.5651 179.814C89.6131 179.697 89.6837 179.591 89.7729 179.502C89.8621 179.412 89.9681 179.342 90.0848 179.294C90.2015 179.246 90.3265 179.222 90.4527 179.222H146.301C146.427 179.222 146.551 179.247 146.667 179.296C146.783 179.344 146.889 179.414 146.977 179.504C147.066 179.593 147.136 179.699 147.184 179.815C147.231 179.931 147.255 180.056 147.255 180.181C147.255 180.434 147.154 180.677 146.975 180.856C146.796 181.035 146.554 181.135 146.301 181.135Z" fill="#E43955"/>
<path d="M148.119 114.826H88.6288C87.401 114.826 86.4057 115.821 86.4057 117.049V124.061C86.4057 125.289 87.401 126.285 88.6288 126.285H148.119C149.347 126.285 150.342 125.289 150.342 124.061V117.049C150.342 115.821 149.347 114.826 148.119 114.826Z" fill="#E43955"/>
<path d="M148.119 136.258H88.6288C87.401 136.258 86.4057 137.253 86.4057 138.481V145.494C86.4057 146.722 87.401 147.717 88.6288 147.717H148.119C149.347 147.717 150.342 146.722 150.342 145.494V138.481C150.342 137.253 149.347 136.258 148.119 136.258Z" fill="#E43955"/>
<path d="M128.965 92.2068L122.707 88.6033V85.6263C123.613 84.5298 124.269 83.2491 124.63 81.8731C124.846 81.9496 125.072 81.989 125.301 81.9895C126.077 81.9895 126.571 79.5835 126.654 77.865C127.557 75.9523 126.327 74.8325 126.327 74.8325C126.327 74.8325 126.837 74.3225 127.175 72.2768C127.513 70.2311 125.983 71.0849 124.791 69.2111C123.599 67.3373 122.745 65.2971 118.831 65.2971C117.753 65.2617 116.689 65.5515 115.777 66.1289C114.866 66.7063 114.149 67.5445 113.72 68.5347C112.746 68.5382 111.775 68.6517 110.826 68.8729C109.629 69.2111 109.291 73.1305 110.311 74.6662C110.767 75.5054 111.011 76.4439 111.02 77.3993C110.749 77.0666 110.466 76.9779 110.311 77.7319C109.972 79.4338 111.336 81.8177 111.336 81.8177L112.04 81.6181C112.395 83.0886 113.079 84.4592 114.042 85.6263V88.6033L107.783 92.2068C107.052 92.6288 106.445 93.2356 106.022 93.9664C105.6 94.6972 105.377 95.5262 105.377 96.3702V98.4325C109.099 101.308 113.67 102.868 118.374 102.868C123.078 102.868 127.649 101.308 131.372 98.4325V96.3702C131.372 95.5259 131.15 94.6965 130.727 93.9655C130.305 93.2346 129.697 92.6279 128.965 92.2068Z" fill="#263238"/>
<path d="M94.5052 144.867C94.3617 144.865 94.2246 144.808 94.1227 144.707C94.0681 144.658 94.0246 144.598 93.995 144.531C93.9653 144.464 93.9503 144.392 93.9508 144.319C93.9525 144.219 93.9813 144.121 94.034 144.036L95.0319 142.439L93.086 142.5C93.0127 142.505 92.9392 142.494 92.8704 142.468C92.8016 142.442 92.739 142.402 92.6868 142.351C92.5964 142.249 92.5465 142.118 92.5465 141.982C92.5465 141.846 92.5964 141.715 92.6868 141.613C92.7379 141.56 92.8001 141.518 92.8691 141.491C92.9381 141.464 93.0121 141.453 93.086 141.458L95.0041 141.53L94.0173 139.939C93.9637 139.852 93.9349 139.753 93.9342 139.651C93.9336 139.578 93.9487 139.505 93.9783 139.438C94.008 139.371 94.0515 139.311 94.106 139.263C94.2079 139.162 94.3451 139.104 94.4886 139.102C94.583 139.102 94.6754 139.13 94.7549 139.181C94.8344 139.232 94.8977 139.304 94.9376 139.39L95.8856 141.103L96.8225 139.401C96.867 139.31 96.9354 139.233 97.0204 139.179C97.1054 139.124 97.2038 139.094 97.3048 139.091C97.3749 139.091 97.4441 139.106 97.508 139.135C97.572 139.163 97.6293 139.205 97.6763 139.257C97.778 139.363 97.8338 139.504 97.8315 139.651C97.8312 139.746 97.8064 139.839 97.7594 139.922L96.756 141.53L98.7019 141.458C98.7757 141.453 98.8497 141.464 98.9187 141.491C98.9877 141.518 99.0499 141.56 99.101 141.613C99.1955 141.711 99.2473 141.843 99.2452 141.979C99.2448 142.116 99.1934 142.249 99.101 142.351C99.0488 142.402 98.9862 142.442 98.9174 142.468C98.8487 142.494 98.7752 142.505 98.7019 142.5L96.7449 142.439L97.7206 144.019C97.7753 144.107 97.8041 144.209 97.8038 144.313C97.8038 144.46 97.7453 144.601 97.6414 144.705C97.5374 144.809 97.3964 144.867 97.2494 144.867C97.1543 144.866 97.0617 144.837 96.9829 144.784C96.9041 144.731 96.8426 144.656 96.8059 144.568L95.8801 142.905L94.9598 144.568C94.919 144.655 94.8549 144.729 94.7747 144.782C94.6945 144.835 94.6012 144.864 94.5052 144.867Z" fill="#263238"/>
<path d="M103.497 144.867C103.354 144.865 103.217 144.808 103.115 144.707C103.06 144.658 103.017 144.598 102.987 144.531C102.957 144.464 102.942 144.392 102.943 144.319C102.945 144.219 102.973 144.121 103.026 144.036L104.024 142.439L102.084 142.5C102.01 142.504 101.936 142.492 101.866 142.466C101.797 142.441 101.733 142.401 101.679 142.351C101.605 142.275 101.556 142.178 101.538 142.074C101.52 141.97 101.534 141.863 101.577 141.766C101.621 141.67 101.693 141.589 101.783 141.534C101.873 141.479 101.978 141.453 102.084 141.458L103.996 141.53L103.009 139.939C102.956 139.852 102.927 139.753 102.926 139.651C102.926 139.578 102.941 139.505 102.97 139.438C103 139.371 103.044 139.311 103.098 139.263C103.2 139.162 103.337 139.104 103.481 139.102C103.575 139.102 103.667 139.13 103.747 139.181C103.826 139.232 103.89 139.305 103.93 139.39L104.878 141.103L105.815 139.401C105.859 139.31 105.927 139.233 106.012 139.179C106.097 139.124 106.196 139.094 106.297 139.091C106.367 139.09 106.437 139.105 106.501 139.134C106.565 139.163 106.622 139.205 106.668 139.257C106.72 139.309 106.76 139.37 106.788 139.438C106.816 139.505 106.83 139.578 106.829 139.651C106.827 139.746 106.8 139.84 106.751 139.922L105.748 141.53L107.699 141.469C107.772 141.464 107.846 141.475 107.914 141.502C107.982 141.529 108.043 141.571 108.093 141.624C108.188 141.722 108.239 141.854 108.237 141.99C108.237 142.128 108.186 142.26 108.093 142.362C108.042 142.413 107.98 142.453 107.912 142.479C107.845 142.505 107.772 142.516 107.699 142.511L105.737 142.45L106.713 144.03C106.767 144.119 106.796 144.22 106.796 144.324C106.796 144.471 106.737 144.612 106.633 144.716C106.529 144.82 106.388 144.878 106.241 144.878C106.146 144.877 106.054 144.848 105.975 144.795C105.896 144.742 105.835 144.667 105.798 144.579L104.872 142.916L103.952 144.579C103.91 144.664 103.845 144.736 103.765 144.787C103.685 144.837 103.592 144.865 103.497 144.867Z" fill="#263238"/>
<path d="M112.495 144.867C112.349 144.867 112.21 144.809 112.107 144.707C112.052 144.658 112.009 144.598 111.979 144.531C111.949 144.464 111.934 144.392 111.935 144.319C111.937 144.219 111.965 144.121 112.018 144.036L113.016 142.439L111.076 142.5C110.971 142.504 110.868 142.477 110.779 142.423C110.69 142.368 110.619 142.288 110.575 142.193C110.532 142.097 110.518 141.992 110.535 141.888C110.552 141.785 110.599 141.689 110.671 141.613C110.723 141.56 110.787 141.518 110.856 141.492C110.926 141.465 111.001 141.453 111.076 141.458L112.988 141.53L112.001 139.939C111.948 139.852 111.919 139.753 111.918 139.651C111.92 139.578 111.936 139.506 111.966 139.44C111.995 139.373 112.037 139.313 112.09 139.263C112.193 139.16 112.333 139.102 112.478 139.102C112.572 139.104 112.663 139.131 112.741 139.182C112.82 139.233 112.882 139.305 112.922 139.39L113.87 141.103L114.807 139.401C114.851 139.31 114.919 139.233 115.004 139.179C115.089 139.124 115.188 139.094 115.289 139.091C115.359 139.09 115.429 139.105 115.493 139.134C115.557 139.163 115.614 139.205 115.66 139.257C115.712 139.309 115.752 139.37 115.78 139.438C115.808 139.505 115.822 139.578 115.821 139.651C115.819 139.746 115.792 139.84 115.744 139.922L114.74 141.53L116.691 141.458C116.763 141.451 116.836 141.459 116.904 141.482C116.972 141.505 117.035 141.543 117.087 141.592C117.14 141.642 117.181 141.702 117.209 141.769C117.236 141.835 117.249 141.907 117.246 141.979C117.247 142.116 117.198 142.248 117.107 142.351C117.055 142.402 116.993 142.442 116.924 142.468C116.855 142.494 116.781 142.505 116.708 142.5L114.751 142.439L115.721 144.019C115.776 144.107 115.805 144.209 115.804 144.313C115.803 144.386 115.787 144.458 115.757 144.524C115.728 144.591 115.685 144.651 115.633 144.701C115.584 144.753 115.526 144.794 115.461 144.823C115.396 144.852 115.326 144.867 115.256 144.867C115.161 144.866 115.07 144.837 114.992 144.783C114.914 144.73 114.853 144.655 114.818 144.568L113.886 142.905L112.966 144.568C112.925 144.658 112.858 144.734 112.774 144.787C112.691 144.84 112.594 144.868 112.495 144.867Z" fill="#263238"/>
<path d="M121.487 144.867C121.341 144.867 121.202 144.809 121.099 144.707C120.994 144.604 120.935 144.465 120.933 144.319C120.931 144.219 120.958 144.121 121.01 144.036L122.008 142.439L120.068 142.5C119.994 142.504 119.92 142.492 119.85 142.466C119.781 142.441 119.717 142.401 119.663 142.351C119.573 142.249 119.523 142.118 119.523 141.982C119.523 141.846 119.573 141.715 119.663 141.613C119.717 141.561 119.78 141.521 119.85 141.494C119.919 141.468 119.993 141.455 120.068 141.458L121.986 141.53L121.005 139.939C120.951 139.852 120.922 139.753 120.921 139.651C120.923 139.578 120.939 139.506 120.969 139.44C120.998 139.373 121.041 139.313 121.093 139.263C121.197 139.16 121.336 139.102 121.481 139.102C121.576 139.102 121.668 139.13 121.748 139.181C121.827 139.232 121.891 139.305 121.93 139.39L122.873 141.103L123.81 139.401C123.854 139.31 123.923 139.233 124.008 139.179C124.093 139.124 124.191 139.094 124.292 139.091C124.362 139.09 124.432 139.105 124.496 139.134C124.56 139.163 124.617 139.205 124.664 139.257C124.715 139.309 124.756 139.37 124.783 139.438C124.811 139.505 124.825 139.578 124.824 139.651C124.822 139.746 124.796 139.84 124.747 139.922L123.743 141.53L125.695 141.458C125.766 141.451 125.839 141.459 125.907 141.482C125.975 141.505 126.038 141.543 126.09 141.592C126.143 141.642 126.184 141.702 126.212 141.769C126.239 141.835 126.252 141.907 126.249 141.979C126.25 142.116 126.201 142.248 126.11 142.351C126.058 142.402 125.996 142.442 125.927 142.468C125.858 142.494 125.785 142.505 125.711 142.5L123.754 142.439L124.724 144.019C124.779 144.107 124.808 144.209 124.808 144.313C124.808 144.386 124.793 144.459 124.763 144.526C124.734 144.592 124.69 144.652 124.636 144.701C124.588 144.753 124.529 144.794 124.464 144.823C124.4 144.852 124.33 144.867 124.259 144.867C124.165 144.866 124.073 144.837 123.995 144.783C123.917 144.73 123.857 144.655 123.821 144.568L122.889 142.905L121.969 144.568C121.927 144.66 121.859 144.737 121.773 144.79C121.687 144.843 121.588 144.87 121.487 144.867Z" fill="#263238"/>
<path d="M130.479 144.867C130.334 144.867 130.194 144.809 130.091 144.707C130.005 144.62 129.95 144.507 129.935 144.385C129.92 144.264 129.946 144.141 130.008 144.036L131 142.439L129.06 142.5C128.986 142.504 128.912 142.492 128.842 142.466C128.773 142.441 128.709 142.401 128.655 142.351C128.565 142.249 128.515 142.118 128.515 141.982C128.515 141.846 128.565 141.715 128.655 141.613C128.709 141.561 128.772 141.521 128.842 141.494C128.911 141.468 128.985 141.455 129.06 141.458L130.978 141.53L129.991 139.939C129.937 139.852 129.909 139.753 129.908 139.651C129.91 139.504 129.97 139.365 130.074 139.263C130.178 139.16 130.317 139.102 130.462 139.102C130.557 139.102 130.649 139.13 130.729 139.181C130.808 139.232 130.871 139.305 130.911 139.39L131.854 141.103L132.791 139.401C132.835 139.31 132.904 139.233 132.989 139.179C133.074 139.124 133.172 139.094 133.273 139.091C133.344 139.09 133.414 139.105 133.479 139.134C133.544 139.162 133.602 139.204 133.65 139.257C133.752 139.363 133.808 139.504 133.805 139.651C133.803 139.746 133.777 139.84 133.728 139.922L132.724 141.53L134.676 141.458C134.747 141.451 134.82 141.459 134.888 141.482C134.956 141.505 135.019 141.543 135.071 141.592C135.124 141.642 135.165 141.702 135.193 141.769C135.22 141.835 135.233 141.907 135.23 141.979C135.231 142.116 135.182 142.248 135.091 142.351C135.039 142.402 134.977 142.442 134.908 142.468C134.839 142.494 134.766 142.505 134.692 142.5L132.735 142.439L133.705 144.019C133.76 144.107 133.789 144.209 133.789 144.313C133.789 144.386 133.774 144.459 133.744 144.526C133.715 144.592 133.671 144.652 133.617 144.701C133.569 144.753 133.51 144.794 133.445 144.823C133.381 144.852 133.311 144.867 133.24 144.867C133.146 144.866 133.054 144.837 132.976 144.783C132.898 144.73 132.838 144.655 132.802 144.568L131.87 142.905L130.95 144.568C130.909 144.658 130.842 144.734 130.759 144.787C130.675 144.84 130.578 144.868 130.479 144.867Z" fill="#263238"/>
<path d="M139.471 144.867C139.328 144.865 139.19 144.808 139.088 144.707C139.034 144.658 138.99 144.598 138.961 144.531C138.931 144.464 138.916 144.392 138.917 144.319C138.918 144.219 138.947 144.121 139 144.036L139.992 142.439L138.052 142.5C137.98 142.506 137.909 142.496 137.841 142.472C137.774 142.448 137.712 142.411 137.66 142.362C137.608 142.313 137.566 142.253 137.538 142.188C137.51 142.122 137.496 142.051 137.497 141.979C137.497 141.911 137.51 141.844 137.536 141.781C137.561 141.718 137.599 141.661 137.647 141.613C137.698 141.56 137.76 141.518 137.829 141.491C137.898 141.464 137.972 141.453 138.046 141.458L139.964 141.53L138.978 139.939C138.924 139.852 138.895 139.753 138.894 139.651C138.897 139.504 138.956 139.365 139.061 139.263C139.164 139.16 139.303 139.102 139.449 139.102C139.543 139.102 139.636 139.13 139.715 139.181C139.795 139.232 139.858 139.305 139.898 139.39L140.84 141.103L141.783 139.401C141.827 139.311 141.894 139.235 141.978 139.18C142.062 139.126 142.159 139.095 142.26 139.091C142.331 139.09 142.401 139.105 142.466 139.134C142.531 139.162 142.589 139.204 142.637 139.257C142.738 139.363 142.794 139.504 142.792 139.651C142.791 139.746 142.767 139.839 142.72 139.922L141.716 141.53L143.662 141.458C143.736 141.453 143.81 141.464 143.879 141.491C143.948 141.518 144.01 141.56 144.061 141.613C144.156 141.711 144.208 141.843 144.205 141.979C144.205 142.116 144.154 142.249 144.061 142.351C144.009 142.402 143.947 142.442 143.878 142.468C143.809 142.494 143.735 142.505 143.662 142.5L141.705 142.439L142.675 144.019C142.73 144.107 142.759 144.209 142.758 144.313C142.756 144.459 142.697 144.599 142.592 144.701C142.491 144.804 142.354 144.864 142.21 144.867C142.115 144.866 142.024 144.837 141.946 144.783C141.868 144.73 141.807 144.655 141.772 144.568L140.84 142.905L139.92 144.568C139.88 144.655 139.817 144.728 139.738 144.781C139.659 144.834 139.566 144.864 139.471 144.867Z" fill="#263238"/>
<g style="mix-blend-mode:multiply">
<path d="M167.44 32.5554H69.303V38.7035H167.44V32.5554Z" fill="#E43955"/>
</g>
<path d="M129.043 21.2294H107.699C107.314 21.2294 106.945 21.0764 106.672 20.804C106.4 20.5316 106.247 20.1622 106.247 19.7769C106.247 19.3917 106.4 19.0223 106.672 18.7499C106.945 18.4775 107.314 18.3245 107.699 18.3245H129.043C129.428 18.3245 129.798 18.4775 130.07 18.7499C130.343 19.0223 130.496 19.3917 130.496 19.7769C130.496 20.1622 130.343 20.5316 130.07 20.804C129.798 21.0764 129.428 21.2294 129.043 21.2294Z" fill="#E43955" stroke="#263238" stroke-width="1.33739" stroke-linecap="round" stroke-linejoin="round"/>
<path d="M124.192 200.089C124.193 198.938 123.853 197.811 123.214 196.853C122.574 195.895 121.665 195.148 120.601 194.707C119.538 194.266 118.367 194.15 117.237 194.374C116.107 194.599 115.07 195.153 114.255 195.968C113.441 196.782 112.886 197.82 112.662 198.949C112.437 200.079 112.553 201.25 112.994 202.314C113.436 203.378 114.183 204.287 115.141 204.926C116.099 205.565 117.225 205.906 118.377 205.905C119.919 205.903 121.397 205.29 122.487 204.2C123.578 203.11 124.191 201.631 124.192 200.089Z" fill="#E43955"/>
<path d="M121.326 197.14H115.428V203.039H121.326V197.14Z" fill="#E43955" stroke="#263238" stroke-width="1.33739" stroke-linecap="round" stroke-linejoin="round"/>
<path d="M188.639 133.153C188.639 133.153 180.911 113.517 187.791 111.183C194.953 108.75 194.637 121.716 194.36 128.036C193.778 141.541 192.287 144.052 191.173 140.754L188.639 133.153ZM186.316 148.471C188.439 151.243 189.038 148.371 185.207 135.404C183.411 129.306 179.508 116.971 173.521 121.6C167.772 126.035 181.454 142.112 181.454 142.112L186.316 148.471ZM182.214 159.725C184.237 161.521 184.276 159.254 179.47 149.89C177.213 145.505 172.44 136.629 168.532 141.02C164.779 145.255 177.568 155.55 177.568 155.55L182.214 159.725ZM177.779 173.108C179.802 174.909 179.841 172.636 175.035 163.278C172.778 158.893 168.005 150.012 164.097 154.408C160.366 158.655 173.116 168.95 173.116 168.95L177.779 173.108ZM190.585 145.865C187.347 147.129 189.92 148.504 203.441 148.465C209.783 148.465 222.733 148.177 219.973 141.131C217.328 134.362 198.069 142.983 198.069 142.983L190.585 145.865ZM186.898 154.868C183.472 155.462 185.723 157.324 198.984 159.974C205.198 161.222 217.944 163.522 216.641 156.094C215.393 148.931 194.804 153.555 194.804 153.555L186.898 154.868ZM182.774 165.862C179.858 166.283 181.72 167.907 192.869 170.458C198.097 171.655 208.824 173.9 207.893 167.564C207.006 161.466 189.487 164.914 189.487 164.914L182.774 165.862ZM179.641 176.046C176.786 176.772 178.81 178.191 190.175 179.544C195.497 180.176 206.401 181.274 204.81 175.07C203.275 169.116 186.222 174.388 186.222 174.388L179.641 176.046ZM196.35 134.816C194.687 138.542 198.141 137.976 209.883 127.732C215.382 122.925 226.415 112.869 217.678 107.862C209.29 103.05 200.27 126.268 200.27 126.268L196.35 134.816ZM180.074 189.312C178.316 190.338 180.041 190.737 188.101 189.129C191.882 188.381 199.571 186.718 196.971 183.436C194.455 180.276 184.143 186.928 184.143 186.928L180.074 189.312Z" fill="#E43955"/>
<path opacity="0.3" d="M188.639 133.153C188.639 133.153 180.911 113.517 187.791 111.183C194.953 108.75 194.637 121.716 194.36 128.036C193.778 141.541 192.287 144.052 191.173 140.754L188.639 133.153ZM186.316 148.471C188.439 151.243 189.038 148.371 185.207 135.404C183.411 129.306 179.508 116.971 173.521 121.6C167.772 126.035 181.454 142.112 181.454 142.112L186.316 148.471ZM182.214 159.725C184.237 161.521 184.276 159.254 179.47 149.89C177.213 145.505 172.44 136.629 168.532 141.02C164.779 145.255 177.568 155.55 177.568 155.55L182.214 159.725ZM177.779 173.108C179.802 174.909 179.841 172.636 175.035 163.278C172.778 158.893 168.005 150.012 164.097 154.408C160.366 158.655 173.116 168.95 173.116 168.95L177.779 173.108ZM190.585 145.865C187.347 147.129 189.92 148.504 203.441 148.465C209.783 148.465 222.733 148.177 219.973 141.131C217.328 134.362 198.069 142.983 198.069 142.983L190.585 145.865ZM186.898 154.868C183.472 155.462 185.723 157.324 198.984 159.974C205.198 161.222 217.944 163.522 216.641 156.094C215.393 148.931 194.804 153.555 194.804 153.555L186.898 154.868ZM182.774 165.862C179.858 166.283 181.72 167.907 192.869 170.458C198.097 171.655 208.824 173.9 207.893 167.564C207.006 161.466 189.487 164.914 189.487 164.914L182.774 165.862ZM179.641 176.046C176.786 176.772 178.81 178.191 190.175 179.544C195.497 180.176 206.401 181.274 204.81 175.07C203.275 169.116 186.222 174.388 186.222 174.388L179.641 176.046ZM196.35 134.816C194.687 138.542 198.141 137.976 209.883 127.732C215.382 122.925 226.415 112.869 217.678 107.862C209.29 103.05 200.27 126.268 200.27 126.268L196.35 134.816ZM180.074 189.312C178.316 190.338 180.041 190.737 188.101 189.129C191.882 188.381 199.571 186.718 196.971 183.436C194.455 180.276 184.143 186.928 184.143 186.928L180.074 189.312Z" fill="white"/>
<path d="M192.048 142.295L190.701 119.881L192.048 142.295ZM187.785 149.691L179.27 130.415L187.785 149.691ZM209.761 144.086L189.354 147.013L209.761 144.086ZM183.372 160.08L172.324 145.904L183.372 160.08ZM185.313 155.733L200.536 156.498L185.313 155.733ZM181.709 166.605L193.351 167.758L181.709 166.605ZM178.899 173.512L173.116 164.814L178.899 173.512ZM178.233 176.584L191.921 176.711L178.233 176.584ZM175.461 202.262C175.553 202.255 175.638 202.212 175.699 202.143C175.759 202.073 175.789 201.983 175.783 201.891C174.913 188.819 179.969 167.409 188.079 149.835C193.263 138.603 213.581 116.527 213.797 116.306C213.862 116.24 213.899 116.152 213.899 116.059C213.899 115.967 213.862 115.878 213.797 115.812C213.765 115.78 213.727 115.755 213.685 115.737C213.643 115.72 213.598 115.711 213.553 115.711C213.508 115.711 213.463 115.72 213.421 115.737C213.379 115.755 213.341 115.78 213.309 115.812C213.104 116.034 192.703 138.193 187.475 149.524C179.215 167.525 174.225 188.547 175.112 201.935C175.119 202.024 175.159 202.106 175.223 202.167C175.288 202.227 175.373 202.261 175.461 202.262ZM192.043 142.639C192.135 142.633 192.22 142.591 192.282 142.523C192.343 142.455 192.375 142.365 192.37 142.273L191.045 119.848C191.043 119.803 191.032 119.758 191.012 119.717C190.993 119.675 190.965 119.638 190.931 119.608C190.897 119.577 190.857 119.554 190.814 119.539C190.771 119.524 190.725 119.518 190.679 119.521C190.587 119.527 190.502 119.568 190.441 119.637C190.379 119.705 190.348 119.795 190.352 119.887L191.699 142.301C191.703 142.389 191.742 142.472 191.806 142.533C191.87 142.594 191.955 142.628 192.043 142.628V142.639ZM187.907 150.007C187.99 149.969 188.055 149.9 188.089 149.815C188.122 149.73 188.12 149.636 188.085 149.552L179.564 130.276C179.527 130.192 179.459 130.127 179.373 130.093C179.288 130.06 179.193 130.062 179.109 130.099C179.025 130.135 178.96 130.204 178.926 130.289C178.893 130.375 178.895 130.469 178.932 130.553L187.447 149.829C187.474 149.891 187.518 149.944 187.574 149.981C187.63 150.019 187.696 150.039 187.763 150.04C187.82 150.043 187.878 150.031 187.929 150.007H187.907ZM189.382 147.345L209.778 144.429C209.827 144.428 209.875 144.417 209.92 144.396C209.964 144.375 210.004 144.345 210.036 144.307C210.068 144.27 210.092 144.226 210.105 144.179C210.119 144.131 210.123 144.082 210.116 144.033C210.11 143.984 210.093 143.937 210.067 143.895C210.041 143.854 210.006 143.818 209.965 143.79C209.924 143.763 209.878 143.744 209.829 143.736C209.781 143.728 209.731 143.73 209.683 143.742L189.288 146.658C189.197 146.664 189.111 146.706 189.051 146.774C188.991 146.843 188.96 146.933 188.966 147.024C188.972 147.115 189.014 147.2 189.082 147.26C189.151 147.321 189.241 147.351 189.332 147.345H189.382ZM183.566 160.357C183.639 160.3 183.686 160.217 183.697 160.125C183.709 160.034 183.684 159.942 183.627 159.869L172.573 145.666C172.516 145.592 172.433 145.544 172.341 145.532C172.249 145.52 172.156 145.545 172.082 145.602C172.009 145.659 171.961 145.742 171.949 145.834C171.937 145.926 171.962 146.019 172.019 146.093L183.095 160.318C183.127 160.359 183.169 160.393 183.216 160.416C183.263 160.439 183.314 160.451 183.367 160.451C183.45 160.447 183.528 160.414 183.589 160.357H183.566ZM200.841 156.515C200.844 156.423 200.811 156.334 200.749 156.267C200.686 156.199 200.6 156.159 200.508 156.155L185.313 155.384C185.227 155.39 185.147 155.427 185.087 155.488C185.027 155.549 184.992 155.63 184.988 155.716C184.984 155.801 185.011 155.885 185.065 155.952C185.119 156.018 185.195 156.063 185.279 156.077L200.503 156.848C200.595 156.851 200.684 156.817 200.751 156.755C200.819 156.693 200.859 156.607 200.863 156.515H200.841ZM193.673 167.791C193.678 167.745 193.674 167.699 193.662 167.655C193.649 167.611 193.627 167.57 193.598 167.534C193.569 167.499 193.534 167.469 193.493 167.448C193.453 167.426 193.408 167.413 193.362 167.409L181.72 166.261C181.675 166.256 181.63 166.261 181.586 166.274C181.543 166.287 181.502 166.309 181.467 166.338C181.432 166.366 181.403 166.402 181.382 166.442C181.361 166.482 181.348 166.526 181.343 166.571C181.336 166.662 181.364 166.753 181.422 166.823C181.48 166.894 181.563 166.939 181.654 166.948L193.296 168.102H193.329C193.419 168.108 193.507 168.079 193.575 168.021C193.644 167.963 193.687 167.88 193.695 167.791H193.673ZM179.065 173.801C179.142 173.75 179.196 173.67 179.214 173.58C179.233 173.49 179.215 173.396 179.165 173.318L173.41 164.62C173.358 164.545 173.278 164.493 173.188 164.476C173.098 164.458 173.005 164.476 172.928 164.526C172.851 164.577 172.797 164.656 172.779 164.746C172.76 164.837 172.778 164.931 172.828 165.008L178.583 173.706C178.615 173.754 178.659 173.793 178.711 173.82C178.762 173.847 178.819 173.861 178.876 173.862C178.952 173.866 179.026 173.844 179.087 173.801H179.065ZM192.27 176.711C192.269 176.62 192.232 176.533 192.168 176.468C192.104 176.402 192.018 176.365 191.927 176.362L178.239 176.234C178.148 176.234 178.06 176.27 177.996 176.335C177.931 176.399 177.895 176.487 177.895 176.578C177.894 176.624 177.901 176.669 177.918 176.712C177.935 176.755 177.96 176.794 177.992 176.826C178.024 176.859 178.063 176.885 178.105 176.902C178.148 176.919 178.193 176.928 178.239 176.927L191.927 177.055C191.973 177.057 192.02 177.05 192.064 177.034C192.108 177.017 192.148 176.993 192.182 176.96C192.216 176.928 192.244 176.89 192.263 176.847C192.282 176.804 192.292 176.758 192.292 176.711H192.27ZM173.904 197.179C173.931 197.118 176.265 190.687 183.284 189.151C183.374 189.131 183.453 189.076 183.503 188.999C183.553 188.921 183.57 188.826 183.55 188.736C183.527 188.647 183.472 188.57 183.394 188.522C183.317 188.473 183.224 188.457 183.134 188.475C175.733 190.094 173.277 196.885 173.249 196.951C173.221 197.039 173.227 197.134 173.268 197.217C173.308 197.3 173.379 197.364 173.466 197.395H173.577C173.65 197.401 173.724 197.384 173.787 197.345C173.85 197.306 173.899 197.248 173.926 197.179H173.904ZM175.461 202.262C175.553 202.255 175.638 202.212 175.699 202.143C175.759 202.073 175.789 201.983 175.783 201.891C174.913 188.819 179.969 167.409 188.079 149.835C193.263 138.603 213.581 116.527 213.797 116.306C213.862 116.24 213.899 116.152 213.899 116.059C213.899 115.967 213.862 115.878 213.797 115.812C213.765 115.78 213.727 115.755 213.685 115.737C213.643 115.72 213.598 115.711 213.553 115.711C213.508 115.711 213.463 115.72 213.421 115.737C213.379 115.755 213.341 115.78 213.309 115.812C213.104 116.034 192.703 138.193 187.475 149.524C179.215 167.525 174.225 188.547 175.112 201.935C175.119 202.024 175.159 202.106 175.223 202.167C175.288 202.227 175.373 202.261 175.461 202.262ZM192.043 142.639C192.135 142.633 192.22 142.591 192.282 142.523C192.343 142.455 192.375 142.365 192.37 142.273L191.045 119.848C191.043 119.803 191.032 119.758 191.012 119.717C190.993 119.675 190.965 119.638 190.931 119.608C190.897 119.577 190.857 119.554 190.814 119.539C190.771 119.524 190.725 119.518 190.679 119.521C190.587 119.527 190.502 119.568 190.441 119.637C190.379 119.705 190.348 119.795 190.352 119.887L191.699 142.301C191.703 142.389 191.742 142.472 191.806 142.533C191.87 142.594 191.955 142.628 192.043 142.628V142.639ZM187.907 150.007C187.99 149.969 188.055 149.9 188.089 149.815C188.122 149.73 188.12 149.636 188.085 149.552L179.564 130.276C179.527 130.192 179.459 130.127 179.373 130.093C179.288 130.06 179.193 130.062 179.109 130.099C179.025 130.135 178.96 130.204 178.926 130.289C178.893 130.375 178.895 130.469 178.932 130.553L187.447 149.829C187.474 149.891 187.518 149.944 187.574 149.981C187.63 150.019 187.696 150.039 187.763 150.04C187.82 150.043 187.878 150.031 187.929 150.007H187.907ZM189.382 147.345L209.778 144.429C209.827 144.428 209.875 144.417 209.92 144.396C209.964 144.375 210.004 144.345 210.036 144.307C210.068 144.27 210.092 144.226 210.105 144.179C210.119 144.131 210.123 144.082 210.116 144.033C210.11 143.984 210.093 143.937 210.067 143.895C210.041 143.854 210.006 143.818 209.965 143.79C209.924 143.763 209.878 143.744 209.829 143.736C209.781 143.728 209.731 143.73 209.683 143.742L189.288 146.658C189.197 146.664 189.111 146.706 189.051 146.774C188.991 146.843 188.96 146.933 188.966 147.024C188.972 147.115 189.014 147.2 189.082 147.26C189.151 147.321 189.241 147.351 189.332 147.345H189.382ZM183.566 160.357C183.639 160.3 183.686 160.217 183.697 160.125C183.709 160.034 183.684 159.942 183.627 159.869L172.573 145.666C172.545 145.629 172.51 145.599 172.47 145.576C172.43 145.553 172.387 145.538 172.341 145.532C172.295 145.526 172.249 145.529 172.205 145.541C172.16 145.553 172.119 145.574 172.082 145.602C172.046 145.63 172.016 145.665 171.993 145.705C171.97 145.745 171.955 145.789 171.949 145.834C171.943 145.88 171.946 145.926 171.958 145.97C171.97 146.015 171.991 146.056 172.019 146.093L183.095 160.318C183.127 160.359 183.169 160.393 183.216 160.416C183.263 160.439 183.314 160.451 183.367 160.451C183.45 160.447 183.528 160.414 183.589 160.357H183.566ZM200.841 156.515C200.844 156.423 200.811 156.334 200.749 156.267C200.686 156.199 200.6 156.159 200.508 156.155L185.313 155.384C185.227 155.39 185.147 155.427 185.087 155.488C185.027 155.549 184.992 155.63 184.988 155.716C184.984 155.801 185.011 155.885 185.065 155.952C185.119 156.018 185.195 156.063 185.279 156.077L200.503 156.848C200.595 156.851 200.684 156.817 200.751 156.755C200.819 156.693 200.859 156.607 200.863 156.515H200.841ZM193.673 167.791C193.678 167.745 193.674 167.699 193.662 167.655C193.649 167.611 193.627 167.57 193.598 167.534C193.569 167.499 193.534 167.469 193.493 167.448C193.453 167.426 193.408 167.413 193.362 167.409L181.72 166.261C181.675 166.256 181.63 166.261 181.586 166.274C181.543 166.287 181.502 166.309 181.467 166.338C181.432 166.366 181.403 166.402 181.382 166.442C181.361 166.482 181.348 166.526 181.343 166.571C181.336 166.662 181.364 166.753 181.422 166.823C181.48 166.894 181.563 166.939 181.654 166.948L193.296 168.102H193.329C193.419 168.108 193.507 168.079 193.575 168.021C193.644 167.963 193.687 167.88 193.695 167.791H193.673ZM179.065 173.801C179.142 173.75 179.196 173.67 179.214 173.58C179.233 173.49 179.215 173.396 179.165 173.318L173.41 164.62C173.358 164.545 173.278 164.493 173.188 164.476C173.098 164.458 173.005 164.476 172.928 164.526C172.851 164.577 172.797 164.656 172.779 164.746C172.76 164.837 172.778 164.931 172.828 165.008L178.583 173.706C178.615 173.754 178.659 173.793 178.711 173.82C178.762 173.847 178.819 173.861 178.876 173.862C178.952 173.866 179.026 173.844 179.087 173.801H179.065ZM192.27 176.711C192.269 176.62 192.232 176.533 192.168 176.468C192.104 176.402 192.018 176.365 191.927 176.362L178.239 176.234C178.148 176.234 178.06 176.27 177.996 176.335C177.931 176.399 177.895 176.487 177.895 176.578C177.894 176.624 177.901 176.669 177.918 176.712C177.935 176.755 177.96 176.794 177.992 176.826C178.024 176.859 178.063 176.885 178.105 176.902C178.148 176.919 178.193 176.928 178.239 176.927L191.927 177.055C191.973 177.057 192.02 177.05 192.064 177.034C192.108 177.017 192.148 176.993 192.182 176.96C192.216 176.928 192.244 176.89 192.263 176.847C192.282 176.804 192.292 176.758 192.292 176.711H192.27ZM173.904 197.179C173.931 197.118 176.265 190.687 183.284 189.151C183.374 189.131 183.453 189.076 183.503 188.999C183.553 188.921 183.57 188.826 183.55 188.736C183.527 188.647 183.472 188.57 183.394 188.522C183.317 188.473 183.224 188.457 183.134 188.475C175.733 190.094 173.277 196.885 173.249 196.951C173.221 197.039 173.227 197.134 173.268 197.217C173.308 197.3 173.379 197.364 173.466 197.395H173.577C173.65 197.401 173.724 197.384 173.787 197.345C173.85 197.306 173.899 197.248 173.926 197.179H173.904Z" fill="#E43955"/>
<path opacity="0.2" d="M192.048 142.295L190.701 119.881L192.048 142.295ZM187.785 149.691L179.27 130.415L187.785 149.691ZM209.761 144.086L189.354 147.013L209.761 144.086ZM183.372 160.08L172.324 145.904L183.372 160.08ZM185.313 155.733L200.536 156.498L185.313 155.733ZM181.709 166.605L193.351 167.758L181.709 166.605ZM178.899 173.512L173.116 164.814L178.899 173.512ZM178.233 176.584L191.921 176.711L178.233 176.584ZM175.461 202.262C175.553 202.255 175.638 202.212 175.699 202.143C175.759 202.073 175.789 201.983 175.783 201.891C174.913 188.819 179.969 167.409 188.079 149.835C193.263 138.603 213.581 116.527 213.797 116.306C213.862 116.24 213.899 116.152 213.899 116.059C213.899 115.967 213.862 115.878 213.797 115.812C213.765 115.78 213.727 115.755 213.685 115.737C213.643 115.72 213.598 115.711 213.553 115.711C213.508 115.711 213.463 115.72 213.421 115.737C213.379 115.755 213.341 115.78 213.309 115.812C213.104 116.034 192.703 138.193 187.475 149.524C179.215 167.525 174.225 188.547 175.112 201.935C175.119 202.024 175.159 202.106 175.223 202.167C175.288 202.227 175.373 202.261 175.461 202.262ZM192.043 142.639C192.135 142.633 192.22 142.591 192.282 142.523C192.343 142.455 192.375 142.365 192.37 142.273L191.045 119.848C191.043 119.803 191.032 119.758 191.012 119.717C190.993 119.675 190.965 119.638 190.931 119.608C190.897 119.577 190.857 119.554 190.814 119.539C190.771 119.524 190.725 119.518 190.679 119.521C190.587 119.527 190.502 119.568 190.441 119.637C190.379 119.705 190.348 119.795 190.352 119.887L191.699 142.301C191.703 142.389 191.742 142.472 191.806 142.533C191.87 142.594 191.955 142.628 192.043 142.628V142.639ZM187.907 150.007C187.99 149.969 188.055 149.9 188.089 149.815C188.122 149.73 188.12 149.636 188.085 149.552L179.564 130.276C179.527 130.192 179.459 130.127 179.373 130.093C179.288 130.06 179.193 130.062 179.109 130.099C179.025 130.135 178.96 130.204 178.926 130.289C178.893 130.375 178.895 130.469 178.932 130.553L187.447 149.829C187.474 149.891 187.518 149.944 187.574 149.981C187.63 150.019 187.696 150.039 187.763 150.04C187.82 150.043 187.878 150.031 187.929 150.007H187.907ZM189.382 147.345L209.778 144.429C209.827 144.428 209.875 144.417 209.92 144.396C209.964 144.375 210.004 144.345 210.036 144.307C210.068 144.27 210.092 144.226 210.105 144.179C210.119 144.131 210.123 144.082 210.116 144.033C210.11 143.984 210.093 143.937 210.067 143.895C210.041 143.854 210.006 143.818 209.965 143.79C209.924 143.763 209.878 143.744 209.829 143.736C209.781 143.728 209.731 143.73 209.683 143.742L189.288 146.658C189.197 146.664 189.111 146.706 189.051 146.774C188.991 146.843 188.96 146.933 188.966 147.024C188.972 147.115 189.014 147.2 189.082 147.26C189.151 147.321 189.241 147.351 189.332 147.345H189.382ZM183.566 160.357C183.639 160.3 183.686 160.217 183.697 160.125C183.709 160.034 183.684 159.942 183.627 159.869L172.573 145.666C172.516 145.592 172.433 145.544 172.341 145.532C172.249 145.52 172.156 145.545 172.082 145.602C172.009 145.659 171.961 145.742 171.949 145.834C171.937 145.926 171.962 146.019 172.019 146.093L183.095 160.318C183.127 160.359 183.169 160.393 183.216 160.416C183.263 160.439 183.314 160.451 183.367 160.451C183.45 160.447 183.528 160.414 183.589 160.357H183.566ZM200.841 156.515C200.844 156.423 200.811 156.334 200.749 156.267C200.686 156.199 200.6 156.159 200.508 156.155L185.313 155.384C185.227 155.39 185.147 155.427 185.087 155.488C185.027 155.549 184.992 155.63 184.988 155.716C184.984 155.801 185.011 155.885 185.065 155.952C185.119 156.018 185.195 156.063 185.279 156.077L200.503 156.848C200.595 156.851 200.684 156.817 200.751 156.755C200.819 156.693 200.859 156.607 200.863 156.515H200.841ZM193.673 167.791C193.678 167.745 193.674 167.699 193.662 167.655C193.649 167.611 193.627 167.57 193.598 167.534C193.569 167.499 193.534 167.469 193.493 167.448C193.453 167.426 193.408 167.413 193.362 167.409L181.72 166.261C181.675 166.256 181.63 166.261 181.586 166.274C181.543 166.287 181.502 166.309 181.467 166.338C181.432 166.366 181.403 166.402 181.382 166.442C181.361 166.482 181.348 166.526 181.343 166.571C181.336 166.662 181.364 166.753 181.422 166.823C181.48 166.894 181.563 166.939 181.654 166.948L193.296 168.102H193.329C193.419 168.108 193.507 168.079 193.575 168.021C193.644 167.963 193.687 167.88 193.695 167.791H193.673ZM179.065 173.801C179.142 173.75 179.196 173.67 179.214 173.58C179.233 173.49 179.215 173.396 179.165 173.318L173.41 164.62C173.358 164.545 173.278 164.493 173.188 164.476C173.098 164.458 173.005 164.476 172.928 164.526C172.851 164.577 172.797 164.656 172.779 164.746C172.76 164.837 172.778 164.931 172.828 165.008L178.583 173.706C178.615 173.754 178.659 173.793 178.711 173.82C178.762 173.847 178.819 173.861 178.876 173.862C178.952 173.866 179.026 173.844 179.087 173.801H179.065ZM192.27 176.711C192.269 176.62 192.232 176.533 192.168 176.468C192.104 176.402 192.018 176.365 191.927 176.362L178.239 176.234C178.148 176.234 178.06 176.27 177.996 176.335C177.931 176.399 177.895 176.487 177.895 176.578C177.894 176.624 177.901 176.669 177.918 176.712C177.935 176.755 177.96 176.794 177.992 176.826C178.024 176.859 178.063 176.885 178.105 176.902C178.148 176.919 178.193 176.928 178.239 176.927L191.927 177.055C191.973 177.057 192.02 177.05 192.064 177.034C192.108 177.017 192.148 176.993 192.182 176.96C192.216 176.928 192.244 176.89 192.263 176.847C192.282 176.804 192.292 176.758 192.292 176.711H192.27ZM173.904 197.179C173.931 197.118 176.265 190.687 183.284 189.151C183.374 189.131 183.453 189.076 183.503 188.999C183.553 188.921 183.57 188.826 183.55 188.736C183.527 188.647 183.472 188.57 183.394 188.522C183.317 188.473 183.224 188.457 183.134 188.475C175.733 190.094 173.277 196.885 173.249 196.951C173.221 197.039 173.227 197.134 173.268 197.217C173.308 197.3 173.379 197.364 173.466 197.395H173.577C173.65 197.401 173.724 197.384 173.787 197.345C173.85 197.306 173.899 197.248 173.926 197.179H173.904ZM175.461 202.262C175.553 202.255 175.638 202.212 175.699 202.143C175.759 202.073 175.789 201.983 175.783 201.891C174.913 188.819 179.969 167.409 188.079 149.835C193.263 138.603 213.581 116.527 213.797 116.306C213.862 116.24 213.899 116.152 213.899 116.059C213.899 115.967 213.862 115.878 213.797 115.812C213.765 115.78 213.727 115.755 213.685 115.737C213.643 115.72 213.598 115.711 213.553 115.711C213.508 115.711 213.463 115.72 213.421 115.737C213.379 115.755 213.341 115.78 213.309 115.812C213.104 116.034 192.703 138.193 187.475 149.524C179.215 167.525 174.225 188.547 175.112 201.935C175.119 202.024 175.159 202.106 175.223 202.167C175.288 202.227 175.373 202.261 175.461 202.262ZM192.043 142.639C192.135 142.633 192.22 142.591 192.282 142.523C192.343 142.455 192.375 142.365 192.37 142.273L191.045 119.848C191.043 119.803 191.032 119.758 191.012 119.717C190.993 119.675 190.965 119.638 190.931 119.608C190.897 119.577 190.857 119.554 190.814 119.539C190.771 119.524 190.725 119.518 190.679 119.521C190.587 119.527 190.502 119.568 190.441 119.637C190.379 119.705 190.348 119.795 190.352 119.887L191.699 142.301C191.703 142.389 191.742 142.472 191.806 142.533C191.87 142.594 191.955 142.628 192.043 142.628V142.639ZM187.907 150.007C187.99 149.969 188.055 149.9 188.089 149.815C188.122 149.73 188.12 149.636 188.085 149.552L179.564 130.276C179.527 130.192 179.459 130.127 179.373 130.093C179.288 130.06 179.193 130.062 179.109 130.099C179.025 130.135 178.96 130.204 178.926 130.289C178.893 130.375 178.895 130.469 178.932 130.553L187.447 149.829C187.474 149.891 187.518 149.944 187.574 149.981C187.63 150.019 187.696 150.039 187.763 150.04C187.82 150.043 187.878 150.031 187.929 150.007H187.907ZM189.382 147.345L209.778 144.429C209.827 144.428 209.875 144.417 209.92 144.396C209.964 144.375 210.004 144.345 210.036 144.307C210.068 144.27 210.092 144.226 210.105 144.179C210.119 144.131 210.123 144.082 210.116 144.033C210.11 143.984 210.093 143.937 210.067 143.895C210.041 143.854 210.006 143.818 209.965 143.79C209.924 143.763 209.878 143.744 209.829 143.736C209.781 143.728 209.731 143.73 209.683 143.742L189.288 146.658C189.197 146.664 189.111 146.706 189.051 146.774C188.991 146.843 188.96 146.933 188.966 147.024C188.972 147.115 189.014 147.2 189.082 147.26C189.151 147.321 189.241 147.351 189.332 147.345H189.382ZM183.566 160.357C183.639 160.3 183.686 160.217 183.697 160.125C183.709 160.034 183.684 159.942 183.627 159.869L172.573 145.666C172.545 145.629 172.51 145.599 172.47 145.576C172.43 145.553 172.387 145.538 172.341 145.532C172.295 145.526 172.249 145.529 172.205 145.541C172.16 145.553 172.119 145.574 172.082 145.602C172.046 145.63 172.016 145.665 171.993 145.705C171.97 145.745 171.955 145.789 171.949 145.834C171.943 145.88 171.946 145.926 171.958 145.97C171.97 146.015 171.991 146.056 172.019 146.093L183.095 160.318C183.127 160.359 183.169 160.393 183.216 160.416C183.263 160.439 183.314 160.451 183.367 160.451C183.45 160.447 183.528 160.414 183.589 160.357H183.566ZM200.841 156.515C200.844 156.423 200.811 156.334 200.749 156.267C200.686 156.199 200.6 156.159 200.508 156.155L185.313 155.384C185.227 155.39 185.147 155.427 185.087 155.488C185.027 155.549 184.992 155.63 184.988 155.716C184.984 155.801 185.011 155.885 185.065 155.952C185.119 156.018 185.195 156.063 185.279 156.077L200.503 156.848C200.595 156.851 200.684 156.817 200.751 156.755C200.819 156.693 200.859 156.607 200.863 156.515H200.841ZM193.673 167.791C193.678 167.745 193.674 167.699 193.662 167.655C193.649 167.611 193.627 167.57 193.598 167.534C193.569 167.499 193.534 167.469 193.493 167.448C193.453 167.426 193.408 167.413 193.362 167.409L181.72 166.261C181.675 166.256 181.63 166.261 181.586 166.274C181.543 166.287 181.502 166.309 181.467 166.338C181.432 166.366 181.403 166.402 181.382 166.442C181.361 166.482 181.348 166.526 181.343 166.571C181.336 166.662 181.364 166.753 181.422 166.823C181.48 166.894 181.563 166.939 181.654 166.948L193.296 168.102H193.329C193.419 168.108 193.507 168.079 193.575 168.021C193.644 167.963 193.687 167.88 193.695 167.791H193.673ZM179.065 173.801C179.142 173.75 179.196 173.67 179.214 173.58C179.233 173.49 179.215 173.396 179.165 173.318L173.41 164.62C173.358 164.545 173.278 164.493 173.188 164.476C173.098 164.458 173.005 164.476 172.928 164.526C172.851 164.577 172.797 164.656 172.779 164.746C172.76 164.837 172.778 164.931 172.828 165.008L178.583 173.706C178.615 173.754 178.659 173.793 178.711 173.82C178.762 173.847 178.819 173.861 178.876 173.862C178.952 173.866 179.026 173.844 179.087 173.801H179.065ZM192.27 176.711C192.269 176.62 192.232 176.533 192.168 176.468C192.104 176.402 192.018 176.365 191.927 176.362L178.239 176.234C178.148 176.234 178.06 176.27 177.996 176.335C177.931 176.399 177.895 176.487 177.895 176.578C177.894 176.624 177.901 176.669 177.918 176.712C177.935 176.755 177.96 176.794 177.992 176.826C178.024 176.859 178.063 176.885 178.105 176.902C178.148 176.919 178.193 176.928 178.239 176.927L191.927 177.055C191.973 177.057 192.02 177.05 192.064 177.034C192.108 177.017 192.148 176.993 192.182 176.96C192.216 176.928 192.244 176.89 192.263 176.847C192.282 176.804 192.292 176.758 192.292 176.711H192.27ZM173.904 197.179C173.931 197.118 176.265 190.687 183.284 189.151C183.374 189.131 183.453 189.076 183.503 188.999C183.553 188.921 183.57 188.826 183.55 188.736C183.527 188.647 183.472 188.57 183.394 188.522C183.317 188.473 183.224 188.457 183.134 188.475C175.733 190.094 173.277 196.885 173.249 196.951C173.221 197.039 173.227 197.134 173.268 197.217C173.308 197.3 173.379 197.364 173.466 197.395H173.577C173.65 197.401 173.724 197.384 173.787 197.345C173.85 197.306 173.899 197.248 173.926 197.179H173.904Z" fill="black"/>
<path d="M184.514 192.489H168.82V195.737H170.189L173.022 213.461H180.312L183.145 195.737H184.514V192.489Z" fill="#E43955"/>
<path opacity="0.3" d="M184.514 192.489H168.82V195.737H170.189L173.022 213.461H180.312L183.145 195.737H184.514V192.489Z" fill="white"/>
<path d="M43.2139 94.2524L24.9581 88.2928L23.3338 84.0019L19.625 83.8855L12.8948 82.6104L13.7042 84.0019L22.1751 90.15L24.2652 91.1923L43.358 101.166L43.2139 94.2524Z" fill="white" stroke="#263238" stroke-width="1.00396" stroke-miterlimit="10"/>
<path d="M23.3338 84.0019L21.593 82.9597L18.1171 84.2348L18.6936 84.9278L23.3338 84.0019Z" fill="white" stroke="#263238" stroke-width="1.00396" stroke-linejoin="round"/>
<path d="M43.2139 94.2524L24.9581 88.2928L23.3338 84.0019L19.625 83.8855L12.8948 82.6104L13.7042 84.0019L22.1751 90.15L24.2652 91.1923L43.358 101.166L43.2139 94.2524Z" fill="white"/>
<mask id="mask0_76_716" style="mask-type:luminance" maskUnits="userSpaceOnUse" x="12" y="82" width="32" height="20">
<path d="M43.2139 94.2524L24.9581 88.2928L23.3338 84.0019L19.625 83.8855L12.8948 82.6104L13.7042 84.0019L22.1751 90.15L24.2652 91.1923L43.358 101.166L43.2139 94.2524Z" fill="white"/>
</mask>
<g mask="url(#mask0_76_716)">
<path opacity="0.5" d="M43.2139 94.2524L24.9581 88.2928L23.3338 84.0019L19.625 83.8855L12.8948 82.6104L13.7042 84.0019L22.1751 90.15L24.2652 91.1923L43.358 101.166L43.2139 94.2524Z" fill="#E43955" stroke="#263238" stroke-width="1.00396" stroke-miterlimit="10"/>
</g>
<path d="M43.2139 94.2524L24.9581 88.2928L23.3338 84.0019L19.625 83.8855L12.8948 82.6104L13.7042 84.0019L22.1751 90.15L24.2652 91.1923L43.358 101.166L43.2139 94.2524Z" stroke="#263238" stroke-width="1.00396" stroke-miterlimit="10"/>
<path d="M23.3338 84.0019L21.593 82.9597L18.1171 84.2348L18.6936 84.9278L23.3338 84.0019Z" fill="white"/>
<mask id="mask1_76_716" style="mask-type:luminance" maskUnits="userSpaceOnUse" x="18" y="82" width="6" height="3">
<path d="M23.3338 84.0019L21.593 82.9597L18.1171 84.2348L18.6936 84.9278L23.3338 84.0019Z" fill="white"/>
</mask>
<g mask="url(#mask1_76_716)">
<path opacity="0.5" d="M23.3338 84.0019L21.593 82.9597L18.1171 84.2348L18.6936 84.9278L23.3338 84.0019Z" fill="#E43955" stroke="#263238" stroke-width="1.00396" stroke-linejoin="round"/>
</g>
<path d="M23.3338 84.0019L21.593 82.9597L18.1171 84.2348L18.6936 84.9278L23.3338 84.0019Z" stroke="#263238" stroke-width="1.00396" stroke-linejoin="round"/>
<path d="M47.089 55.5733C47.089 55.5733 46.8063 58.068 47.5103 59.6702C48.2144 61.2723 52.1228 66.6997 52.1228 66.6997L44.8271 72.5484C44.8271 72.5484 41.8002 66.4503 41.2236 65.4635C40.6471 64.4767 39.9541 60.2301 41.8335 57.1866C43.7128 54.143 46.4182 53.3225 47.089 55.5733Z" fill="white"/>
<mask id="mask2_76_716" style="mask-type:luminance" maskUnits="userSpaceOnUse" x="40" y="54" width="13" height="19">
<path d="M47.089 55.5733C47.089 55.5733 46.8063 58.068 47.5103 59.6702C48.2144 61.2723 52.1228 66.6997 52.1228 66.6997L44.8271 72.5484C44.8271 72.5484 41.8002 66.4503 41.2236 65.4635C40.6471 64.4767 39.9541 60.2301 41.8335 57.1866C43.7128 54.143 46.4182 53.3225 47.089 55.5733Z" fill="white"/>
</mask>
<g mask="url(#mask2_76_716)">
<g style="mix-blend-mode:multiply" opacity="0.5">
<path d="M43.3414 63.5896L46.5069 70.1535L44.8216 72.554L41.6394 66.8716L43.3414 63.5896Z" fill="#E43955"/>
</g>
</g>
<path d="M47.089 55.5733C47.089 55.5733 46.8063 58.068 47.5103 59.6702C48.2144 61.2723 52.1228 66.6997 52.1228 66.6997L44.8271 72.5484C44.8271 72.5484 41.8002 66.4503 41.2236 65.4635C40.6471 64.4767 39.9541 60.2301 41.8335 57.1866C43.7128 54.143 46.4182 53.3225 47.089 55.5733Z" stroke="#263238" stroke-width="1.00396" stroke-miterlimit="10"/>
<path d="M49.3509 51.0052C48.9018 48.2333 45.7252 42.5952 40.6859 42.8114C37.4151 42.9556 35.885 43.6153 34.4658 44.4192C33.3089 45.1007 32.2306 45.9076 31.2503 46.8252C28.7889 49.78 27.9241 50.5894 28.4008 52.8513C28.3617 53.7535 28.5031 54.6544 28.8166 55.5012C29.5706 57.5136 30.0861 58.8275 30.7403 59.7866C30.5407 60.7235 30.0196 63.196 29.9919 63.7615C29.9642 64.327 31.655 63.9334 32.5088 63.7171C34.0943 67.2652 36.9993 69.7266 37.9029 70.0094C39.4774 70.5028 41.9665 67.9138 43.2859 65.9069C44.6054 63.9001 43.6075 61.6438 43.613 60.7457C43.6186 59.8476 46.579 57.874 47.6766 57.2475C48.7743 56.6211 49.7944 53.7716 49.3509 51.0052Z" fill="white"/>
<mask id="mask3_76_716" style="mask-type:luminance" maskUnits="userSpaceOnUse" x="28" y="42" width="22" height="29">
<path d="M49.3509 51.0052C48.9018 48.2333 45.7252 42.5952 40.6859 42.8114C37.4151 42.9556 35.885 43.6153 34.4658 44.4192C33.3089 45.1007 32.2306 45.9076 31.2503 46.8252C28.7889 49.78 27.9241 50.5894 28.4008 52.8513C28.3617 53.7535 28.5031 54.6544 28.8166 55.5012C29.5706 57.5136 30.0861 58.8275 30.7403 59.7866C30.5407 60.7235 30.0196 63.196 29.9919 63.7615C29.9642 64.327 31.655 63.9334 32.5088 63.7171C34.0943 67.2652 36.9993 69.7266 37.9029 70.0094C39.4774 70.5028 41.9665 67.9138 43.2859 65.9069C44.6054 63.9001 43.6075 61.6438 43.613 60.7457C43.6186 59.8476 46.579 57.874 47.6766 57.2475C48.7743 56.6211 49.7944 53.7716 49.3509 51.0052Z" fill="white"/>
</mask>
<g mask="url(#mask3_76_716)">
<g style="mix-blend-mode:multiply" opacity="0.5">
<path d="M28.423 52.8513C28.3839 53.7535 28.5253 54.6544 28.8388 55.5012C29.5928 57.5136 30.1083 58.8275 30.7625 59.7866C30.5629 60.7235 30.0418 63.196 30.0141 63.7615C29.9864 64.327 31.6772 63.9334 32.531 63.7171C34.1165 67.2652 37.0215 69.7266 37.9251 70.0094C39.4995 70.5028 41.9887 67.9138 43.3081 65.9069C43.6378 65.4059 43.8518 64.8378 43.9346 64.2438C43.8625 63.9832 43.8126 63.8225 43.8126 63.8225C43.8126 63.8225 43.0697 66.6775 41.5951 66.3061C40.1204 65.9347 37.8641 62.9798 36.6057 61.9598C35.3472 60.9397 35.8628 59.5981 35.6133 58.0791C35.3639 56.5601 31.6384 55.224 31.3889 54.3537C31.1395 53.4833 32.0099 49.8798 32.0099 49.8798C32.0099 49.8798 33.4235 47.9949 33.1186 48.771C32.9031 49.444 32.8249 50.1534 32.8887 50.8572C32.9525 51.5609 33.157 52.2447 33.49 52.8679C33.7237 53.3597 34.0944 53.7735 34.5576 54.0597C35.0208 54.3459 35.5568 54.4922 36.1012 54.4812L37.4539 47.7787L34.5988 45.417L31.2725 46.803C28.7889 49.78 27.9407 50.5894 28.423 52.8513Z" fill="#E43955"/>
</g>
</g>
<path d="M49.3509 51.0052C48.9018 48.2333 45.7252 42.5952 40.6859 42.8114C37.4151 42.9556 35.885 43.6153 34.4658 44.4192C33.3089 45.1007 32.2306 45.9076 31.2503 46.8252C28.7889 49.78 27.9241 50.5894 28.4008 52.8513C28.3617 53.7535 28.5031 54.6544 28.8166 55.5012C29.5706 57.5136 30.0861 58.8275 30.7403 59.7866C30.5407 60.7235 30.0196 63.196 29.9919 63.7615C29.9642 64.327 31.655 63.9334 32.5088 63.7171C34.0943 67.2652 36.9993 69.7266 37.9029 70.0094C39.4774 70.5028 41.9665 67.9138 43.2859 65.9069C44.6054 63.9001 43.6075 61.6438 43.613 60.7457C43.6186 59.8476 46.579 57.874 47.6766 57.2475C48.7743 56.6211 49.7944 53.7716 49.3509 51.0052Z" stroke="#263238" stroke-miterlimit="10"/>
<path d="M31.4277 58.1124L31.9821 59.6979C31.9821 59.6979 33.174 60.0915 34.6265 58.506" stroke="#263238" stroke-miterlimit="10" stroke-linecap="round"/>
<path d="M35.5246 65.5189C35.5246 65.5189 36.8441 65.3858 37.3763 63.5342" stroke="#263238" stroke-miterlimit="10" stroke-linecap="round"/>
<path d="M30.5019 56.7874C30.5019 56.7874 30.8955 55.5955 33.2738 55.5955" stroke="#263238" stroke-miterlimit="10" stroke-linecap="round"/>
<path d="M42.6928 40.605C40.9646 40.3565 39.2219 40.2232 37.476 40.2059C37.476 40.2059 32.2538 37.1956 27.2366 40.4054C22.2195 43.6153 24.631 49.2367 24.631 50.6393C24.631 52.0419 23.0233 52.0474 24.0268 53.8547C25.0302 55.662 28.423 54.6641 28.423 54.6641C28.4588 53.9825 28.639 53.3162 28.9515 52.7093C29.264 52.1025 29.7017 51.5689 30.2358 51.1438C32.0431 49.7412 33.4845 49.4363 34.0832 49.841C34.0832 49.841 33.6841 52.8513 34.2828 54.0543C34.2828 54.0543 36.2897 55.0577 36.8939 55.0577C37.4982 55.0577 36.5003 55.9059 38.5016 56.6599C38.8662 56.7908 39.2563 56.8355 39.641 56.7902C40.0258 56.745 40.3948 56.6112 40.7192 56.3993C41.013 55.1797 41.6561 53.3447 42.8535 53.7716C44.6109 54.398 46.2131 58.7222 43.8348 60.1968C46.6954 60.7179 50.1603 55.6565 50.3654 51.044C50.5705 46.4316 45.6642 41.1261 42.6928 40.605Z" fill="#263238"/>
<path d="M34.1719 47.8619C34.1719 47.8619 35.6466 47.0691 37.4539 48.7655C39.2612 50.4619 42.7759 52.7293 47.4327 51.482" stroke="white" stroke-width="0.5" stroke-linecap="round" stroke-linejoin="round"/>
<path d="M33.9668 46.5036C33.9668 46.5036 34.9813 44.9181 36.6777 44.9181C38.3741 44.9181 42.3379 47.2964 45.5035 47.2964" stroke="white" stroke-width="0.5" stroke-linecap="round" stroke-linejoin="round"/>
<path d="M32.8137 49.5583C32.8137 49.5583 30.89 47.1855 29.0827 49.1092C27.2754 51.0329 28.423 52.8513 28.423 52.8513" stroke="white" stroke-width="0.5" stroke-linecap="round" stroke-linejoin="round"/>
<path d="M25.1245 51.1438C26.2268 50.1496 26.9121 48.7751 27.0426 47.2964C27.2699 44.8072 30.6683 42.6562 32.8137 44.6963" stroke="white" stroke-width="0.5" stroke-linecap="round" stroke-linejoin="round"/>
<path d="M28.6281 42.0908C28.6281 42.0908 32.0265 38.8088 34.8538 42.9944" stroke="white" stroke-width="0.5" stroke-linecap="round" stroke-linejoin="round"/>
<path d="M56.2862 203.454C56.2862 203.454 58.3762 206.703 58.1434 208.793L57.9161 210.883C57.9161 210.883 50.249 212.984 48.6246 212.984C47.0003 212.984 38.4019 212.169 38.4019 212.169L38.0304 210.695C38.0044 210.586 38.0167 210.471 38.0651 210.37C38.1136 210.269 38.1953 210.188 38.2965 210.14L45.9636 206.564L48.3807 203.92L56.2862 203.454Z" fill="white" stroke="#263238" stroke-width="1.00396" stroke-miterlimit="10"/>
<path d="M49.7888 211.349C51.8678 211.51 55.8149 210.24 58.1045 209.431L57.9438 210.883C57.9438 210.883 50.249 212.984 48.6246 212.984C47.0003 212.984 38.4018 212.169 38.4018 212.169L38.1357 211.116C39.5106 211.121 47.0391 211.138 49.7888 211.349Z" fill="#E43955" stroke="#263238" stroke-width="1.00396" stroke-miterlimit="10"/>
<path d="M45.9747 206.564L34.815 211.421C34.815 211.421 33.8615 213.81 34.815 214.287C35.7686 214.764 56.5578 214.287 56.5578 214.287C56.5578 214.287 57.9937 210.512 55.7263 207.978C53.4589 205.445 45.9747 206.564 45.9747 206.564Z" fill="white" stroke="#263238" stroke-width="1.00396" stroke-miterlimit="10"/>
<path d="M56.5578 214.287C56.5578 214.287 35.7685 214.764 34.815 214.287C34.3549 214.054 34.3382 213.383 34.4436 212.746H56.9237C56.8503 213.27 56.7277 213.786 56.5578 214.287Z" fill="#E43955" stroke="#263238" stroke-width="1.00396" stroke-miterlimit="10"/>
<path d="M40.697 122.182C40.697 122.182 37.781 135.105 36.6777 143.188C35.5745 151.271 34.9259 167.464 35.1587 169.321C35.3916 171.178 47.0003 202.296 47.0003 202.296L48.159 205.068L56.2862 203.443C56.2862 203.443 52.5718 191.602 51.1803 185.099C49.7888 178.596 46.7453 167.913 46.7453 166.056C46.7453 164.199 53.9522 128.729 54.4678 126.401C54.9834 124.073 57.3229 120.497 57.3229 120.497L41.7614 120.181L40.697 122.182Z" fill="#E43955" stroke="#263238" stroke-width="1.00396" stroke-miterlimit="10"/>
<path d="M40.697 122.182C40.697 122.182 38.9895 133.985 39.6936 142.19C40.3976 150.395 41.9111 167.863 41.9111 170.463C41.9111 173.063 46.1078 188.591 46.3461 193.47C46.7176 200.516 46.1965 204.003 46.1965 204.003L45.947 206.559C45.947 206.559 50.8422 207.257 51.9121 207.562C53.1479 207.881 54.4232 208.019 55.6985 207.973C55.6985 207.973 57.4781 200.139 57.4781 193.464C57.4781 186.79 55.9979 173.052 55.2606 167.486C54.5233 161.92 56.8461 140.449 58.1655 136.441C59.485 132.433 62.3677 123.945 60.4274 119.61C58.4871 115.275 40.697 122.182 40.697 122.182Z" fill="#E43955" stroke="#263238" stroke-width="1.00396" stroke-miterlimit="10"/>
<path d="M62.5839 117.437L62.4065 122.714C62.4065 122.714 59.2466 123.341 54.9889 124.078C51.4741 124.688 42.6484 123.917 39.6769 123.629C39.4061 123.605 39.1558 123.475 38.9803 123.267C38.8049 123.06 38.7185 122.791 38.74 122.52L39.0283 117.753L62.5839 117.437Z" fill="#263238"/>
<path d="M50.2323 64.8259C50.2323 64.8259 45.2429 70.22 43.3636 73.574C41.4842 76.928 40.7413 82.0672 40.0373 86.1141C39.3332 90.1611 41.2403 99.6632 40.7025 104.026L39.0006 117.769C39.0006 117.769 38.6347 118.701 39.8599 119.721C41.0851 120.741 47.0668 121.112 52.472 121.384C54.4456 121.484 60.3387 120.214 61.3033 120.153C62.4675 120.081 62.5063 118.601 62.5562 117.437C62.7891 111.965 63.7759 97.3791 64.4245 91.0259C65.7606 78.0701 58.4483 65.5632 50.2323 64.8259Z" fill="white" stroke="#263238" stroke-width="1.00396" stroke-miterlimit="10"/>
<g style="mix-blend-mode:multiply">
<path d="M63.8147 98.3937C64.0364 95.5164 64.2582 92.9053 64.4522 91.0259C64.5076 90.4716 64.5409 89.9172 64.5686 89.3628L51.3134 91.5803L39.9264 87.6997C39.9276 90.0558 40.0609 92.4101 40.3255 94.7514L51.4963 97.8781L63.8147 98.3937Z" fill="#E43955"/>
</g>
<g style="mix-blend-mode:multiply">
<path d="M49.739 65.3692C48.985 66.2063 47.4882 67.9083 46.0634 69.7156L54.4789 78.2696L57.2508 77.1609L49.739 65.3692Z" fill="#E43955"/>
</g>
<path d="M50.2323 64.8259C50.2323 64.8259 45.2429 70.22 43.3636 73.574C42.8063 74.5934 42.3549 75.6671 42.0164 76.7784L52.0507 65.1863C51.4579 65.0067 50.8488 64.886 50.2323 64.8259Z" fill="#263238"/>
<g style="mix-blend-mode:multiply">
<path d="M40.4254 83.9299L51.3134 87.5112L64.5354 85.9922C64.3281 82.6984 63.5964 79.4589 62.3677 76.3958L51.707 80.6701L42.1772 76.3515C41.398 78.8285 40.8122 81.3622 40.4254 83.9299Z" fill="#E43955"/>
</g>
<g style="mix-blend-mode:multiply">
<path d="M59.169 111.965C53.6466 112.892 47.9803 112.429 42.6817 110.618L40.0262 109.709L39.2002 116.361L42.2271 117.209C47.9814 118.818 53.9956 119.282 59.9285 118.573L62.3733 118.279C62.5005 118.01 62.5722 117.718 62.5839 117.42C62.6505 115.94 62.7669 113.789 62.9166 111.322L59.169 111.965Z" fill="#E43955"/>
</g>
<g style="mix-blend-mode:multiply">
<path d="M60.6492 102.906C55.1266 103.837 49.4589 103.372 44.1619 101.554L40.7801 100.395C40.864 101.603 40.8473 102.816 40.7302 104.021L40.3366 107.219L43.7073 108.162C49.4594 109.772 55.4717 110.238 61.4031 109.531L63.0663 109.332C63.2049 107.114 63.3656 104.752 63.5375 102.418L60.6492 102.906Z" fill="#E43955"/>
</g>
<path d="M8.63784 79.4627L19.357 88.0811L19.819 87.5065L9.09985 78.888L8.63784 79.4627Z" fill="#263238"/>
<path d="M55.3936 70.8077C55.3936 70.8077 59.3242 73.4853 59.4129 79.8108C59.4517 82.5827 59.1634 85.1717 58.5259 89.7121C57.8883 94.2524 53.9301 109.038 50.8477 110.834C47.7653 112.63 42.981 109.237 42.981 109.237L19.8412 93.8755L14.2475 89.3573L11.4756 84.1239L12.346 82.4608L19.1704 87.6941L15.4948 84.2958L16.2155 83.381L17.5461 84.3069L21.4267 85.7593L22.2749 91.3031L23.4724 92.1236L45.6088 100.212C45.6088 100.212 45.3316 88.2984 45.5367 86.0199C45.7419 83.7414 46.0246 78.0146 48.4639 73.8623" fill="white"/>
<mask id="mask4_76_716" style="mask-type:luminance" maskUnits="userSpaceOnUse" x="11" y="70" width="49" height="42">
<path d="M55.3936 70.8077C55.3936 70.8077 59.3242 73.4853 59.4129 79.8108C59.4517 82.5827 59.1634 85.1717 58.5259 89.7121C57.8883 94.2524 53.9301 109.038 50.8477 110.834C47.7653 112.63 42.981 109.237 42.981 109.237L19.8412 93.8755L14.2475 89.3573L11.4756 84.1239L12.346 82.4608L19.1704 87.6941L15.4948 84.2958L16.2155 83.381L17.5461 84.3069L21.4267 85.7593L22.2749 91.3031L23.4724 92.1236L45.6088 100.212C45.6088 100.212 45.3316 88.2984 45.5367 86.0199C45.7419 83.7414 46.0246 78.0146 48.4639 73.8623" fill="white"/>
</mask>
<g mask="url(#mask4_76_716)">
<g style="mix-blend-mode:multiply" opacity="0.5">
<path d="M45.4536 91.2089C45.4536 95.3224 45.5922 100.212 45.5922 100.212L23.4779 92.1569L22.2805 91.3364L21.4323 85.7926L17.5516 84.3401L16.2266 83.3977L15.5059 84.3124L19.1704 87.6941L12.346 82.4608L11.5199 84.0962L14.2918 89.3295L19.8855 93.8755L21.2937 94.8124L51.8678 104.664L45.4536 91.2089Z" fill="#E43955"/>
</g>
</g>
<path d="M55.3936 70.8077C55.3936 70.8077 59.3242 73.4853 59.4129 79.8108C59.4517 82.5827 59.1634 85.1717 58.5259 89.7121C57.8883 94.2524 53.9301 109.038 50.8477 110.834C47.7653 112.63 42.981 109.237 42.981 109.237L19.8412 93.8755L14.2475 89.3573L11.4756 84.1239L12.346 82.4608L19.1704 87.6941L15.4948 84.2958L16.2155 83.381L17.5461 84.3069L21.4267 85.7593L22.2749 91.3031L23.4724 92.1236L45.6088 100.212C45.6088 100.212 45.3316 88.2984 45.5367 86.0199C45.7419 83.7414 46.0246 78.0146 48.4639 73.8623" stroke="#263238" stroke-width="1.00396" stroke-miterlimit="10"/>
<path d="M45.6088 100.212L54.0576 106.31L56.2474 102.43C56.2474 102.43 57.7608 101.238 57.9826 100.34C58.2043 99.4415 57.9216 97.9834 58.1489 97.0853C58.3762 96.1872 59.5071 95.3446 59.6124 93.1714C59.7178 90.9982 59.6124 89.1854 59.6124 89.1854C59.6124 89.1854 61.4419 81.6625 61.2423 78.3916C61.0428 75.1208 57.8883 69.3386 55.3603 69.2111C52.8324 69.0836 49.5449 69.4661 46.9947 73.3246C44.4446 77.1831 44.9657 88.4481 44.5666 89.1521C44.1674 89.8562 44.7218 93.3322 44.7218 93.3322C44.5002 93.4974 44.3164 93.708 44.1826 93.9498C44.0488 94.1917 43.968 94.4593 43.9457 94.7348C43.9013 95.6384 44.877 97.8615 44.877 97.8615L45.6088 100.212Z" fill="white" stroke="#263238" stroke-width="1.00396" stroke-miterlimit="10"/>
<g style="mix-blend-mode:multiply">
<path d="M44.7883 86.2583C44.8057 87.2257 44.7333 88.1926 44.5721 89.1466C44.2173 89.7786 44.622 92.6337 44.7107 93.2157C49.4627 94.6917 54.4876 95.0708 59.4073 94.3245C59.513 93.939 59.5762 93.543 59.5958 93.1437C59.7067 90.976 59.5958 89.1577 59.5958 89.1577C59.5958 89.1577 59.7566 88.4869 59.9783 87.4668C54.8833 87.7907 49.7681 87.3837 44.7883 86.2583Z" fill="#E43955"/>
</g>
<g style="mix-blend-mode:multiply">
<path d="M46.651 73.9399C45.8583 75.531 45.4148 77.9204 45.1598 80.343C50.1925 82.2637 55.6186 82.9241 60.9652 82.2667C61.1785 80.9846 61.2731 79.6856 61.2479 78.3861C61.1519 77.3589 60.9092 76.3507 60.5272 75.3924C55.8588 75.5014 51.1957 75.0133 46.651 73.9399Z" fill="#E43955"/>
</g>
<path d="M44.877 97.9224L45.5922 100.212L54.0409 106.31L56.2307 102.43C56.2307 102.43 57.7442 101.238 57.9659 100.34C58.0055 100.183 58.0297 100.024 58.038 99.8628C53.5857 99.7859 49.1621 99.1337 44.877 97.9224Z" fill="#263238"/>
<path d="M50.9918 207.49C50.9918 207.49 51.1803 202.689 52.1006 195.671C53.0209 188.652 50.8089 178.685 50.4375 177.021C50.066 175.358 50.626 171.666 50.2545 170.369C49.8831 169.072 48.0869 163.539 49.1458 157.119C50.2046 150.7 51.0639 133.73 51.0639 133.73C51.0639 133.73 48.3973 131.562 47.6157 128.74C46.834 125.919 47.4327 125.032 47.4327 125.032" stroke="#263238" stroke-width="1.00396" stroke-miterlimit="10"/>
<path d="M52.2281 125.292L51.2025 130.969" stroke="#263238" stroke-width="1.00396" stroke-miterlimit="10"/>
</svg>
