<svg width="271" height="231" viewBox="0 0 271 231" fill="none" xmlns="http://www.w3.org/2000/svg">
<path d="M128.665 207.158C156.276 207.158 178.659 203.959 178.659 200.013C178.659 196.067 156.276 192.868 128.665 192.868C101.054 192.868 78.6703 196.067 78.6703 200.013C78.6703 203.959 101.054 207.158 128.665 207.158Z" fill="#E43955"/>
<path opacity="0.5" d="M128.665 207.158C156.276 207.158 178.659 203.959 178.659 200.013C178.659 196.067 156.276 192.868 128.665 192.868C101.054 192.868 78.6703 196.067 78.6703 200.013C78.6703 203.959 101.054 207.158 128.665 207.158Z" fill="white"/>
<path d="M238.524 223.948C254.034 223.948 266.608 220.749 266.608 216.803C266.608 212.857 254.034 209.658 238.524 209.658C223.014 209.658 210.441 212.857 210.441 216.803C210.441 220.749 223.014 223.948 238.524 223.948Z" fill="#E43955"/>
<path opacity="0.5" d="M238.524 223.948C254.034 223.948 266.608 220.749 266.608 216.803C266.608 212.857 254.034 209.658 238.524 209.658C223.014 209.658 210.441 212.857 210.441 216.803C210.441 220.749 223.014 223.948 238.524 223.948Z" fill="white"/>
<path d="M0.135965 52.3183C-0.00469588 51.8097 -0.0366635 51.2772 0.0421402 50.7555C0.120944 50.2337 0.308752 49.7344 0.59334 49.2901C0.877928 48.8457 1.25291 48.4663 1.69388 48.1764C2.13485 47.8866 2.63191 47.6929 3.1527 47.608C6.30175 47.178 10.1719 51.4054 11.3958 53.9656C11.5017 54.184 12.7586 57.8358 12.7189 57.8358C12.6792 57.8358 7.13532 57.9615 4.85954 56.9691C2.89469 56.1157 0.685064 54.4949 0.135965 52.3183ZM81.0255 42.6132C80.5624 44.8096 78.3793 46.4899 76.4541 47.3897C74.529 48.2894 69.9906 48.4482 68.8726 48.468C68.2706 49.1891 67.6288 49.9565 66.9408 50.8298C65.7367 52.3713 64.4004 54.1376 63.0706 56.1223C62.7134 56.6582 62.3562 57.2404 61.9923 57.8027C62.7994 56.9824 63.9174 55.8709 64.0365 55.7717C66.2528 54.0053 71.5784 51.8949 74.2246 53.6481C74.6567 53.9516 75.02 54.3427 75.2908 54.796C75.5616 55.2493 75.7339 55.7546 75.7963 56.2789C75.8587 56.8033 75.8099 57.3349 75.6531 57.8391C75.4963 58.3433 75.235 58.8088 74.8862 59.2052C73.4638 60.9385 70.7382 61.4215 68.6212 61.3355C66.5042 61.2495 62.2702 59.2383 61.344 58.7884C60.5633 60.0454 59.7959 61.3553 59.0682 62.7578C57.7323 65.3007 56.6253 67.9575 55.7604 70.6966L55.9191 70.776C56.5807 69.9292 57.97 68.176 58.1023 68.0437C60.087 66.059 65.1744 63.3599 68.0258 64.8153C68.4883 65.0699 68.892 65.419 69.2106 65.8401C69.5291 66.2611 69.7554 66.7445 69.8746 67.2588C69.9938 67.7732 70.0033 68.3068 69.9025 68.8251C69.8017 69.3433 69.5927 69.8345 69.2894 70.2666C68.0655 72.1454 65.4126 72.9128 63.3353 73.0716C60.9007 73.2436 55.8596 71.3383 55.6743 71.2656C54.881 74.021 54.2689 76.8254 53.8418 79.6608C53.511 81.7514 53.2663 83.8882 53.0413 86.0383C53.478 85.4297 55.3171 83.1274 55.4693 82.9753C57.454 80.9906 62.5414 78.2914 65.3927 79.7468C65.8553 80.0014 66.259 80.3505 66.5776 80.7716C66.8961 81.1926 67.1224 81.676 67.2416 82.1904C67.3608 82.7047 67.3703 83.2384 67.2695 83.7566C67.1686 84.2748 66.9597 84.766 66.6563 85.1981C65.4324 87.077 62.7796 87.8444 60.7022 88.0032C58.3206 88.1685 53.4846 86.3691 53.081 86.2169C52.9818 87.1894 52.8693 88.1619 52.7767 89.141C52.4658 92.3298 52.1681 95.5318 51.7777 98.6808C51.6454 99.7724 51.4668 100.844 51.3014 101.916C51.963 101.023 53.2861 99.4284 53.3919 99.3027C55.3766 97.318 60.4641 94.6188 63.3154 96.0742C63.778 96.3288 64.1817 96.678 64.5002 97.099C64.8188 97.52 65.0451 98.0035 65.1643 98.5178C65.2835 99.0321 65.293 99.5658 65.1921 100.084C65.0913 100.602 64.8824 101.093 64.579 101.526C63.3551 103.404 60.7022 104.172 58.5919 104.324C56.4815 104.476 52.3665 103.047 51.222 102.63C50.9243 104.417 50.5605 106.176 50.1834 107.923C49.9915 108.664 49.846 109.425 49.621 110.126C49.3961 110.827 49.1976 111.535 48.9595 112.23C48.4765 113.645 48.0399 114.969 47.5569 116.278C47.3188 116.94 47.0806 117.562 46.8358 118.204C47.3982 117.198 48.3111 115.617 48.417 115.485C50.0974 113.202 54.6952 109.782 57.6789 110.794C58.1744 110.975 58.6261 111.259 59.0047 111.627C59.3833 111.994 59.6803 112.437 59.8762 112.927C60.0722 113.417 60.1628 113.943 60.1421 114.47C60.1214 114.997 59.9899 115.514 59.7562 115.987C58.83 118.032 56.3227 119.196 54.2586 119.666C51.9828 120.182 47.0938 119.189 46.4918 119.064C45.8964 120.632 45.3076 122.153 44.7254 123.569C42.8929 128.041 41.1993 131.706 39.9754 134.247C39.9093 134.392 39.8431 134.518 39.7769 134.657H48.6882L45.6119 194.641C45.5045 196.856 44.5458 198.943 42.9359 200.468C41.326 201.993 39.1893 202.837 36.9719 202.824C34.7747 202.819 32.6628 201.973 31.0697 200.46C29.4765 198.947 28.5229 196.881 28.4046 194.687L25.335 134.683H34.8946C34.8483 134.266 34.802 133.83 34.7424 133.36C34.4249 130.588 33.9089 126.625 33.0753 121.908C32.8437 120.546 32.5659 119.11 32.2748 117.635C31.6529 117.714 26.7177 118.336 24.4882 117.635C22.4572 117.013 20.0491 115.65 19.2817 113.559C19.0831 113.07 18.9898 112.545 19.0079 112.017C19.026 111.49 19.155 110.972 19.3866 110.498C19.6181 110.023 19.947 109.603 20.3519 109.264C20.7567 108.925 21.2283 108.676 21.7361 108.532C24.8123 107.744 29.1456 111.495 30.654 113.903C30.7466 114.056 31.686 116.001 32.1425 117.006C31.9639 116.113 31.7852 115.227 31.5801 114.3C31.2957 112.977 30.9186 111.568 30.6275 110.212C30.429 109.517 30.2372 108.809 30.0387 108.102C29.8402 107.394 29.5888 106.712 29.3771 106.004C29.0265 104.979 28.6097 103.934 28.1996 102.895C26.8764 103.265 22.907 104.284 20.8826 103.993C18.8583 103.702 16.1988 102.716 15.1204 100.752C14.8506 100.298 14.6792 99.7919 14.6176 99.2674C14.5559 98.7429 14.6053 98.2114 14.7626 97.7072C14.9198 97.2031 15.1814 96.7376 15.5302 96.3412C15.8791 95.9447 16.3075 95.6261 16.7876 95.4061C19.7117 94.1689 24.5543 97.2188 26.4133 99.3755C26.4729 99.4416 26.8169 99.9378 27.2204 100.527C26.7904 99.521 26.3604 98.5419 25.8973 97.5165C24.5742 94.6717 23.1121 91.8138 21.6699 88.9161C21.3722 88.3207 21.0811 87.7187 20.7834 87.1167C19.6521 87.4342 15.385 88.5787 13.2614 88.2678C11.1378 87.9568 8.57754 86.991 7.49918 85.0261C7.22837 84.5729 7.05626 84.0677 6.99411 83.5434C6.93196 83.0192 6.98118 82.4877 7.13854 81.9838C7.2959 81.4798 7.55786 81.0148 7.90729 80.6191C8.25673 80.2233 8.68576 79.9058 9.16633 79.6873C12.0838 78.4435 16.9331 81.5 18.7921 83.6567C18.8583 83.7361 19.2684 84.3182 19.7249 84.9798C18.9641 83.4053 18.2232 81.8307 17.5351 80.2496C16.3471 77.5337 15.3393 74.7425 14.5184 71.894C14.1215 72.0131 9.14648 73.4553 6.7847 73.1113C4.68753 72.807 2.10081 71.8345 1.02246 69.8697C0.75556 69.4187 0.586097 68.9169 0.524994 68.3964C0.463891 67.876 0.512506 67.3486 0.667703 66.8481C0.822899 66.3476 1.08124 65.8851 1.42606 65.4906C1.77089 65.096 2.19456 64.7781 2.66976 64.5573C5.59388 63.3135 10.4365 66.37 12.2955 68.5267C12.4278 68.6788 13.8965 70.8289 14.3993 71.6096C14.3965 71.5766 14.3965 71.5434 14.3993 71.5103C13.6623 68.6925 13.1796 65.8141 12.9571 62.91C12.7407 60.3182 12.6788 57.7159 12.7719 55.1168C12.8248 52.7087 13.0233 50.4858 13.2217 48.5606C13.3342 47.5021 13.4533 46.5429 13.579 45.6498L13.526 45.6828C13.4731 45.6828 12.408 42.0112 12.3683 41.7664C11.8986 38.968 12.6462 33.2851 15.4644 31.8429C15.9393 31.6125 16.4575 31.4849 16.9851 31.4685C17.5127 31.4521 18.0378 31.5473 18.5261 31.7477C19.0144 31.9482 19.4549 32.2494 19.8188 32.6317C20.1827 33.0141 20.4618 33.4689 20.6379 33.9665C21.4648 36.0505 20.5651 38.6636 19.4603 40.4763C18.3555 42.289 14.6573 44.922 13.7377 45.5505C13.6253 46.4833 13.5194 47.4823 13.4268 48.5937C13.2746 50.5387 13.1225 52.7351 13.1159 55.1366C13.1159 55.7982 13.1159 56.4597 13.1489 57.1213C13.3673 55.9966 13.6848 54.475 13.7311 54.303C14.6044 51.6038 17.8791 46.9067 21.0613 46.9067C21.5886 46.9232 22.1067 47.0503 22.5818 47.2799C23.0568 47.5094 23.4784 47.8363 23.819 48.2393C24.1596 48.6423 24.4116 49.1123 24.5588 49.619C24.706 50.1257 24.7451 50.6577 24.6734 51.1804C24.4419 53.4099 22.4373 55.3152 20.6246 56.4134C18.8119 57.5116 14.1678 58.1666 13.1688 58.2857C13.2085 59.7676 13.2945 61.2825 13.4665 62.8637C13.7548 65.7332 14.2972 68.5714 15.0873 71.3449H15.266C15.3387 70.2798 15.5438 68.0371 15.5769 67.8585C16.1525 65.0799 18.8847 60.052 22.0536 59.708C22.5797 59.6661 23.1088 59.7353 23.6064 59.9111C24.1041 60.0869 24.5592 60.3653 24.9422 60.7284C25.3253 61.0915 25.6277 61.5311 25.8298 62.0186C26.032 62.5061 26.1294 63.0307 26.1156 63.5583C26.1156 65.801 24.3426 67.9114 22.6623 69.2015C20.6974 70.6371 15.4446 71.8345 15.2395 71.8742C16.0978 74.6096 17.1343 77.2858 18.3422 79.8857C19.2089 81.8109 20.2012 83.7427 21.1936 85.648C21.1936 84.8938 21.4847 81.9631 21.531 81.7514C22.1065 78.9728 24.8388 73.9449 28.0011 73.6009C28.5269 73.558 29.0558 73.6263 29.5534 73.8013C30.051 73.9763 30.5063 74.2541 30.8894 74.6167C31.2726 74.9793 31.5751 75.4185 31.7773 75.9057C31.9795 76.3929 32.0769 76.9172 32.0631 77.4446C32.0631 79.6873 30.2967 81.7977 28.6163 83.0877C26.7243 84.5432 21.6964 85.734 21.273 85.8068C21.7295 86.6734 22.1727 87.5467 22.6358 88.4133C24.1375 91.2448 25.6525 94.0763 27.0617 96.921C27.5512 97.9068 28.0011 98.9057 28.4509 99.8849C28.5303 98.7602 28.7222 96.7226 28.7553 96.544C29.3308 93.772 32.0631 88.7375 35.2254 88.3935C35.7515 88.3516 36.2805 88.4207 36.7782 88.5965C37.2758 88.7723 37.7309 89.0508 38.114 89.4139C38.497 89.777 38.7994 90.2165 39.0016 90.7041C39.2037 91.1916 39.3011 91.7162 39.2874 92.2438C39.2874 94.4865 37.521 96.5969 35.8406 97.8869C34.1603 99.177 29.9461 100.255 28.7553 100.533C29.4962 102.18 30.1909 103.841 30.7995 105.495C31.0443 106.216 31.342 106.937 31.5405 107.645L32.202 109.742C32.5857 111.191 32.9496 112.534 33.2671 113.897C33.4391 114.558 33.5781 115.22 33.7302 115.882C33.6442 114.737 33.5384 112.911 33.545 112.746C33.6905 109.914 35.6355 104.522 38.7052 103.709C39.2211 103.58 39.7584 103.563 40.2816 103.658C40.8047 103.752 41.3017 103.957 41.7396 104.259C42.1775 104.56 42.5463 104.952 42.8216 105.407C43.0968 105.861 43.2722 106.37 43.3362 106.897C43.3803 107.171 43.3981 107.448 43.3891 107.724C44.6444 109.885 45.3275 112.331 45.3738 114.83C45.3738 115.008 45.0761 117.152 44.9041 118.237C45.2481 117.396 45.5656 116.556 45.9229 115.676C46.4191 114.406 46.9086 113.03 47.3849 111.707C47.6033 111.045 47.8282 110.318 48.0465 109.616C48.2648 108.915 48.4368 108.207 48.6353 107.499C48.9132 106.448 49.1447 105.349 49.3762 104.251C48.0531 103.828 44.1962 102.498 42.668 101.135C41.1398 99.7724 39.466 97.4834 39.6446 95.2473C39.6708 94.7203 39.8074 94.2046 40.0457 93.7338C40.284 93.2631 40.6187 92.8476 41.0279 92.5145C41.4371 92.1814 41.9118 91.938 42.4211 91.8002C42.9305 91.6624 43.4631 91.6332 43.9845 91.7145C47.1071 92.2901 49.4623 97.5098 49.8327 100.315C49.8327 100.401 49.8327 100.976 49.8327 101.724C50.0312 100.646 50.2297 99.5739 50.3884 98.4757C50.8449 95.3664 51.2088 92.1776 51.5925 88.9955C51.6653 88.3339 51.7579 87.6724 51.8373 87.0108C50.7258 86.6536 46.5448 85.251 44.9305 83.8221C43.3163 82.3931 41.7286 80.1702 41.9138 77.9407C41.9381 77.4134 42.0733 76.8972 42.3105 76.4256C42.5477 75.9541 42.8816 75.5378 43.2904 75.2038C43.6992 74.8699 44.1738 74.6259 44.6832 74.4876C45.1927 74.3493 45.7255 74.32 46.247 74.4014C49.3763 74.9769 51.7314 80.2033 52.0953 83.0017C52.0953 83.101 52.0953 83.8221 52.135 84.6292C52.3665 82.8959 52.6245 81.1758 52.9222 79.4756C53.4289 76.5659 54.1272 73.6928 55.0128 70.8752C54.6225 70.7495 49.674 69.2081 47.8943 67.6203C46.3132 66.2046 44.6924 63.9685 44.871 61.7324C44.8971 61.2054 45.0338 60.6898 45.2721 60.219C45.5104 59.7482 45.845 59.3327 46.2542 58.9996C46.6635 58.6665 47.1382 58.4231 47.6475 58.2853C48.1569 58.1475 48.6895 58.1183 49.2109 58.1996C52.3334 58.7752 54.6886 63.995 55.0591 66.8C55.0591 66.9985 55.1252 69.5984 55.1054 70.5312V70.432C56.0479 67.6872 57.23 65.0307 58.6382 62.4932C59.8911 60.2092 61.2761 58.0003 62.7862 55.8776C64.1622 53.8929 65.5449 52.1728 66.7556 50.6578C67.4171 49.8375 68.0787 49.1031 68.6609 48.4217H68.5881C68.5352 48.4217 69.6929 44.7368 69.7922 44.5119C70.9433 41.9251 74.6943 37.5919 77.8566 37.9359C78.3877 38.0014 78.8987 38.1797 79.3552 38.4589C79.8117 38.7381 80.2032 39.1118 80.5033 39.5549C80.8035 39.9979 81.0054 40.5 81.0954 41.0275C81.1855 41.555 81.1617 42.0957 81.0255 42.6132ZM44.5931 118.839C44.0573 118.574 39.8894 116.51 38.262 114.75C36.8579 115.526 35.4087 116.218 33.9221 116.821C34.2926 118.455 34.6366 120.056 34.9277 121.558C35.8737 126.301 36.4757 130.284 36.8594 133.082C36.9454 133.678 37.0116 134.213 37.0778 134.696H37.2895L37.951 133.34C39.2146 130.853 40.9678 127.267 42.8797 122.874C43.4619 121.584 44.0308 120.228 44.5931 118.839ZM61.2381 58.193C61.291 58.2261 62.2503 54.4883 62.29 54.2236C62.6803 51.412 61.7806 45.7556 58.9226 44.3729C58.4377 44.1577 57.9127 44.0475 57.3821 44.0498C56.8516 44.052 56.3275 44.1666 55.8444 44.3859C55.3613 44.6053 54.9301 44.9245 54.5793 45.3225C54.2284 45.7205 53.9658 46.1882 53.8087 46.695C53.0413 48.7988 54.0138 51.3855 55.1319 53.1651C56.5145 55.2226 61.2381 58.193 61.2381 58.193Z" fill="#E43955"/>
<path opacity="0.3" d="M0.135965 52.3183C-0.00469588 51.8097 -0.0366635 51.2772 0.0421402 50.7555C0.120944 50.2337 0.308752 49.7344 0.59334 49.2901C0.877928 48.8457 1.25291 48.4663 1.69388 48.1764C2.13485 47.8866 2.63191 47.6929 3.1527 47.608C6.30175 47.178 10.1719 51.4054 11.3958 53.9656C11.5017 54.184 12.7586 57.8358 12.7189 57.8358C12.6792 57.8358 7.13532 57.9615 4.85954 56.9691C2.89469 56.1157 0.685064 54.4949 0.135965 52.3183ZM81.0255 42.6132C80.5624 44.8096 78.3793 46.4899 76.4541 47.3897C74.529 48.2894 69.9906 48.4482 68.8726 48.468C68.2706 49.1891 67.6288 49.9565 66.9408 50.8298C65.7367 52.3713 64.4004 54.1376 63.0706 56.1223C62.7134 56.6582 62.3562 57.2404 61.9923 57.8027C62.7994 56.9824 63.9174 55.8709 64.0365 55.7717C66.2528 54.0053 71.5784 51.8949 74.2246 53.6481C74.6567 53.9516 75.02 54.3427 75.2908 54.796C75.5616 55.2493 75.7339 55.7546 75.7963 56.2789C75.8587 56.8033 75.8099 57.3349 75.6531 57.8391C75.4963 58.3433 75.235 58.8088 74.8862 59.2052C73.4638 60.9385 70.7382 61.4215 68.6212 61.3355C66.5042 61.2495 62.2702 59.2383 61.344 58.7884C60.5633 60.0454 59.7959 61.3553 59.0682 62.7578C57.7323 65.3007 56.6253 67.9575 55.7604 70.6966L55.9191 70.776C56.5807 69.9292 57.97 68.176 58.1023 68.0437C60.087 66.059 65.1744 63.3599 68.0258 64.8153C68.4883 65.0699 68.892 65.419 69.2106 65.8401C69.5291 66.2611 69.7554 66.7445 69.8746 67.2588C69.9938 67.7732 70.0033 68.3068 69.9025 68.8251C69.8017 69.3433 69.5927 69.8345 69.2894 70.2666C68.0655 72.1454 65.4126 72.9128 63.3353 73.0716C60.9007 73.2436 55.8596 71.3383 55.6743 71.2656C54.881 74.021 54.2689 76.8254 53.8418 79.6608C53.511 81.7514 53.2663 83.8882 53.0413 86.0383C53.478 85.4297 55.3171 83.1274 55.4693 82.9753C57.454 80.9906 62.5414 78.2914 65.3927 79.7468C65.8553 80.0014 66.259 80.3505 66.5776 80.7716C66.8961 81.1926 67.1224 81.676 67.2416 82.1904C67.3608 82.7047 67.3703 83.2384 67.2695 83.7566C67.1686 84.2748 66.9597 84.766 66.6563 85.1981C65.4324 87.077 62.7796 87.8444 60.7022 88.0032C58.3206 88.1685 53.4846 86.3691 53.081 86.2169C52.9818 87.1894 52.8693 88.1619 52.7767 89.141C52.4658 92.3298 52.1681 95.5318 51.7777 98.6808C51.6454 99.7724 51.4668 100.844 51.3014 101.916C51.963 101.023 53.2861 99.4284 53.3919 99.3027C55.3766 97.318 60.4641 94.6188 63.3154 96.0742C63.778 96.3288 64.1817 96.678 64.5002 97.099C64.8188 97.52 65.0451 98.0035 65.1643 98.5178C65.2835 99.0321 65.293 99.5658 65.1921 100.084C65.0913 100.602 64.8824 101.093 64.579 101.526C63.3551 103.404 60.7022 104.172 58.5919 104.324C56.4815 104.476 52.3665 103.047 51.222 102.63C50.9243 104.417 50.5605 106.176 50.1834 107.923C49.9915 108.664 49.846 109.425 49.621 110.126C49.3961 110.827 49.1976 111.535 48.9595 112.23C48.4765 113.645 48.0399 114.969 47.5569 116.278C47.3188 116.94 47.0806 117.562 46.8358 118.204C47.3982 117.198 48.3111 115.617 48.417 115.485C50.0974 113.202 54.6952 109.782 57.6789 110.794C58.1744 110.975 58.6261 111.259 59.0047 111.627C59.3833 111.994 59.6803 112.437 59.8762 112.927C60.0722 113.417 60.1628 113.943 60.1421 114.47C60.1214 114.997 59.9899 115.514 59.7562 115.987C58.83 118.032 56.3227 119.196 54.2586 119.666C51.9828 120.182 47.0938 119.189 46.4918 119.064C45.8964 120.632 45.3076 122.153 44.7254 123.569C42.8929 128.041 41.1993 131.706 39.9754 134.247C39.9093 134.392 39.8431 134.518 39.7769 134.657H48.6882L45.6119 194.641C45.5045 196.856 44.5458 198.943 42.9359 200.468C41.326 201.993 39.1893 202.837 36.9719 202.824C34.7747 202.819 32.6628 201.973 31.0697 200.46C29.4765 198.947 28.5229 196.881 28.4046 194.687L25.335 134.683H34.8946C34.8483 134.266 34.802 133.83 34.7424 133.36C34.4249 130.588 33.9089 126.625 33.0753 121.908C32.8437 120.546 32.5659 119.11 32.2748 117.635C31.6529 117.714 26.7177 118.336 24.4882 117.635C22.4572 117.013 20.0491 115.65 19.2817 113.559C19.0831 113.07 18.9898 112.545 19.0079 112.017C19.026 111.49 19.155 110.972 19.3866 110.498C19.6181 110.023 19.947 109.603 20.3519 109.264C20.7567 108.925 21.2283 108.676 21.7361 108.532C24.8123 107.744 29.1456 111.495 30.654 113.903C30.7466 114.056 31.686 116.001 32.1425 117.006C31.9639 116.113 31.7852 115.227 31.5801 114.3C31.2957 112.977 30.9186 111.568 30.6275 110.212C30.429 109.517 30.2372 108.809 30.0387 108.102C29.8402 107.394 29.5888 106.712 29.3771 106.004C29.0265 104.979 28.6097 103.934 28.1996 102.895C26.8764 103.265 22.907 104.284 20.8826 103.993C18.8583 103.702 16.1988 102.716 15.1204 100.752C14.8506 100.298 14.6792 99.7919 14.6176 99.2674C14.5559 98.7429 14.6053 98.2114 14.7626 97.7072C14.9198 97.2031 15.1814 96.7376 15.5302 96.3412C15.8791 95.9447 16.3075 95.6261 16.7876 95.4061C19.7117 94.1689 24.5543 97.2188 26.4133 99.3755C26.4729 99.4416 26.8169 99.9378 27.2204 100.527C26.7904 99.521 26.3604 98.5419 25.8973 97.5165C24.5742 94.6717 23.1121 91.8138 21.6699 88.9161C21.3722 88.3207 21.0811 87.7187 20.7834 87.1167C19.6521 87.4342 15.385 88.5787 13.2614 88.2678C11.1378 87.9568 8.57754 86.991 7.49918 85.0261C7.22837 84.5729 7.05626 84.0677 6.99411 83.5434C6.93196 83.0192 6.98118 82.4877 7.13854 81.9838C7.2959 81.4798 7.55786 81.0148 7.90729 80.6191C8.25673 80.2233 8.68576 79.9058 9.16633 79.6873C12.0838 78.4435 16.9331 81.5 18.7921 83.6567C18.8583 83.7361 19.2684 84.3182 19.7249 84.9798C18.9641 83.4053 18.2232 81.8307 17.5351 80.2496C16.3471 77.5337 15.3393 74.7425 14.5184 71.894C14.1215 72.0131 9.14648 73.4553 6.7847 73.1113C4.68753 72.807 2.10081 71.8345 1.02246 69.8697C0.75556 69.4187 0.586097 68.9169 0.524994 68.3964C0.463891 67.876 0.512506 67.3486 0.667703 66.8481C0.822899 66.3476 1.08124 65.8851 1.42606 65.4906C1.77089 65.096 2.19456 64.7781 2.66976 64.5573C5.59388 63.3135 10.4365 66.37 12.2955 68.5267C12.4278 68.6788 13.8965 70.8289 14.3993 71.6096C14.3965 71.5766 14.3965 71.5434 14.3993 71.5103C13.6623 68.6925 13.1796 65.8141 12.9571 62.91C12.7407 60.3182 12.6788 57.7159 12.7719 55.1168C12.8248 52.7087 13.0233 50.4858 13.2217 48.5606C13.3342 47.5021 13.4533 46.5429 13.579 45.6498L13.526 45.6828C13.4731 45.6828 12.408 42.0112 12.3683 41.7664C11.8986 38.968 12.6462 33.2851 15.4644 31.8429C15.9393 31.6125 16.4575 31.4849 16.9851 31.4685C17.5127 31.4521 18.0378 31.5473 18.5261 31.7477C19.0144 31.9482 19.4549 32.2494 19.8188 32.6317C20.1827 33.0141 20.4618 33.4689 20.6379 33.9665C21.4648 36.0505 20.5651 38.6636 19.4603 40.4763C18.3555 42.289 14.6573 44.922 13.7377 45.5505C13.6253 46.4833 13.5194 47.4823 13.4268 48.5937C13.2746 50.5387 13.1225 52.7351 13.1159 55.1366C13.1159 55.7982 13.1159 56.4597 13.1489 57.1213C13.3673 55.9966 13.6848 54.475 13.7311 54.303C14.6044 51.6038 17.8791 46.9067 21.0613 46.9067C21.5886 46.9232 22.1067 47.0503 22.5818 47.2799C23.0568 47.5094 23.4784 47.8363 23.819 48.2393C24.1596 48.6423 24.4116 49.1123 24.5588 49.619C24.706 50.1257 24.7451 50.6577 24.6734 51.1804C24.4419 53.4099 22.4373 55.3152 20.6246 56.4134C18.8119 57.5116 14.1678 58.1666 13.1688 58.2857C13.2085 59.7676 13.2945 61.2825 13.4665 62.8637C13.7548 65.7332 14.2972 68.5714 15.0873 71.3449H15.266C15.3387 70.2798 15.5438 68.0371 15.5769 67.8585C16.1525 65.0799 18.8847 60.052 22.0536 59.708C22.5797 59.6661 23.1088 59.7353 23.6064 59.9111C24.1041 60.0869 24.5592 60.3653 24.9422 60.7284C25.3253 61.0915 25.6277 61.5311 25.8298 62.0186C26.032 62.5061 26.1294 63.0307 26.1156 63.5583C26.1156 65.801 24.3426 67.9114 22.6623 69.2015C20.6974 70.6371 15.4446 71.8345 15.2395 71.8742C16.0978 74.6096 17.1343 77.2858 18.3422 79.8857C19.2089 81.8109 20.2012 83.7427 21.1936 85.648C21.1936 84.8938 21.4847 81.9631 21.531 81.7514C22.1065 78.9728 24.8388 73.9449 28.0011 73.6009C28.5269 73.558 29.0558 73.6263 29.5534 73.8013C30.051 73.9763 30.5063 74.2541 30.8894 74.6167C31.2726 74.9793 31.5751 75.4185 31.7773 75.9057C31.9795 76.3929 32.0769 76.9172 32.0631 77.4446C32.0631 79.6873 30.2967 81.7977 28.6163 83.0877C26.7243 84.5432 21.6964 85.734 21.273 85.8068C21.7295 86.6734 22.1727 87.5467 22.6358 88.4133C24.1375 91.2448 25.6525 94.0763 27.0617 96.921C27.5512 97.9068 28.0011 98.9057 28.4509 99.8849C28.5303 98.7602 28.7222 96.7226 28.7553 96.544C29.3308 93.772 32.0631 88.7375 35.2254 88.3935C35.7515 88.3516 36.2805 88.4207 36.7782 88.5965C37.2758 88.7723 37.7309 89.0508 38.114 89.4139C38.497 89.777 38.7994 90.2165 39.0016 90.7041C39.2037 91.1916 39.3011 91.7162 39.2874 92.2438C39.2874 94.4865 37.521 96.5969 35.8406 97.8869C34.1603 99.177 29.9461 100.255 28.7553 100.533C29.4962 102.18 30.1909 103.841 30.7995 105.495C31.0443 106.216 31.342 106.937 31.5405 107.645L32.202 109.742C32.5857 111.191 32.9496 112.534 33.2671 113.897C33.4391 114.558 33.5781 115.22 33.7302 115.882C33.6442 114.737 33.5384 112.911 33.545 112.746C33.6905 109.914 35.6355 104.522 38.7052 103.709C39.2211 103.58 39.7584 103.563 40.2816 103.658C40.8047 103.752 41.3017 103.957 41.7396 104.259C42.1775 104.56 42.5463 104.952 42.8216 105.407C43.0968 105.861 43.2722 106.37 43.3362 106.897C43.3803 107.171 43.3981 107.448 43.3891 107.724C44.6444 109.885 45.3275 112.331 45.3738 114.83C45.3738 115.008 45.0761 117.152 44.9041 118.237C45.2481 117.396 45.5656 116.556 45.9229 115.676C46.4191 114.406 46.9086 113.03 47.3849 111.707C47.6033 111.045 47.8282 110.318 48.0465 109.616C48.2648 108.915 48.4368 108.207 48.6353 107.499C48.9132 106.448 49.1447 105.349 49.3762 104.251C48.0531 103.828 44.1962 102.498 42.668 101.135C41.1398 99.7724 39.466 97.4834 39.6446 95.2473C39.6708 94.7203 39.8074 94.2046 40.0457 93.7338C40.284 93.2631 40.6187 92.8476 41.0279 92.5145C41.4371 92.1814 41.9118 91.938 42.4211 91.8002C42.9305 91.6624 43.4631 91.6332 43.9845 91.7145C47.1071 92.2901 49.4623 97.5098 49.8327 100.315C49.8327 100.401 49.8327 100.976 49.8327 101.724C50.0312 100.646 50.2297 99.5739 50.3884 98.4757C50.8449 95.3664 51.2088 92.1776 51.5925 88.9955C51.6653 88.3339 51.7579 87.6724 51.8373 87.0108C50.7258 86.6536 46.5448 85.251 44.9305 83.8221C43.3163 82.3931 41.7286 80.1702 41.9138 77.9407C41.9381 77.4134 42.0733 76.8972 42.3105 76.4256C42.5477 75.9541 42.8816 75.5378 43.2904 75.2038C43.6992 74.8699 44.1738 74.6259 44.6832 74.4876C45.1927 74.3493 45.7255 74.32 46.247 74.4014C49.3763 74.9769 51.7314 80.2033 52.0953 83.0017C52.0953 83.101 52.0953 83.8221 52.135 84.6292C52.3665 82.8959 52.6245 81.1758 52.9222 79.4756C53.4289 76.5659 54.1272 73.6928 55.0128 70.8752C54.6225 70.7495 49.674 69.2081 47.8943 67.6203C46.3132 66.2046 44.6924 63.9685 44.871 61.7324C44.8971 61.2054 45.0338 60.6898 45.2721 60.219C45.5104 59.7482 45.845 59.3327 46.2542 58.9996C46.6635 58.6665 47.1382 58.4231 47.6475 58.2853C48.1569 58.1475 48.6895 58.1183 49.2109 58.1996C52.3334 58.7752 54.6886 63.995 55.0591 66.8C55.0591 66.9985 55.1252 69.5984 55.1054 70.5312V70.432C56.0479 67.6872 57.23 65.0307 58.6382 62.4932C59.8911 60.2092 61.2761 58.0003 62.7862 55.8776C64.1622 53.8929 65.5449 52.1728 66.7556 50.6578C67.4171 49.8375 68.0787 49.1031 68.6609 48.4217H68.5881C68.5352 48.4217 69.6929 44.7368 69.7922 44.5119C70.9433 41.9251 74.6943 37.5919 77.8566 37.9359C78.3877 38.0014 78.8987 38.1797 79.3552 38.4589C79.8117 38.7381 80.2032 39.1118 80.5033 39.5549C80.8035 39.9979 81.0054 40.5 81.0954 41.0275C81.1855 41.555 81.1617 42.0957 81.0255 42.6132ZM44.5931 118.839C44.0573 118.574 39.8894 116.51 38.262 114.75C36.8579 115.526 35.4087 116.218 33.9221 116.821C34.2926 118.455 34.6366 120.056 34.9277 121.558C35.8737 126.301 36.4757 130.284 36.8594 133.082C36.9454 133.678 37.0116 134.213 37.0778 134.696H37.2895L37.951 133.34C39.2146 130.853 40.9678 127.267 42.8797 122.874C43.4619 121.584 44.0308 120.228 44.5931 118.839ZM61.2381 58.193C61.291 58.2261 62.2503 54.4883 62.29 54.2236C62.6803 51.412 61.7806 45.7556 58.9226 44.3729C58.4377 44.1577 57.9127 44.0475 57.3821 44.0498C56.8516 44.052 56.3275 44.1666 55.8444 44.3859C55.3613 44.6053 54.9301 44.9245 54.5793 45.3225C54.2284 45.7205 53.9658 46.1882 53.8087 46.695C53.0413 48.7988 54.0138 51.3855 55.1319 53.1651C56.5145 55.2226 61.2381 58.193 61.2381 58.193Z" fill="white"/>
<path d="M230.301 205.643C227.905 207.391 225.379 208.955 222.746 210.32C219.63 211.755 219.028 211.755 219.147 212.596C219.266 213.436 222.865 214.752 229.461 213.198C236.057 211.643 239.173 211.994 240.132 208.878C241.091 205.762 239.536 206.602 237.618 206.602C235.164 206.411 232.721 206.091 230.301 205.643Z" fill="#2E353A" stroke="#2E353A" stroke-linecap="round" stroke-linejoin="round"/>
<path d="M239.775 209.705C236.963 210.446 231.895 211.689 227.661 212.351C224.881 212.854 222.024 212.728 219.299 211.98C219.225 212.061 219.173 212.159 219.146 212.266C219.12 212.372 219.12 212.483 219.147 212.589C219.266 213.429 222.865 214.746 229.461 213.191C235.402 211.795 238.511 211.934 239.775 209.705Z" fill="white" stroke="#2E353A" stroke-linecap="round" stroke-linejoin="round"/>
<path d="M262.665 148.384C262.665 148.384 262.91 152.585 260.019 158.341C257.128 164.096 248.646 164.573 246.37 164.573C244.095 164.573 244.809 162.178 244.809 162.178L245.166 160.015L241.329 159.055C241.329 159.055 231.141 172.611 231.141 173.689C231.141 174.767 241.673 199.523 242.275 202.401C242.877 205.279 243.235 206 241.912 207.078C240.931 207.77 239.805 208.227 238.62 208.414C237.435 208.601 236.223 208.513 235.078 208.157C233.296 207.599 231.571 206.877 229.924 206C229.857 204.923 229.857 203.842 229.924 202.765C230.043 201.687 231.842 202.527 231.002 200.727C230.162 198.928 229.679 198.445 229.203 197.247C228.727 196.05 217.381 177.142 217.864 172.703C218.347 168.264 228.985 152.856 228.985 152.499C229.433 151.376 229.952 150.282 230.539 149.224C230.539 149.224 231.016 147.663 232.22 147.425C233.424 147.187 251.762 147.425 256.439 146.83C261.117 146.234 263.393 146.466 262.665 148.384Z" fill="#E43955" stroke="#2E353A" stroke-linecap="round" stroke-linejoin="round"/>
<path d="M232.769 182.428L233.45 183.877" stroke="#2E353A" stroke-width="0.75" stroke-linecap="round" stroke-linejoin="round"/>
<path d="M234.912 165.975L229.739 172.736C229.739 172.736 223.123 173.537 225.108 173.669C227.092 173.802 229.077 173.802 229.077 173.802C229.077 173.802 227.35 174.331 227.754 174.595C228.219 174.781 228.716 174.871 229.216 174.86L232.041 180.867" stroke="#2E353A" stroke-width="0.75" stroke-linecap="round" stroke-linejoin="round"/>
<path d="M224.803 97.9002C224.803 97.9002 223.13 98.8264 220.609 100.262C218.088 101.698 216.64 102.419 216.296 103.623C215.952 104.827 208.615 119.844 208.615 119.844C208.615 119.844 211.493 121.525 214.132 122.722C216.138 123.547 218.228 124.15 220.364 124.522L222.766 119.487C222.766 119.487 227.397 128.233 229.381 131.356C232.914 136.933 231.776 140.353 231.3 142.271C230.824 144.19 229.5 147.789 229.858 148.265C230.215 148.741 239.57 152.942 245.57 152.585C251.57 152.228 261.851 151.672 262.572 150.832C263.293 149.992 263.412 145.149 263.412 144.785C263.412 144.421 262.354 135.074 261.275 129.437C260.197 123.8 254.322 108.69 252.404 104.615C250.485 100.54 248.686 99.2167 243.804 97.5429C238.921 95.8692 231.69 95.5053 228.693 95.8626C225.696 96.2198 224.803 97.9002 224.803 97.9002Z" fill="#2E353A" stroke="#2E353A" stroke-linecap="round" stroke-linejoin="round"/>
<path d="M244.988 113.983L252.417 116.371L246.185 117.033" stroke="white" stroke-width="0.75" stroke-linecap="round" stroke-linejoin="round"/>
<path d="M232.789 132.95C232.789 132.95 239.947 138.785 248.706 138.785" stroke="white" stroke-width="0.75" stroke-linecap="round" stroke-linejoin="round"/>
<path d="M235.177 138.256C235.177 138.256 241.131 141.041 247.244 140.115" stroke="white" stroke-width="0.75" stroke-linecap="round" stroke-linejoin="round"/>
<path d="M219.789 112.13L222.766 119.487L216.474 110.404" stroke="white" stroke-width="0.75" stroke-linecap="round" stroke-linejoin="round"/>
<path d="M224.294 98.7404C224.132 100.092 224.092 101.456 224.175 102.816C224.294 105.336 225.134 107.136 224.413 108.935C223.692 110.735 224.539 111.581 225.253 110.735C225.968 109.888 227.172 106.653 227.417 106.057C227.661 105.462 232.709 104.377 233.41 104.377C234.112 104.377 236.407 107.976 237.486 108.452C238.564 108.928 238.326 107.976 237.605 106.057C236.884 104.139 236.05 97.4569 234.37 95.3796C232.689 93.3023 226.001 93.8249 224.294 98.7404Z" fill="white" stroke="#2E353A" stroke-linecap="round" stroke-linejoin="round"/>
<path d="M225.525 100.897C224.863 100.666 228.998 107.017 230.678 110.252C232.358 113.487 233.913 112.653 234.158 110.133C234.403 107.612 233.318 99.2167 233.318 99.2167C233.318 99.2167 228.998 102.101 225.525 100.897Z" fill="white" stroke="#2E353A" stroke-linecap="round" stroke-linejoin="round"/>
<path d="M234.112 107.116C232.565 107.779 230.852 107.955 229.203 107.619C229.765 108.584 230.288 109.504 230.678 110.265C232.359 113.5 233.913 112.666 234.158 110.146C234.21 109.136 234.194 108.124 234.112 107.116Z" fill="#E43955" stroke="#2E353A" stroke-linecap="round" stroke-linejoin="round"/>
<path d="M237.631 151.785V166.61" stroke="#2E353A" stroke-width="4" stroke-linecap="round" stroke-linejoin="round"/>
<path d="M250.346 155.126C250.278 155.132 250.21 155.132 250.141 155.126L227.84 152.479C227.398 152.409 227 152.171 226.73 151.814C226.46 151.457 226.338 151.01 226.39 150.565C226.442 150.121 226.664 149.714 227.01 149.43C227.355 149.145 227.797 149.005 228.244 149.039L250.545 151.685C250.995 151.722 251.412 151.932 251.708 152.273C252.005 152.613 252.156 153.055 252.13 153.506C252.104 153.956 251.903 154.378 251.57 154.682C251.236 154.986 250.797 155.148 250.346 155.132V155.126Z" fill="white" stroke="#2E353A" stroke-linecap="round" stroke-linejoin="round"/>
<path d="M250.446 154.576C251.041 154.576 251.524 154.008 251.524 153.306C251.524 152.605 251.041 152.036 250.446 152.036C249.85 152.036 249.367 152.605 249.367 153.306C249.367 154.008 249.85 154.576 250.446 154.576Z" fill="white" stroke="#2E353A" stroke-width="0.75" stroke-linecap="round" stroke-linejoin="round"/>
<path d="M230.195 217.121L243.565 223.703C243.642 223.738 243.726 223.755 243.81 223.755C243.895 223.755 243.978 223.738 244.055 223.703L252.08 220.733C252.194 220.691 252.294 220.615 252.365 220.516C252.437 220.417 252.477 220.299 252.481 220.177C252.486 220.055 252.453 219.935 252.389 219.831C252.325 219.727 252.231 219.645 252.119 219.595L239.589 213.793C239.461 213.734 239.316 213.72 239.179 213.753L230.327 215.97C230.204 215.998 230.092 216.065 230.008 216.159C229.923 216.254 229.87 216.373 229.856 216.499C229.841 216.625 229.866 216.752 229.927 216.863C229.988 216.975 230.081 217.065 230.195 217.121Z" fill="white" stroke="#2E353A" stroke-linecap="round" stroke-linejoin="round"/>
<path d="M240.833 219.311H238.187C237.586 219.309 237.009 219.069 236.584 218.644C236.159 218.219 235.919 217.643 235.918 217.041L234.257 168.549C234.257 168.003 234.474 167.48 234.86 167.094C235.246 166.708 235.769 166.491 236.315 166.491H239.391C239.937 166.491 240.46 166.708 240.846 167.094C241.232 167.48 241.448 168.003 241.448 168.549L243.109 217.041C243.109 217.34 243.05 217.636 242.936 217.911C242.821 218.187 242.653 218.438 242.442 218.648C242.231 218.859 241.98 219.026 241.704 219.14C241.427 219.253 241.132 219.311 240.833 219.311Z" fill="white" stroke="#2E353A" stroke-linecap="round" stroke-linejoin="round"/>
<path d="M247.33 217.63C245.318 219.52 243.195 221.287 240.972 222.923C238.326 224.722 238.094 224.484 238.696 225.681C239.298 226.879 241.091 227.6 246.132 226.522C251.173 225.443 252.847 224.603 255.606 223.042C258.365 221.481 259.198 221.481 258.484 220.521C257.769 219.562 247.33 217.63 247.33 217.63Z" fill="#2E353A" stroke="#2E353A" stroke-linecap="round" stroke-linejoin="round"/>
<path d="M255.606 223.029C258.358 221.467 259.198 221.467 258.484 220.508C258.294 220.331 258.068 220.198 257.822 220.118C254.166 222.278 250.295 224.052 246.271 225.41C241.111 226.965 238.597 225.165 238.597 225.165L238.537 225.265C238.59 225.396 238.649 225.524 238.716 225.648C239.311 226.846 241.111 227.567 246.152 226.489C251.193 225.41 252.847 224.59 255.606 223.029Z" fill="white" stroke="#2E353A" stroke-linecap="round" stroke-linejoin="round"/>
<path d="M266.29 121.763C265.433 119.885 264.673 117.964 264.014 116.007C262.003 116.966 255.857 122.113 255.857 122.113L261.256 129.424C261.256 129.424 256.102 136.86 253.701 141.061C251.936 143.927 249.753 146.514 247.224 148.735L241.329 148.662C241.069 148.827 240.85 149.049 240.688 149.312C240.527 149.574 240.427 149.87 240.396 150.177C240.396 151.103 239.351 154.365 239.814 154.947C240.277 155.529 243.076 155.642 243.076 155.642C243.076 155.642 247.614 156.111 248.428 154.947C248.428 154.947 247.032 153.432 247.144 152.737C247.257 152.043 248.659 151.573 248.659 151.573L250.181 151.46C250.181 151.46 250.704 151.824 251.14 149.476C252.318 148.695 256.598 145.824 258.861 143.561C261.507 140.915 269.294 132.169 269.889 130.489C270.484 128.808 267.851 125.243 266.29 121.763Z" fill="white" stroke="#2E353A" stroke-linecap="round" stroke-linejoin="round"/>
<path d="M265.734 120.486C264.564 117.741 264.014 116.007 264.014 116.007C262.003 116.966 255.857 122.113 255.857 122.113L258.424 125.587C261.298 124.619 263.835 122.849 265.734 120.486Z" fill="#E43955" stroke="#2E353A" stroke-linecap="round" stroke-linejoin="round"/>
<path d="M249.142 113.129L255.5 124.376L259.218 121.855C261.318 120.299 263.177 118.442 264.736 116.345C262.154 112.255 259.268 108.365 256.102 104.708C251.061 98.9521 248.666 98.5948 246.509 98.7139" fill="#2E353A"/>
<path d="M249.142 113.129L255.5 124.376L259.218 121.855C261.318 120.299 263.177 118.442 264.736 116.345C262.154 112.255 259.268 108.365 256.102 104.708C251.061 98.9521 248.666 98.5948 246.509 98.7139" stroke="#2E353A" stroke-linecap="round" stroke-linejoin="round"/>
<path d="M233.649 152.168C233.649 151.699 231.664 146.816 231.664 146.816L225.71 143.542C223.255 138.606 219.484 130.707 218.836 129.318C218.352 128.354 217.95 127.352 217.632 126.321L218.644 124.164C217.108 123.824 215.606 123.341 214.159 122.722C213.041 122.219 211.89 121.63 210.93 121.114C210.401 123.139 209.495 126.625 209.839 128.359C210.183 130.092 218.009 140.002 221.919 145.01C221.919 145.01 223.553 151.937 224.254 152.982L224.956 154.027C224.956 154.027 226.113 155.311 226.696 155.192C227.195 155.034 227.667 154.797 228.091 154.49C228.505 154.626 228.944 154.666 229.375 154.61C229.942 154.365 230.455 154.01 230.883 153.564C230.883 153.564 231.465 154.226 232.868 153.915C234.27 153.604 233.649 152.631 233.649 152.168Z" fill="white" stroke="#2E353A" stroke-linecap="round" stroke-linejoin="round"/>
<path d="M210.203 123.992C212.447 125.512 215.03 126.457 217.725 126.744C217.639 126.486 217.606 126.354 217.606 126.354L218.618 124.197C217.081 123.857 215.58 123.374 214.132 122.755C213.014 122.252 211.863 121.664 210.904 121.148C210.692 121.915 210.401 122.934 210.203 123.992Z" fill="#E43955" stroke="#2E353A" stroke-linecap="round" stroke-linejoin="round"/>
<path d="M124.398 155.747V151.699" stroke="#2E353A" stroke-width="6" stroke-linecap="round" stroke-linejoin="round"/>
<path d="M237.81 209.685L232.802 210.518C232.802 210.518 229.745 211.352 229.19 214.131C227.853 220.819 220.933 223.333 215.032 224.656C206.682 226.587 198.21 227.946 189.674 228.725C176.655 229.882 163.43 229.664 150.536 227.402C143.133 226.078 131.847 224.649 126.329 219.013C125.864 218.586 125.513 218.049 125.311 217.452C124.867 215.824 126.376 214.342 127.831 213.482C130.504 212.051 133.353 210.977 136.306 210.287C143.881 208.21 153.341 207.813 160.4 204.518C162.464 203.559 163.708 202.024 161.604 200.172C155.055 194.37 124.398 193.344 124.398 182.435V155.747" stroke="#2E353A" stroke-width="3" stroke-linecap="round" stroke-linejoin="round"/>
<path d="M219.451 92.6937C219.215 91.4394 218.801 90.2253 218.221 89.0881C217.401 87.6922 215.145 85.4429 214.734 83.3127C214.324 81.1824 217.487 78.6817 217.487 78.6817C217.487 78.6817 215.76 78.6817 216.163 77.9408C216.567 77.1998 218.545 77.5306 218.545 77.5306C218.411 77.1449 218.378 76.7312 218.45 76.3291C218.522 75.9271 218.696 75.5503 218.955 75.235C219.855 74.1698 220.186 76.2207 220.186 76.2207C221.155 74.2349 222.661 72.5598 224.532 71.3847C227.483 69.658 232.736 72.0462 233.311 73.5149C233.887 74.9836 232.497 74.4808 232.497 74.4808C232.497 74.4808 239.55 77.6761 240.039 82.4196C240.529 87.163 236.434 86.3559 236.434 86.3559C236.434 86.3559 236.679 89.1477 236.103 90.1334C235.527 91.1191 235.283 91.4565 232.411 89.1477C229.54 86.8388 223.639 87.6724 223.308 89.4784C222.978 91.2845 221.985 93.9837 220.523 93.6595C219.061 93.3354 219.451 92.6937 219.451 92.6937Z" fill="#2E353A" stroke="#2E353A" stroke-linecap="round" stroke-linejoin="round"/>
<path d="M223.507 81.8903C223.507 81.8903 220.669 79.4425 223.765 78.9331C226.861 78.4237 228.012 83.9544 231.234 85.1121C233.224 85.7832 235.398 85.6454 237.287 84.7284" stroke="white" stroke-width="0.5" stroke-linecap="round" stroke-linejoin="round"/>
<path d="M223.024 81.4603C223.024 81.4603 219.776 79.3433 220.053 77.9275C220.331 76.5118 225.571 74.6726 228.396 76.3728C231.221 78.0731 231.366 81.6058 234.899 82.4526C238.432 83.2994 237.869 81.3213 237.446 80.7524" stroke="white" stroke-width="0.5" stroke-linecap="round" stroke-linejoin="round"/>
<path d="M216.805 83.8684C216.236 83.1605 216.097 80.4745 218.36 80.0511C220.622 79.6277 222.462 82.0358 222.462 82.0358C222.032 82.3137 219.491 83.0216 219.068 85.1452C218.644 87.2688 220.761 87.2622 219.776 89.1146" stroke="white" stroke-width="0.5" stroke-linecap="round" stroke-linejoin="round"/>
<path d="M219.861 92.7466C219.861 92.7466 219.742 92.5944 219.564 92.4092C219.127 91.9593 217.897 91.6351 217.52 92.5349C216.99 93.8117 218.432 96.233 219.504 96.5506C219.797 96.6484 220.11 96.6724 220.415 96.6205C220.719 96.5686 221.007 96.4423 221.251 96.2529C221.251 96.2529 224.201 102.207 227.913 103.603C231.624 104.999 233.457 100.606 234.628 97.6488C235.799 94.6916 235.369 93.6198 235.369 93.6198C235.369 93.6198 237.353 94.0895 237.969 91.7542C238.584 89.4189 237.598 88.5258 236.963 88.6316C236.365 88.7993 235.793 89.0487 235.263 89.3726L234.31 86.8256C234.31 86.8256 232.504 87.8907 229.428 86.7197C226.351 85.5487 224.863 82.6908 224.135 82.9025C223.407 83.1142 223.474 85.0195 223.474 85.0195C223.474 85.0195 222.098 84.2785 221.568 84.9136C221.039 85.5487 222.415 86.2963 221.78 88.6316C221.145 90.967 220.391 91.6815 220.391 91.6815C220.391 91.6815 220.92 92.74 220.497 92.74L219.861 92.7466Z" fill="white" stroke="#2E353A" stroke-linecap="round" stroke-linejoin="round"/>
<path d="M226.001 91.1919C226.1 91.6418 225.968 92.0453 225.716 92.0983C225.465 92.1512 225.174 91.8402 225.055 91.3904C224.936 90.9405 225.088 90.537 225.346 90.484C225.604 90.4311 225.908 90.7487 226.001 91.1919Z" fill="#2E353A"/>
<path d="M231.088 90.6097C231.088 91.0662 230.903 91.4499 230.638 91.4565C230.374 91.4631 230.155 91.0993 230.142 90.6428C230.129 90.1863 230.321 89.8092 230.586 89.8026C230.85 89.796 231.068 90.1532 231.088 90.6097Z" fill="#2E353A"/>
<path d="M223.322 89.7563C223.506 89.3142 223.802 88.9278 224.182 88.6355C224.561 88.3431 225.01 88.1548 225.485 88.0892" stroke="#2E353A" stroke-linecap="round" stroke-linejoin="round"/>
<path d="M229.686 87.7848C230.161 87.6702 230.66 87.6968 231.121 87.8613C231.581 88.0258 231.984 88.3211 232.279 88.711" stroke="#2E353A" stroke-linecap="round" stroke-linejoin="round"/>
<path d="M230.546 97.232C230.546 97.232 226.907 98.5882 225.114 96.0544" stroke="#2E353A" stroke-linecap="round" stroke-linejoin="round"/>
<path d="M226.279 97.1725C226.279 97.1725 226.404 99.6401 227.701 100.136C228.998 100.632 229.613 97.49 229.613 97.49C228.492 97.6556 227.348 97.5466 226.279 97.1725Z" fill="#2E353A" stroke="#2E353A" stroke-linecap="round" stroke-linejoin="round"/>
<path d="M226.576 98.6742C226.649 98.9848 226.788 99.2761 226.983 99.5284C227.178 99.7807 227.425 99.988 227.708 100.136C228.369 100.394 228.879 99.6467 229.196 98.8793C228.361 98.5594 227.451 98.4882 226.576 98.6742Z" fill="white" stroke="#2E353A" stroke-linecap="round" stroke-linejoin="round"/>
<path d="M229.501 88.6449C229.112 89.9725 229.089 91.3806 229.434 92.7201C230.056 94.6387 230.982 94.7048 230.612 94.943C230.241 95.1811 228.627 95.4987 228.263 95.1944" fill="white"/>
<path d="M229.501 88.6449C229.112 89.9725 229.089 91.3806 229.434 92.7201C230.056 94.6387 230.982 94.7048 230.612 94.943C230.241 95.1811 228.627 95.4987 228.263 95.1944" stroke="#2E353A" stroke-linecap="round" stroke-linejoin="round"/>
<path d="M244.571 157.507C244.571 157.507 237.75 173.808 237.525 177.407C237.3 181.006 247.581 211.756 247.819 213.079C248.057 214.402 246.146 214.157 246.146 215.474C246.17 216.386 246.372 217.285 246.741 218.12C246.86 218.477 256.334 221.355 257.895 221.474C259.456 221.593 260.171 221.236 260.171 220.151C260.171 219.066 259.456 215.712 259.456 215.354C259.456 214.997 261.375 212.708 260.654 209.48C259.933 206.251 253.224 185.802 252.384 183.639C251.544 181.476 250.585 179.207 250.585 179.207C250.954 178.667 251.2 178.052 251.306 177.407C251.379 176.849 251.379 176.284 251.306 175.727C251.306 175.727 261.699 159.075 261.712 153.895" fill="#E43955"/>
<path d="M244.571 157.507C244.571 157.507 237.75 173.808 237.525 177.407C237.3 181.006 247.581 211.756 247.819 213.079C248.057 214.402 246.146 214.157 246.146 215.474C246.17 216.386 246.372 217.285 246.741 218.12C246.86 218.477 256.334 221.355 257.895 221.474C259.456 221.593 260.171 221.236 260.171 220.151C260.171 219.066 259.456 215.712 259.456 215.354C259.456 214.997 261.375 212.708 260.654 209.48C259.933 206.251 253.224 185.802 252.384 183.639C251.544 181.476 250.585 179.207 250.585 179.207C250.954 178.667 251.2 178.052 251.306 177.407C251.379 176.849 251.379 176.284 251.306 175.727C251.306 175.727 261.699 159.075 261.712 153.895" stroke="#2E353A" stroke-linecap="round" stroke-linejoin="round"/>
<path d="M251.848 191.981C254.561 200.489 257.763 210.618 257.987 212.126C258.384 214.772 257.591 215.315 257.855 216.638C258.12 217.961 258.649 219.82 258.649 219.82" stroke="#2E353A" stroke-width="0.75" stroke-linecap="round" stroke-linejoin="round"/>
<path d="M257.849 155.853C255.784 160.888 251.987 170.176 251.233 172.088C250.168 174.734 248.309 176.865 248.712 177.129C249.116 177.394 250.168 177.394 249.374 178.32C248.58 179.246 248.051 179.517 248.051 179.914C248.051 180.053 249.268 183.851 250.843 188.793" stroke="#2E353A" stroke-width="0.75" stroke-linecap="round" stroke-linejoin="round"/>
<path d="M259.178 152.578L258.517 154.239" stroke="#2E353A" stroke-width="0.75" stroke-linecap="round" stroke-linejoin="round"/>
<path d="M241.349 155.304C241.349 155.304 241.733 151.05 242.123 150.534" stroke="#2E353A" stroke-width="0.75" stroke-linecap="round" stroke-linejoin="round"/>
<path d="M244.445 150.561C244.445 150.561 242.738 156.032 243.076 155.681" stroke="#2E353A" stroke-width="0.75" stroke-linecap="round" stroke-linejoin="round"/>
<path d="M245.735 150.918L244.961 155.046C244.961 155.046 244.829 155.436 245.993 155.562" stroke="#2E353A" stroke-width="0.75" stroke-linecap="round" stroke-linejoin="round"/>
<path d="M230.857 153.564L230.129 152.724" stroke="#2E353A" stroke-width="0.75" stroke-linecap="round" stroke-linejoin="round"/>
<path d="M228.065 154.49L227.417 154.014" stroke="#2E353A" stroke-width="0.75" stroke-linecap="round" stroke-linejoin="round"/>
<path d="M226.669 155.192L225.743 153.756" stroke="#2E353A" stroke-width="0.75" stroke-linecap="round" stroke-linejoin="round"/>
<path d="M186.585 138.434C190.734 133.938 194.37 128.994 197.428 123.695" stroke="#2E353A" stroke-linecap="round" stroke-linejoin="round"/>
<path d="M132.998 164.586C152.066 163.041 169.989 154.859 183.647 141.464" stroke="#2E353A" stroke-linecap="round" stroke-linejoin="round"/>
<path d="M114.104 163.971C116.757 164.369 119.429 164.634 122.109 164.765" stroke="#2E353A" stroke-linecap="round" stroke-linejoin="round"/>
<path d="M89.0768 154.53C90.7748 155.412 92.4971 156.235 94.2436 156.998" stroke="#2E353A" stroke-linecap="round" stroke-linejoin="round"/>
<path d="M45.3539 89.1146C46.5208 101.978 50.7001 114.387 57.5535 125.335C64.407 136.284 73.742 145.465 84.8031 152.135" stroke="#2E353A" stroke-linecap="round" stroke-linejoin="round"/>
<path d="M172.48 15.6015C160.8 7.52352 147.227 2.60759 133.083 1.33231C118.939 0.0570317 104.706 2.46586 91.7693 8.32427" stroke="#2E353A" stroke-linecap="round" stroke-linejoin="round"/>
<path d="M201.43 49.7052C200.614 47.8528 199.732 46.0401 198.784 44.2671" stroke="#2E353A" stroke-linecap="round" stroke-linejoin="round"/>
<path d="M169.768 139.843C174.194 136.556 178.24 132.783 181.828 128.597" stroke="#2E353A" stroke-linecap="round" stroke-linejoin="round"/>
<path d="M117.901 154.127C135.067 155.926 152.32 151.648 166.659 142.04" stroke="#2E353A" stroke-linecap="round" stroke-linejoin="round"/>
<path d="M101.243 150.442C103.51 151.222 105.832 151.899 108.209 152.473" stroke="#2E353A" stroke-linecap="round" stroke-linejoin="round"/>
<path d="M54.5629 101.731C55.0613 103.385 55.6148 105.016 56.2235 106.626" stroke="#2E353A" stroke-linecap="round" stroke-linejoin="round"/>
<path d="M69.2563 32.2861C61.6853 41.1442 56.3063 51.6605 53.5548 62.9837C50.8033 74.3069 50.7566 86.1189 53.4185 97.4635" stroke="#2E353A" stroke-linecap="round" stroke-linejoin="round"/>
<path d="M156.742 13.286C145.116 7.89856 132.292 5.61529 119.521 6.65877C106.75 7.70225 94.4674 12.0369 83.8702 19.2401" stroke="#2E353A" stroke-linecap="round" stroke-linejoin="round"/>
<path d="M194.464 53.3901C188.391 37.9701 177.34 25.0214 163.066 16.6004" stroke="#2E353A" stroke-linecap="round" stroke-linejoin="round"/>
<path d="M197.659 63.6311C197.249 61.8515 196.766 60.0983 196.224 58.3717" stroke="#2E353A" stroke-linecap="round" stroke-linejoin="round"/>
<path d="M194.616 81.2354C194.616 80.3621 195.397 79.4756 195.364 78.5891C195.331 77.7026 194.484 76.8889 194.424 76.0288C194.365 75.1688 195.086 74.2161 194.98 73.3826C194.874 72.549 193.975 71.7551 193.849 70.8951C193.723 70.035 194.365 69.0427 194.199 68.1893C194.034 67.3359 193.081 66.6412 192.876 65.7944C192.671 64.9476 193.247 63.909 193.028 63.0688C192.81 62.2286 191.791 61.6133 191.533 60.7798C191.275 59.9462 191.765 58.8678 191.48 58.0541C191.196 57.2404 190.157 56.6913 189.82 55.8842C189.483 55.0771 189.906 53.959 189.562 53.1651C189.218 52.3713 188.12 51.9082 187.743 51.1275C187.365 50.3469 187.683 49.2024 187.279 48.435C186.876 47.6675 185.751 47.2971 185.295 46.5429C184.838 45.7887 185.096 44.631 184.633 43.8966C184.17 43.1623 183.019 42.8712 182.529 42.1567C182.04 41.4422 182.185 40.2646 181.669 39.5634C181.153 38.8621 179.989 38.6636 179.447 37.9822C178.904 37.3008 178.964 36.1232 178.395 35.4617C177.826 34.8001 176.648 34.6876 176.059 34.0525C175.471 33.4174 175.437 32.2332 174.822 31.618C174.207 31.0027 173.023 30.9564 172.388 30.3808C171.753 29.8053 171.633 28.6145 170.979 28.0455C170.324 27.4766 169.133 27.5361 168.458 26.9936C167.783 26.4511 167.571 25.2868 166.877 24.7708C166.182 24.2548 165.005 24.4003 164.283 23.9107C163.562 23.4212 163.278 22.2701 162.537 21.807C161.796 21.3439 160.645 21.582 159.891 21.1454C159.137 20.7088 158.766 19.5907 157.999 19.1607C157.231 18.7307 156.087 19.0747 155.306 18.6976C154.525 18.3205 154.069 17.2289 153.268 16.8783C152.468 16.5277 151.363 16.9378 150.549 16.6203C149.736 16.3027 149.226 15.2508 148.379 14.9598C147.533 14.6687 146.487 15.1648 145.654 14.9068C144.82 14.6488 144.205 13.6432 143.365 13.4183C142.525 13.1934 141.493 13.7623 140.639 13.5639C139.786 13.3654 139.104 12.4127 138.244 12.2407C137.384 12.0687 136.405 12.7237 135.538 12.5914C134.672 12.459 133.924 11.5593 133.058 11.4601C132.191 11.3608 131.252 12.082 130.411 12.0158C129.571 11.9496 128.718 11.1095 127.844 11.0764C126.971 11.0433 126.098 11.8306 125.198 11.8306C124.299 11.8306 123.445 11.0433 122.552 11.0764C121.659 11.1095 120.852 11.9563 119.985 12.0158C119.118 12.0753 118.179 11.3542 117.339 11.4601C116.499 11.5659 115.711 12.4657 114.858 12.5914C114.005 12.7171 113.006 12.0753 112.152 12.2407C111.299 12.4061 110.604 13.3588 109.757 13.5639C108.91 13.7689 107.872 13.1934 107.032 13.4183C106.191 13.6432 105.57 14.6488 104.743 14.9068C103.916 15.1648 102.831 14.6753 102.01 14.9598C101.19 15.2442 100.687 16.2829 99.8471 16.6203C99.0069 16.9577 97.9219 16.5343 97.128 16.8783C96.3341 17.2223 95.871 18.3205 95.0904 18.6976C94.3098 19.0747 93.1653 18.7571 92.3978 19.1607C91.6304 19.5643 91.2533 20.6889 90.5058 21.1454C89.7582 21.6019 88.5872 21.3505 87.8595 21.807C87.1318 22.2634 86.8341 23.4146 86.1196 23.9041C85.4051 24.3937 84.2275 24.2481 83.5262 24.7642C82.825 25.2802 82.6265 26.4445 81.9451 26.9936C81.2637 27.5427 80.0861 27.47 79.4245 28.0389C78.763 28.6078 78.6505 29.7854 78.0154 30.3742C77.3803 30.963 76.1961 30.9961 75.5809 31.6114C74.9656 32.2266 74.9193 33.4108 74.3437 34.0459C73.7682 34.681 72.5972 34.7869 72.0282 35.4484C71.4593 36.11 71.5188 37.2876 70.9764 37.969C70.4339 38.6504 69.2695 38.8489 68.7535 39.5501C68.2375 40.2514 68.383 41.4224 67.8935 42.1369C67.4039 42.8513 66.2528 43.1424 65.7897 43.8834C65.3266 44.6243 65.5648 45.7755 65.1281 46.5296C64.6915 47.2838 63.5668 47.6543 63.1434 48.4283C62.72 49.2024 63.0574 50.3336 62.6803 51.1143C62.3032 51.8949 61.2117 52.358 60.861 53.1519C60.5104 53.9458 60.9206 55.0572 60.603 55.8709C60.2855 56.6847 59.227 57.1941 58.9425 58.0409C58.658 58.8877 59.141 59.933 58.8896 60.7665C58.6382 61.6001 57.6194 62.2153 57.3944 63.0555C57.1695 63.8957 57.7384 64.9344 57.5466 65.7812C57.3547 66.628 56.3955 67.316 56.2235 68.1761C56.0515 69.0361 56.713 70.0218 56.5807 70.8819C56.4484 71.7419 55.5487 72.4961 55.4494 73.3693C55.3502 74.2426 56.0713 75.1688 56.0051 76.0156C55.939 76.8624 55.0922 77.7026 55.0657 78.5759C55.0393 79.4491 55.8133 80.329 55.8133 81.2221C55.8133 82.1152 55.0326 82.9753 55.0657 83.8684C55.0988 84.7615 55.9456 85.5686 56.0051 86.4352C56.0647 87.3019 55.3436 88.2413 55.4494 89.0815C55.5553 89.9217 56.455 90.709 56.5807 91.5624C56.7064 92.4158 56.0647 93.4214 56.2235 94.2748C56.3822 95.1282 57.3481 95.8162 57.5466 96.663C57.7451 97.5098 57.1695 98.5551 57.3944 99.3887C57.6194 100.222 58.6316 100.851 58.8896 101.678C59.1476 102.505 58.658 103.59 58.9425 104.41C59.227 105.23 60.2656 105.766 60.603 106.58C60.9404 107.394 60.517 108.498 60.861 109.292C61.205 110.086 62.3032 110.549 62.6803 111.33C63.0574 112.111 62.7333 113.255 63.1434 114.023C63.5536 114.79 64.6716 115.167 65.1281 115.921C65.5846 116.675 65.3266 117.833 65.7897 118.567C66.2528 119.302 67.4039 119.593 67.8935 120.307C68.383 121.022 68.2375 122.199 68.7535 122.901C69.2695 123.602 70.4339 123.8 70.9764 124.482C71.5188 125.163 71.4593 126.347 72.0282 127.002C72.5972 127.657 73.7748 127.776 74.3636 128.418C74.9524 129.06 74.9854 130.237 75.6007 130.853C76.216 131.468 77.4002 131.514 78.0353 132.083C78.6704 132.652 78.7894 133.856 79.4444 134.419C80.0993 134.981 81.2835 134.928 81.965 135.47C82.6464 136.013 82.8515 137.177 83.5461 137.693C84.2407 138.209 85.4183 138.064 86.1394 138.553C86.8605 139.043 87.145 140.194 87.886 140.657C88.6269 141.12 89.778 140.882 90.5322 141.319C91.2864 141.755 91.6569 142.88 92.4243 143.303C93.1917 143.727 94.3296 143.389 95.1169 143.766C95.9041 144.144 96.354 145.235 97.1545 145.586C97.955 145.936 99.0598 145.526 99.8735 145.844C100.687 146.161 101.197 147.22 102.043 147.504C102.89 147.789 103.936 147.306 104.769 147.557C105.603 147.809 106.218 148.827 107.058 149.052C107.898 149.277 108.93 148.708 109.784 148.9C110.637 149.092 111.319 150.051 112.179 150.223C113.039 150.395 114.018 149.734 114.884 149.866C115.751 149.998 116.499 150.898 117.365 150.997C118.232 151.097 119.171 150.376 120.012 150.442C120.852 150.508 121.705 151.355 122.578 151.388C123.452 151.421 124.325 150.633 125.225 150.633C126.124 150.633 126.984 151.414 127.871 151.388C128.757 151.361 129.571 150.508 130.431 150.442C131.291 150.376 132.244 151.103 133.077 150.997C133.911 150.892 134.705 149.992 135.565 149.866C136.425 149.74 137.417 150.382 138.271 150.223C139.124 150.065 139.819 149.099 140.666 148.9C141.512 148.702 142.551 149.277 143.391 149.052C144.231 148.827 144.853 147.815 145.68 147.557C146.507 147.299 147.592 147.789 148.413 147.504C149.233 147.22 149.769 146.181 150.576 145.844C151.383 145.506 152.501 145.936 153.295 145.586C154.089 145.235 154.552 144.144 155.333 143.766C156.113 143.389 157.258 143.714 158.025 143.303C158.792 142.893 159.17 141.775 159.917 141.319C160.665 140.862 161.829 141.12 162.563 140.657C163.298 140.194 163.589 139.043 164.303 138.553C165.018 138.064 166.195 138.209 166.897 137.693C167.598 137.177 167.796 136.013 168.478 135.47C169.159 134.928 170.337 134.988 170.998 134.419C171.66 133.85 171.772 132.672 172.408 132.083C173.043 131.494 174.227 131.461 174.842 130.846C175.457 130.231 175.504 129.053 176.079 128.412C176.655 127.77 177.846 127.657 178.415 127.002C178.983 126.347 178.924 125.163 179.466 124.482C180.009 123.8 181.173 123.602 181.689 122.901C182.205 122.199 182.06 121.028 182.549 120.307C183.039 119.586 184.19 119.302 184.653 118.567C185.116 117.833 184.878 116.669 185.315 115.921C185.751 115.174 186.869 114.797 187.299 114.029C187.729 113.262 187.385 112.124 187.762 111.337C188.14 110.549 189.231 110.099 189.582 109.299C189.932 108.498 189.522 107.394 189.84 106.58C190.157 105.766 191.209 105.257 191.5 104.417C191.791 103.576 191.295 102.518 191.553 101.684C191.811 100.851 192.823 100.242 193.048 99.3953C193.273 98.5485 192.704 97.5231 192.896 96.6696C193.088 95.8162 194.047 95.1348 194.219 94.2814C194.391 93.428 193.736 92.4356 193.869 91.569C194.001 90.7023 194.901 89.9548 195 89.0881C195.099 88.2215 194.378 87.2821 194.444 86.4419C194.51 85.6017 195.351 84.7483 195.384 83.875C195.417 83.0017 194.616 82.1086 194.616 81.2354Z" fill="#E43955" stroke="#2E353A" stroke-width="2" stroke-linecap="round" stroke-linejoin="round"/>
<path d="M104.445 15.1781L105.669 18.605" stroke="#2E353A" stroke-width="2" stroke-linecap="round" stroke-linejoin="round"/>
<path d="M99.7875 17.0172L100.892 19.7098" stroke="#2E353A" stroke-width="2" stroke-linecap="round" stroke-linejoin="round"/>
<path d="M185.03 46.6553C183.028 48.3718 180.752 49.7383 178.295 50.6975" stroke="#2E353A" stroke-width="2" stroke-linecap="round" stroke-linejoin="round"/>
<path d="M187.478 51.1871C186.566 51.764 185.626 52.2939 184.66 52.7748" stroke="#2E353A" stroke-width="2" stroke-linecap="round" stroke-linejoin="round"/>
<path d="M85.8285 138.653C85.8285 138.653 88.7658 135.345 89.2554 132.897" stroke="#2E353A" stroke-width="2" stroke-linecap="round" stroke-linejoin="round"/>
<path d="M77.6185 131.891C77.6185 131.891 80.0729 128.835 80.5624 128.345" stroke="#2E353A" stroke-width="2" stroke-linecap="round" stroke-linejoin="round"/>
<path d="M140.573 148.55L139.594 143.164" stroke="#2E353A" stroke-width="2" stroke-linecap="round" stroke-linejoin="round"/>
<path d="M145.958 147.451L145.224 144.388" stroke="#2E353A" stroke-width="2" stroke-linecap="round" stroke-linejoin="round"/>
<path d="M168.372 135.325L164.211 130.667" stroke="#2E353A" stroke-width="2" stroke-linecap="round" stroke-linejoin="round"/>
<path d="M187.968 111.317L181.722 108.015" stroke="#2E353A" stroke-width="2" stroke-linecap="round" stroke-linejoin="round"/>
<path d="M56.3094 81.3147L61.5755 81.4338" stroke="#2E353A" stroke-width="2" stroke-linecap="round" stroke-linejoin="round"/>
<path d="M63.7785 81.5595L66.352 81.6786" stroke="#2E353A" stroke-width="2" stroke-linecap="round" stroke-linejoin="round"/>
<path d="M63.0442 111.687C63.6594 111.442 67.6751 110.364 67.6751 110.364" stroke="#2E353A" stroke-width="2" stroke-linecap="round" stroke-linejoin="round"/>
<path d="M140.613 13.6697C140.242 14.4107 139.501 18.6778 139.501 18.6778" stroke="#2E353A" stroke-width="2" stroke-linecap="round" stroke-linejoin="round"/>
<path d="M145.429 15.3369L144.873 18.122" stroke="#2E353A" stroke-width="2" stroke-linecap="round" stroke-linejoin="round"/>
<path d="M164.522 24.4202L163.04 26.2725" stroke="#2E353A" stroke-width="2" stroke-linecap="round" stroke-linejoin="round"/>
<path d="M67.7678 42.2162L71.4725 44.2539" stroke="#2E353A" stroke-width="2" stroke-linecap="round" stroke-linejoin="round"/>
<path d="M73.702 45.3653L76.6658 47.0324" stroke="#2E353A" stroke-width="2" stroke-linecap="round" stroke-linejoin="round"/>
<path d="M144.833 61.0113C144.833 61.0113 143.702 59.2582 137.986 55.6526C132.27 52.0471 117.478 48.6202 111.649 45.4711C105.821 42.2229 99.3244 36.0968 97.0552 33.1528C94.786 30.2088 95.1367 27.986 93.3108 27.8074C91.4848 27.6287 89.6589 28.4689 88.3887 32.2928C87.1185 36.1166 88.6732 45.6961 89.7118 48.64C90.7505 51.584 93.8003 53.4496 95.7387 54.2303C97.6771 55.0109 102.01 57.0684 102.004 58.9141C101.997 60.7599 101.766 61.1238 100.965 61.2627C100.165 61.4016 82.5669 64.0082 79.8545 64.7955C77.1421 65.5827 75.9711 70.5246 76.7452 74.4212C77.5192 78.3179 80.5889 79.5417 79.6627 82.3071C78.7365 85.0724 77.1421 88.3141 78.7166 91.9858C80.2912 95.6575 83.2484 95.0885 82.0972 97.9399C80.9461 100.791 80.9329 104.126 82.4016 106.269C83.8702 108.412 85.8086 109.802 85.7954 112.402C85.7821 115.002 90.3205 120.724 93.1718 121.538C94.581 121.961 107.376 123.364 119.833 123.49C132.284 123.807 144.397 122.828 144.377 122.828C144.527 102.209 144.679 81.6036 144.833 61.0113Z" fill="white" stroke="#2E353A" stroke-width="3" stroke-linecap="round" stroke-linejoin="round"/>
<path d="M169.695 120.896C162.286 122.016 154.85 122.841 147.387 123.37C146.905 123.392 146.423 123.311 145.974 123.135C145.524 122.958 145.117 122.688 144.778 122.344C144.439 122 144.177 121.588 144.007 121.136C143.838 120.684 143.766 120.201 143.795 119.719C143.87 101.102 143.945 82.4945 144.02 63.8957C144.001 63.4068 144.081 62.9192 144.254 62.4617C144.428 62.0042 144.692 61.5863 145.03 61.2327C145.368 60.8791 145.774 60.5971 146.223 60.4034C146.672 60.2096 147.156 60.1082 147.645 60.105C155.108 60.3167 162.544 60.6188 169.953 61.0113C170.918 61.0797 171.822 61.5104 172.484 62.217C173.145 62.9237 173.515 63.8541 173.519 64.8219C173.44 82.1064 173.362 99.4041 173.287 116.715C173.258 117.718 172.885 118.681 172.232 119.442C171.578 120.203 170.682 120.716 169.695 120.896Z" fill="#2E353A" stroke="#2E353A" stroke-width="3" stroke-linecap="round" stroke-linejoin="round"/>
<path d="M153.129 116.708C153.148 116.345 153.089 115.982 152.958 115.643C152.827 115.304 152.626 114.995 152.369 114.739C152.111 114.482 151.803 114.282 151.463 114.151C151.124 114.021 150.76 113.964 150.397 113.983C149.632 114.065 148.925 114.43 148.414 115.007C147.904 115.583 147.627 116.329 147.638 117.099C147.616 117.464 147.672 117.83 147.801 118.172C147.931 118.514 148.131 118.825 148.389 119.084C148.647 119.344 148.957 119.545 149.299 119.676C149.64 119.807 150.006 119.865 150.371 119.844C151.135 119.75 151.838 119.379 152.346 118.801C152.855 118.223 153.134 117.478 153.129 116.708Z" fill="white" stroke="#2E353A" stroke-width="3" stroke-linecap="round" stroke-linejoin="round"/>
<path d="M144.602 54.1972C151.939 54.1972 157.886 48.2496 157.886 40.913C157.886 33.5763 151.939 27.6287 144.602 27.6287C137.265 27.6287 131.318 33.5763 131.318 40.913C131.318 48.2496 137.265 54.1972 144.602 54.1972Z" fill="white"/>
<path d="M166.993 60.5793C168.92 58.6519 168.92 55.5271 166.993 53.5998C165.066 51.6724 161.941 51.6724 160.013 53.5998C158.086 55.5271 158.086 58.6519 160.013 60.5793C161.941 62.5066 165.066 62.5066 166.993 60.5793Z" fill="white"/>
<path opacity="0.2" d="M120.256 148.345C121.09 148.404 121.884 149.224 122.731 149.257C123.577 149.291 124.424 148.53 125.264 148.53C126.105 148.53 126.965 149.284 127.805 149.257C128.645 149.231 129.446 148.404 130.279 148.345C131.113 148.285 132.026 149.006 132.859 148.88C133.693 148.755 134.434 147.914 135.261 147.789C136.088 147.663 137.054 148.285 137.907 148.133C138.76 147.981 139.402 147.048 140.216 146.863C141.03 146.677 142.042 147.226 142.862 147.008C143.682 146.79 144.271 145.817 145.072 145.566C145.872 145.315 146.917 145.791 147.718 145.513C148.518 145.235 149.041 144.19 149.815 143.912C150.589 143.634 151.674 143.998 152.461 143.661C153.249 143.323 153.672 142.271 154.446 141.901C155.22 141.53 156.305 141.848 157.046 141.458C157.787 141.067 158.151 139.976 158.879 139.559C159.606 139.142 160.731 139.36 161.439 138.897C162.147 138.434 162.431 137.336 163.126 136.866C163.82 136.397 164.952 136.536 165.626 136.033C166.301 135.53 166.5 134.405 167.155 133.883C167.81 133.36 168.954 133.42 169.589 132.871C170.224 132.321 170.337 131.184 170.952 130.615C171.567 130.046 172.712 130.013 173.307 129.417C173.903 128.822 173.929 127.684 174.498 127.069C175.067 126.453 176.212 126.341 176.761 125.699C177.31 125.057 177.25 123.926 177.773 123.265C178.295 122.603 179.42 122.411 179.923 121.736C180.426 121.062 180.28 119.93 180.756 119.236C181.233 118.541 182.338 118.263 182.781 117.549C183.224 116.834 183.006 115.716 183.442 114.988C183.879 114.261 184.951 113.903 185.341 113.162C185.731 112.422 185.427 111.317 185.791 110.563C186.155 109.808 187.213 109.365 187.551 108.578C187.888 107.791 187.491 106.739 187.802 105.932C188.113 105.124 189.125 104.608 189.403 103.834C189.681 103.06 189.205 102.002 189.456 101.188C189.707 100.374 190.68 99.7923 190.898 98.9785C191.117 98.1648 190.561 97.1658 190.753 96.3323C190.945 95.4987 191.864 94.8504 192.023 94.0234C192.182 93.1964 191.553 92.2438 191.679 91.3771C191.805 90.5105 192.678 89.8092 192.771 88.9757C192.863 88.1421 192.168 87.2358 192.235 86.3889C192.301 85.5421 193.115 84.7615 193.141 83.9147C193.167 83.0679 192.413 82.2211 192.413 81.3809C192.413 80.5407 193.174 79.6807 193.141 78.8405C193.108 78.0003 192.294 77.1998 192.235 76.3662C192.175 75.5327 192.863 74.6197 192.771 73.7861C192.678 72.9526 191.798 72.2116 191.679 71.3847C191.56 70.5577 192.175 69.5918 192.023 68.7384C191.871 67.885 190.938 67.2433 190.753 66.4295C190.715 66.2491 190.704 66.0641 190.72 65.8804C144.145 105.574 86.1924 102.511 59.8026 98.403C59.791 98.5742 59.8067 98.7461 59.8489 98.9124C60.0672 99.7261 61.0397 100.322 61.2911 101.122C61.5425 101.922 61.0661 102.968 61.344 103.768C61.6219 104.569 62.6671 105.091 62.945 105.859C63.2228 106.626 62.859 107.718 63.1964 108.505C63.5338 109.292 64.5857 109.722 64.9561 110.49C65.3266 111.257 65.0091 112.349 65.3994 113.09C65.7897 113.831 66.8813 114.195 67.2981 114.922C67.7149 115.65 67.4966 116.768 67.9597 117.476C68.4227 118.184 69.5209 118.468 69.9907 119.163C70.4604 119.858 70.3214 120.989 70.8242 121.67C71.327 122.352 72.4517 122.537 72.9743 123.198C73.497 123.86 73.4374 124.991 73.9865 125.633C74.5356 126.275 75.6735 126.381 76.2425 126.996C76.8114 127.611 76.8445 128.756 77.4399 129.351C78.0353 129.946 79.1732 129.966 79.7884 130.542C80.4037 131.117 80.5162 132.249 81.1579 132.798C81.7996 133.347 82.9309 133.287 83.5924 133.81C84.254 134.333 84.4459 135.464 85.1207 135.96C85.7954 136.456 86.9267 136.317 87.6214 136.794C88.316 137.27 88.5939 138.375 89.3084 138.825C90.0229 139.274 91.1409 139.043 91.8686 139.486C92.5963 139.929 92.9536 140.988 93.6945 141.385C94.4355 141.782 95.5403 141.464 96.2945 141.835C97.0487 142.205 97.4919 143.25 98.2792 143.588C99.0664 143.925 100.118 143.528 100.925 143.839C101.733 144.15 102.249 145.162 103.023 145.44C103.797 145.718 104.855 145.248 105.669 145.493C106.483 145.738 107.065 146.717 107.878 146.935C108.692 147.154 109.691 146.605 110.525 146.79C111.358 146.975 112.013 147.901 112.84 148.06C113.667 148.219 114.62 147.59 115.453 147.716C116.287 147.842 117.021 148.715 117.855 148.808C118.688 148.9 119.41 148.285 120.256 148.345Z" fill="black"/>
</svg>
