<svg width="93" height="28" viewBox="0 0 93 28" fill="none" xmlns="http://www.w3.org/2000/svg">
<rect x="1" y="1" width="91" height="26" rx="12" fill="white"/>
<rect x="1" y="1" width="91" height="26" rx="12" stroke="#41474D"/>
<path d="M8.29998 10.965C8.16153 10.965 8.02619 11.0061 7.91108 11.083C7.79596 11.1599 7.70624 11.2692 7.65326 11.3971C7.60028 11.525 7.58642 11.6658 7.61343 11.8016C7.64044 11.9373 7.7071 12.0621 7.805 12.16C7.9029 12.2579 8.02763 12.3245 8.16341 12.3515C8.2992 12.3786 8.43995 12.3647 8.56785 12.3117C8.69576 12.2587 8.80509 12.169 8.882 12.0539C8.95892 11.9388 8.99998 11.8034 8.99998 11.665C8.99998 11.4793 8.92623 11.3013 8.79495 11.17C8.66368 11.0387 8.48563 10.965 8.29998 10.965Z" fill="url(#paint0_linear_506_750)"/>
<path d="M23.915 12.36C24.2988 12.36 24.61 12.0488 24.61 11.665C24.61 11.2812 24.2988 10.97 23.915 10.97C23.5311 10.97 23.22 11.2812 23.22 11.665C23.22 12.0488 23.5311 12.36 23.915 12.36Z" fill="url(#paint1_linear_506_750)"/>
<path d="M16.11 8.19501C16.2476 8.196 16.3825 8.15608 16.4974 8.08032C16.6124 8.00455 16.7023 7.89636 16.7556 7.76945C16.809 7.64255 16.8235 7.50265 16.7972 7.36751C16.771 7.23236 16.7052 7.10806 16.6082 7.01036C16.5112 6.91266 16.3874 6.84597 16.2524 6.81875C16.1175 6.79152 15.9775 6.80499 15.8502 6.85744C15.7229 6.9099 15.614 6.99897 15.5375 7.11337C15.4609 7.22777 15.42 7.36234 15.42 7.50001C15.42 7.68347 15.4925 7.85949 15.6218 7.98969C15.751 8.11988 15.9265 8.19369 16.11 8.19501ZM22.815 13.05C22.1902 13.1936 21.582 13.4014 21 13.67C20.2898 14.0107 19.6192 14.4282 19 14.915C18.5612 14.376 18.1824 13.7909 17.87 13.17C17.3714 12.1051 16.9503 11.0055 16.61 9.88001C16.5779 9.77372 16.5113 9.68114 16.4208 9.61686C16.3303 9.55258 16.2209 9.52026 16.11 9.52501C15.999 9.52026 15.8897 9.55258 15.7992 9.61686C15.7086 9.68114 15.6421 9.77372 15.61 9.88001C15.2704 11.0058 14.8493 12.1054 14.35 13.17C14.0391 13.7901 13.6601 14.3737 13.22 14.91C12.5978 14.4288 11.9276 14.0133 11.22 13.67C10.6521 13.4049 10.0591 13.1972 9.44997 13.05C9.35953 13.0283 9.26482 13.0322 9.17649 13.0614C9.08817 13.0905 9.00972 13.1437 8.94997 13.215C8.88917 13.2887 8.85074 13.3782 8.83922 13.473C8.8277 13.5678 8.84358 13.6639 8.88497 13.75C9.83347 15.9067 10.5055 18.1747 10.885 20.5C10.9052 20.6174 10.9667 20.7237 11.0584 20.7998C11.15 20.8759 11.2659 20.9167 11.385 20.915H20.885C21.0041 20.9167 21.1199 20.8759 21.2116 20.7998C21.3032 20.7237 21.3647 20.6174 21.385 20.5C21.7645 18.1747 22.4365 15.9067 23.385 13.75C23.4264 13.6639 23.4422 13.5678 23.4307 13.473C23.4192 13.3782 23.3808 13.2887 23.32 13.215C23.2598 13.1428 23.1805 13.0891 23.0912 13.0599C23.0019 13.0307 22.9061 13.0273 22.815 13.05ZM12.54 19.275C12.43 19.276 12.3222 19.2443 12.2303 19.1839C12.1384 19.1235 12.0664 19.0372 12.0237 18.9359C11.9809 18.8346 11.9692 18.7228 11.99 18.6148C12.0109 18.5068 12.0633 18.4075 12.1408 18.3294C12.2182 18.2512 12.3171 18.1979 12.4248 18.1761C12.5326 18.1542 12.6445 18.1649 12.7462 18.2068C12.8479 18.2486 12.9349 18.3198 12.9961 18.4112C13.0573 18.5025 13.09 18.61 13.09 18.72C13.09 18.8663 13.0322 19.0068 12.9292 19.1107C12.8262 19.2146 12.6863 19.2737 12.54 19.275ZM16.115 19.275C15.9775 19.2619 15.8499 19.198 15.757 19.0959C15.6641 18.9937 15.6126 18.8606 15.6126 18.7225C15.6126 18.5844 15.6641 18.4513 15.757 18.3491C15.8499 18.247 15.9775 18.1831 16.115 18.17C16.2524 18.1831 16.3801 18.247 16.473 18.3491C16.5659 18.4513 16.6174 18.5844 16.6174 18.7225C16.6174 18.8606 16.5659 18.9937 16.473 19.0959C16.3801 19.198 16.2524 19.2619 16.115 19.275ZM19.695 19.275C19.585 19.276 19.4772 19.2443 19.3853 19.1839C19.2934 19.1235 19.2214 19.0372 19.1787 18.9359C19.1359 18.8346 19.1242 18.7228 19.145 18.6148C19.1659 18.5068 19.2183 18.4075 19.2958 18.3294C19.3732 18.2512 19.4721 18.1979 19.5798 18.1761C19.6876 18.1542 19.7995 18.1649 19.9012 18.2068C20.0029 18.2486 20.0899 18.3198 20.1511 18.4112C20.2123 18.5025 20.245 18.61 20.245 18.72C20.245 18.8663 20.1872 19.0068 20.0842 19.1107C19.9812 19.2146 19.8413 19.2737 19.695 19.275Z" fill="url(#paint2_linear_506_750)"/>
<path d="M33.3994 15.1543C33.3994 15.0176 33.3783 14.8955 33.3359 14.7881C33.2969 14.6774 33.2236 14.5781 33.1162 14.4902C33.012 14.3991 32.8639 14.3112 32.6719 14.2266C32.4831 14.1387 32.2389 14.0475 31.9395 13.9531C31.6074 13.849 31.2982 13.7318 31.0117 13.6016C30.7253 13.4714 30.473 13.32 30.2549 13.1475C30.04 12.9749 29.8724 12.7764 29.752 12.5518C29.6315 12.3239 29.5713 12.0602 29.5713 11.7607C29.5713 11.4678 29.6331 11.2008 29.7568 10.96C29.8838 10.7191 30.0628 10.5124 30.2939 10.3398C30.5251 10.1641 30.7969 10.029 31.1094 9.93457C31.4251 9.84017 31.7734 9.79297 32.1543 9.79297C32.6816 9.79297 33.1374 9.889 33.5215 10.0811C33.9089 10.2731 34.2083 10.5335 34.4199 10.8623C34.6315 11.1911 34.7373 11.5605 34.7373 11.9707H33.3994C33.3994 11.7493 33.3522 11.554 33.2578 11.3848C33.1667 11.2155 33.0267 11.082 32.8379 10.9844C32.6523 10.8867 32.418 10.8379 32.1348 10.8379C31.8613 10.8379 31.6335 10.8786 31.4512 10.96C31.2721 11.0413 31.137 11.152 31.0459 11.292C30.958 11.432 30.9141 11.5882 30.9141 11.7607C30.9141 11.891 30.945 12.0081 31.0068 12.1123C31.0687 12.2132 31.1615 12.3092 31.2852 12.4004C31.4089 12.4883 31.5618 12.5713 31.7441 12.6494C31.9297 12.7243 32.1445 12.7992 32.3887 12.874C32.7793 12.9912 33.1211 13.1214 33.4141 13.2646C33.7103 13.4079 33.9561 13.5706 34.1514 13.7529C34.3499 13.9352 34.498 14.1403 34.5957 14.3682C34.6966 14.596 34.7471 14.8548 34.7471 15.1445C34.7471 15.4505 34.6868 15.724 34.5664 15.9648C34.446 16.2057 34.2734 16.4108 34.0488 16.5801C33.8242 16.7493 33.554 16.8779 33.2383 16.9658C32.9258 17.0537 32.5758 17.0977 32.1885 17.0977C31.8434 17.0977 31.5016 17.0521 31.1631 16.9609C30.8278 16.8665 30.5234 16.7266 30.25 16.541C29.9766 16.3522 29.7585 16.1146 29.5957 15.8281C29.4329 15.5384 29.3516 15.1999 29.3516 14.8125H30.6992C30.6992 15.0371 30.735 15.2292 30.8066 15.3887C30.8815 15.5449 30.9857 15.6735 31.1191 15.7744C31.2559 15.8721 31.4154 15.9437 31.5977 15.9893C31.7799 16.0348 31.9769 16.0576 32.1885 16.0576C32.4619 16.0576 32.6865 16.0202 32.8623 15.9453C33.0413 15.8672 33.1748 15.7598 33.2627 15.623C33.3538 15.4863 33.3994 15.3301 33.3994 15.1543ZM38.8291 15.7451V11.7168H40.1279V17H38.9072L38.8291 15.7451ZM38.9951 14.6514L39.3955 14.6416C39.3955 14.9964 39.3564 15.3236 39.2783 15.623C39.2002 15.9225 39.0781 16.1829 38.9121 16.4043C38.7493 16.6224 38.5426 16.7933 38.292 16.917C38.0413 17.0374 37.7451 17.0977 37.4033 17.0977C37.1429 17.0977 36.9053 17.0618 36.6904 16.9902C36.4756 16.9154 36.29 16.7998 36.1338 16.6436C35.9808 16.484 35.862 16.2806 35.7773 16.0332C35.6927 15.7826 35.6504 15.4814 35.6504 15.1299V11.7168H36.9395V15.1396C36.9395 15.3154 36.959 15.4619 36.998 15.5791C37.0404 15.6963 37.0973 15.7923 37.1689 15.8672C37.2438 15.9388 37.3301 15.9909 37.4277 16.0234C37.5286 16.0527 37.6361 16.0674 37.75 16.0674C38.0625 16.0674 38.3083 16.0055 38.4873 15.8818C38.6696 15.7549 38.7998 15.5856 38.8779 15.374C38.9561 15.1592 38.9951 14.9183 38.9951 14.6514ZM41.2656 9.5H42.5596V15.833L42.4326 17H41.2656V9.5ZM45.958 14.3047V14.4072C45.958 14.8011 45.9141 15.1624 45.8262 15.4912C45.7415 15.82 45.613 16.1048 45.4404 16.3457C45.2679 16.5833 45.0531 16.7689 44.7959 16.9023C44.542 17.0326 44.2441 17.0977 43.9023 17.0977C43.5768 17.0977 43.2936 17.0342 43.0527 16.9072C42.8151 16.7803 42.6149 16.6012 42.4521 16.3701C42.2894 16.1357 42.1592 15.8607 42.0615 15.5449C41.9639 15.2259 41.8906 14.8776 41.8418 14.5V14.2217C41.8906 13.8408 41.9639 13.4925 42.0615 13.1768C42.1592 12.861 42.2894 12.5859 42.4521 12.3516C42.6149 12.1172 42.8151 11.9365 43.0527 11.8096C43.2904 11.6826 43.5703 11.6191 43.8926 11.6191C44.2376 11.6191 44.5387 11.6859 44.7959 11.8193C45.0563 11.9495 45.2712 12.1351 45.4404 12.376C45.613 12.6136 45.7415 12.8968 45.8262 13.2256C45.9141 13.5511 45.958 13.9108 45.958 14.3047ZM44.6641 14.4072V14.3047C44.6641 14.0801 44.6462 13.8685 44.6104 13.6699C44.5745 13.4681 44.516 13.2907 44.4346 13.1377C44.3532 12.9847 44.2425 12.8643 44.1025 12.7764C43.9626 12.6885 43.7868 12.6445 43.5752 12.6445C43.3734 12.6445 43.2008 12.6787 43.0576 12.7471C42.9176 12.8154 42.8005 12.9098 42.7061 13.0303C42.6149 13.1507 42.5433 13.2923 42.4912 13.4551C42.4424 13.6178 42.4098 13.7936 42.3936 13.9824V14.7441C42.4163 14.9948 42.4701 15.221 42.5547 15.4229C42.6393 15.6214 42.7646 15.7793 42.9307 15.8965C43.0999 16.0137 43.318 16.0723 43.585 16.0723C43.7933 16.0723 43.9674 16.0316 44.1074 15.9502C44.2474 15.8656 44.3581 15.7484 44.4395 15.5986C44.5208 15.4456 44.5778 15.2682 44.6104 15.0664C44.6462 14.8646 44.6641 14.6449 44.6641 14.4072ZM49.8008 15.5547C49.8008 15.444 49.7715 15.3447 49.7129 15.2568C49.6543 15.1689 49.5436 15.0892 49.3809 15.0176C49.2214 14.9427 48.987 14.8727 48.6777 14.8076C48.4043 14.749 48.152 14.6758 47.9209 14.5879C47.6898 14.5 47.4912 14.3942 47.3252 14.2705C47.1592 14.1436 47.029 13.9954 46.9346 13.8262C46.8434 13.6536 46.7979 13.4551 46.7979 13.2305C46.7979 13.0124 46.8451 12.8073 46.9395 12.6152C47.0339 12.4199 47.1706 12.249 47.3496 12.1025C47.5286 11.9528 47.7467 11.8356 48.0039 11.751C48.2611 11.6631 48.5508 11.6191 48.873 11.6191C49.3223 11.6191 49.708 11.6924 50.0303 11.8389C50.3558 11.9854 50.6048 12.1872 50.7773 12.4443C50.9499 12.6982 51.0361 12.9847 51.0361 13.3037H49.7471C49.7471 13.1637 49.7145 13.0368 49.6494 12.9229C49.5876 12.8089 49.4915 12.7178 49.3613 12.6494C49.2311 12.5778 49.0667 12.542 48.8682 12.542C48.6891 12.542 48.5378 12.5713 48.4141 12.6299C48.2936 12.6885 48.2025 12.765 48.1406 12.8594C48.0788 12.9538 48.0479 13.0579 48.0479 13.1719C48.0479 13.2565 48.0641 13.333 48.0967 13.4014C48.1325 13.4665 48.1895 13.5267 48.2676 13.582C48.3457 13.6374 48.4515 13.6878 48.585 13.7334C48.7217 13.779 48.8893 13.8229 49.0879 13.8652C49.4818 13.9434 49.8252 14.0475 50.1182 14.1777C50.4144 14.3047 50.6455 14.474 50.8115 14.6855C50.9775 14.8971 51.0605 15.1673 51.0605 15.4961C51.0605 15.7305 51.0101 15.9453 50.9092 16.1406C50.8083 16.3327 50.6618 16.5003 50.4697 16.6436C50.2777 16.7868 50.0482 16.8991 49.7812 16.9805C49.5143 17.0586 49.2132 17.0977 48.8779 17.0977C48.3929 17.0977 47.9827 17.0114 47.6475 16.8389C47.3122 16.6631 47.0583 16.4417 46.8857 16.1748C46.7132 15.9046 46.627 15.6247 46.627 15.335H47.8623C47.8721 15.54 47.9274 15.7044 48.0283 15.8281C48.1292 15.9518 48.2562 16.0413 48.4092 16.0967C48.5654 16.1488 48.7298 16.1748 48.9023 16.1748C49.0977 16.1748 49.262 16.1488 49.3955 16.0967C49.529 16.0413 49.6299 15.9681 49.6982 15.877C49.7666 15.7826 49.8008 15.6751 49.8008 15.5547ZM54.21 16.082C54.3923 16.082 54.555 16.0462 54.6982 15.9746C54.8415 15.903 54.9554 15.8021 55.04 15.6719C55.1279 15.5417 55.1751 15.3903 55.1816 15.2178H56.3975C56.391 15.5758 56.29 15.8965 56.0947 16.1797C55.8994 16.4629 55.639 16.6875 55.3135 16.8535C54.9912 17.0163 54.6299 17.0977 54.2295 17.0977C53.8226 17.0977 53.4678 17.0293 53.165 16.8926C52.8623 16.7559 52.61 16.5654 52.4082 16.3213C52.2096 16.0771 52.0599 15.7939 51.959 15.4717C51.8613 15.1494 51.8125 14.8044 51.8125 14.4365V14.2803C51.8125 13.9124 51.8613 13.5674 51.959 13.2451C52.0599 12.9229 52.2096 12.6396 52.4082 12.3955C52.61 12.1514 52.8623 11.9609 53.165 11.8242C53.4678 11.6875 53.821 11.6191 54.2246 11.6191C54.651 11.6191 55.0254 11.7021 55.3477 11.8682C55.6732 12.0342 55.9271 12.2686 56.1094 12.5713C56.2949 12.874 56.391 13.2305 56.3975 13.6406H55.1816C55.1751 13.4518 55.1328 13.2826 55.0547 13.1328C54.9766 12.9831 54.8659 12.8626 54.7227 12.7715C54.5794 12.6803 54.4053 12.6348 54.2002 12.6348C53.9821 12.6348 53.7998 12.6803 53.6533 12.7715C53.5101 12.8626 53.3978 12.988 53.3164 13.1475C53.2383 13.3037 53.1829 13.4795 53.1504 13.6748C53.1211 13.8669 53.1064 14.0687 53.1064 14.2803V14.4365C53.1064 14.6514 53.1211 14.8564 53.1504 15.0518C53.1829 15.2471 53.2383 15.4229 53.3164 15.5791C53.3978 15.7321 53.5101 15.8542 53.6533 15.9453C53.7998 16.0365 53.9854 16.082 54.21 16.082ZM58.5459 12.7959V17H57.2568V11.7168H58.4775L58.5459 12.7959ZM60.1523 11.6826L60.1328 12.8838C60.0612 12.8708 59.9798 12.861 59.8887 12.8545C59.8008 12.848 59.7178 12.8447 59.6396 12.8447C59.4411 12.8447 59.2669 12.8724 59.1172 12.9277C58.9674 12.9798 58.8421 13.0563 58.7412 13.1572C58.6436 13.2581 58.5687 13.3818 58.5166 13.5283C58.4645 13.6715 58.4352 13.8343 58.4287 14.0166L58.1504 13.9824C58.1504 13.6471 58.1846 13.3363 58.2529 13.0498C58.3213 12.7633 58.4206 12.5127 58.5508 12.2979C58.681 12.083 58.8438 11.917 59.0391 11.7998C59.2376 11.6794 59.4655 11.6191 59.7227 11.6191C59.7943 11.6191 59.8708 11.6257 59.9521 11.6387C60.0368 11.6484 60.1035 11.6631 60.1523 11.6826ZM62.2275 11.7168V17H60.9336V11.7168H62.2275ZM60.8457 10.335C60.8457 10.1429 60.9108 9.9834 61.041 9.85645C61.1745 9.72949 61.3535 9.66602 61.5781 9.66602C61.8027 9.66602 61.9801 9.72949 62.1104 9.85645C62.2438 9.9834 62.3105 10.1429 62.3105 10.335C62.3105 10.5238 62.2438 10.6816 62.1104 10.8086C61.9801 10.9355 61.8027 10.999 61.5781 10.999C61.3535 10.999 61.1745 10.9355 61.041 10.8086C60.9108 10.6816 60.8457 10.5238 60.8457 10.335ZM64.7471 12.7324V19.0312H63.4531V11.7168H64.6494L64.7471 12.7324ZM68.1406 14.3047V14.4072C68.1406 14.7913 68.0951 15.1478 68.0039 15.4766C67.916 15.8021 67.7858 16.0869 67.6133 16.3311C67.4408 16.5719 67.2259 16.7607 66.9688 16.8975C66.7148 17.0309 66.4219 17.0977 66.0898 17.0977C65.7643 17.0977 65.4811 17.0358 65.2402 16.9121C64.9993 16.7852 64.7959 16.6061 64.6299 16.375C64.4639 16.1439 64.3304 15.8753 64.2295 15.5693C64.1318 15.2601 64.0586 14.9232 64.0098 14.5586V14.2314C64.0586 13.8441 64.1318 13.4925 64.2295 13.1768C64.3304 12.8577 64.4639 12.5827 64.6299 12.3516C64.7959 12.1172 64.9977 11.9365 65.2354 11.8096C65.4762 11.6826 65.7578 11.6191 66.0801 11.6191C66.4154 11.6191 66.71 11.6826 66.9639 11.8096C67.221 11.9365 67.4375 12.1188 67.6133 12.3564C67.7891 12.5941 67.9209 12.8773 68.0088 13.2061C68.0967 13.5348 68.1406 13.901 68.1406 14.3047ZM66.8467 14.4072V14.3047C66.8467 14.0703 66.8255 13.8538 66.7832 13.6553C66.7409 13.4535 66.6758 13.2777 66.5879 13.1279C66.5 12.9749 66.3861 12.8561 66.2461 12.7715C66.1061 12.6868 65.9368 12.6445 65.7383 12.6445C65.5397 12.6445 65.3688 12.6771 65.2256 12.7422C65.0824 12.8073 64.9652 12.9001 64.874 13.0205C64.7829 13.141 64.7113 13.2842 64.6592 13.4502C64.6104 13.613 64.5778 13.7936 64.5615 13.9922V14.8027C64.5908 15.0436 64.6478 15.2601 64.7324 15.4521C64.8171 15.6442 64.9408 15.7972 65.1035 15.9111C65.2695 16.0251 65.4844 16.082 65.748 16.082C65.9466 16.082 66.1159 16.0381 66.2559 15.9502C66.3958 15.8623 66.5098 15.7419 66.5977 15.5889C66.6855 15.4326 66.749 15.2536 66.7881 15.0518C66.8271 14.8499 66.8467 14.6351 66.8467 14.4072ZM71.583 11.7168V12.6445H68.5557V11.7168H71.583ZM69.3662 10.418H70.6602V15.4766C70.6602 15.6328 70.6813 15.7533 70.7236 15.8379C70.766 15.9225 70.8294 15.9795 70.9141 16.0088C70.9987 16.0381 71.0996 16.0527 71.2168 16.0527C71.3014 16.0527 71.3796 16.0479 71.4512 16.0381C71.5228 16.0283 71.583 16.0186 71.6318 16.0088L71.6367 16.9756C71.5293 17.0114 71.4072 17.0407 71.2705 17.0635C71.137 17.0863 70.9857 17.0977 70.8164 17.0977C70.5267 17.0977 70.2728 17.0488 70.0547 16.9512C69.8366 16.8503 69.6673 16.6891 69.5469 16.4678C69.4264 16.2432 69.3662 15.9469 69.3662 15.5791V10.418ZM73.8096 11.7168V17H72.5156V11.7168H73.8096ZM72.4277 10.335C72.4277 10.1429 72.4928 9.9834 72.623 9.85645C72.7565 9.72949 72.9355 9.66602 73.1602 9.66602C73.3848 9.66602 73.5622 9.72949 73.6924 9.85645C73.8258 9.9834 73.8926 10.1429 73.8926 10.335C73.8926 10.5238 73.8258 10.6816 73.6924 10.8086C73.5622 10.9355 73.3848 10.999 73.1602 10.999C72.9355 10.999 72.7565 10.9355 72.623 10.8086C72.4928 10.6816 72.4277 10.5238 72.4277 10.335ZM74.8105 14.4121V14.3096C74.8105 13.9222 74.8659 13.5658 74.9766 13.2402C75.0872 12.9115 75.2484 12.6266 75.46 12.3857C75.6715 12.1449 75.9303 11.9577 76.2363 11.8242C76.5423 11.6875 76.8906 11.6191 77.2812 11.6191C77.6784 11.6191 78.0299 11.6875 78.3359 11.8242C78.6452 11.9577 78.9056 12.1449 79.1172 12.3857C79.3288 12.6266 79.4899 12.9115 79.6006 13.2402C79.7113 13.5658 79.7666 13.9222 79.7666 14.3096V14.4121C79.7666 14.7962 79.7113 15.1527 79.6006 15.4814C79.4899 15.807 79.3288 16.0918 79.1172 16.3359C78.9056 16.5768 78.6468 16.764 78.3408 16.8975C78.0348 17.0309 77.6849 17.0977 77.291 17.0977C76.9004 17.0977 76.5505 17.0309 76.2412 16.8975C75.932 16.764 75.6715 16.5768 75.46 16.3359C75.2484 16.0918 75.0872 15.807 74.9766 15.4814C74.8659 15.1527 74.8105 14.7962 74.8105 14.4121ZM76.0996 14.3096V14.4121C76.0996 14.6432 76.1224 14.8597 76.168 15.0615C76.2135 15.2633 76.2835 15.4408 76.3779 15.5938C76.4723 15.7467 76.5944 15.8672 76.7441 15.9551C76.8971 16.0397 77.0794 16.082 77.291 16.082C77.4993 16.082 77.6784 16.0397 77.8281 15.9551C77.9779 15.8672 78.0999 15.7467 78.1943 15.5938C78.292 15.4408 78.3636 15.2633 78.4092 15.0615C78.4548 14.8597 78.4775 14.6432 78.4775 14.4121V14.3096C78.4775 14.0817 78.4548 13.8685 78.4092 13.6699C78.3636 13.4681 78.292 13.2907 78.1943 13.1377C78.0999 12.9814 77.9762 12.8594 77.8232 12.7715C77.6735 12.6803 77.4928 12.6348 77.2812 12.6348C77.0729 12.6348 76.8939 12.6803 76.7441 12.7715C76.5944 12.8594 76.4723 12.9814 76.3779 13.1377C76.2835 13.2907 76.2135 13.4681 76.168 13.6699C76.1224 13.8685 76.0996 14.0817 76.0996 14.3096ZM81.9688 12.8447V17H80.6797V11.7168H81.8906L81.9688 12.8447ZM81.7637 14.168H81.3828C81.3861 13.7839 81.4382 13.4355 81.5391 13.123C81.64 12.8105 81.7816 12.542 81.9639 12.3174C82.1494 12.0928 82.3691 11.9202 82.623 11.7998C82.877 11.6794 83.1602 11.6191 83.4727 11.6191C83.7266 11.6191 83.9561 11.6549 84.1611 11.7266C84.3662 11.7982 84.542 11.9121 84.6885 12.0684C84.8382 12.2246 84.9521 12.4297 85.0303 12.6836C85.1117 12.9342 85.1523 13.2435 85.1523 13.6113V17H83.8535V13.6016C83.8535 13.3607 83.8177 13.1702 83.7461 13.0303C83.6777 12.8903 83.5768 12.791 83.4434 12.7324C83.3132 12.6738 83.152 12.6445 82.96 12.6445C82.7614 12.6445 82.5872 12.6852 82.4375 12.7666C82.291 12.8447 82.1673 12.9538 82.0664 13.0938C81.9688 13.2337 81.8939 13.3949 81.8418 13.5771C81.7897 13.7594 81.7637 13.9564 81.7637 14.168Z" fill="#92989F"/>
<path d="M33.3994 15.1543C33.3994 15.0176 33.3783 14.8955 33.3359 14.7881C33.2969 14.6774 33.2236 14.5781 33.1162 14.4902C33.012 14.3991 32.8639 14.3112 32.6719 14.2266C32.4831 14.1387 32.2389 14.0475 31.9395 13.9531C31.6074 13.849 31.2982 13.7318 31.0117 13.6016C30.7253 13.4714 30.473 13.32 30.2549 13.1475C30.04 12.9749 29.8724 12.7764 29.752 12.5518C29.6315 12.3239 29.5713 12.0602 29.5713 11.7607C29.5713 11.4678 29.6331 11.2008 29.7568 10.96C29.8838 10.7191 30.0628 10.5124 30.2939 10.3398C30.5251 10.1641 30.7969 10.029 31.1094 9.93457C31.4251 9.84017 31.7734 9.79297 32.1543 9.79297C32.6816 9.79297 33.1374 9.889 33.5215 10.0811C33.9089 10.2731 34.2083 10.5335 34.4199 10.8623C34.6315 11.1911 34.7373 11.5605 34.7373 11.9707H33.3994C33.3994 11.7493 33.3522 11.554 33.2578 11.3848C33.1667 11.2155 33.0267 11.082 32.8379 10.9844C32.6523 10.8867 32.418 10.8379 32.1348 10.8379C31.8613 10.8379 31.6335 10.8786 31.4512 10.96C31.2721 11.0413 31.137 11.152 31.0459 11.292C30.958 11.432 30.9141 11.5882 30.9141 11.7607C30.9141 11.891 30.945 12.0081 31.0068 12.1123C31.0687 12.2132 31.1615 12.3092 31.2852 12.4004C31.4089 12.4883 31.5618 12.5713 31.7441 12.6494C31.9297 12.7243 32.1445 12.7992 32.3887 12.874C32.7793 12.9912 33.1211 13.1214 33.4141 13.2646C33.7103 13.4079 33.9561 13.5706 34.1514 13.7529C34.3499 13.9352 34.498 14.1403 34.5957 14.3682C34.6966 14.596 34.7471 14.8548 34.7471 15.1445C34.7471 15.4505 34.6868 15.724 34.5664 15.9648C34.446 16.2057 34.2734 16.4108 34.0488 16.5801C33.8242 16.7493 33.554 16.8779 33.2383 16.9658C32.9258 17.0537 32.5758 17.0977 32.1885 17.0977C31.8434 17.0977 31.5016 17.0521 31.1631 16.9609C30.8278 16.8665 30.5234 16.7266 30.25 16.541C29.9766 16.3522 29.7585 16.1146 29.5957 15.8281C29.4329 15.5384 29.3516 15.1999 29.3516 14.8125H30.6992C30.6992 15.0371 30.735 15.2292 30.8066 15.3887C30.8815 15.5449 30.9857 15.6735 31.1191 15.7744C31.2559 15.8721 31.4154 15.9437 31.5977 15.9893C31.7799 16.0348 31.9769 16.0576 32.1885 16.0576C32.4619 16.0576 32.6865 16.0202 32.8623 15.9453C33.0413 15.8672 33.1748 15.7598 33.2627 15.623C33.3538 15.4863 33.3994 15.3301 33.3994 15.1543ZM38.8291 15.7451V11.7168H40.1279V17H38.9072L38.8291 15.7451ZM38.9951 14.6514L39.3955 14.6416C39.3955 14.9964 39.3564 15.3236 39.2783 15.623C39.2002 15.9225 39.0781 16.1829 38.9121 16.4043C38.7493 16.6224 38.5426 16.7933 38.292 16.917C38.0413 17.0374 37.7451 17.0977 37.4033 17.0977C37.1429 17.0977 36.9053 17.0618 36.6904 16.9902C36.4756 16.9154 36.29 16.7998 36.1338 16.6436C35.9808 16.484 35.862 16.2806 35.7773 16.0332C35.6927 15.7826 35.6504 15.4814 35.6504 15.1299V11.7168H36.9395V15.1396C36.9395 15.3154 36.959 15.4619 36.998 15.5791C37.0404 15.6963 37.0973 15.7923 37.1689 15.8672C37.2438 15.9388 37.3301 15.9909 37.4277 16.0234C37.5286 16.0527 37.6361 16.0674 37.75 16.0674C38.0625 16.0674 38.3083 16.0055 38.4873 15.8818C38.6696 15.7549 38.7998 15.5856 38.8779 15.374C38.9561 15.1592 38.9951 14.9183 38.9951 14.6514ZM41.2656 9.5H42.5596V15.833L42.4326 17H41.2656V9.5ZM45.958 14.3047V14.4072C45.958 14.8011 45.9141 15.1624 45.8262 15.4912C45.7415 15.82 45.613 16.1048 45.4404 16.3457C45.2679 16.5833 45.0531 16.7689 44.7959 16.9023C44.542 17.0326 44.2441 17.0977 43.9023 17.0977C43.5768 17.0977 43.2936 17.0342 43.0527 16.9072C42.8151 16.7803 42.6149 16.6012 42.4521 16.3701C42.2894 16.1357 42.1592 15.8607 42.0615 15.5449C41.9639 15.2259 41.8906 14.8776 41.8418 14.5V14.2217C41.8906 13.8408 41.9639 13.4925 42.0615 13.1768C42.1592 12.861 42.2894 12.5859 42.4521 12.3516C42.6149 12.1172 42.8151 11.9365 43.0527 11.8096C43.2904 11.6826 43.5703 11.6191 43.8926 11.6191C44.2376 11.6191 44.5387 11.6859 44.7959 11.8193C45.0563 11.9495 45.2712 12.1351 45.4404 12.376C45.613 12.6136 45.7415 12.8968 45.8262 13.2256C45.9141 13.5511 45.958 13.9108 45.958 14.3047ZM44.6641 14.4072V14.3047C44.6641 14.0801 44.6462 13.8685 44.6104 13.6699C44.5745 13.4681 44.516 13.2907 44.4346 13.1377C44.3532 12.9847 44.2425 12.8643 44.1025 12.7764C43.9626 12.6885 43.7868 12.6445 43.5752 12.6445C43.3734 12.6445 43.2008 12.6787 43.0576 12.7471C42.9176 12.8154 42.8005 12.9098 42.7061 13.0303C42.6149 13.1507 42.5433 13.2923 42.4912 13.4551C42.4424 13.6178 42.4098 13.7936 42.3936 13.9824V14.7441C42.4163 14.9948 42.4701 15.221 42.5547 15.4229C42.6393 15.6214 42.7646 15.7793 42.9307 15.8965C43.0999 16.0137 43.318 16.0723 43.585 16.0723C43.7933 16.0723 43.9674 16.0316 44.1074 15.9502C44.2474 15.8656 44.3581 15.7484 44.4395 15.5986C44.5208 15.4456 44.5778 15.2682 44.6104 15.0664C44.6462 14.8646 44.6641 14.6449 44.6641 14.4072ZM49.8008 15.5547C49.8008 15.444 49.7715 15.3447 49.7129 15.2568C49.6543 15.1689 49.5436 15.0892 49.3809 15.0176C49.2214 14.9427 48.987 14.8727 48.6777 14.8076C48.4043 14.749 48.152 14.6758 47.9209 14.5879C47.6898 14.5 47.4912 14.3942 47.3252 14.2705C47.1592 14.1436 47.029 13.9954 46.9346 13.8262C46.8434 13.6536 46.7979 13.4551 46.7979 13.2305C46.7979 13.0124 46.8451 12.8073 46.9395 12.6152C47.0339 12.4199 47.1706 12.249 47.3496 12.1025C47.5286 11.9528 47.7467 11.8356 48.0039 11.751C48.2611 11.6631 48.5508 11.6191 48.873 11.6191C49.3223 11.6191 49.708 11.6924 50.0303 11.8389C50.3558 11.9854 50.6048 12.1872 50.7773 12.4443C50.9499 12.6982 51.0361 12.9847 51.0361 13.3037H49.7471C49.7471 13.1637 49.7145 13.0368 49.6494 12.9229C49.5876 12.8089 49.4915 12.7178 49.3613 12.6494C49.2311 12.5778 49.0667 12.542 48.8682 12.542C48.6891 12.542 48.5378 12.5713 48.4141 12.6299C48.2936 12.6885 48.2025 12.765 48.1406 12.8594C48.0788 12.9538 48.0479 13.0579 48.0479 13.1719C48.0479 13.2565 48.0641 13.333 48.0967 13.4014C48.1325 13.4665 48.1895 13.5267 48.2676 13.582C48.3457 13.6374 48.4515 13.6878 48.585 13.7334C48.7217 13.779 48.8893 13.8229 49.0879 13.8652C49.4818 13.9434 49.8252 14.0475 50.1182 14.1777C50.4144 14.3047 50.6455 14.474 50.8115 14.6855C50.9775 14.8971 51.0605 15.1673 51.0605 15.4961C51.0605 15.7305 51.0101 15.9453 50.9092 16.1406C50.8083 16.3327 50.6618 16.5003 50.4697 16.6436C50.2777 16.7868 50.0482 16.8991 49.7812 16.9805C49.5143 17.0586 49.2132 17.0977 48.8779 17.0977C48.3929 17.0977 47.9827 17.0114 47.6475 16.8389C47.3122 16.6631 47.0583 16.4417 46.8857 16.1748C46.7132 15.9046 46.627 15.6247 46.627 15.335H47.8623C47.8721 15.54 47.9274 15.7044 48.0283 15.8281C48.1292 15.9518 48.2562 16.0413 48.4092 16.0967C48.5654 16.1488 48.7298 16.1748 48.9023 16.1748C49.0977 16.1748 49.262 16.1488 49.3955 16.0967C49.529 16.0413 49.6299 15.9681 49.6982 15.877C49.7666 15.7826 49.8008 15.6751 49.8008 15.5547ZM54.21 16.082C54.3923 16.082 54.555 16.0462 54.6982 15.9746C54.8415 15.903 54.9554 15.8021 55.04 15.6719C55.1279 15.5417 55.1751 15.3903 55.1816 15.2178H56.3975C56.391 15.5758 56.29 15.8965 56.0947 16.1797C55.8994 16.4629 55.639 16.6875 55.3135 16.8535C54.9912 17.0163 54.6299 17.0977 54.2295 17.0977C53.8226 17.0977 53.4678 17.0293 53.165 16.8926C52.8623 16.7559 52.61 16.5654 52.4082 16.3213C52.2096 16.0771 52.0599 15.7939 51.959 15.4717C51.8613 15.1494 51.8125 14.8044 51.8125 14.4365V14.2803C51.8125 13.9124 51.8613 13.5674 51.959 13.2451C52.0599 12.9229 52.2096 12.6396 52.4082 12.3955C52.61 12.1514 52.8623 11.9609 53.165 11.8242C53.4678 11.6875 53.821 11.6191 54.2246 11.6191C54.651 11.6191 55.0254 11.7021 55.3477 11.8682C55.6732 12.0342 55.9271 12.2686 56.1094 12.5713C56.2949 12.874 56.391 13.2305 56.3975 13.6406H55.1816C55.1751 13.4518 55.1328 13.2826 55.0547 13.1328C54.9766 12.9831 54.8659 12.8626 54.7227 12.7715C54.5794 12.6803 54.4053 12.6348 54.2002 12.6348C53.9821 12.6348 53.7998 12.6803 53.6533 12.7715C53.5101 12.8626 53.3978 12.988 53.3164 13.1475C53.2383 13.3037 53.1829 13.4795 53.1504 13.6748C53.1211 13.8669 53.1064 14.0687 53.1064 14.2803V14.4365C53.1064 14.6514 53.1211 14.8564 53.1504 15.0518C53.1829 15.2471 53.2383 15.4229 53.3164 15.5791C53.3978 15.7321 53.5101 15.8542 53.6533 15.9453C53.7998 16.0365 53.9854 16.082 54.21 16.082ZM58.5459 12.7959V17H57.2568V11.7168H58.4775L58.5459 12.7959ZM60.1523 11.6826L60.1328 12.8838C60.0612 12.8708 59.9798 12.861 59.8887 12.8545C59.8008 12.848 59.7178 12.8447 59.6396 12.8447C59.4411 12.8447 59.2669 12.8724 59.1172 12.9277C58.9674 12.9798 58.8421 13.0563 58.7412 13.1572C58.6436 13.2581 58.5687 13.3818 58.5166 13.5283C58.4645 13.6715 58.4352 13.8343 58.4287 14.0166L58.1504 13.9824C58.1504 13.6471 58.1846 13.3363 58.2529 13.0498C58.3213 12.7633 58.4206 12.5127 58.5508 12.2979C58.681 12.083 58.8438 11.917 59.0391 11.7998C59.2376 11.6794 59.4655 11.6191 59.7227 11.6191C59.7943 11.6191 59.8708 11.6257 59.9521 11.6387C60.0368 11.6484 60.1035 11.6631 60.1523 11.6826ZM62.2275 11.7168V17H60.9336V11.7168H62.2275ZM60.8457 10.335C60.8457 10.1429 60.9108 9.9834 61.041 9.85645C61.1745 9.72949 61.3535 9.66602 61.5781 9.66602C61.8027 9.66602 61.9801 9.72949 62.1104 9.85645C62.2438 9.9834 62.3105 10.1429 62.3105 10.335C62.3105 10.5238 62.2438 10.6816 62.1104 10.8086C61.9801 10.9355 61.8027 10.999 61.5781 10.999C61.3535 10.999 61.1745 10.9355 61.041 10.8086C60.9108 10.6816 60.8457 10.5238 60.8457 10.335ZM64.7471 12.7324V19.0312H63.4531V11.7168H64.6494L64.7471 12.7324ZM68.1406 14.3047V14.4072C68.1406 14.7913 68.0951 15.1478 68.0039 15.4766C67.916 15.8021 67.7858 16.0869 67.6133 16.3311C67.4408 16.5719 67.2259 16.7607 66.9688 16.8975C66.7148 17.0309 66.4219 17.0977 66.0898 17.0977C65.7643 17.0977 65.4811 17.0358 65.2402 16.9121C64.9993 16.7852 64.7959 16.6061 64.6299 16.375C64.4639 16.1439 64.3304 15.8753 64.2295 15.5693C64.1318 15.2601 64.0586 14.9232 64.0098 14.5586V14.2314C64.0586 13.8441 64.1318 13.4925 64.2295 13.1768C64.3304 12.8577 64.4639 12.5827 64.6299 12.3516C64.7959 12.1172 64.9977 11.9365 65.2354 11.8096C65.4762 11.6826 65.7578 11.6191 66.0801 11.6191C66.4154 11.6191 66.71 11.6826 66.9639 11.8096C67.221 11.9365 67.4375 12.1188 67.6133 12.3564C67.7891 12.5941 67.9209 12.8773 68.0088 13.2061C68.0967 13.5348 68.1406 13.901 68.1406 14.3047ZM66.8467 14.4072V14.3047C66.8467 14.0703 66.8255 13.8538 66.7832 13.6553C66.7409 13.4535 66.6758 13.2777 66.5879 13.1279C66.5 12.9749 66.3861 12.8561 66.2461 12.7715C66.1061 12.6868 65.9368 12.6445 65.7383 12.6445C65.5397 12.6445 65.3688 12.6771 65.2256 12.7422C65.0824 12.8073 64.9652 12.9001 64.874 13.0205C64.7829 13.141 64.7113 13.2842 64.6592 13.4502C64.6104 13.613 64.5778 13.7936 64.5615 13.9922V14.8027C64.5908 15.0436 64.6478 15.2601 64.7324 15.4521C64.8171 15.6442 64.9408 15.7972 65.1035 15.9111C65.2695 16.0251 65.4844 16.082 65.748 16.082C65.9466 16.082 66.1159 16.0381 66.2559 15.9502C66.3958 15.8623 66.5098 15.7419 66.5977 15.5889C66.6855 15.4326 66.749 15.2536 66.7881 15.0518C66.8271 14.8499 66.8467 14.6351 66.8467 14.4072ZM71.583 11.7168V12.6445H68.5557V11.7168H71.583ZM69.3662 10.418H70.6602V15.4766C70.6602 15.6328 70.6813 15.7533 70.7236 15.8379C70.766 15.9225 70.8294 15.9795 70.9141 16.0088C70.9987 16.0381 71.0996 16.0527 71.2168 16.0527C71.3014 16.0527 71.3796 16.0479 71.4512 16.0381C71.5228 16.0283 71.583 16.0186 71.6318 16.0088L71.6367 16.9756C71.5293 17.0114 71.4072 17.0407 71.2705 17.0635C71.137 17.0863 70.9857 17.0977 70.8164 17.0977C70.5267 17.0977 70.2728 17.0488 70.0547 16.9512C69.8366 16.8503 69.6673 16.6891 69.5469 16.4678C69.4264 16.2432 69.3662 15.9469 69.3662 15.5791V10.418ZM73.8096 11.7168V17H72.5156V11.7168H73.8096ZM72.4277 10.335C72.4277 10.1429 72.4928 9.9834 72.623 9.85645C72.7565 9.72949 72.9355 9.66602 73.1602 9.66602C73.3848 9.66602 73.5622 9.72949 73.6924 9.85645C73.8258 9.9834 73.8926 10.1429 73.8926 10.335C73.8926 10.5238 73.8258 10.6816 73.6924 10.8086C73.5622 10.9355 73.3848 10.999 73.1602 10.999C72.9355 10.999 72.7565 10.9355 72.623 10.8086C72.4928 10.6816 72.4277 10.5238 72.4277 10.335ZM74.8105 14.4121V14.3096C74.8105 13.9222 74.8659 13.5658 74.9766 13.2402C75.0872 12.9115 75.2484 12.6266 75.46 12.3857C75.6715 12.1449 75.9303 11.9577 76.2363 11.8242C76.5423 11.6875 76.8906 11.6191 77.2812 11.6191C77.6784 11.6191 78.0299 11.6875 78.3359 11.8242C78.6452 11.9577 78.9056 12.1449 79.1172 12.3857C79.3288 12.6266 79.4899 12.9115 79.6006 13.2402C79.7113 13.5658 79.7666 13.9222 79.7666 14.3096V14.4121C79.7666 14.7962 79.7113 15.1527 79.6006 15.4814C79.4899 15.807 79.3288 16.0918 79.1172 16.3359C78.9056 16.5768 78.6468 16.764 78.3408 16.8975C78.0348 17.0309 77.6849 17.0977 77.291 17.0977C76.9004 17.0977 76.5505 17.0309 76.2412 16.8975C75.932 16.764 75.6715 16.5768 75.46 16.3359C75.2484 16.0918 75.0872 15.807 74.9766 15.4814C74.8659 15.1527 74.8105 14.7962 74.8105 14.4121ZM76.0996 14.3096V14.4121C76.0996 14.6432 76.1224 14.8597 76.168 15.0615C76.2135 15.2633 76.2835 15.4408 76.3779 15.5938C76.4723 15.7467 76.5944 15.8672 76.7441 15.9551C76.8971 16.0397 77.0794 16.082 77.291 16.082C77.4993 16.082 77.6784 16.0397 77.8281 15.9551C77.9779 15.8672 78.0999 15.7467 78.1943 15.5938C78.292 15.4408 78.3636 15.2633 78.4092 15.0615C78.4548 14.8597 78.4775 14.6432 78.4775 14.4121V14.3096C78.4775 14.0817 78.4548 13.8685 78.4092 13.6699C78.3636 13.4681 78.292 13.2907 78.1943 13.1377C78.0999 12.9814 77.9762 12.8594 77.8232 12.7715C77.6735 12.6803 77.4928 12.6348 77.2812 12.6348C77.0729 12.6348 76.8939 12.6803 76.7441 12.7715C76.5944 12.8594 76.4723 12.9814 76.3779 13.1377C76.2835 13.2907 76.2135 13.4681 76.168 13.6699C76.1224 13.8685 76.0996 14.0817 76.0996 14.3096ZM81.9688 12.8447V17H80.6797V11.7168H81.8906L81.9688 12.8447ZM81.7637 14.168H81.3828C81.3861 13.7839 81.4382 13.4355 81.5391 13.123C81.64 12.8105 81.7816 12.542 81.9639 12.3174C82.1494 12.0928 82.3691 11.9202 82.623 11.7998C82.877 11.6794 83.1602 11.6191 83.4727 11.6191C83.7266 11.6191 83.9561 11.6549 84.1611 11.7266C84.3662 11.7982 84.542 11.9121 84.6885 12.0684C84.8382 12.2246 84.9521 12.4297 85.0303 12.6836C85.1117 12.9342 85.1523 13.2435 85.1523 13.6113V17H83.8535V13.6016C83.8535 13.3607 83.8177 13.1702 83.7461 13.0303C83.6777 12.8903 83.5768 12.791 83.4434 12.7324C83.3132 12.6738 83.152 12.6445 82.96 12.6445C82.7614 12.6445 82.5872 12.6852 82.4375 12.7666C82.291 12.8447 82.1673 12.9538 82.0664 13.0938C81.9688 13.2337 81.8939 13.3949 81.8418 13.5771C81.7897 13.7594 81.7637 13.9564 81.7637 14.168Z" fill="url(#paint3_linear_506_750)"/>
<defs>
<linearGradient id="paint0_linear_506_750" x1="9.11417" y1="11.7533" x2="7.53806" y2="11.7533" gradientUnits="userSpaceOnUse">
<stop stop-color="#956B1F"/>
<stop offset="0.495" stop-color="#F9DFAE"/>
<stop offset="1" stop-color="#A67C33"/>
</linearGradient>
<linearGradient id="paint1_linear_506_750" x1="24.7233" y1="11.7527" x2="23.1585" y2="11.7527" gradientUnits="userSpaceOnUse">
<stop stop-color="#956B1F"/>
<stop offset="0.495" stop-color="#F9DFAE"/>
<stop offset="1" stop-color="#A67C33"/>
</linearGradient>
<linearGradient id="paint2_linear_506_750" x1="24.6251" y1="14.75" x2="8.18998" y2="14.75" gradientUnits="userSpaceOnUse">
<stop stop-color="#956B1F"/>
<stop offset="0.495" stop-color="#F9DFAE"/>
<stop offset="1" stop-color="#A67C33"/>
</linearGradient>
<linearGradient id="paint3_linear_506_750" x1="90.6492" y1="14.7569" x2="26.4793" y2="14.7569" gradientUnits="userSpaceOnUse">
<stop stop-color="#956B1F"/>
<stop offset="0.495" stop-color="#FEDA97"/>
<stop offset="1" stop-color="#A67C33"/>
</linearGradient>
</defs>
</svg>
