<svg width="90" height="16" viewBox="0 0 90 16" fill="none" xmlns="http://www.w3.org/2000/svg">
<path d="M7.03906 9.04688C7.03906 8.82812 7.00521 8.63281 6.9375 8.46094C6.875 8.28385 6.75781 8.125 6.58594 7.98438C6.41927 7.83854 6.18229 7.69792 5.875 7.5625C5.57292 7.42188 5.18229 7.27604 4.70312 7.125C4.17188 6.95833 3.67708 6.77083 3.21875 6.5625C2.76042 6.35417 2.35677 6.11198 2.00781 5.83594C1.66406 5.5599 1.39583 5.24219 1.20312 4.88281C1.01042 4.51823 0.914062 4.09635 0.914062 3.61719C0.914062 3.14844 1.01302 2.72135 1.21094 2.33594C1.41406 1.95052 1.70052 1.61979 2.07031 1.34375C2.4401 1.0625 2.875 0.846354 3.375 0.695312C3.88021 0.544271 4.4375 0.46875 5.04688 0.46875C5.89062 0.46875 6.61979 0.622396 7.23438 0.929688C7.85417 1.23698 8.33333 1.65365 8.67188 2.17969C9.01042 2.70573 9.17969 3.29688 9.17969 3.95312H7.03906C7.03906 3.59896 6.96354 3.28646 6.8125 3.01562C6.66667 2.74479 6.44271 2.53125 6.14062 2.375C5.84375 2.21875 5.46875 2.14062 5.01562 2.14062C4.57812 2.14062 4.21354 2.20573 3.92188 2.33594C3.63542 2.46615 3.41927 2.64323 3.27344 2.86719C3.13281 3.09115 3.0625 3.34115 3.0625 3.61719C3.0625 3.82552 3.11198 4.01302 3.21094 4.17969C3.3099 4.34115 3.45833 4.49479 3.65625 4.64062C3.85417 4.78125 4.09896 4.91406 4.39062 5.03906C4.6875 5.15885 5.03125 5.27865 5.42188 5.39844C6.04688 5.58594 6.59375 5.79427 7.0625 6.02344C7.53646 6.2526 7.92969 6.51302 8.24219 6.80469C8.5599 7.09635 8.79688 7.42448 8.95312 7.78906C9.11458 8.15365 9.19531 8.56771 9.19531 9.03125C9.19531 9.52083 9.09896 9.95833 8.90625 10.3438C8.71354 10.7292 8.4375 11.0573 8.07812 11.3281C7.71875 11.599 7.28646 11.8047 6.78125 11.9453C6.28125 12.0859 5.72135 12.1562 5.10156 12.1562C4.54948 12.1562 4.0026 12.0833 3.46094 11.9375C2.92448 11.7865 2.4375 11.5625 2 11.2656C1.5625 10.9635 1.21354 10.5833 0.953125 10.125C0.692708 9.66146 0.5625 9.11979 0.5625 8.5H2.71875C2.71875 8.85938 2.77604 9.16667 2.89062 9.42188C3.01042 9.67188 3.17708 9.8776 3.39062 10.0391C3.60938 10.1953 3.86458 10.3099 4.15625 10.3828C4.44792 10.4557 4.76302 10.4922 5.10156 10.4922C5.53906 10.4922 5.89844 10.4323 6.17969 10.3125C6.46615 10.1875 6.67969 10.0156 6.82031 9.79688C6.96615 9.57812 7.03906 9.32812 7.03906 9.04688ZM15.7266 9.99219V3.54688H17.8047V12H15.8516L15.7266 9.99219ZM15.9922 8.24219L16.6328 8.22656C16.6328 8.79427 16.5703 9.31771 16.4453 9.79688C16.3203 10.276 16.125 10.6927 15.8594 11.0469C15.599 11.3958 15.2682 11.6693 14.8672 11.8672C14.4661 12.0599 13.9922 12.1562 13.4453 12.1562C13.0286 12.1562 12.6484 12.099 12.3047 11.9844C11.9609 11.8646 11.6641 11.6797 11.4141 11.4297C11.1693 11.1745 10.9792 10.849 10.8438 10.4531C10.7083 10.0521 10.6406 9.57031 10.6406 9.00781V3.54688H12.7031V9.02344C12.7031 9.30469 12.7344 9.53906 12.7969 9.72656C12.8646 9.91406 12.9557 10.0677 13.0703 10.1875C13.1901 10.3021 13.3281 10.3854 13.4844 10.4375C13.6458 10.4844 13.8177 10.5078 14 10.5078C14.5 10.5078 14.8932 10.4089 15.1797 10.2109C15.4714 10.0078 15.6797 9.73698 15.8047 9.39844C15.9297 9.05469 15.9922 8.66927 15.9922 8.24219ZM19.625 0H21.6953V10.1328L21.4922 12H19.625V0ZM27.1328 7.6875V7.85156C27.1328 8.48177 27.0625 9.0599 26.9219 9.58594C26.7865 10.112 26.5807 10.5677 26.3047 10.9531C26.0286 11.3333 25.6849 11.6302 25.2734 11.8438C24.8672 12.0521 24.3906 12.1562 23.8438 12.1562C23.3229 12.1562 22.8698 12.0547 22.4844 11.8516C22.1042 11.6484 21.7839 11.362 21.5234 10.9922C21.263 10.6172 21.0547 10.1771 20.8984 9.67188C20.7422 9.16146 20.625 8.60417 20.5469 8V7.55469C20.625 6.94531 20.7422 6.38802 20.8984 5.88281C21.0547 5.3776 21.263 4.9375 21.5234 4.5625C21.7839 4.1875 22.1042 3.89844 22.4844 3.69531C22.8646 3.49219 23.3125 3.39062 23.8281 3.39062C24.3802 3.39062 24.862 3.4974 25.2734 3.71094C25.6901 3.91927 26.0339 4.21615 26.3047 4.60156C26.5807 4.98177 26.7865 5.4349 26.9219 5.96094C27.0625 6.48177 27.1328 7.05729 27.1328 7.6875ZM25.0625 7.85156V7.6875C25.0625 7.32812 25.0339 6.98958 24.9766 6.67188C24.9193 6.34896 24.8255 6.0651 24.6953 5.82031C24.5651 5.57552 24.388 5.38281 24.1641 5.24219C23.9401 5.10156 23.6589 5.03125 23.3203 5.03125C22.9974 5.03125 22.7214 5.08594 22.4922 5.19531C22.2682 5.30469 22.0807 5.45573 21.9297 5.64844C21.7839 5.84115 21.6693 6.06771 21.5859 6.32812C21.5078 6.58854 21.4557 6.86979 21.4297 7.17188V8.39062C21.4661 8.79167 21.5521 9.15365 21.6875 9.47656C21.8229 9.79427 22.0234 10.0469 22.2891 10.2344C22.5599 10.4219 22.9089 10.5156 23.3359 10.5156C23.6693 10.5156 23.9479 10.4505 24.1719 10.3203C24.3958 10.1849 24.5729 9.9974 24.7031 9.75781C24.8333 9.51302 24.9245 9.22917 24.9766 8.90625C25.0339 8.58333 25.0625 8.23177 25.0625 7.85156ZM33.2812 9.6875C33.2812 9.51042 33.2344 9.35156 33.1406 9.21094C33.0469 9.07031 32.8698 8.94271 32.6094 8.82812C32.3542 8.70833 31.9792 8.59635 31.4844 8.49219C31.0469 8.39844 30.6432 8.28125 30.2734 8.14062C29.9036 8 29.5859 7.83073 29.3203 7.63281C29.0547 7.42969 28.8464 7.19271 28.6953 6.92188C28.5495 6.64583 28.4766 6.32812 28.4766 5.96875C28.4766 5.61979 28.5521 5.29167 28.7031 4.98438C28.8542 4.67188 29.0729 4.39844 29.3594 4.16406C29.6458 3.92448 29.9948 3.73698 30.4062 3.60156C30.8177 3.46094 31.2812 3.39062 31.7969 3.39062C32.5156 3.39062 33.1328 3.50781 33.6484 3.74219C34.1693 3.97656 34.5677 4.29948 34.8438 4.71094C35.1198 5.11719 35.2578 5.57552 35.2578 6.08594H33.1953C33.1953 5.86198 33.1432 5.65885 33.0391 5.47656C32.9401 5.29427 32.7865 5.14844 32.5781 5.03906C32.3698 4.92448 32.1068 4.86719 31.7891 4.86719C31.5026 4.86719 31.2604 4.91406 31.0625 5.00781C30.8698 5.10156 30.724 5.22396 30.625 5.375C30.526 5.52604 30.4766 5.69271 30.4766 5.875C30.4766 6.01042 30.5026 6.13281 30.5547 6.24219C30.612 6.34635 30.7031 6.44271 30.8281 6.53125C30.9531 6.61979 31.1224 6.70052 31.3359 6.77344C31.5547 6.84635 31.8229 6.91667 32.1406 6.98438C32.7708 7.10938 33.3203 7.27604 33.7891 7.48438C34.263 7.6875 34.6328 7.95833 34.8984 8.29688C35.1641 8.63542 35.2969 9.06771 35.2969 9.59375C35.2969 9.96875 35.2161 10.3125 35.0547 10.625C34.8932 10.9323 34.6589 11.2005 34.3516 11.4297C34.0443 11.6589 33.6771 11.8385 33.25 11.9688C32.8229 12.0938 32.3411 12.1562 31.8047 12.1562C31.0286 12.1562 30.3724 12.0182 29.8359 11.7422C29.2995 11.4609 28.8932 11.1068 28.6172 10.6797C28.3411 10.2474 28.2031 9.79948 28.2031 9.33594H30.1797C30.1953 9.66406 30.2839 9.92708 30.4453 10.125C30.6068 10.3229 30.8099 10.4661 31.0547 10.5547C31.3047 10.638 31.5677 10.6797 31.8438 10.6797C32.1562 10.6797 32.4193 10.638 32.6328 10.5547C32.8464 10.4661 33.0078 10.349 33.1172 10.2031C33.2266 10.0521 33.2812 9.88021 33.2812 9.6875ZM40.3359 10.5312C40.6276 10.5312 40.888 10.474 41.1172 10.3594C41.3464 10.2448 41.5286 10.0833 41.6641 9.875C41.8047 9.66667 41.8802 9.42448 41.8906 9.14844H43.8359C43.8255 9.72135 43.6641 10.2344 43.3516 10.6875C43.0391 11.1406 42.6224 11.5 42.1016 11.7656C41.5859 12.026 41.0078 12.1562 40.3672 12.1562C39.7161 12.1562 39.1484 12.0469 38.6641 11.8281C38.1797 11.6094 37.776 11.3047 37.4531 10.9141C37.1354 10.5234 36.8958 10.0703 36.7344 9.55469C36.5781 9.03906 36.5 8.48698 36.5 7.89844V7.64844C36.5 7.0599 36.5781 6.50781 36.7344 5.99219C36.8958 5.47656 37.1354 5.02344 37.4531 4.63281C37.776 4.24219 38.1797 3.9375 38.6641 3.71875C39.1484 3.5 39.7135 3.39062 40.3594 3.39062C41.0417 3.39062 41.6406 3.52344 42.1562 3.78906C42.6771 4.05469 43.0833 4.42969 43.375 4.91406C43.6719 5.39844 43.8255 5.96875 43.8359 6.625H41.8906C41.8802 6.32292 41.8125 6.05208 41.6875 5.8125C41.5625 5.57292 41.3854 5.38021 41.1562 5.23438C40.9271 5.08854 40.6484 5.01562 40.3203 5.01562C39.9714 5.01562 39.6797 5.08854 39.4453 5.23438C39.2161 5.38021 39.0365 5.58073 38.9062 5.83594C38.7812 6.08594 38.6927 6.36719 38.6406 6.67969C38.5938 6.98698 38.5703 7.3099 38.5703 7.64844V7.89844C38.5703 8.24219 38.5938 8.57031 38.6406 8.88281C38.6927 9.19531 38.7812 9.47656 38.9062 9.72656C39.0365 9.97135 39.2161 10.1667 39.4453 10.3125C39.6797 10.4583 39.9766 10.5312 40.3359 10.5312ZM47.2734 5.27344V12H45.2109V3.54688H47.1641L47.2734 5.27344ZM49.8438 3.49219L49.8125 5.41406C49.6979 5.39323 49.5677 5.3776 49.4219 5.36719C49.2812 5.35677 49.1484 5.35156 49.0234 5.35156C48.7057 5.35156 48.4271 5.39583 48.1875 5.48438C47.9479 5.56771 47.7474 5.6901 47.5859 5.85156C47.4297 6.01302 47.3099 6.21094 47.2266 6.44531C47.1432 6.67448 47.0964 6.9349 47.0859 7.22656L46.6406 7.17188C46.6406 6.63542 46.6953 6.13802 46.8047 5.67969C46.9141 5.22135 47.0729 4.82031 47.2812 4.47656C47.4896 4.13281 47.75 3.86719 48.0625 3.67969C48.3802 3.48698 48.7448 3.39062 49.1562 3.39062C49.2708 3.39062 49.3932 3.40104 49.5234 3.42188C49.6589 3.4375 49.7656 3.46094 49.8438 3.49219ZM53.1641 3.54688V12H51.0938V3.54688H53.1641ZM50.9531 1.33594C50.9531 1.02865 51.0573 0.773438 51.2656 0.570312C51.4792 0.367188 51.7656 0.265625 52.125 0.265625C52.4844 0.265625 52.7682 0.367188 52.9766 0.570312C53.1901 0.773438 53.2969 1.02865 53.2969 1.33594C53.2969 1.63802 53.1901 1.89062 52.9766 2.09375C52.7682 2.29688 52.4844 2.39844 52.125 2.39844C51.7656 2.39844 51.4792 2.29688 51.2656 2.09375C51.0573 1.89062 50.9531 1.63802 50.9531 1.33594ZM57.1953 5.17188V15.25H55.125V3.54688H57.0391L57.1953 5.17188ZM62.625 7.6875V7.85156C62.625 8.46615 62.5521 9.03646 62.4062 9.5625C62.2656 10.0833 62.0573 10.5391 61.7812 10.9297C61.5052 11.3151 61.1615 11.6172 60.75 11.8359C60.3438 12.0495 59.875 12.1562 59.3438 12.1562C58.8229 12.1562 58.3698 12.0573 57.9844 11.8594C57.599 11.6562 57.2734 11.3698 57.0078 11C56.7422 10.6302 56.5286 10.2005 56.3672 9.71094C56.2109 9.21615 56.0938 8.67708 56.0156 8.09375V7.57031C56.0938 6.95052 56.2109 6.38802 56.3672 5.88281C56.5286 5.3724 56.7422 4.93229 57.0078 4.5625C57.2734 4.1875 57.5964 3.89844 57.9766 3.69531C58.362 3.49219 58.8125 3.39062 59.3281 3.39062C59.8646 3.39062 60.3359 3.49219 60.7422 3.69531C61.1536 3.89844 61.5 4.1901 61.7812 4.57031C62.0625 4.95052 62.2734 5.40365 62.4141 5.92969C62.5547 6.45573 62.625 7.04167 62.625 7.6875ZM60.5547 7.85156V7.6875C60.5547 7.3125 60.5208 6.96615 60.4531 6.64844C60.3854 6.32552 60.2812 6.04427 60.1406 5.80469C60 5.5599 59.8177 5.36979 59.5938 5.23438C59.3698 5.09896 59.099 5.03125 58.7812 5.03125C58.4635 5.03125 58.1901 5.08333 57.9609 5.1875C57.7318 5.29167 57.5443 5.4401 57.3984 5.63281C57.2526 5.82552 57.138 6.05469 57.0547 6.32031C56.9766 6.58073 56.9245 6.86979 56.8984 7.1875V8.48438C56.9453 8.86979 57.0365 9.21615 57.1719 9.52344C57.3073 9.83073 57.5052 10.0755 57.7656 10.2578C58.0312 10.4401 58.375 10.5312 58.7969 10.5312C59.1146 10.5312 59.3854 10.4609 59.6094 10.3203C59.8333 10.1797 60.0156 9.98698 60.1562 9.74219C60.2969 9.49219 60.3984 9.20573 60.4609 8.88281C60.5234 8.5599 60.5547 8.21615 60.5547 7.85156ZM68.1328 3.54688V5.03125H63.2891V3.54688H68.1328ZM64.5859 1.46875H66.6562V9.5625C66.6562 9.8125 66.6901 10.0052 66.7578 10.1406C66.8255 10.276 66.9271 10.3672 67.0625 10.4141C67.1979 10.4609 67.3594 10.4844 67.5469 10.4844C67.6823 10.4844 67.8073 10.4766 67.9219 10.4609C68.0365 10.4453 68.1328 10.4297 68.2109 10.4141L68.2188 11.9609C68.0469 12.0182 67.8516 12.0651 67.6328 12.1016C67.4193 12.138 67.1771 12.1562 66.9062 12.1562C66.4427 12.1562 66.0365 12.0781 65.6875 11.9219C65.3385 11.7604 65.0677 11.5026 64.875 11.1484C64.6823 10.7891 64.5859 10.3151 64.5859 9.72656V1.46875ZM71.6953 3.54688V12H69.625V3.54688H71.6953ZM69.4844 1.33594C69.4844 1.02865 69.5885 0.773438 69.7969 0.570312C70.0104 0.367188 70.2969 0.265625 70.6562 0.265625C71.0156 0.265625 71.2995 0.367188 71.5078 0.570312C71.7214 0.773438 71.8281 1.02865 71.8281 1.33594C71.8281 1.63802 71.7214 1.89062 71.5078 2.09375C71.2995 2.29688 71.0156 2.39844 70.6562 2.39844C70.2969 2.39844 70.0104 2.29688 69.7969 2.09375C69.5885 1.89062 69.4844 1.63802 69.4844 1.33594ZM73.2969 7.85938V7.69531C73.2969 7.07552 73.3854 6.50521 73.5625 5.98438C73.7396 5.45833 73.9974 5.0026 74.3359 4.61719C74.6745 4.23177 75.0885 3.93229 75.5781 3.71875C76.0677 3.5 76.625 3.39062 77.25 3.39062C77.8854 3.39062 78.4479 3.5 78.9375 3.71875C79.4323 3.93229 79.849 4.23177 80.1875 4.61719C80.526 5.0026 80.7839 5.45833 80.9609 5.98438C81.138 6.50521 81.2266 7.07552 81.2266 7.69531V7.85938C81.2266 8.47396 81.138 9.04427 80.9609 9.57031C80.7839 10.0911 80.526 10.5469 80.1875 10.9375C79.849 11.3229 79.4349 11.6224 78.9453 11.8359C78.4557 12.0495 77.8958 12.1562 77.2656 12.1562C76.6406 12.1562 76.0807 12.0495 75.5859 11.8359C75.0911 11.6224 74.6745 11.3229 74.3359 10.9375C73.9974 10.5469 73.7396 10.0911 73.5625 9.57031C73.3854 9.04427 73.2969 8.47396 73.2969 7.85938ZM75.3594 7.69531V7.85938C75.3594 8.22917 75.3958 8.57552 75.4688 8.89844C75.5417 9.22135 75.6536 9.50521 75.8047 9.75C75.9557 9.99479 76.151 10.1875 76.3906 10.3281C76.6354 10.4635 76.9271 10.5312 77.2656 10.5312C77.599 10.5312 77.8854 10.4635 78.125 10.3281C78.3646 10.1875 78.5599 9.99479 78.7109 9.75C78.8672 9.50521 78.9818 9.22135 79.0547 8.89844C79.1276 8.57552 79.1641 8.22917 79.1641 7.85938V7.69531C79.1641 7.33073 79.1276 6.98958 79.0547 6.67188C78.9818 6.34896 78.8672 6.0651 78.7109 5.82031C78.5599 5.57031 78.362 5.375 78.1172 5.23438C77.8776 5.08854 77.5885 5.01562 77.25 5.01562C76.9167 5.01562 76.6302 5.08854 76.3906 5.23438C76.151 5.375 75.9557 5.57031 75.8047 5.82031C75.6536 6.0651 75.5417 6.34896 75.4688 6.67188C75.3958 6.98958 75.3594 7.33073 75.3594 7.69531ZM84.75 5.35156V12H82.6875V3.54688H84.625L84.75 5.35156ZM84.4219 7.46875H83.8125C83.8177 6.85417 83.901 6.29688 84.0625 5.79688C84.224 5.29688 84.4505 4.86719 84.7422 4.50781C85.0391 4.14844 85.3906 3.8724 85.7969 3.67969C86.2031 3.48698 86.6562 3.39062 87.1562 3.39062C87.5625 3.39062 87.9297 3.44792 88.2578 3.5625C88.5859 3.67708 88.8672 3.85938 89.1016 4.10938C89.3411 4.35938 89.5234 4.6875 89.6484 5.09375C89.7786 5.49479 89.8438 5.98958 89.8438 6.57812V12H87.7656V6.5625C87.7656 6.17708 87.7083 5.8724 87.5938 5.64844C87.4844 5.42448 87.3229 5.26562 87.1094 5.17188C86.901 5.07812 86.6432 5.03125 86.3359 5.03125C86.0182 5.03125 85.7396 5.09635 85.5 5.22656C85.2656 5.35156 85.0677 5.52604 84.9062 5.75C84.75 5.97396 84.6302 6.23177 84.5469 6.52344C84.4635 6.8151 84.4219 7.13021 84.4219 7.46875Z" fill="#92989F"/>
<path d="M7.03906 9.04688C7.03906 8.82812 7.00521 8.63281 6.9375 8.46094C6.875 8.28385 6.75781 8.125 6.58594 7.98438C6.41927 7.83854 6.18229 7.69792 5.875 7.5625C5.57292 7.42188 5.18229 7.27604 4.70312 7.125C4.17188 6.95833 3.67708 6.77083 3.21875 6.5625C2.76042 6.35417 2.35677 6.11198 2.00781 5.83594C1.66406 5.5599 1.39583 5.24219 1.20312 4.88281C1.01042 4.51823 0.914062 4.09635 0.914062 3.61719C0.914062 3.14844 1.01302 2.72135 1.21094 2.33594C1.41406 1.95052 1.70052 1.61979 2.07031 1.34375C2.4401 1.0625 2.875 0.846354 3.375 0.695312C3.88021 0.544271 4.4375 0.46875 5.04688 0.46875C5.89062 0.46875 6.61979 0.622396 7.23438 0.929688C7.85417 1.23698 8.33333 1.65365 8.67188 2.17969C9.01042 2.70573 9.17969 3.29688 9.17969 3.95312H7.03906C7.03906 3.59896 6.96354 3.28646 6.8125 3.01562C6.66667 2.74479 6.44271 2.53125 6.14062 2.375C5.84375 2.21875 5.46875 2.14062 5.01562 2.14062C4.57812 2.14062 4.21354 2.20573 3.92188 2.33594C3.63542 2.46615 3.41927 2.64323 3.27344 2.86719C3.13281 3.09115 3.0625 3.34115 3.0625 3.61719C3.0625 3.82552 3.11198 4.01302 3.21094 4.17969C3.3099 4.34115 3.45833 4.49479 3.65625 4.64062C3.85417 4.78125 4.09896 4.91406 4.39062 5.03906C4.6875 5.15885 5.03125 5.27865 5.42188 5.39844C6.04688 5.58594 6.59375 5.79427 7.0625 6.02344C7.53646 6.2526 7.92969 6.51302 8.24219 6.80469C8.5599 7.09635 8.79688 7.42448 8.95312 7.78906C9.11458 8.15365 9.19531 8.56771 9.19531 9.03125C9.19531 9.52083 9.09896 9.95833 8.90625 10.3438C8.71354 10.7292 8.4375 11.0573 8.07812 11.3281C7.71875 11.599 7.28646 11.8047 6.78125 11.9453C6.28125 12.0859 5.72135 12.1562 5.10156 12.1562C4.54948 12.1562 4.0026 12.0833 3.46094 11.9375C2.92448 11.7865 2.4375 11.5625 2 11.2656C1.5625 10.9635 1.21354 10.5833 0.953125 10.125C0.692708 9.66146 0.5625 9.11979 0.5625 8.5H2.71875C2.71875 8.85938 2.77604 9.16667 2.89062 9.42188C3.01042 9.67188 3.17708 9.8776 3.39062 10.0391C3.60938 10.1953 3.86458 10.3099 4.15625 10.3828C4.44792 10.4557 4.76302 10.4922 5.10156 10.4922C5.53906 10.4922 5.89844 10.4323 6.17969 10.3125C6.46615 10.1875 6.67969 10.0156 6.82031 9.79688C6.96615 9.57812 7.03906 9.32812 7.03906 9.04688ZM15.7266 9.99219V3.54688H17.8047V12H15.8516L15.7266 9.99219ZM15.9922 8.24219L16.6328 8.22656C16.6328 8.79427 16.5703 9.31771 16.4453 9.79688C16.3203 10.276 16.125 10.6927 15.8594 11.0469C15.599 11.3958 15.2682 11.6693 14.8672 11.8672C14.4661 12.0599 13.9922 12.1562 13.4453 12.1562C13.0286 12.1562 12.6484 12.099 12.3047 11.9844C11.9609 11.8646 11.6641 11.6797 11.4141 11.4297C11.1693 11.1745 10.9792 10.849 10.8438 10.4531C10.7083 10.0521 10.6406 9.57031 10.6406 9.00781V3.54688H12.7031V9.02344C12.7031 9.30469 12.7344 9.53906 12.7969 9.72656C12.8646 9.91406 12.9557 10.0677 13.0703 10.1875C13.1901 10.3021 13.3281 10.3854 13.4844 10.4375C13.6458 10.4844 13.8177 10.5078 14 10.5078C14.5 10.5078 14.8932 10.4089 15.1797 10.2109C15.4714 10.0078 15.6797 9.73698 15.8047 9.39844C15.9297 9.05469 15.9922 8.66927 15.9922 8.24219ZM19.625 0H21.6953V10.1328L21.4922 12H19.625V0ZM27.1328 7.6875V7.85156C27.1328 8.48177 27.0625 9.0599 26.9219 9.58594C26.7865 10.112 26.5807 10.5677 26.3047 10.9531C26.0286 11.3333 25.6849 11.6302 25.2734 11.8438C24.8672 12.0521 24.3906 12.1562 23.8438 12.1562C23.3229 12.1562 22.8698 12.0547 22.4844 11.8516C22.1042 11.6484 21.7839 11.362 21.5234 10.9922C21.263 10.6172 21.0547 10.1771 20.8984 9.67188C20.7422 9.16146 20.625 8.60417 20.5469 8V7.55469C20.625 6.94531 20.7422 6.38802 20.8984 5.88281C21.0547 5.3776 21.263 4.9375 21.5234 4.5625C21.7839 4.1875 22.1042 3.89844 22.4844 3.69531C22.8646 3.49219 23.3125 3.39062 23.8281 3.39062C24.3802 3.39062 24.862 3.4974 25.2734 3.71094C25.6901 3.91927 26.0339 4.21615 26.3047 4.60156C26.5807 4.98177 26.7865 5.4349 26.9219 5.96094C27.0625 6.48177 27.1328 7.05729 27.1328 7.6875ZM25.0625 7.85156V7.6875C25.0625 7.32812 25.0339 6.98958 24.9766 6.67188C24.9193 6.34896 24.8255 6.0651 24.6953 5.82031C24.5651 5.57552 24.388 5.38281 24.1641 5.24219C23.9401 5.10156 23.6589 5.03125 23.3203 5.03125C22.9974 5.03125 22.7214 5.08594 22.4922 5.19531C22.2682 5.30469 22.0807 5.45573 21.9297 5.64844C21.7839 5.84115 21.6693 6.06771 21.5859 6.32812C21.5078 6.58854 21.4557 6.86979 21.4297 7.17188V8.39062C21.4661 8.79167 21.5521 9.15365 21.6875 9.47656C21.8229 9.79427 22.0234 10.0469 22.2891 10.2344C22.5599 10.4219 22.9089 10.5156 23.3359 10.5156C23.6693 10.5156 23.9479 10.4505 24.1719 10.3203C24.3958 10.1849 24.5729 9.9974 24.7031 9.75781C24.8333 9.51302 24.9245 9.22917 24.9766 8.90625C25.0339 8.58333 25.0625 8.23177 25.0625 7.85156ZM33.2812 9.6875C33.2812 9.51042 33.2344 9.35156 33.1406 9.21094C33.0469 9.07031 32.8698 8.94271 32.6094 8.82812C32.3542 8.70833 31.9792 8.59635 31.4844 8.49219C31.0469 8.39844 30.6432 8.28125 30.2734 8.14062C29.9036 8 29.5859 7.83073 29.3203 7.63281C29.0547 7.42969 28.8464 7.19271 28.6953 6.92188C28.5495 6.64583 28.4766 6.32812 28.4766 5.96875C28.4766 5.61979 28.5521 5.29167 28.7031 4.98438C28.8542 4.67188 29.0729 4.39844 29.3594 4.16406C29.6458 3.92448 29.9948 3.73698 30.4062 3.60156C30.8177 3.46094 31.2812 3.39062 31.7969 3.39062C32.5156 3.39062 33.1328 3.50781 33.6484 3.74219C34.1693 3.97656 34.5677 4.29948 34.8438 4.71094C35.1198 5.11719 35.2578 5.57552 35.2578 6.08594H33.1953C33.1953 5.86198 33.1432 5.65885 33.0391 5.47656C32.9401 5.29427 32.7865 5.14844 32.5781 5.03906C32.3698 4.92448 32.1068 4.86719 31.7891 4.86719C31.5026 4.86719 31.2604 4.91406 31.0625 5.00781C30.8698 5.10156 30.724 5.22396 30.625 5.375C30.526 5.52604 30.4766 5.69271 30.4766 5.875C30.4766 6.01042 30.5026 6.13281 30.5547 6.24219C30.612 6.34635 30.7031 6.44271 30.8281 6.53125C30.9531 6.61979 31.1224 6.70052 31.3359 6.77344C31.5547 6.84635 31.8229 6.91667 32.1406 6.98438C32.7708 7.10938 33.3203 7.27604 33.7891 7.48438C34.263 7.6875 34.6328 7.95833 34.8984 8.29688C35.1641 8.63542 35.2969 9.06771 35.2969 9.59375C35.2969 9.96875 35.2161 10.3125 35.0547 10.625C34.8932 10.9323 34.6589 11.2005 34.3516 11.4297C34.0443 11.6589 33.6771 11.8385 33.25 11.9688C32.8229 12.0938 32.3411 12.1562 31.8047 12.1562C31.0286 12.1562 30.3724 12.0182 29.8359 11.7422C29.2995 11.4609 28.8932 11.1068 28.6172 10.6797C28.3411 10.2474 28.2031 9.79948 28.2031 9.33594H30.1797C30.1953 9.66406 30.2839 9.92708 30.4453 10.125C30.6068 10.3229 30.8099 10.4661 31.0547 10.5547C31.3047 10.638 31.5677 10.6797 31.8438 10.6797C32.1562 10.6797 32.4193 10.638 32.6328 10.5547C32.8464 10.4661 33.0078 10.349 33.1172 10.2031C33.2266 10.0521 33.2812 9.88021 33.2812 9.6875ZM40.3359 10.5312C40.6276 10.5312 40.888 10.474 41.1172 10.3594C41.3464 10.2448 41.5286 10.0833 41.6641 9.875C41.8047 9.66667 41.8802 9.42448 41.8906 9.14844H43.8359C43.8255 9.72135 43.6641 10.2344 43.3516 10.6875C43.0391 11.1406 42.6224 11.5 42.1016 11.7656C41.5859 12.026 41.0078 12.1562 40.3672 12.1562C39.7161 12.1562 39.1484 12.0469 38.6641 11.8281C38.1797 11.6094 37.776 11.3047 37.4531 10.9141C37.1354 10.5234 36.8958 10.0703 36.7344 9.55469C36.5781 9.03906 36.5 8.48698 36.5 7.89844V7.64844C36.5 7.0599 36.5781 6.50781 36.7344 5.99219C36.8958 5.47656 37.1354 5.02344 37.4531 4.63281C37.776 4.24219 38.1797 3.9375 38.6641 3.71875C39.1484 3.5 39.7135 3.39062 40.3594 3.39062C41.0417 3.39062 41.6406 3.52344 42.1562 3.78906C42.6771 4.05469 43.0833 4.42969 43.375 4.91406C43.6719 5.39844 43.8255 5.96875 43.8359 6.625H41.8906C41.8802 6.32292 41.8125 6.05208 41.6875 5.8125C41.5625 5.57292 41.3854 5.38021 41.1562 5.23438C40.9271 5.08854 40.6484 5.01562 40.3203 5.01562C39.9714 5.01562 39.6797 5.08854 39.4453 5.23438C39.2161 5.38021 39.0365 5.58073 38.9062 5.83594C38.7812 6.08594 38.6927 6.36719 38.6406 6.67969C38.5938 6.98698 38.5703 7.3099 38.5703 7.64844V7.89844C38.5703 8.24219 38.5938 8.57031 38.6406 8.88281C38.6927 9.19531 38.7812 9.47656 38.9062 9.72656C39.0365 9.97135 39.2161 10.1667 39.4453 10.3125C39.6797 10.4583 39.9766 10.5312 40.3359 10.5312ZM47.2734 5.27344V12H45.2109V3.54688H47.1641L47.2734 5.27344ZM49.8438 3.49219L49.8125 5.41406C49.6979 5.39323 49.5677 5.3776 49.4219 5.36719C49.2812 5.35677 49.1484 5.35156 49.0234 5.35156C48.7057 5.35156 48.4271 5.39583 48.1875 5.48438C47.9479 5.56771 47.7474 5.6901 47.5859 5.85156C47.4297 6.01302 47.3099 6.21094 47.2266 6.44531C47.1432 6.67448 47.0964 6.9349 47.0859 7.22656L46.6406 7.17188C46.6406 6.63542 46.6953 6.13802 46.8047 5.67969C46.9141 5.22135 47.0729 4.82031 47.2812 4.47656C47.4896 4.13281 47.75 3.86719 48.0625 3.67969C48.3802 3.48698 48.7448 3.39062 49.1562 3.39062C49.2708 3.39062 49.3932 3.40104 49.5234 3.42188C49.6589 3.4375 49.7656 3.46094 49.8438 3.49219ZM53.1641 3.54688V12H51.0938V3.54688H53.1641ZM50.9531 1.33594C50.9531 1.02865 51.0573 0.773438 51.2656 0.570312C51.4792 0.367188 51.7656 0.265625 52.125 0.265625C52.4844 0.265625 52.7682 0.367188 52.9766 0.570312C53.1901 0.773438 53.2969 1.02865 53.2969 1.33594C53.2969 1.63802 53.1901 1.89062 52.9766 2.09375C52.7682 2.29688 52.4844 2.39844 52.125 2.39844C51.7656 2.39844 51.4792 2.29688 51.2656 2.09375C51.0573 1.89062 50.9531 1.63802 50.9531 1.33594ZM57.1953 5.17188V15.25H55.125V3.54688H57.0391L57.1953 5.17188ZM62.625 7.6875V7.85156C62.625 8.46615 62.5521 9.03646 62.4062 9.5625C62.2656 10.0833 62.0573 10.5391 61.7812 10.9297C61.5052 11.3151 61.1615 11.6172 60.75 11.8359C60.3438 12.0495 59.875 12.1562 59.3438 12.1562C58.8229 12.1562 58.3698 12.0573 57.9844 11.8594C57.599 11.6562 57.2734 11.3698 57.0078 11C56.7422 10.6302 56.5286 10.2005 56.3672 9.71094C56.2109 9.21615 56.0938 8.67708 56.0156 8.09375V7.57031C56.0938 6.95052 56.2109 6.38802 56.3672 5.88281C56.5286 5.3724 56.7422 4.93229 57.0078 4.5625C57.2734 4.1875 57.5964 3.89844 57.9766 3.69531C58.362 3.49219 58.8125 3.39062 59.3281 3.39062C59.8646 3.39062 60.3359 3.49219 60.7422 3.69531C61.1536 3.89844 61.5 4.1901 61.7812 4.57031C62.0625 4.95052 62.2734 5.40365 62.4141 5.92969C62.5547 6.45573 62.625 7.04167 62.625 7.6875ZM60.5547 7.85156V7.6875C60.5547 7.3125 60.5208 6.96615 60.4531 6.64844C60.3854 6.32552 60.2812 6.04427 60.1406 5.80469C60 5.5599 59.8177 5.36979 59.5938 5.23438C59.3698 5.09896 59.099 5.03125 58.7812 5.03125C58.4635 5.03125 58.1901 5.08333 57.9609 5.1875C57.7318 5.29167 57.5443 5.4401 57.3984 5.63281C57.2526 5.82552 57.138 6.05469 57.0547 6.32031C56.9766 6.58073 56.9245 6.86979 56.8984 7.1875V8.48438C56.9453 8.86979 57.0365 9.21615 57.1719 9.52344C57.3073 9.83073 57.5052 10.0755 57.7656 10.2578C58.0312 10.4401 58.375 10.5312 58.7969 10.5312C59.1146 10.5312 59.3854 10.4609 59.6094 10.3203C59.8333 10.1797 60.0156 9.98698 60.1562 9.74219C60.2969 9.49219 60.3984 9.20573 60.4609 8.88281C60.5234 8.5599 60.5547 8.21615 60.5547 7.85156ZM68.1328 3.54688V5.03125H63.2891V3.54688H68.1328ZM64.5859 1.46875H66.6562V9.5625C66.6562 9.8125 66.6901 10.0052 66.7578 10.1406C66.8255 10.276 66.9271 10.3672 67.0625 10.4141C67.1979 10.4609 67.3594 10.4844 67.5469 10.4844C67.6823 10.4844 67.8073 10.4766 67.9219 10.4609C68.0365 10.4453 68.1328 10.4297 68.2109 10.4141L68.2188 11.9609C68.0469 12.0182 67.8516 12.0651 67.6328 12.1016C67.4193 12.138 67.1771 12.1562 66.9062 12.1562C66.4427 12.1562 66.0365 12.0781 65.6875 11.9219C65.3385 11.7604 65.0677 11.5026 64.875 11.1484C64.6823 10.7891 64.5859 10.3151 64.5859 9.72656V1.46875ZM71.6953 3.54688V12H69.625V3.54688H71.6953ZM69.4844 1.33594C69.4844 1.02865 69.5885 0.773438 69.7969 0.570312C70.0104 0.367188 70.2969 0.265625 70.6562 0.265625C71.0156 0.265625 71.2995 0.367188 71.5078 0.570312C71.7214 0.773438 71.8281 1.02865 71.8281 1.33594C71.8281 1.63802 71.7214 1.89062 71.5078 2.09375C71.2995 2.29688 71.0156 2.39844 70.6562 2.39844C70.2969 2.39844 70.0104 2.29688 69.7969 2.09375C69.5885 1.89062 69.4844 1.63802 69.4844 1.33594ZM73.2969 7.85938V7.69531C73.2969 7.07552 73.3854 6.50521 73.5625 5.98438C73.7396 5.45833 73.9974 5.0026 74.3359 4.61719C74.6745 4.23177 75.0885 3.93229 75.5781 3.71875C76.0677 3.5 76.625 3.39062 77.25 3.39062C77.8854 3.39062 78.4479 3.5 78.9375 3.71875C79.4323 3.93229 79.849 4.23177 80.1875 4.61719C80.526 5.0026 80.7839 5.45833 80.9609 5.98438C81.138 6.50521 81.2266 7.07552 81.2266 7.69531V7.85938C81.2266 8.47396 81.138 9.04427 80.9609 9.57031C80.7839 10.0911 80.526 10.5469 80.1875 10.9375C79.849 11.3229 79.4349 11.6224 78.9453 11.8359C78.4557 12.0495 77.8958 12.1562 77.2656 12.1562C76.6406 12.1562 76.0807 12.0495 75.5859 11.8359C75.0911 11.6224 74.6745 11.3229 74.3359 10.9375C73.9974 10.5469 73.7396 10.0911 73.5625 9.57031C73.3854 9.04427 73.2969 8.47396 73.2969 7.85938ZM75.3594 7.69531V7.85938C75.3594 8.22917 75.3958 8.57552 75.4688 8.89844C75.5417 9.22135 75.6536 9.50521 75.8047 9.75C75.9557 9.99479 76.151 10.1875 76.3906 10.3281C76.6354 10.4635 76.9271 10.5312 77.2656 10.5312C77.599 10.5312 77.8854 10.4635 78.125 10.3281C78.3646 10.1875 78.5599 9.99479 78.7109 9.75C78.8672 9.50521 78.9818 9.22135 79.0547 8.89844C79.1276 8.57552 79.1641 8.22917 79.1641 7.85938V7.69531C79.1641 7.33073 79.1276 6.98958 79.0547 6.67188C78.9818 6.34896 78.8672 6.0651 78.7109 5.82031C78.5599 5.57031 78.362 5.375 78.1172 5.23438C77.8776 5.08854 77.5885 5.01562 77.25 5.01562C76.9167 5.01562 76.6302 5.08854 76.3906 5.23438C76.151 5.375 75.9557 5.57031 75.8047 5.82031C75.6536 6.0651 75.5417 6.34896 75.4688 6.67188C75.3958 6.98958 75.3594 7.33073 75.3594 7.69531ZM84.75 5.35156V12H82.6875V3.54688H84.625L84.75 5.35156ZM84.4219 7.46875H83.8125C83.8177 6.85417 83.901 6.29688 84.0625 5.79688C84.224 5.29688 84.4505 4.86719 84.7422 4.50781C85.0391 4.14844 85.3906 3.8724 85.7969 3.67969C86.2031 3.48698 86.6562 3.39062 87.1562 3.39062C87.5625 3.39062 87.9297 3.44792 88.2578 3.5625C88.5859 3.67708 88.8672 3.85938 89.1016 4.10938C89.3411 4.35938 89.5234 4.6875 89.6484 5.09375C89.7786 5.49479 89.8438 5.98958 89.8438 6.57812V12H87.7656V6.5625C87.7656 6.17708 87.7083 5.8724 87.5938 5.64844C87.4844 5.42448 87.3229 5.26562 87.1094 5.17188C86.901 5.07812 86.6432 5.03125 86.3359 5.03125C86.0182 5.03125 85.7396 5.09635 85.5 5.22656C85.2656 5.35156 85.0677 5.52604 84.9062 5.75C84.75 5.97396 84.6302 6.23177 84.5469 6.52344C84.4635 6.8151 84.4219 7.13021 84.4219 7.46875Z" fill="url(#paint0_linear_908_375)"/>
<defs>
<linearGradient id="paint0_linear_908_375" x1="98.4224" y1="8.26148" x2="-4.02423" y2="8.26147" gradientUnits="userSpaceOnUse">
<stop stop-color="#956B1F"/>
<stop offset="0.495" stop-color="#FEDA97"/>
<stop offset="1" stop-color="#A67C33"/>
</linearGradient>
</defs>
</svg>
