<?xml version="1.0" encoding="UTF-8" standalone="no" ?>
<!DOCTYPE svg PUBLIC "-//W3C//DTD SVG 1.1//EN" "http://www.w3.org/Graphics/SVG/1.1/DTD/svg11.dtd">
<svg xmlns="http://www.w3.org/2000/svg" xmlns:xlink="http://www.w3.org/1999/xlink" version="1.1" width="1080" height="1080" viewBox="0 0 1080 1080" xml:space="preserve">
<desc>Created with Fabric.js 5.2.4</desc>
<defs>
</defs>
<g transform="matrix(1 0 0 1 540 540)" id="2913e991-11d5-430e-aeba-f61d9bb0d2b6"  >
<rect style="stroke: none; stroke-width: 1; stroke-dasharray: none; stroke-linecap: butt; stroke-dashoffset: 0; stroke-linejoin: miter; stroke-miterlimit: 4; fill: rgb(255,255,255); fill-rule: nonzero; opacity: 1; visibility: hidden;" vector-effect="non-scaling-stroke"  x="-540" y="-540" rx="0" ry="0" width="1080" height="1080" />
</g>
<g transform="matrix(1 0 0 1 540 540)" id="b8cf1bab-e81b-4dca-ab30-16dd112015ad"  >
</g>
<g transform="matrix(11.37 0 0 11.37 540 540)"  >
<g style=""   >
		<g transform="matrix(1 0 0 1 0 10.25)"  >
<path style="stroke: none; stroke-width: 1; stroke-dasharray: none; stroke-linecap: butt; stroke-dashoffset: 0; stroke-linejoin: miter; stroke-miterlimit: 4; fill: #e33955; fill-rule: nonzero; opacity: 1;" vector-effect="non-scaling-stroke"  transform=" translate(-50, -60.25)" d="M 34.6 57.7 L 33.5 67 C 33.3 68.2 34.1 69.4 35.3 69.6 C 39.9 70.6 44.8 71.1 50 71.1 C 55.2 71.1 60.1 70.6 64.7 69.6 C 65.9 69.39999999999999 66.7 68.19999999999999 66.5 67 L 65.4 57.7 C 65 54.1 63.00000000000001 51.1 60.10000000000001 49.400000000000006 C 57.30000000000001 51.60000000000001 53.80000000000001 53.00000000000001 50.00000000000001 53.00000000000001 C 46.2 53.00000000000001 42.70000000000001 51.70000000000001 39.900000000000006 49.400000000000006 C 37 51.1 35 54.2 34.6 57.7 z" stroke-linecap="round" />
</g>
		<g transform="matrix(1 0 0 1 0 -13.2)"  >
<circle style="stroke: none; stroke-width: 1; stroke-dasharray: none; stroke-linecap: butt; stroke-dashoffset: 0; stroke-linejoin: miter; stroke-miterlimit: 4; fill: #e33955; fill-rule: nonzero; opacity: 1;" vector-effect="non-scaling-stroke"  cx="0" cy="0" r="10.8" />
</g>
		<g transform="matrix(1 0 0 1 -7 -13.4)"  >
<path style="stroke: none; stroke-width: 1; stroke-dasharray: none; stroke-linecap: butt; stroke-dashoffset: 0; stroke-linejoin: miter; stroke-miterlimit: 4; fill: #e33955; fill-rule: nonzero; opacity: 1;" vector-effect="non-scaling-stroke"  transform=" translate(-43, -36.6)" d="M 23.4 47.8 C 23 47 22.2 46.5 21.299999999999997 46.5 L 16.199999999999996 46.5 C 17.9 29.4 32.4 16 50 16 C 61.2 16 71.8 21.6 78.1 30.9 C 79 32.199999999999996 80.8 32.6 82.19999999999999 31.7 C 83.49999999999999 30.8 83.89999999999999 29 82.99999999999999 27.6 C 75.5 16.7 63.2 10.1 50 10.1 C 29.2 10.1 12.100000000000001 26.1 10.299999999999997 46.5 L 4.9 46.5 C 4 46.5 3.2 47 2.8000000000000003 47.8 C 2.4000000000000004 48.599999999999994 2.4000000000000004 49.5 3.0000000000000004 50.3 L 11.2 62.099999999999994 C 11.6 62.699999999999996 12.399999999999999 63.099999999999994 13.2 63.099999999999994 C 14 63.099999999999994 14.7 62.699999999999996 15.2 62.099999999999994 L 23.4 50.3 C 23.7 49.6 23.8 48.6 23.4 47.8 z" stroke-linecap="round" />
</g>
		<g transform="matrix(1 0 0 1 7 13.41)"  >
<path style="stroke: none; stroke-width: 1; stroke-dasharray: none; stroke-linecap: butt; stroke-dashoffset: 0; stroke-linejoin: miter; stroke-miterlimit: 4; fill: #e33955; fill-rule: nonzero; opacity: 1;" vector-effect="non-scaling-stroke"  transform=" translate(-57, -63.41)" d="M 97.1 49.7 L 88.89999999999999 37.900000000000006 C 87.99999999999999 36.60000000000001 85.89999999999999 36.60000000000001 84.99999999999999 37.900000000000006 L 76.79999999999998 49.7 C 76.29999999999998 50.400000000000006 76.19999999999999 51.400000000000006 76.59999999999998 52.2 C 76.99999999999999 53 77.79999999999998 53.5 78.69999999999997 53.5 L 83.79999999999997 53.5 C 82.1 70.6 67.6 84 50 84 C 38.8 84 28.2 78.4 21.9 69.1 C 21 67.8 19.2 67.39999999999999 17.799999999999997 68.3 C 16.499999999999996 69.2 16.099999999999998 71 16.999999999999996 72.39999999999999 C 24.5 83.3 36.8 89.9 50 89.9 C 70.8 89.9 87.9 73.9 89.7 53.50000000000001 L 95.10000000000001 53.50000000000001 C 96.00000000000001 53.50000000000001 96.80000000000001 53.00000000000001 97.2 52.20000000000001 C 97.6 51.4 97.6 50.4 97.1 49.7 z" stroke-linecap="round" />
</g>
</g>
</g>
</svg>