<svg width="17" height="16" viewBox="0 0 17 16" fill="none" xmlns="http://www.w3.org/2000/svg">
<g id="timelapse" clip-path="url(#clip0_1065_5773)">
<path id="Vector" d="M11.3266 5.17334C10.5466 4.39334 9.52659 4.00001 8.49992 4.00001V8.00001L5.67325 10.8267C7.23325 12.3867 9.76659 12.3867 11.3333 10.8267C12.8933 9.26668 12.8933 6.73334 11.3266 5.17334ZM8.49992 1.33334C4.81992 1.33334 1.83325 4.32001 1.83325 8.00001C1.83325 11.68 4.81992 14.6667 8.49992 14.6667C12.1799 14.6667 15.1666 11.68 15.1666 8.00001C15.1666 4.32001 12.1799 1.33334 8.49992 1.33334ZM8.49992 13.3333C5.55325 13.3333 3.16659 10.9467 3.16659 8.00001C3.16659 5.05334 5.55325 2.66668 8.49992 2.66668C11.4466 2.66668 13.8333 5.05334 13.8333 8.00001C13.8333 10.9467 11.4466 13.3333 8.49992 13.3333Z" fill="#E43955" fill-opacity="0.75"/>
</g>
<defs>
<clipPath id="clip0_1065_5773">
<rect width="16" height="16" fill="white" transform="translate(0.5 1.52588e-05)"/>
</clipPath>
</defs>
</svg>
