<svg xmlns="http://www.w3.org/2000/svg" width="35" height="35">
    <path data-name="Path 23033" d="M17.5 0A17.5 17.5 0 1 1 0 17.5 17.5 17.5 0 0 1 17.5 0z" style="fill:#127981"/>
    <path data-name="Subtraction 9" d="M21244.2 24428.6a1.1 1.1 0 0 1-.342-.061 8.813 8.813 0 0 1-3.936-2.336 6.383 6.383 0 0 1-1.809-4.477 314.77 314.77 0 0 1 0-4.346v-.619a.6.6 0 0 1 .643-.656c1.779 0 5.623-1.641 5.66-1.656.031.016 3.4 1.652 5.162 1.656a.6.6 0 0 1 .648.453.747.747 0 0 1 .025.209v4.904a6.474 6.474 0 0 1-2.227 4.936 8.993 8.993 0 0 1-3.609 1.961.831.831 0 0 1-.215.032zm-3.016-7.824v1.5h2.25v2.25h1.5v-2.25h2.25v-1.5h-2.25v-2.25h-1.5v2.25h-2.25z" transform="translate(-21226.685 -24402.576)" style="fill:#f7fffe"/>
</svg>
