<svg xmlns="http://www.w3.org/2000/svg" width="15.245" height="16.86">
    <defs>
        <style>
            .cls-1{fill:none;stroke:#8ef0e2;stroke-width:1.5px}
        </style>
    </defs>
    <g id="Vactinated" transform="translate(-873.788 -265.503)">
        <path id="Path_23025" data-name="Path 23025" class="cls-1" d="M-277.578 263.436s3.8 1.785 5.837 1.785a.685.685 0 0 1 .738.495.831.831 0 0 1 .026.222c0 1.841.009 3.458 0 5.3a6.86 6.86 0 0 1-2.519 5.34 10.428 10.428 0 0 1-4.079 2.116 1.109 1.109 0 0 1-.632-.028 10.1 10.1 0 0 1-4.456-2.531 6.73 6.73 0 0 1-2.045-4.837c-.014-1.863-.006-3.5 0-5.364a.671.671 0 0 1 .733-.714c2.039 0 6.397-1.784 6.397-1.784z" transform="translate(1159.257 2.887)"/>
        <g id="Group_4828" data-name="Group 4828" transform="translate(879.179 271.638)">
            <path id="Line_421" data-name="Line 421" class="cls-1" transform="translate(2.378)" d="M0 0v4.755"/>
            <path id="Line_422" data-name="Line 422" class="cls-1" transform="translate(0 2.378)" d="M4.755 0H0"/>
        </g>
    </g>
</svg>
