<svg width="16" height="14" viewBox="0 0 16 14" fill="none" xmlns="http://www.w3.org/2000/svg">
<g id="Group">
<path id="Vector" d="M15.3334 7L13.7067 5.14L13.9334 2.68L11.5267 2.13333L10.2667 0L8.00008 0.973333L5.73341 0L4.47341 2.12667L2.06675 2.66667L2.29341 5.13333L0.666748 7L2.29341 8.86L2.06675 11.3267L4.47341 11.8733L5.73341 14L8.00008 13.02L10.2667 13.9933L11.5267 11.8667L13.9334 11.32L13.7067 8.86L15.3334 7ZM6.25341 9.67333L4.66675 8.07333C4.40675 7.81333 4.40675 7.39333 4.66675 7.13333L4.71341 7.08667C4.97341 6.82667 5.40008 6.82667 5.66008 7.08667L6.73341 8.16667L10.1667 4.72667C10.4267 4.46667 10.8534 4.46667 11.1134 4.72667L11.1601 4.77333C11.4201 5.03333 11.4201 5.45333 11.1601 5.71333L7.21341 9.67333C6.94008 9.93333 6.52008 9.93333 6.25341 9.67333Z" fill="#E43955" fill-opacity="0.75"/>
</g>
</svg>
