<svg xmlns="http://www.w3.org/2000/svg" width="22.433" height="15" viewBox="0 0 22.433 15">
    <path data-name="Path 24204" d="M-273.916 473.1a11.77 11.77 0 0 1-6.969-2.205 14.115 14.115 0 0 1-4.408-5.164.343.343 0 0 1 0-.272 14.3 14.3 0 0 1 3.762-4.672 11.705 11.705 0 0 1 5.706-2.555 11.361 11.361 0 0 1 7.85 1.65 13.987 13.987 0 0 1 5.062 5.605.3.3 0 0 1-.005.235 13.957 13.957 0 0 1-5.271 5.73 11.322 11.322 0 0 1-4.711 1.577c-.4.043-.8.06-1.016.071zm-.2-1.874a9.691 9.691 0 0 0 4.724-1.259 11.9 11.9 0 0 0 4.321-4.224.236.236 0 0 0-.006-.293 12.539 12.539 0 0 0-1.6-2.09 10.366 10.366 0 0 0-6.323-3.308 9.358 9.358 0 0 0-5.762 1.154 11.808 11.808 0 0 0-4.38 4.254.236.236 0 0 0 .007.293 12.142 12.142 0 0 0 3.23 3.526 9.885 9.885 0 0 0 5.791 1.951z" transform="translate(285.32 -458.104)" style="fill:#a4a0ad"/>
    <path data-name="Path 24205" d="M-206.018 499.514a4.23 4.23 0 0 1 4.244-4.2 4.231 4.231 0 0 1 4.2 4.24 4.231 4.231 0 0 1-4.244 4.2 4.229 4.229 0 0 1-4.2-4.24zm6.565.027a2.331 2.331 0 0 0-2.323-2.345 2.331 2.331 0 0 0-2.359 2.331 2.331 2.331 0 0 0 2.323 2.346 2.332 2.332 0 0 0 2.359-2.332z" transform="translate(213.007 -492.034)" style="fill:#a4a0ad"/>
</svg>
