<svg xmlns="http://www.w3.org/2000/svg" width="26" height="26" viewBox="0 0 26 26">
    <path data-name="Path 24206" d="M-360.733 621.119c0 .147-.211.333-.211.333s-3.083 2.064-4.047 2.627a.459.459 0 0 1-.348.079.379.379 0 0 1-.292-.334V618.488a.627.627 0 0 1 .016-.168.379.379 0 0 1 .57-.216c.417.24 4.087 2.647 4.087 2.647s.224.193.225.368z" transform="translate(377.191 -607.601)" style="stroke:#9263dd;fill:#9263dd;stroke-width:.4px"/>
    <g data-name="Ellipse 362" style="stroke-width:1.8px;fill:none;stroke:#9263dd">
        <circle cx="13" cy="13" r="13" style="stroke:none"/>
        <circle cx="13" cy="13" r="12.1" style="fill:none"/>
    </g>
</svg>
