<svg xmlns="http://www.w3.org/2000/svg" width="42" height="42" viewBox="0 0 42 42">
    <g transform="translate(-1246 -804)">
        <circle data-name="Ellipse 374" cx="21" cy="21" r="21" transform="translate(1246 804)" style="fill:#ebf5ff"/>
        <path data-name="Path 24216" d="M363.145 306.977h.312c.777 0 1.555-.014 2.332.009a1.256 1.256 0 0 1 .624.2.825.825 0 0 1 .281.978.914.914 0 0 1-.9.591c-.785.005-1.57 0-2.355 0-.08 0-.16.007-.244.011v8.5h-1.845v-8.493a.368.368 0 0 0-.062-.014h-1.291a3.521 3.521 0 0 1-.586-.031.88.88 0 0 1 .128-1.742c.437-.016.875-.006 1.313-.007h.516v-1.068a4.444 4.444 0 0 1 4.372-4.394.9.9 0 1 1 .037 1.781 2.6 2.6 0 0 0-2.505 2.006 12.653 12.653 0 0 0-.127 1.673z" transform="translate(904.275 515.849)" style="fill:#3779f5;stroke:#3779f5;stroke-width:.6px"/>
    </g>
</svg>
