<svg xmlns="http://www.w3.org/2000/svg" width="42" height="42" viewBox="0 0 42 42">
    <g transform="translate(-1191 -804)">
        <circle data-name="Ellipse 373" cx="21" cy="21" r="21" transform="translate(1191 804)" style="fill:#edf3ff"/>
        <path data-name="Path 24213" d="M-724.494 89.582a18.767 18.767 0 0 1 4.8-.105 3.613 3.613 0 0 1 3.027 3.448c.036 1.913.018 3.828.008 5.742a1.221 1.221 0 0 1-1.236 1.217 1.226 1.226 0 0 1-1.223-1.231c-.01-1.786 0-3.571 0-5.357a1.259 1.259 0 0 0-1.416-1.427h-2.7a1.229 1.229 0 0 0-1.277 1.293c-.006 1.811 0 3.623 0 5.434a1.226 1.226 0 0 1-1.658 1.205 1.156 1.156 0 0 1-.8-1.118q-.014-4.663 0-9.327a1.209 1.209 0 0 1 1.183-1.189 1.246 1.246 0 0 1 1.272 1.1c.009.104.014.205.02.315z" transform="translate(1937.584 733.226)" style="fill:#2c70dd;stroke:#fff;stroke-width:.3px"/>
        <path data-name="Path 24214" d="M-758.928 93.4v-4.065c0-.75.547-.971 1.276-.976s1.19.22 1.191.958v8.235a1.1 1.1 0 0 1-.757 1.083 1.243 1.243 0 0 1-1.32-.219 1.1 1.1 0 0 1-.393-.915c.007-1.372.004-2.739.003-4.101z" transform="translate(1963.6 734.389)" style="fill:#2c70dd;stroke:#fff;stroke-width:.3px"/>
        <path data-name="Path 24215" d="M-761.066 52.231a1.856 1.856 0 0 1 1.866 1.852 1.858 1.858 0 0 1-1.833 1.847 1.857 1.857 0 0 1-1.866-1.852 1.857 1.857 0 0 1 1.833-1.847z" transform="translate(1966.956 765.311)" style="fill:#2c70dd;stroke:#fff;stroke-width:.3px"/>
    </g>
</svg>
