<svg xmlns="http://www.w3.org/2000/svg" width="42" height="42" viewBox="0 0 42 42">
    <g transform="translate(-1136 -804)">
        <circle data-name="Ellipse 372" cx="21" cy="21" r="21" transform="translate(1136 804)" style="fill:#f4f5fa"/>
        <path data-name="mail" d="M275.085 454.429h-5.843c-2.01-.006-2.894-.518-3.345-2.435a4.345 4.345 0 0 1-.112-.968c-.009-2.224-.009-7.13 0-9.354 0-2.154.814-3.138 2.959-3.376a4.469 4.469 0 0 1 .489-.019h11.719c1.992 0 2.869.508 3.324 2.416a4.357 4.357 0 0 1 .116.984c.01 2.219.009 7.119 0 9.337 0 2.077-.669 3.006-2.718 3.36a4.8 4.8 0 0 1-.8.054c-1.35.003-4.435.001-5.789.001zm7.632-11.266-.2.105c-2 1.089-4.948 2.177-6.944 3.269a.942.942 0 0 1-.974 0c-2-1.093-4.946-2.18-6.944-3.269a3.375 3.375 0 0 0-.2-.1c0 .072-.008.119-.008.166v7.673c0 1.427.328 1.749 1.758 1.751h11.75a2.722 2.722 0 0 0 .692-.088c1.1-.3 1.068-.5 1.072-1.655.005-1.669 0-6.02 0-7.689.005-.047.001-.089-.003-.163zm-7.63-3.216c-1.419 0-4.57-.009-5.989 0-1.115.009-1.346.074-1.585 1.162a.174.174 0 0 0 .1.229c2.124 1.153 5.2 2.31 7.316 3.47a.283.283 0 0 0 .311 0c2.105-1.153 5.163-2.3 7.273-3.447a.219.219 0 0 0 .133-.3c-.294-1.121-.491-1.113-1.655-1.117-1.391-.001-4.512.003-5.904.003z" transform="translate(881.909 379.189)" style="fill:#4c466e"/>
    </g>
</svg>
