<svg xmlns="http://www.w3.org/2000/svg" width="42" height="42" viewBox="0 0 42 42">
    <g transform="translate(-1023 -804)">
        <circle data-name="Ellipse 370" cx="21" cy="21" r="21" transform="translate(1023 804)" style="fill:#f0f3ff"/>
        <path data-name="Path 24208" d="M458.569 132.407a4.224 4.224 0 0 0-.022-1.11 3.994 3.994 0 0 0-.561-.922 9.425 9.425 0 0 1 2.322-12.547 9.313 9.313 0 0 1 6.042-1.918 9.45 9.45 0 0 1 2.537 18.442 9.2 9.2 0 0 1-6.4-.231.412.412 0 0 0-.381.014c-.462.24-.924.48-1.4.693a1.507 1.507 0 0 1-2.091-1.047 2.041 2.041 0 0 1-.042-.424c-.008-.318-.004-.634-.004-.95zm1.356-.221v1.154c0 .268.094.327.332.209.516-.256 1.037-.5 1.544-.776a.953.953 0 0 1 .916-.023 7.856 7.856 0 0 0 5.05.509 8.1 8.1 0 0 0-1.7-16 7.746 7.746 0 0 0-5.221 1.874 7.9 7.9 0 0 0-2.826 7.612 7.57 7.57 0 0 0 1.655 3.667 1.052 1.052 0 0 1 .254.734c-.014.344-.004.692-.004 1.039z" transform="translate(577.973 699.596)" style="stroke:#6371dd;stroke-width:.4px;fill:#6371dd"/>
        <path data-name="Path 24209" d="M523.059 207.115a2.671 2.671 0 0 1 .32.193c.6.494 1.195.993 1.791 1.49a.412.412 0 0 0 .641.007c.722-.567 1.442-1.139 2.169-1.7a.544.544 0 0 1 .349-.121.44.44 0 0 1 .3.626c-.031.076-.072.147-.109.219l-2.186 4.206c-.189.363-.379.419-.7.206l-2.408-1.606c-.265-.177-.365-.17-.611.039l-2.179 1.848a.382.382 0 0 1-.649-.264.573.573 0 0 1 .077-.34q1.427-2.279 2.872-4.544a1.284 1.284 0 0 1 .323-.259z" transform="translate(519.444 615.304)" style="fill:#6371dd"/>
    </g>
</svg>
