<svg xmlns="http://www.w3.org/2000/svg" width="42" height="42" viewBox="0 0 42 42">
    <g transform="translate(-1080 -804)">
        <circle data-name="Ellipse 371" cx="21" cy="21" r="21" transform="translate(1080 804)" style="fill:#eff9ff"/>
        <path data-name="Tweet" d="M145.211 125.623c-.59-.539-1.176-1.026-1.706-1.568a6.389 6.389 0 0 1-1.909-3.431 10.434 10.434 0 0 1-.086-2.364c.068-.99.256-1.972.394-2.958a1.607 1.607 0 0 1 .045-.17 1.018 1.018 0 0 1 1.878-.454 9.342 9.342 0 0 0 5.271 3.073c.093.019.187.031.3.05a4.7 4.7 0 0 1 .779-2.237 4.638 4.638 0 0 1 6.527-1.151.646.646 0 0 0 .585.153c.622-.157 1.256-.271 1.871-.45a.959.959 0 0 1 1.261 1.043 5.07 5.07 0 0 1-.8 2.152c-.292.4-.568.82-.825 1.247a1.372 1.372 0 0 0-.2.592 11.112 11.112 0 0 1-2.389 6.287 10.638 10.638 0 0 1-6.649 4.017 11.472 11.472 0 0 1-7.519-1.082c-.26-.134-.516-.279-.765-.434a.983.983 0 0 1-.474-1.129.959.959 0 0 1 .981-.683 8.107 8.107 0 0 0 2.5-.192c.319-.09.619-.207.93-.311zm12.649-9.173a4.4 4.4 0 0 0-.54.073 1.618 1.618 0 0 1-1.657-.441 2.626 2.626 0 0 0-3.093-.186 2.572 2.572 0 0 0-1.161 2.757.977.977 0 0 1-1.067 1.219 11.461 11.461 0 0 1-6.585-2.561c-.059-.047-.124-.087-.221-.155-.03.325-.079.614-.08.9a15.905 15.905 0 0 0 .044 2.163 4.457 4.457 0 0 0 1.282 2.362 11.656 11.656 0 0 0 2.739 2.141.964.964 0 0 1 .062 1.722c-.39.275-.805.516-1.219.756-.223.129-.465.225-.749.359a9.93 9.93 0 0 0 3.732-.041 8.644 8.644 0 0 0 5.238-3.2 9.758 9.758 0 0 0 2.1-5.678 2.064 2.064 0 0 1 .295-.865c.253-.437.558-.843.88-1.324z" transform="translate(951.741 703.956)" style="fill:#3ab9fc;stroke:#fff;stroke-width:.2px"/>
    </g>
</svg>
