<svg width="50" height="46" viewBox="0 0 50 46" fill="none" xmlns="http://www.w3.org/2000/svg">
<g clip-path="url(#clip0_147_1774)">
<path d="M18.4661 44.982C18.6891 43.6639 18.8335 42.2654 19.1809 40.9214C19.5153 39.6291 19.3309 38.6901 18.2217 37.8329C17.1839 37.0288 16.3148 36.0065 15.3627 35.0862C15.064 34.799 14.8496 34.4874 15.0011 34.0452C15.1526 33.6029 15.5085 33.4622 15.9503 33.4005C17.6971 33.1621 19.4382 32.8907 21.1835 32.6438C21.3141 32.6308 21.4384 32.5815 21.5425 32.5013C21.6465 32.4211 21.7262 32.3133 21.7725 32.1901C22.5387 30.6006 23.3292 29.0212 24.0997 27.4331C24.2826 27.0541 24.5085 26.7612 24.9573 26.7511C25.4419 26.7411 25.6807 27.0383 25.8736 27.4403C26.637 29.0197 27.4289 30.5719 28.1765 32.1513C28.3395 32.4959 28.5596 32.6093 28.9027 32.6567C30.6309 32.8979 32.3548 33.1621 34.0831 33.4034C34.5119 33.4622 34.8293 33.6273 34.9708 34.0538C35.1123 34.4802 34.9193 34.7789 34.6363 35.0589C33.3712 36.2951 32.1147 37.5386 30.8382 38.7633C30.7227 38.8562 30.6361 38.9803 30.5885 39.121C30.5409 39.2616 30.5343 39.413 30.5694 39.5574C30.8839 41.2976 31.1784 43.0436 31.48 44.7867C31.5529 45.2016 31.5029 45.5778 31.1327 45.8377C30.7624 46.0976 30.4336 46.0172 30.0777 45.8277C28.5382 45.0092 26.9886 44.2095 25.4577 43.3753C25.1232 43.1943 24.873 43.1757 24.5314 43.3623C22.9847 44.2052 21.4251 45.0207 19.8641 45.8363C19.1351 46.2211 18.4447 45.8248 18.4661 44.982ZM29.473 43.4829C29.2272 42.0571 29.027 40.7548 28.7697 39.4626C28.6339 38.782 28.7697 38.2752 29.2986 37.7956C30.1992 36.9886 31.0455 36.1056 31.9031 35.2513C31.9903 35.1637 32.1533 35.1077 32.1204 34.9167C30.7095 34.7071 29.3044 34.486 27.8935 34.2964C27.6811 34.278 27.4779 34.2012 27.3059 34.0746C27.134 33.948 27 33.7764 26.9186 33.5785C26.3625 32.4212 25.7907 31.2711 25.2218 30.121C25.1546 29.986 25.1446 29.8066 24.9359 29.7376C24.3084 31.0184 23.6765 32.2934 23.059 33.5756C22.856 33.9963 22.5716 34.2663 22.0841 34.2936C21.8725 34.3051 21.6553 34.3567 21.4509 34.3883L17.9358 34.9081C18.6891 35.7179 19.3767 36.6311 20.2358 37.3332C21.2136 38.1301 21.3965 38.9916 21.0935 40.1547C20.819 41.21 20.7132 42.3084 20.5217 43.4858C21.8268 42.798 23.0476 42.1806 24.2383 41.5158C24.7629 41.2287 25.2104 41.2158 25.7364 41.5158C26.9314 42.1706 28.1508 42.788 29.473 43.4829Z" fill="#656565"/>
<path d="M25.8563 12.8853C27.493 12.9642 29.1441 12.9671 30.7394 13.3792C33.7941 14.1718 35.5324 16.2911 36.3257 19.2733C36.6859 20.6287 36.6516 22.0387 36.836 23.42C37.1219 25.5637 37.3764 27.7132 37.6451 29.8597C37.7295 30.5375 37.4407 31.0012 36.9004 31.0587C36.36 31.1161 35.9941 30.7385 35.8997 30.0536C35.4437 26.7942 35.0821 23.5248 34.7261 20.254C34.3974 17.2387 32.296 15.2759 29.2942 14.9184C26.2645 14.5747 23.2052 14.5872 20.1784 14.9557C17.6883 15.2429 15.7928 17.009 15.1567 19.6251C14.8708 20.8326 14.8837 22.0746 14.7393 23.298C14.4677 25.5953 14.2204 27.8826 13.9459 30.1728C13.8673 30.8275 13.4656 31.1463 12.9139 31.0687C12.3621 30.9912 12.1062 30.5518 12.1891 29.8985C12.5894 26.776 12.9324 23.6474 13.2183 20.5124C13.6172 16.169 16.2931 13.5142 20.6101 13.1279C21.8166 13.0202 23.0274 12.9642 24.2353 12.8853H25.8563Z" fill="#656565"/>
<path d="M2.63577 44.9805C2.82446 43.8721 3.00171 42.6688 3.24472 41.4785C3.35908 40.92 3.29189 40.5294 2.83589 40.1288C1.99107 39.3879 1.21916 38.5652 0.405788 37.7812C0.107029 37.4941 -0.105959 37.1839 0.0427059 36.7403C0.191371 36.2966 0.545876 36.1501 0.986153 36.0913C2.22121 35.9276 3.45199 35.7294 4.68705 35.5614C4.80028 35.5527 4.90873 35.512 4.99982 35.4439C5.09091 35.3757 5.1609 35.2831 5.20167 35.1766C5.74201 34.0509 6.30236 32.9353 6.8427 31.8096C7.03425 31.4133 7.27154 31.1017 7.7547 31.1089C8.23786 31.1161 8.46943 31.432 8.65383 31.8268C9.18417 32.9381 9.74595 34.0323 10.2749 35.1436C10.3245 35.2652 10.4082 35.3698 10.5157 35.4448C10.6233 35.5197 10.7501 35.5617 10.8809 35.5657C12.1346 35.728 13.3825 35.9233 14.6347 36.0999C15.0178 36.1544 15.3223 36.3239 15.4467 36.7C15.571 37.0762 15.4553 37.4309 15.1608 37.7195C14.2745 38.581 13.4097 39.4554 12.5091 40.2954C12.2075 40.5826 12.1532 40.8324 12.2318 41.2301C12.4677 42.4219 12.6378 43.6265 12.8522 44.8197C12.9265 45.2318 12.8422 45.5678 12.512 45.8248C12.1818 46.0818 11.843 46.0344 11.5113 45.855C10.3935 45.2648 9.27423 44.6804 8.16639 44.0731C8.04945 43.9972 7.9132 43.9569 7.774 43.9569C7.63479 43.9569 7.49855 43.9972 7.38161 44.0731C6.25805 44.6867 5.1259 45.2854 3.98519 45.8693C3.29618 46.2154 2.63148 45.809 2.63577 44.9805ZM7.75184 34.0064C7.31299 34.8923 6.89416 35.6978 6.51535 36.5163C6.44074 36.7075 6.31455 36.8741 6.15093 36.9974C5.98732 37.1207 5.79275 37.1957 5.58905 37.2141C4.68276 37.3289 3.78077 37.4797 2.91165 37.6104C3.56063 38.2938 4.19103 38.9701 4.83572 39.6306C4.9796 39.7635 5.08563 39.9326 5.14291 40.1203C5.2002 40.3081 5.20666 40.5078 5.16164 40.6989C4.98867 41.5963 4.85145 42.5008 4.6842 43.4887C5.56046 43.0292 6.35667 42.6358 7.12716 42.1964C7.31354 42.0763 7.53036 42.0124 7.75184 42.0124C7.97331 42.0124 8.19013 42.0763 8.37651 42.1964C9.14843 42.6272 9.94894 43.0235 10.8195 43.4887C10.6637 42.5741 10.5422 41.7485 10.3749 40.9329C10.252 40.3327 10.3749 39.879 10.8466 39.4497C11.4699 38.8753 12.0245 38.2278 12.6049 37.6147C11.7558 37.4898 10.8781 37.3404 9.99611 37.2399C9.47292 37.1811 9.16415 36.9197 8.94973 36.4574C8.57664 35.6461 8.17353 34.8579 7.75184 34.0064Z" fill="#656565"/>
<path d="M50.0005 37.0102C49.9698 37.2974 49.8325 37.5625 49.616 37.7525C48.7183 38.6227 47.8335 39.5057 46.93 40.3701C46.8269 40.4492 46.7491 40.5568 46.7062 40.6798C46.6632 40.8028 46.6571 40.9357 46.6884 41.0621C46.9186 42.2553 47.103 43.4571 47.3131 44.6517C47.3903 45.0925 47.4175 45.5133 47.0086 45.8191C46.5998 46.1249 46.2067 45.9742 45.8108 45.7602C44.763 45.1959 43.7009 44.6517 42.6659 44.0745C42.5413 43.9948 42.3962 43.9534 42.2485 43.9551C42.1007 43.9569 41.9567 44.0019 41.834 44.0846C40.7576 44.6747 39.6626 45.2333 38.5819 45.8076C38.2074 46.0086 37.8429 46.0948 37.4827 45.8176C37.1224 45.5405 37.0838 45.1916 37.1639 44.7623C37.3955 43.5332 37.5799 42.2955 37.8086 41.0665C37.8385 40.9387 37.8312 40.805 37.7876 40.6813C37.744 40.5576 37.666 40.4491 37.5627 40.3686C36.6736 39.5157 35.8059 38.6456 34.9168 37.7841C34.5909 37.474 34.3993 37.1308 34.5551 36.6886C34.6981 36.2693 35.054 36.1372 35.4771 36.0827C36.7122 35.919 37.9415 35.7165 39.1766 35.5557C39.299 35.5436 39.4154 35.4966 39.5121 35.4203C39.6088 35.344 39.6819 35.2415 39.7226 35.125C40.2573 34.0179 40.8148 32.9209 41.3451 31.8096C41.5352 31.4104 41.7739 31.0917 42.2471 31.0917C42.7202 31.0917 42.9618 31.4076 43.1562 31.801C43.6823 32.8937 44.234 33.9734 44.7487 35.0718C44.8008 35.2108 44.8926 35.3311 45.0127 35.4178C45.1328 35.5044 45.2756 35.5534 45.4234 35.5586C46.677 35.7136 47.9264 35.9061 49.1757 36.0956C49.6732 36.1889 50.0048 36.5651 50.0005 37.0102ZM37.4012 37.609C37.9587 38.202 38.4876 38.8309 39.088 39.3793C39.5954 39.8431 39.7555 40.3299 39.6026 40.999C39.4225 41.7858 39.3267 42.5913 39.1737 43.4815C40.0786 43.0063 40.8891 42.5928 41.6767 42.162C41.8454 42.0613 42.038 42.0081 42.2342 42.0081C42.4305 42.0081 42.6231 42.0613 42.7917 42.162C43.1977 42.3831 43.6075 42.5975 44.0211 42.8053C44.4328 43.012 44.813 43.292 45.299 43.4356C45.1446 42.5181 45.0274 41.6494 44.843 40.7965C44.7301 40.2767 44.8745 39.9106 45.2361 39.5516C45.8665 38.9285 46.4626 38.2709 47.0944 37.6118C46.2925 37.4984 45.4734 37.3634 44.6486 37.273C44.0454 37.2084 43.6394 36.9556 43.3892 36.3713C43.0562 35.5945 42.6516 34.8464 42.2457 34.0093C41.8168 34.8708 41.4194 35.6663 41.0406 36.4703C40.8348 36.9011 40.5432 37.1725 40.04 37.2313C39.1394 37.3304 38.2503 37.4826 37.4012 37.609Z" fill="#656565"/>
<path d="M24.1362 12.6914C21.2773 12.0438 19.7263 10.058 19.0259 7.3687C17.8537 2.87595 21.516 -0.568627 25.8702 0.0775005C28.4861 0.466613 30.2544 2.06614 30.8247 4.45394C31.6152 7.75637 29.1437 12.1299 25.6429 12.6914H24.1362ZM29.2137 5.75338C29.192 5.44998 29.1539 5.148 29.0993 4.8488C28.6405 2.87739 26.7907 1.61385 24.6194 1.77466C22.448 1.93548 20.9099 3.21051 20.6169 5.0613C20.3095 7.04133 21.496 9.51241 23.2328 10.5074C24.312 11.1234 25.4127 11.1507 26.4763 10.5074C28.2302 9.44205 29.0979 7.84109 29.2137 5.75338Z" fill="#656565"/>
<path d="M32.686 30.1095C32.6975 30.625 32.3901 31.0227 31.8941 31.0672C31.3395 31.116 30.9535 30.7686 30.9063 30.1181C30.7462 27.9414 30.6019 25.7632 30.4532 23.5851C30.406 22.9074 30.3603 22.2282 30.3217 21.549C30.2831 20.8699 30.5833 20.4736 31.1179 20.4305C31.6525 20.3875 32.0213 20.7881 32.0671 21.4227C32.2715 24.2958 32.4745 27.1704 32.686 30.1095Z" fill="#656565"/>
<path d="M19.4301 21.6395C19.2343 24.4724 19.0485 27.1833 18.8584 29.8927C18.8495 30.0373 18.8319 30.1811 18.8055 30.3235C18.7758 30.547 18.6601 30.7499 18.4832 30.8887C18.3063 31.0275 18.0822 31.0911 17.8592 31.0658C17.6428 31.0532 17.4399 30.956 17.294 30.7949C17.1481 30.6339 17.0708 30.4219 17.0787 30.2043C17.0872 29.6156 17.1416 29.0269 17.183 28.4397C17.3507 26.0677 17.5189 23.6961 17.6876 21.3251C17.6849 21.1256 17.7505 20.9313 17.8733 20.7745C17.9961 20.6177 18.1687 20.5079 18.3623 20.4636C18.7269 20.3616 19.0227 20.5052 19.2615 20.7852C19.5002 21.0652 19.4316 21.427 19.4301 21.6395Z" fill="#656565"/>
<path d="M24.1367 12.6914H25.6434C25.6434 12.835 25.7863 12.8135 25.8564 12.8852H24.2396L24.1367 12.6914Z" fill="#656565"/>
</g>
<defs>
<clipPath id="clip0_147_1774">
<rect width="50" height="46" fill="white"/>
</clipPath>
</defs>
</svg>
