<svg width="36" height="36" viewBox="0 0 36 36" fill="none" xmlns="http://www.w3.org/2000/svg">
<g id="Layer_1" clip-path="url(#clip0_147_1769)">
<path id="Vector" d="M33.3286 36H15.0462C14.9829 35.8765 14.8513 35.8932 14.7463 35.8582C13.6033 35.4809 12.8436 34.7249 12.5803 33.5432C12.3171 32.3615 12.2471 31.1581 12.1055 29.9614C12.0672 29.6442 11.9639 29.5958 11.6806 29.5975C8.89377 29.6075 6.10578 29.6075 3.31669 29.5975C1.73886 29.5975 0.615893 28.7763 0.129384 27.2925C0.102726 27.2107 0.107724 27.1023 -0.00390625 27.0672V2.53199C0.107724 2.49861 0.102726 2.38845 0.129384 2.30667C0.5959 0.886295 1.67222 0.0217212 3.14341 0.0117069C6.77556 -0.0127727 10.4077 -0.0127727 14.0399 0.0117069C14.7684 -0.00300201 15.478 0.244874 16.0394 0.710199C16.6009 1.17552 16.9769 1.82735 17.0989 2.54701C17.3171 3.68364 17.4321 4.83864 17.5587 5.99029C17.5937 6.31576 17.6754 6.40755 18.0103 6.40755C22.8853 6.39531 27.7599 6.39253 32.6338 6.39921C34.0084 6.39921 35.0381 6.97337 35.6845 8.20514C35.8195 8.46217 35.8195 8.76427 35.9961 8.99961V33.4697C35.8761 33.5148 35.8845 33.6366 35.8561 33.7268C35.6657 34.3549 35.2892 34.9102 34.7765 35.3191C34.35 35.6762 33.8268 35.8047 33.3286 36ZM16.0942 33.8903H32.5572C33.5219 33.8903 33.8901 33.5215 33.8901 32.5551V9.85584C33.8901 8.88778 33.5219 8.52059 32.5572 8.52059H17.8953C17.8953 8.5957 17.8953 8.64243 17.9086 8.68749C18.2841 11.7063 18.66 14.7256 19.0366 17.7455C19.4681 21.2288 19.8913 24.7138 20.3362 28.1972C20.3745 28.4151 20.3614 28.639 20.2977 28.8509C20.234 29.0627 20.1217 29.2567 19.9696 29.4172C19.4598 29.9814 18.9699 30.5656 18.4701 31.1414L16.0942 33.8903ZM18.1236 27.4945C17.8486 25.293 17.5737 23.1232 17.3038 20.9534C16.9406 18.0381 16.5802 15.1228 16.2225 12.2075C15.8526 9.23884 15.4833 6.26624 15.1145 3.28975C15.0129 2.47191 14.628 2.1214 13.7966 2.1214H3.42498C2.48195 2.1214 2.10874 2.49528 2.10874 3.4383V26.1726C2.10874 27.1189 2.48196 27.4945 3.42165 27.4945H18.1236ZM14.5347 32.4683L17.0089 29.6025C16.0825 29.6025 15.2412 29.6025 14.4014 29.6025C14.2748 29.6025 14.1765 29.6025 14.1998 29.7811C14.3131 30.6457 14.4164 31.5119 14.5347 32.4683Z" fill="#656565"/>
<path id="Vector_2" d="M31.7093 16.946C31.7099 17.084 31.6833 17.2208 31.631 17.3484C31.5787 17.4761 31.5017 17.5921 31.4045 17.6898C31.3072 17.7876 31.1917 17.8651 31.0644 17.9179C30.9371 17.9707 30.8007 17.9977 30.663 17.9975C30.473 17.9975 30.3747 18.0426 30.3147 18.2362C29.8397 19.746 29.082 21.1513 28.0821 22.3771C27.9155 22.5774 27.9305 22.6759 28.1338 22.8361C28.8435 23.3936 29.5367 23.9694 30.2331 24.5419C30.3932 24.6621 30.5156 24.8256 30.5861 25.0131C30.6565 25.2007 30.672 25.4045 30.6307 25.6006C30.5894 25.7966 30.493 25.9768 30.3529 26.1198C30.2128 26.2629 30.0348 26.3628 29.8399 26.4079C29.6679 26.4486 29.4886 26.4459 29.318 26.4002C29.1473 26.3544 28.9906 26.2671 28.8619 26.1459C28.1288 25.5467 27.3907 24.9508 26.6676 24.3366C26.4876 24.1847 26.3827 24.1897 26.2061 24.3366C25.473 24.9575 24.7349 25.5717 23.9801 26.1642C23.3137 26.685 22.4456 26.4063 22.254 25.6301C22.1407 25.1712 22.314 24.8056 22.6705 24.5152C23.3703 23.9461 24.0618 23.3686 24.7699 22.8094C24.9515 22.6659 24.9481 22.5708 24.8115 22.4005C23.8044 21.1643 23.0395 19.7486 22.5573 18.2279C22.5457 18.1558 22.5069 18.0909 22.4489 18.0468C22.3908 18.0027 22.3181 17.9826 22.2457 17.9908C21.6009 17.9708 21.1627 17.5268 21.166 16.9377C21.1694 16.3485 21.6359 15.8945 22.2923 15.8895C23.2304 15.8895 24.1667 15.8795 25.1048 15.8895C25.3413 15.8895 25.403 15.8227 25.3863 15.5974C25.3697 15.329 25.3697 15.0597 25.3863 14.7913C25.3863 14.5124 25.4969 14.2449 25.6938 14.0477C25.8906 13.8505 26.1576 13.7397 26.436 13.7397C26.7144 13.7397 26.9814 13.8505 27.1782 14.0477C27.3751 14.2449 27.4857 14.5124 27.4857 14.7913C27.5015 15.072 27.5015 15.3534 27.4857 15.6341C27.4757 15.8328 27.5356 15.8895 27.7356 15.8862C28.6964 15.8761 29.6572 15.8761 30.618 15.8862C30.7599 15.8807 30.9015 15.9042 31.0341 15.9551C31.1668 16.006 31.2878 16.0834 31.3898 16.1824C31.4918 16.2815 31.5727 16.4002 31.6276 16.5314C31.6825 16.6627 31.7103 16.8037 31.7093 16.946ZM24.7116 18.0142C25.0541 18.9502 25.5251 19.8339 26.1111 20.6397C26.4327 21.0836 26.4443 21.0836 26.7526 20.6497C27.3405 19.8418 27.8112 18.9545 28.1504 18.0142H24.7116Z" fill="#656565"/>
<path id="Vector_3" d="M9.54946 7.46069C9.88269 7.46069 10.2059 7.46069 10.5341 7.46069C11.1489 7.47571 11.5488 7.7945 11.6704 8.3987C12.3702 11.8726 13.0655 15.3459 13.7564 18.8187C13.7904 18.9587 13.7954 19.1043 13.7713 19.2464C13.7471 19.3885 13.6943 19.5242 13.616 19.6451C13.5378 19.7661 13.4357 19.8698 13.316 19.9498C13.1964 20.0299 13.0617 20.0847 12.9202 20.1109C12.7787 20.137 12.6333 20.134 12.493 20.1019C12.3527 20.0699 12.2205 20.0095 12.1043 19.9244C11.9881 19.8394 11.8904 19.7316 11.8172 19.6074C11.7441 19.4833 11.697 19.3455 11.6788 19.2025C11.4805 18.2412 11.2856 17.2781 11.1106 16.3117C11.0556 16.0113 10.9757 15.8644 10.6108 15.8844C9.8627 15.9228 9.11127 15.9045 8.36152 15.8844C8.15325 15.8844 8.08994 15.9445 8.05162 16.1448C7.86168 17.1546 7.65508 18.1627 7.44848 19.1708C7.31852 19.8118 6.78203 20.204 6.21388 20.0938C5.59408 19.9753 5.25086 19.4128 5.38082 18.7369C6.07282 15.3097 6.76315 11.8843 7.45181 8.46046C7.5901 7.7678 7.96498 7.45902 8.67475 7.45902C8.96465 7.45736 9.25623 7.46069 9.54946 7.46069ZM10.5958 13.7748C10.3192 12.4095 10.0493 11.0926 9.78439 9.75732C9.75606 9.61211 9.70941 9.56204 9.56279 9.56705C9.41617 9.57205 9.35453 9.58708 9.33287 9.74731C9.29455 10.0244 9.2229 10.2964 9.16625 10.5702C8.95466 11.6333 8.74306 12.6982 8.52813 13.7764L10.5958 13.7748Z" fill="#656565"/>
</g>
<defs>
<clipPath id="clip0_147_1769">
<rect width="36" height="36" fill="white"/>
</clipPath>
</defs>
</svg>
