<svg width="46" height="44" viewBox="0 0 46 44" fill="none" xmlns="http://www.w3.org/2000/svg">
<g id="Layer_1" clip-path="url(#clip0_147_1784)">
<path id="Vector" d="M0 9.55707C0.242506 9.19913 0.621814 9.0962 1.01822 9.03321C1.29959 8.99327 1.57629 8.87959 1.85611 8.87959C2.39397 8.87959 2.46704 8.59845 2.44061 8.14986C2.40641 7.53536 2.42351 6.90703 2.44061 6.28638C2.44791 6.24766 2.44703 6.20788 2.43803 6.16951C2.42903 6.13115 2.41209 6.09504 2.3883 6.06344C2.36451 6.03185 2.33437 6.00546 2.29976 5.98593C2.26516 5.96639 2.22684 5.95414 2.18722 5.94994C1.72086 5.83011 1.2716 5.68417 0.809907 5.55973C0.436821 5.45988 0.197424 5.24173 0.188096 4.84998C0.178769 4.45824 0.401067 4.23547 0.771044 4.11257C4.94028 2.75861 9.10694 1.40108 13.271 0.0399554C13.5158 -0.0317364 13.7781 -0.0181784 14.0141 0.0783619L26.2606 4.05573C26.6539 4.18478 26.9804 4.37374 26.9664 4.84998C26.9524 5.32622 26.6197 5.49213 26.2202 5.60428C24.9999 5.9484 23.7843 6.30789 22.5609 6.64279C22.2826 6.71807 22.1955 6.83483 22.2002 7.12672C22.222 8.67988 22.2002 10.233 22.2282 11.7877C22.2282 12.2855 22.0727 12.625 21.5753 12.751C21.2348 12.8355 21.3872 13.0367 21.4416 13.2118C22.6712 17.2783 20.6317 21.6613 16.7189 23.2805C11.7087 25.3483 6.386 22.1513 5.48748 17.074C5.24262 15.758 5.33453 14.4024 5.75486 13.1304C5.83103 12.8984 5.79994 12.8001 5.54966 12.7356C5.1004 12.6188 4.91697 12.3177 4.92785 11.8461C4.9434 10.2776 4.92785 8.70906 4.92785 7.14054C4.92785 6.78874 4.37599 6.39084 4.03555 6.50453C3.85367 6.56598 3.94539 6.7319 3.94539 6.84558C3.94539 8.16216 3.92052 9.48026 3.94539 10.7953C3.95938 11.3929 3.76662 11.7678 3.16813 11.9767C2.53699 12.1979 1.93383 12.499 1.31824 12.7632C0.702648 13.0275 0.405734 12.966 0.00311209 12.4744L0 9.55707ZM13.5524 22.4463C18.1087 22.4555 21.4198 17.9097 20.0068 13.6051C19.9026 13.2887 19.7767 13.2871 19.5046 13.3685C17.7201 13.9032 15.9292 14.4132 14.1446 14.9493C13.7608 15.0675 13.3491 15.0632 12.9679 14.9371C11.1988 14.404 9.42043 13.9032 7.65294 13.3655C7.32182 13.2641 7.22389 13.3409 7.13683 13.6497C6.86359 14.6034 6.78486 15.6014 6.90521 16.5855C7.30317 19.8715 10.2055 22.4463 13.5524 22.4463ZM23.6568 4.81004C23.5651 4.76078 23.4706 4.71667 23.3739 4.67792C20.2026 3.64248 17.0314 2.60807 13.8602 1.57468C13.6623 1.51305 13.4491 1.51955 13.2554 1.59311C10.7371 2.41245 8.21671 3.23179 5.69423 4.05113C4.97604 4.28464 4.25785 4.52122 3.44172 4.79007C6.35646 5.62733 9.17637 6.3847 11.9574 7.26344C13.114 7.62907 14.1773 7.67977 15.2826 7.21889C15.5493 7.12348 15.8212 7.04295 16.0971 6.9777L23.6568 4.81004ZM20.7436 9.35736H20.7343C20.7343 8.78126 20.7141 8.20363 20.7343 7.62753C20.7514 7.25729 20.669 7.1851 20.2928 7.29724C18.2486 7.91175 16.1935 8.47555 14.1477 9.0747C13.7638 9.1907 13.353 9.18749 12.971 9.06548C10.9252 8.46019 8.87168 7.88717 6.82437 7.28956C6.49948 7.19431 6.35802 7.18663 6.37201 7.59681C6.4031 8.76591 6.39688 9.93499 6.37201 11.1025C6.37201 11.3914 6.45751 11.5097 6.73421 11.5896C8.91055 12.2112 11.0869 12.8431 13.2632 13.4853C13.4155 13.5466 13.5831 13.5605 13.7436 13.5252C15.9904 12.8657 18.2367 12.2087 20.4824 11.5542C20.5219 11.5497 20.56 11.5374 20.5944 11.5179C20.6288 11.4984 20.6589 11.4722 20.6827 11.4409C20.7066 11.4096 20.7237 11.3738 20.7331 11.3357C20.7425 11.2976 20.744 11.258 20.7374 11.2193C20.7358 10.6033 20.7452 9.98262 20.7452 9.36044L20.7436 9.35736ZM1.47991 10.7707C1.41462 11.1148 1.5794 11.1133 1.83901 10.975C1.92855 10.9243 2.02276 10.8822 2.12038 10.8491C2.33646 10.7799 2.50745 10.6739 2.43128 10.4158C2.34112 10.1086 2.13903 10.3605 2.00534 10.3682C1.77371 10.3774 1.42395 10.3098 1.47991 10.7707Z" fill="#656565"/>
<path id="Vector_2" d="M0.0011172 31.8467C0.203206 31.5271 0.156571 31.1492 0.245179 30.8005C0.61468 29.3415 1.45371 28.0406 2.63598 27.0936C3.81825 26.1466 5.27979 25.6047 6.80062 25.5495C7.2048 25.5388 7.60897 25.5495 8.01315 25.5495C8.52925 25.5495 8.77797 25.7554 8.88524 26.2608C9.34227 28.4116 9.79619 30.5624 10.247 32.7131C10.5849 34.318 10.9217 35.9229 11.2574 37.5278C11.3056 37.7613 11.3694 37.8965 11.6741 37.8903C12.9467 37.8678 14.2193 37.8678 15.492 37.8903C15.7765 37.8903 15.8449 37.7828 15.893 37.5554C16.6734 33.8407 17.4559 30.1261 18.2404 26.4114C18.3958 25.6909 18.5715 25.5618 19.3285 25.5357C20.8209 25.485 22.2619 25.6893 23.5615 26.4575C25.8467 27.8048 27.0654 29.7958 27.081 32.4489C27.1012 35.9823 27.081 39.5157 27.081 43.0491C27.081 43.7373 26.8214 43.9954 26.1374 43.9954C17.7533 43.9954 9.36922 43.9954 0.985135 43.9954C0.535877 43.9954 0.193881 43.8602 0.0664094 43.3932C0.0664094 39.6755 0.0705527 35.9572 0.0788435 32.2384C0.0788435 32.157 0.111487 32.0556 -0.00976562 32.0203L0.0011172 31.8467ZM13.5706 42.5145C17.4491 42.5145 21.3261 42.5145 25.2047 42.5145C25.542 42.5145 25.6182 42.433 25.6182 42.1043C25.6042 38.9073 25.6104 35.7119 25.6088 32.5165C25.6088 29.4762 23.3423 27.1473 20.2675 27.0167C19.6255 26.989 19.6317 26.9906 19.5026 27.602C18.7285 31.2737 17.9512 34.9443 17.1709 38.6139C17.0605 39.1301 16.8522 39.3405 16.3672 39.3436C14.5111 39.3559 12.655 39.3436 10.7973 39.3436C10.3449 39.3436 10.0744 39.1055 9.98273 38.6692C9.85837 38.0762 9.73711 37.4832 9.61275 36.8902C8.94638 33.7245 8.27845 30.5593 7.60897 27.3946C7.56544 27.1872 7.55612 26.9952 7.21568 26.9921C4.04133 26.9537 1.54476 29.3595 1.5401 32.4965C1.5401 35.6919 1.5401 38.8889 1.52922 42.0843C1.52922 42.4515 1.64892 42.5098 1.98159 42.5083C5.84459 42.5098 9.70758 42.5145 13.5706 42.5145Z" fill="#656565"/>
<path id="Vector_3" d="M40.4834 18.3798L44.0588 16.7621C44.948 16.3581 45.3227 16.5517 45.4859 17.498C45.6491 18.4443 45.8139 19.3907 45.9787 20.337C46.0782 20.9054 45.845 21.2465 45.2682 21.3571C44.2718 21.5491 43.2722 21.7319 42.2711 21.9193C42.2602 22.0883 42.4095 22.139 42.5027 22.2266C43.1028 22.7612 43.7153 23.282 44.3122 23.8212C44.7242 24.193 44.7475 24.5709 44.3853 24.9826C43.8148 25.6294 43.2396 26.2716 42.652 26.9045C42.2291 27.3654 41.7472 27.3301 41.3679 26.8308C40.7104 25.9705 40.0637 25.104 39.3471 24.1531C39.2196 24.8029 39.1077 25.3682 38.9988 25.9336C38.3148 29.5182 37.6329 33.1028 36.9531 36.6874C36.8785 37.0853 36.6935 37.3541 36.2893 37.4156C35.8851 37.477 35.6395 37.262 35.4685 36.9301C35.4262 36.8522 35.3784 36.7772 35.3255 36.7058C35.2757 36.6352 35.2276 36.5399 35.1203 36.5691C35.013 36.5983 35.0519 36.7135 35.0472 36.7919C35.0598 37.0995 35.0484 37.4077 35.013 37.7136C34.713 39.1915 33.202 40.3545 31.6102 40.3621C29.9655 40.3621 28.6193 39.3451 28.2602 37.8181C28.0923 37.1007 28.2773 36.4093 28.4156 35.715C30.2686 26.7749 32.1226 17.836 33.9777 8.89801C34.1114 8.24664 34.2886 7.60294 34.385 6.94696C34.741 4.61953 37.0277 3.2369 39.56 4.08952C41.1052 4.61031 42.069 5.70874 42.3659 7.31567C42.5105 8.09301 42.2385 8.84117 42.0986 9.5924C41.5591 12.4821 40.9995 15.3687 40.4508 18.2569C40.4492 18.2876 40.4663 18.3168 40.4834 18.3798ZM38.9522 18.0879C38.9711 18.0422 38.9877 17.9955 39.0019 17.9481C39.6035 14.785 40.1445 11.6095 40.8316 8.46479C41.1581 6.97308 40.0839 5.72871 38.9071 5.41685C37.4428 5.02818 36.0359 5.7241 35.8385 7.26036C35.7748 7.75657 35.638 8.24357 35.5369 8.73517C34.9851 11.396 34.4487 14.0568 33.8736 16.7145C33.7896 17.1093 33.8876 17.1631 34.2482 17.0755C34.7021 16.9803 35.1674 16.9492 35.6302 16.9833C36.8187 17.0454 37.9674 17.4274 38.9522 18.0879ZM35.7437 34.9115C35.7742 34.8438 35.7996 34.7739 35.8198 34.7026C36.396 31.6854 36.9728 28.6676 37.55 25.6494C37.577 25.5508 37.5701 25.4462 37.5305 25.352C37.4908 25.2577 37.4206 25.1791 37.3308 25.1286C35.9147 24.1131 34.357 23.9088 32.6828 24.3036C32.5457 24.3224 32.4193 24.3869 32.3243 24.4863C32.2293 24.5857 32.1716 24.7142 32.1605 24.8505C31.7128 27.0796 31.2371 29.3057 30.7738 31.5302C30.5997 32.3644 30.4318 33.2001 30.2515 34.0819C32.2631 33.3184 34.0803 33.4751 35.7437 34.9115ZM31.5464 38.8873C32.689 38.8873 33.6124 38.0393 33.6124 36.9901C33.6124 36.0176 32.7776 35.2479 31.7299 35.2525C30.623 35.2525 29.6763 36.1497 29.6763 37.1882C29.6779 38.1376 30.5034 38.8843 31.5464 38.8843V38.8873ZM37.892 23.7091C37.92 23.5954 37.9464 23.5124 37.962 23.428C38.0117 23.1822 38.035 22.9287 38.1081 22.689C38.1951 22.4125 38.0863 22.2558 37.8656 22.1037C36.409 21.0913 34.828 20.8747 33.1289 21.3494C33.0124 21.3832 32.9004 21.3924 32.8709 21.546C32.7916 21.9562 32.6999 22.3649 32.602 22.8227C34.5202 22.4324 36.2629 22.709 37.892 23.7091ZM33.244 19.7932C35.055 19.4859 36.737 19.6749 38.2869 20.6197C38.3475 20.6565 38.4081 20.7011 38.4812 20.6289C38.6537 20.4568 38.6211 19.6918 38.4237 19.5412C37.2718 18.6533 35.9784 18.2753 34.5234 18.5119C33.4601 18.6855 33.4601 18.6886 33.244 19.7932ZM40.1243 20.1588C40.4352 20.3355 40.5487 20.7395 40.956 20.6658C42.0442 20.4691 43.1323 20.254 44.2112 20.0513C44.3666 20.0221 44.4101 19.9606 44.3853 19.8177C44.3091 19.3968 44.2298 18.9759 44.1676 18.5519C44.1366 18.3568 44.0479 18.3675 43.8987 18.4351C42.6566 19.0112 41.4115 19.575 40.1259 20.1588H40.1243ZM42.083 25.3252C42.2421 25.1328 42.4118 24.9492 42.5914 24.7753C42.8307 24.5663 42.7981 24.4281 42.5634 24.2283C41.727 23.5186 40.9094 22.7858 40.0761 22.0776C39.9953 22.0069 39.9207 21.8057 39.7652 21.947C39.6704 22.0376 39.7015 22.1851 39.7963 22.308C40.5611 23.3004 41.3151 24.3036 42.0846 25.3252H42.083Z" fill="#656565"/>
<path id="Vector_4" d="M13.5891 24.7092C14.0073 24.7092 14.4332 24.657 14.8327 24.7184C16.1199 24.912 16.6981 26.2332 15.983 27.307C15.9624 27.3464 15.9368 27.383 15.9069 27.4161C15.1296 28.1658 15.0814 29.0645 15.2851 30.0554C15.4405 30.8343 15.4965 31.6347 15.6069 32.4243C15.6216 32.5711 15.5964 32.7191 15.5338 32.8529C15.2229 33.6625 14.8871 34.4691 14.5778 35.2818C14.4005 35.7426 14.0896 36.013 13.5782 36.0238C13.0668 36.0345 12.7496 35.8041 12.5382 35.2756C12.2133 34.4691 11.9055 33.6548 11.5775 32.8483C11.5119 32.6688 11.4958 32.4753 11.5309 32.2876C11.6739 31.16 11.806 30.0308 11.9537 28.9078C11.9748 28.7932 11.9708 28.6755 11.9418 28.5625C11.9128 28.4496 11.8596 28.3442 11.7858 28.2534C11.5402 27.9369 11.3195 27.6005 11.105 27.2655C10.9499 27.0387 10.8547 26.7771 10.828 26.5046C10.8014 26.2322 10.844 25.9574 10.9521 25.7054C11.0603 25.4533 11.2304 25.232 11.4472 25.0615C11.6639 24.891 11.9203 24.7768 12.1931 24.7292C12.6626 24.6309 13.1274 24.7046 13.5891 24.7092ZM13.6 33.7562C13.7974 33.0895 14.2218 32.5426 14.0399 31.8037C13.9 31.2199 13.8844 30.6069 13.8145 30.0078C13.7461 29.4655 13.6684 28.9324 13.5953 28.3824C13.4056 29.3042 13.3388 30.2106 13.1771 31.1077C13.0155 32.0049 13.0046 32.8929 13.6 33.7562ZM13.5269 26.1579C13.216 26.1579 12.9051 26.1487 12.5833 26.1579C12.319 26.1671 12.2258 26.2824 12.3952 26.5266C12.7341 27.0121 13.073 27.4991 13.4041 27.9907C13.5145 28.1566 13.5922 28.1873 13.715 28.0014C14.0446 27.5083 14.3866 27.0228 14.7254 26.5374C14.9135 26.2654 14.7938 26.1625 14.5125 26.1564C14.1845 26.1533 13.8549 26.1579 13.5269 26.1579Z" fill="#656565"/>
</g>
<defs>
<clipPath id="clip0_147_1784">
<rect width="46" height="44" fill="white"/>
</clipPath>
</defs>
</svg>
