<svg xmlns="http://www.w3.org/2000/svg" width="18.588" height="18.161" viewBox="0 0 18.588 18.161">
    <path data-name="Path 24216" d="M362.2 305.811h.246c.612 0 1.223-.011 1.834.007a.988.988 0 0 1 .491.159.649.649 0 0 1 .221.769.719.719 0 0 1-.706.465h-1.852c-.063 0-.126.005-.192.009v6.685h-1.454v-6.68a.288.288 0 0 0-.049-.011h-1.015a2.767 2.767 0 0 1-.461-.025.692.692 0 0 1 .1-1.37c.344-.012.688 0 1.033-.005h.406v-.84a3.5 3.5 0 0 1 3.439-3.456.7.7 0 1 1 .029 1.4 2.042 2.042 0 0 0-1.97 1.578 9.951 9.951 0 0 0-.1 1.315z" transform="translate(-350.819 -296.843)" style="stroke-width:.4px;fill:#7e788b;stroke:#7e788b"/>
    <path data-name="Path 24217" d="M-796.44 21.285v4.716c0 2.67-.7 3.718-3.327 4.173a5.259 5.259 0 0 1-.884.064c-2.447 0-7.507.005-9.953 0-2.652 0-3.7-.705-4.154-3.322a5.194 5.194 0 0 1-.065-.884c-.005-2.455-.005-7.094 0-9.549 0-2.642.738-3.71 3.338-4.141a5.636 5.636 0 0 1 .908-.061h9.883c2.676 0 3.694.658 4.18 3.287a5.331 5.331 0 0 1 .073.93c.006 1.232.001 3.555.001 4.787zm-16.889-.036v4.809c.006 2.115.56 2.678 2.671 2.684 2.478.006 7.569.006 10.047 0 2.112-.005 2.667-.568 2.671-2.684v-9.6c0-2.127-.563-2.68-2.695-2.683h-10c-2.141 0-2.691.56-2.7 2.706.005 1.229.007 3.544.007 4.768z" transform="translate(814.926 -12.18)" style="stroke-width:.2px;fill:#7e788b;stroke:#7e788b"/>
</svg>
