<svg xmlns="http://www.w3.org/2000/svg" width="18.588" height="18.161" viewBox="0 0 18.588 18.161">
    <g data-name="IN H">
        <path data-name="Path 24212" d="M-796.44 21.285v4.716c0 2.67-.7 3.718-3.327 4.173a5.259 5.259 0 0 1-.884.064c-2.447 0-7.507.005-9.953 0-2.652 0-3.7-.705-4.154-3.322a5.194 5.194 0 0 1-.065-.884c-.005-2.455-.005-7.094 0-9.549 0-2.642.738-3.71 3.338-4.141a5.636 5.636 0 0 1 .908-.061h9.883c2.676 0 3.694.658 4.18 3.287a5.331 5.331 0 0 1 .073.93c.006 1.232.001 3.555.001 4.787zm-16.889-.036v4.809c.006 2.115.56 2.678 2.671 2.684 2.478.006 7.569.006 10.047 0 2.112-.005 2.667-.568 2.671-2.684v-9.6c0-2.127-.563-2.68-2.695-2.683h-10c-2.141 0-2.691.56-2.7 2.706.005 1.229.007 3.544.007 4.768z" transform="translate(814.927 -12.181)" style="fill:#2c70dd;stroke:#2c70dd;stroke-width:.2px"/>
        <path data-name="Path 24213" d="M-725.515 89a11.062 11.062 0 0 1 2.832-.062 2.129 2.129 0 0 1 1.784 2.033c.021 1.128.011 2.256 0 3.385a.72.72 0 0 1-.728.717.723.723 0 0 1-.721-.726c-.006-1.052 0-2.105 0-3.158a.742.742 0 0 0-.835-.841h-1.591a.725.725 0 0 0-.753.762v3.2a.722.722 0 0 1-.977.71.681.681 0 0 1-.472-.659q-.008-2.749 0-5.5a.713.713 0 0 1 .7-.7.734.734 0 0 1 .75.649c.004.067.006.127.011.19z" transform="translate(735.076 -81.161)" style="fill:#2c70dd;stroke:#2c70dd;stroke-width:.2px"/>
        <path data-name="Path 24214" d="M-758.929 91.326v-2.4c0-.442.323-.572.752-.575s.7.13.7.564v4.854a.646.646 0 0 1-.446.638.733.733 0 0 1-.778-.129.649.649 0 0 1-.232-.539c.007-.802.005-1.607.004-2.413z" transform="translate(764.118 -80.552)" style="fill:#2c70dd;stroke:#2c70dd;stroke-width:.2px"/>
        <path data-name="Path 24215" d="M-761.819 52.231a1.094 1.094 0 0 1 1.1 1.091 1.1 1.1 0 0 1-1.08 1.089 1.1 1.1 0 0 1-1.1-1.092 1.094 1.094 0 0 1 1.08-1.088z" transform="translate(767.725 -47.495)" style="fill:#2c70dd;stroke:#2c70dd;stroke-width:.2px"/>
    </g>
</svg>
