<svg xmlns="http://www.w3.org/2000/svg" width="18.957" height="16.45" viewBox="0 0 18.957 16.45">
    <path data-name="Mail H" d="M275.254 454.722h-5.949c-2.046-.006-2.947-.528-3.405-2.479a4.425 4.425 0 0 1-.114-.986c-.01-2.265-.009-7.259 0-9.524 0-2.193.829-3.2 3.013-3.438a4.555 4.555 0 0 1 .5-.019h11.932c2.028 0 2.921.517 3.384 2.46a4.437 4.437 0 0 1 .118 1c.01 2.259.009 7.248 0 9.507 0 2.114-.681 3.061-2.767 3.421a4.889 4.889 0 0 1-.81.055c-1.382.006-4.523.003-5.902.003zm7.771-11.471-.2.107c-2.035 1.109-5.038 2.217-7.07 3.329a.959.959 0 0 1-.992 0c-2.033-1.113-5.036-2.22-7.071-3.329l-.2-.105c0 .074-.009.121-.009.169v7.812c0 1.453.334 1.781 1.79 1.783h11.964a2.772 2.772 0 0 0 .7-.09c1.124-.3 1.088-.5 1.091-1.685.005-1.7 0-6.129 0-7.829.004-.043 0-.086-.004-.162zm-7.768-3.274c-1.445 0-4.653-.009-6.1 0-1.135.009-1.37.075-1.614 1.183a.177.177 0 0 0 .1.233c2.163 1.174 5.291 2.352 7.449 3.533a.288.288 0 0 0 .316 0c2.144-1.174 5.257-2.345 7.405-3.51a.223.223 0 0 0 .135-.306c-.3-1.142-.5-1.133-1.685-1.138-1.41.001-4.59.005-6.007.005z" transform="translate(-265.778 -438.274)" style="fill:#4c466e"/>
</svg>
