<svg xmlns="http://www.w3.org/2000/svg" width="19.535" height="19.672" viewBox="0 0 19.535 19.672">
    <g data-name="Messenger H">
        <path data-name="Path 24208" d="M458.591 132.586a4.269 4.269 0 0 0-.022-1.122 4.036 4.036 0 0 0-.567-.932 9.527 9.527 0 0 1 2.347-12.683 9.415 9.415 0 0 1 6.107-1.939 9.552 9.552 0 0 1 2.564 18.642 9.3 9.3 0 0 1-6.473-.233.416.416 0 0 0-.385.015c-.467.243-.934.486-1.414.7a1.523 1.523 0 0 1-2.113-1.058 2.066 2.066 0 0 1-.042-.429c-.006-.322-.002-.641-.002-.961zm1.371-.224v1.166c0 .271.095.331.335.211.522-.259 1.048-.508 1.56-.784a.963.963 0 0 1 .926-.023 7.941 7.941 0 0 0 5.105.514 8.187 8.187 0 0 0-1.719-16.176 7.83 7.83 0 0 0-5.278 1.894 7.988 7.988 0 0 0-2.857 7.7 7.653 7.653 0 0 0 1.673 3.707 1.064 1.064 0 0 1 .257.742c-.012.347-.003.698-.003 1.049z" transform="translate(-456.329 -115.704)" style="stroke:#7651db;stroke-width:.4px;fill:#7651db"/>
        <path data-name="Path 24209" d="M523.094 207.117a2.71 2.71 0 0 1 .323.195c.606.5 1.208 1 1.811 1.507a.417.417 0 0 0 .648.007c.73-.574 1.458-1.152 2.193-1.717a.55.55 0 0 1 .353-.122.445.445 0 0 1 .3.632c-.031.077-.072.148-.11.221l-2.209 4.251c-.191.366-.383.424-.707.208l-2.434-1.624c-.268-.179-.369-.171-.617.04l-2.2 1.868a.386.386 0 0 1-.656-.267.579.579 0 0 1 .077-.344q1.443-2.3 2.9-4.594a1.3 1.3 0 0 1 .328-.261z" transform="translate(-514.807 -199.922)" style="fill:#7651db"/>
    </g>
</svg>
