<svg xmlns="http://www.w3.org/2000/svg" width="18.745" height="15.357" viewBox="0 0 18.745 15.357">
    <path data-name="Tweet H" d="M145 125.053c-.562-.513-1.12-.978-1.625-1.494a6.087 6.087 0 0 1-1.819-3.269 9.941 9.941 0 0 1-.082-2.253c.065-.943.244-1.879.375-2.818a1.535 1.535 0 0 1 .043-.162.97.97 0 0 1 1.789-.433 8.9 8.9 0 0 0 5.022 2.928c.088.018.178.03.284.047a4.481 4.481 0 0 1 .742-2.131 4.419 4.419 0 0 1 6.219-1.1.615.615 0 0 0 .558.145c.593-.15 1.2-.258 1.783-.429a.913.913 0 0 1 1.2.994 4.831 4.831 0 0 1-.76 2.05c-.278.385-.541.782-.786 1.188a1.307 1.307 0 0 0-.194.564 10.587 10.587 0 0 1-2.276 5.99 10.136 10.136 0 0 1-6.335 3.828 10.93 10.93 0 0 1-7.164-1.031 10.407 10.407 0 0 1-.728-.413.936.936 0 0 1-.452-1.076.914.914 0 0 1 .935-.651 7.724 7.724 0 0 0 2.385-.183c.301-.081.594-.193.886-.291zm12.051-8.739a4.192 4.192 0 0 0-.515.07 1.542 1.542 0 0 1-1.578-.42 2.5 2.5 0 0 0-2.947-.178 2.451 2.451 0 0 0-1.106 2.627.931.931 0 0 1-1.016 1.161 10.919 10.919 0 0 1-6.273-2.44c-.056-.045-.118-.083-.21-.148-.029.309-.075.585-.076.86a15.155 15.155 0 0 0 .042 2.061 4.247 4.247 0 0 0 1.221 2.25 11.1 11.1 0 0 0 2.61 2.04.919.919 0 0 1 .059 1.64c-.372.262-.767.492-1.161.72-.212.123-.443.214-.713.342a9.46 9.46 0 0 0 3.556-.039 8.236 8.236 0 0 0 4.991-3.051 9.3 9.3 0 0 0 2-5.409 1.967 1.967 0 0 1 .281-.824c.238-.418.529-.805.836-1.263z" transform="translate(-140.759 -113.544)" style="fill:#3ab9fc"/>
</svg>
